<svg width="49" height="16" viewBox="0 0 49 16" fill="none" xmlns="http://www.w3.org/2000/svg">
<g id="Layer 2">
<g id="Layer 1">
<path id="Vector" d="M16.3385 14.473V14.6279C16.3429 14.77 16.3176 14.9114 16.2642 15.0432C16.2109 15.175 16.1307 15.2942 16.0287 15.3932C15.9209 15.4931 15.7943 15.5706 15.6563 15.6211C15.5182 15.6717 15.3715 15.6942 15.2247 15.6875C15.0644 15.6925 14.9047 15.665 14.7553 15.6065C14.6059 15.5481 14.47 15.46 14.3556 15.3475C14.1377 15.1244 14.0156 14.8248 14.0156 14.5129C14.0156 14.201 14.1377 13.9014 14.3556 13.6783C14.4665 13.5657 14.5994 13.477 14.7459 13.4179C14.8925 13.3587 15.0497 13.3303 15.2077 13.3344C15.405 13.3305 15.5999 13.3781 15.7732 13.4725C15.9465 13.5669 16.0923 13.7048 16.196 13.8727L15.8784 14.0586C15.8094 13.9445 15.711 13.8509 15.5936 13.7876C15.4762 13.7243 15.344 13.6935 15.2108 13.6984C15.1022 13.6947 14.994 13.7134 14.8929 13.7533C14.7919 13.7933 14.7002 13.8537 14.6236 13.9308C14.5477 14.0076 14.488 14.0989 14.4481 14.1992C14.4081 14.2995 14.3888 14.4069 14.3912 14.5148C14.3886 14.6222 14.4078 14.7291 14.4478 14.8288C14.4877 14.9286 14.5475 15.0191 14.6236 15.095C14.7046 15.1724 14.8002 15.2329 14.9049 15.2728C15.0096 15.3127 15.1212 15.3313 15.2332 15.3274C15.6352 15.3274 15.8978 15.1229 15.966 14.8084H15.2046V14.4746L16.3385 14.473Z" fill="#353535"/>
<path id="Vector_2" d="M17.5047 13.7747C17.474 13.744 17.4531 13.705 17.4447 13.6625C17.4362 13.6199 17.4405 13.5758 17.4571 13.5358C17.4737 13.4957 17.5018 13.4614 17.5378 13.4374C17.5739 13.4133 17.6163 13.4004 17.6596 13.4004C17.703 13.4004 17.7454 13.4133 17.7814 13.4374C17.8175 13.4614 17.8456 13.4957 17.8622 13.5358C17.8788 13.5758 17.8831 13.6199 17.8746 13.6625C17.8661 13.705 17.8452 13.744 17.8146 13.7747C17.7943 13.7951 17.7701 13.8113 17.7435 13.8224C17.7169 13.8334 17.6884 13.8391 17.6596 13.8391C17.6308 13.8391 17.6023 13.8334 17.5757 13.8224C17.5492 13.8113 17.525 13.7951 17.5047 13.7747ZM17.4854 15.6484V14.028H17.8355V15.6484H17.4854Z" fill="#353535"/>
<path id="Vector_3" d="M20.1626 14.0273H20.5452L19.9131 15.6478H19.508L18.876 14.0273H19.2586L19.7117 15.2589L20.1626 14.0273Z" fill="#353535"/>
<path id="Vector_4" d="M21.8676 14.9864C21.9195 15.2328 22.1171 15.3691 22.3858 15.3691C22.4668 15.3737 22.5477 15.3577 22.6208 15.3226C22.6939 15.2875 22.757 15.2345 22.8041 15.1685L23.093 15.3366C22.9342 15.5736 22.6972 15.6898 22.3827 15.6898C22.2657 15.6946 22.149 15.6759 22.0393 15.6348C21.9297 15.5937 21.8294 15.531 21.7445 15.4504C21.5893 15.2854 21.5029 15.0674 21.5029 14.8408C21.5029 14.6143 21.5893 14.3963 21.7445 14.2312C21.8243 14.1495 21.9203 14.0854 22.0263 14.043C22.1324 14.0006 22.2461 13.9808 22.3603 13.9849C22.4698 13.9821 22.5786 14.0029 22.6793 14.0461C22.78 14.0893 22.8701 14.1538 22.9435 14.2351C23.0967 14.3992 23.18 14.6164 23.1759 14.8408C23.1754 14.8896 23.171 14.9383 23.1627 14.9864H21.8676ZM22.8173 14.7014C22.8041 14.5887 22.749 14.485 22.6629 14.4111C22.5767 14.3372 22.4659 14.2984 22.3525 14.3025C22.236 14.2964 22.1213 14.3338 22.0308 14.4075C21.9403 14.4813 21.8805 14.586 21.863 14.7014H22.8173Z" fill="#353535"/>
<path id="Vector_5" d="M27.708 13.3789L26.9171 14.7468V15.6477H26.5446V14.7468L25.7529 13.3789H26.1805L26.7343 14.3859L27.2858 13.3789H27.708Z" fill="#353535"/>
<path id="Vector_6" d="M28.9133 15.4391C28.7689 15.2985 28.6778 15.1121 28.6556 14.9118C28.6335 14.7114 28.6817 14.5096 28.792 14.3409C28.9022 14.1722 29.0677 14.047 29.2601 13.9869C29.4525 13.9267 29.6597 13.9353 29.8465 14.0111C30.0332 14.087 30.1878 14.2254 30.2838 14.4026C30.3797 14.5799 30.4111 14.785 30.3725 14.9828C30.3339 15.1806 30.2277 15.3589 30.0721 15.4871C29.9166 15.6152 29.7213 15.6854 29.5198 15.6854C29.4072 15.688 29.2953 15.6675 29.191 15.6251C29.0867 15.5828 28.9922 15.5195 28.9133 15.4391ZM29.5198 15.3454C29.5865 15.3469 29.6527 15.3348 29.7145 15.3097C29.7764 15.2847 29.8324 15.2473 29.8792 15.1998C29.9727 15.1007 30.0248 14.9696 30.0248 14.8334C30.0248 14.6971 29.9727 14.5661 29.8792 14.467C29.7827 14.3736 29.6537 14.3214 29.5194 14.3214C29.3851 14.3214 29.2561 14.3736 29.1596 14.467C29.0661 14.5661 29.014 14.6971 29.014 14.8334C29.014 14.9696 29.0661 15.1007 29.1596 15.1998C29.2063 15.2479 29.2623 15.2859 29.3243 15.3114C29.3862 15.337 29.4528 15.3496 29.5198 15.3485V15.3454Z" fill="#353535"/>
<path id="Vector_7" d="M32.6089 14.0273H32.959V15.6478H32.6089V15.4402C32.5551 15.5228 32.4802 15.5894 32.3919 15.6333C32.3037 15.6771 32.2053 15.6966 32.107 15.6896C31.7336 15.6896 31.4873 15.4371 31.4873 15.0219V14.0273H31.8343V14.9863C31.8343 15.2295 31.9737 15.3627 32.1976 15.3627C32.4439 15.3627 32.6089 15.2078 32.6089 14.898V14.0273Z" fill="#353535"/>
<path id="Vector_8" d="M36.691 13.3792C36.79 13.3764 36.8885 13.394 36.9804 13.4308C37.0723 13.4675 37.1557 13.5227 37.2255 13.593C37.2967 13.6616 37.3528 13.7442 37.3903 13.8357C37.4278 13.9272 37.4458 14.0255 37.4432 14.1243C37.4444 14.2232 37.4258 14.3212 37.3884 14.4127C37.3509 14.5042 37.2955 14.5872 37.2253 14.6568C37.1551 14.7264 37.0717 14.7812 36.9799 14.8178C36.8881 14.8545 36.7899 14.8723 36.691 14.8703H36.2263V15.6448H35.8545V13.3792H36.691ZM36.691 14.5201C36.7929 14.5156 36.8891 14.472 36.9595 14.3983C37.03 14.3247 37.0693 14.2267 37.0693 14.1247C37.0693 14.0228 37.03 13.9248 36.9595 13.8511C36.8891 13.7774 36.7929 13.7338 36.691 13.7293H36.2263V14.5201H36.691Z" fill="#353535"/>
<path id="Vector_9" d="M38.7287 15.4391C38.5843 15.2985 38.4932 15.112 38.4711 14.9117C38.449 14.7113 38.4972 14.5095 38.6075 14.3407C38.7178 14.172 38.8834 14.0469 39.0758 13.9868C39.2682 13.9267 39.4755 13.9353 39.6623 14.0113C39.849 14.0872 40.0036 14.2257 40.0994 14.4031C40.1953 14.5804 40.2265 14.7855 40.1878 14.9834C40.149 15.1812 40.0427 15.3594 39.8871 15.4875C39.7314 15.6156 39.536 15.6855 39.3344 15.6854C39.222 15.688 39.1102 15.6675 39.006 15.6252C38.9018 15.5828 38.8074 15.5195 38.7287 15.4391ZM39.3344 15.3454C39.4012 15.3468 39.4676 15.3347 39.5295 15.3096C39.5914 15.2846 39.6476 15.2472 39.6946 15.1998C39.7881 15.1007 39.8402 14.9696 39.8402 14.8334C39.8402 14.6971 39.7881 14.5661 39.6946 14.467C39.5981 14.3736 39.4691 14.3214 39.3348 14.3214C39.2005 14.3214 39.0715 14.3736 38.975 14.467C38.881 14.5658 38.8285 14.697 38.8285 14.8334C38.8285 14.9698 38.881 15.101 38.975 15.1998C39.0217 15.248 39.0779 15.2861 39.14 15.3117C39.2021 15.3373 39.2688 15.3498 39.336 15.3485L39.3344 15.3454Z" fill="#353535"/>
<path id="Vector_10" d="M43.1374 14.0273H43.5068L42.9979 15.6478H42.6548L42.3179 14.5556L41.977 15.6478H41.6339L41.125 14.0273H41.4945L41.809 15.1451L42.149 14.0273H42.4828L42.8198 15.1451L43.1374 14.0273Z" fill="#353535"/>
<path id="Vector_11" d="M44.8676 14.9866C44.9195 15.2329 45.1171 15.3692 45.3866 15.3692C45.4676 15.3736 45.5483 15.3575 45.6214 15.3225C45.6945 15.2874 45.7576 15.2345 45.8049 15.1686L46.093 15.3367C45.9342 15.5737 45.6972 15.6899 45.3835 15.6899C45.2664 15.6947 45.1495 15.6761 45.0398 15.6349C44.93 15.5938 44.8296 15.5311 44.7445 15.4506C44.5893 15.2855 44.5029 15.0675 44.5029 14.841C44.5029 14.6144 44.5893 14.3964 44.7445 14.2314C44.8247 14.1492 44.9214 14.0848 45.0281 14.0423C45.1349 13.9999 45.2494 13.9804 45.3641 13.9851C45.4737 13.982 45.5826 14.0029 45.6833 14.046C45.784 14.0892 45.8741 14.1538 45.9474 14.2352C46.1006 14.3993 46.1839 14.6165 46.1798 14.841C46.1793 14.8897 46.1751 14.9384 46.1674 14.9866H44.8676ZM45.8173 14.7015C45.8043 14.5887 45.7492 14.485 45.663 14.411C45.5769 14.3371 45.466 14.2984 45.3525 14.3026C45.236 14.2967 45.1214 14.3342 45.031 14.4079C44.9405 14.4816 44.8807 14.5862 44.863 14.7015H45.8173Z" fill="#353535"/>
<path id="Vector_12" d="M47.655 14.2994C47.7425 14.0987 47.9114 13.998 48.1546 13.998V14.3776C48.0299 14.3653 47.9051 14.3998 47.8045 14.4744C47.7038 14.5457 47.655 14.6657 47.655 14.8307V15.6479H47.3057V14.0275H47.655V14.2994Z" fill="#353535"/>
<path id="Vector_13" d="M23.117 10.1069C23.0034 9.68093 23.0886 9.19785 23.3727 8.65771L27.3703 1.05597C27.6285 0.572632 27.9641 0.2628 28.3772 0.126473C28.5822 0.0567965 28.7995 0.0313328 29.015 0.0517599C29.2305 0.0721871 29.4392 0.138041 29.6274 0.244984C29.8199 0.340549 29.9897 0.476286 30.1254 0.643042C30.261 0.809798 30.3593 1.0037 30.4136 1.21166C30.5228 1.62839 30.4322 2.1063 30.1533 2.63224L26.1937 10.1627C25.9187 10.684 25.574 11.0295 25.1658 11.1813C24.9632 11.2616 24.7451 11.2952 24.5278 11.2796C24.3104 11.2641 24.0993 11.1998 23.9102 11.0914C23.716 10.9932 23.5448 10.8551 23.4077 10.6861C23.2706 10.5171 23.1708 10.3211 23.1147 10.1108" fill="#DC000B"/>
<path id="Vector_14" d="M18.7697 10.1069C18.6556 9.68088 18.7408 9.1978 19.0253 8.65766L23.0229 1.05592C23.2811 0.572585 23.6168 0.262752 24.0299 0.126426C24.235 0.0567819 24.4524 0.0313361 24.668 0.0517619C24.8837 0.0721877 25.0925 0.138022 25.2808 0.244937C25.4727 0.341362 25.642 0.477371 25.7776 0.643996C25.9131 0.810621 26.0117 1.00408 26.067 1.21161C26.1755 1.62834 26.0856 2.10625 25.806 2.63219L21.8463 10.1627C21.5721 10.684 21.2267 11.0294 20.8192 11.1812C20.6167 11.2616 20.3986 11.2952 20.1812 11.2797C19.9638 11.2641 19.7527 11.1998 19.5637 11.0914C19.3695 10.9932 19.1982 10.8551 19.0611 10.6861C18.924 10.5171 18.8242 10.321 18.7682 10.1108" fill="#DC000B"/>
<path id="Vector_15" d="M0.993832 0.227082C1.18314 0.121278 1.39339 0.0583866 1.60969 0.0428596C1.826 0.0273325 2.04308 0.0595498 2.24555 0.13723C2.65298 0.292146 2.99922 0.639158 3.27342 1.15503L7.23308 8.68628C7.5127 9.21686 7.59791 9.69323 7.49411 10.1069C7.4404 10.3151 7.34234 10.5093 7.20665 10.6761C7.07096 10.8429 6.90084 10.9785 6.70791 11.0735C6.51919 11.1794 6.31037 11.2446 6.09491 11.2649C5.87945 11.2852 5.66214 11.2601 5.45697 11.1913C5.04024 11.0495 4.70407 10.7366 4.45001 10.2618L0.458596 2.65927C0.174584 2.12222 0.0893796 1.63837 0.202985 1.2077C0.255934 0.99673 0.354076 0.799778 0.490623 0.630465C0.627171 0.461152 0.798865 0.323518 0.993832 0.227082Z" fill="#DC000B"/>
<path id="Vector_16" d="M5.78712 0.227806C5.97696 0.121522 6.18788 0.0583698 6.40489 0.0428402C6.62191 0.0273107 6.83967 0.0597854 7.04271 0.137955C7.45014 0.292871 7.7956 0.639883 8.07058 1.15575L12.0295 8.687C12.3091 9.21759 12.3943 9.69396 12.2905 10.1076C12.2368 10.3158 12.1387 10.51 12.003 10.6768C11.8673 10.8437 11.6972 10.9792 11.5043 11.0743C11.3156 11.1802 11.1068 11.2454 10.8913 11.2656C10.6758 11.2859 10.4585 11.2608 10.2534 11.192C9.83663 11.0502 9.50046 10.7373 9.2464 10.2625L5.25188 2.65999C4.96735 2.1245 4.88215 1.64142 4.99627 1.21075C5.04892 0.999357 5.14692 0.801947 5.28348 0.632214C5.42004 0.462481 5.5919 0.324488 5.78712 0.227806Z" fill="#DC000B"/>
<path id="Vector_17" d="M23.4354 10.7932C23.1418 10.471 22.99 10.0024 22.99 9.40516L22.9854 1.81427C22.9854 1.27206 23.1403 0.839072 23.44 0.526142C23.588 0.370639 23.7668 0.247741 23.965 0.165313C24.1632 0.0828845 24.3765 0.0427408 24.5911 0.0474509C24.8045 0.0414777 25.0167 0.0820322 25.213 0.166299C25.4092 0.250566 25.5847 0.376526 25.7274 0.535437C26.0163 0.857662 26.1588 1.31002 26.1588 1.90412L26.1635 9.41136C26.1635 9.99384 26.0085 10.4586 25.7274 10.78C25.5875 10.9445 25.4121 11.0752 25.2145 11.1622C25.0169 11.2493 24.8022 11.2905 24.5864 11.2827C24.1217 11.2727 23.7344 11.117 23.4354 10.7901" fill="#FF0000"/>
<path id="Vector_18" d="M9.27755 10.1296C9.16137 9.70355 9.24373 9.2197 9.52465 8.67801L13.475 1.05149C13.7267 0.567375 14.0614 0.252121 14.4773 0.111922C14.6816 0.0396732 14.899 0.0121727 15.1148 0.0312833C15.3307 0.0503938 15.5399 0.115669 15.7283 0.222687C15.9217 0.317306 16.0926 0.452373 16.2293 0.61875C16.366 0.785126 16.4653 0.978927 16.5207 1.18704C16.6322 1.60299 16.5454 2.08245 16.2689 2.60994L12.3565 10.1652C12.0854 10.688 11.7415 11.0358 11.3356 11.19C11.133 11.2706 10.9149 11.3046 10.6973 11.2893C10.4798 11.274 10.2686 11.2099 10.0792 11.1017C9.88465 11.0045 9.71268 10.8675 9.57456 10.6994C9.43643 10.5314 9.33523 10.3362 9.27755 10.1265" fill="#FF0000"/>
<path id="Vector_19" d="M4.44713 10.1064C4.33352 9.68042 4.41872 9.19734 4.70274 8.6572L8.70035 1.05546C8.95854 0.572124 9.29419 0.262291 9.7073 0.125965C9.91213 0.054368 10.1299 0.0275523 10.346 0.0473288C10.5621 0.0671052 10.7714 0.133013 10.9598 0.240603C11.1522 0.336292 11.322 0.472068 11.4576 0.638805C11.5932 0.805542 11.6915 0.999377 11.746 1.20728C11.8544 1.624 11.7646 2.10192 11.485 2.62786L7.52531 10.1583C7.25111 10.6796 6.90565 11.0251 6.49744 11.1769C6.29499 11.2572 6.07702 11.2909 5.85977 11.2753C5.64251 11.2598 5.43156 11.1954 5.24262 11.0871C5.04727 10.9905 4.87507 10.8529 4.73779 10.6836C4.6005 10.5144 4.50135 10.3175 4.44713 10.1064Z" fill="#FF0000"/>
<path id="Vector_20" d="M19.8117 0.0332033C20.1265 0.0330501 20.4344 0.126275 20.6962 0.301087C20.9581 0.475899 21.1622 0.724445 21.2828 1.01529C21.4034 1.30613 21.4351 1.62621 21.3737 1.93503C21.3124 2.24385 21.1609 2.52755 20.9383 2.75024C20.7157 2.97293 20.4321 3.12461 20.1233 3.18609C19.8145 3.24757 19.4944 3.21609 19.2035 3.09564C18.9126 2.97518 18.664 2.77116 18.489 2.50938C18.3141 2.2476 18.2207 1.93982 18.2207 1.62497C18.2207 1.20294 18.3883 0.798185 18.6866 0.499694C18.985 0.201202 19.3897 0.0334087 19.8117 0.0332033Z" fill="#FF0000"/>
<path id="Vector_21" d="M14.0526 10.1065C13.939 9.68048 14.0242 9.1974 14.3082 8.65726L16.4251 4.58374C16.6807 4.10118 17.0169 3.78825 17.4321 3.65425C17.637 3.59 17.8527 3.56715 18.0665 3.58703C18.2803 3.60691 18.4881 3.66911 18.6777 3.77002C18.8672 3.87094 19.0348 4.00854 19.1707 4.17484C19.3066 4.34113 19.4081 4.53279 19.4692 4.73866C19.5777 5.15538 19.4878 5.63407 19.2082 6.15924L17.1292 10.1569C16.8543 10.6781 16.5096 11.0236 16.1014 11.1754C15.8989 11.2558 15.6809 11.2894 15.4637 11.2738C15.2464 11.2583 15.0355 11.1939 14.8465 11.0856C14.6519 10.9892 14.4802 10.8522 14.343 10.6838C14.2057 10.5155 14.1062 10.3197 14.051 10.1096" fill="#FF0000"/>
<path id="Vector_22" d="M48.1541 9.42222C48.1541 10.0008 48.0046 10.4625 47.7242 10.7824C47.607 10.9202 47.4648 11.0348 47.3052 11.1201H47.3013L47.285 11.1286C47.0722 11.2338 46.8369 11.2856 46.5995 11.2797C46.1418 11.2704 45.7591 11.1147 45.4656 10.7901C45.172 10.4656 45.0264 10.0039 45.0264 9.41138V8.08839V1.79647C45.0264 1.25427 45.1813 0.827472 45.4748 0.516865C45.6195 0.363202 45.7947 0.241505 45.9892 0.159598C46.1837 0.0776911 46.3932 0.0373856 46.6042 0.0412722C46.6344 0.0412722 46.6646 0.0412722 46.694 0.0412722C46.8896 0.0468901 47.082 0.0926202 47.2592 0.175628C47.4364 0.258637 47.5947 0.377154 47.7242 0.523836C48.0093 0.843738 48.1495 1.29842 48.1495 1.884V3.48738L48.1541 9.42222Z" fill="#353535"/>
<path id="Vector_23" d="M44.176 6.66221C44.176 7.72958 43.6221 8.10758 42.4331 8.10758H38.8329C39.0118 8.68231 39.6307 9.03088 40.5594 9.03088C40.9557 9.02345 41.3475 8.94474 41.7159 8.7985C41.8841 8.72949 42.0668 8.70332 42.2476 8.72234C42.4285 8.74136 42.6017 8.80498 42.7519 8.90748C42.9021 9.00997 43.0245 9.14815 43.1081 9.30962C43.1917 9.47108 43.2339 9.65077 43.231 9.83257C43.231 10.2927 42.9211 10.6846 42.5145 10.8674C41.7694 11.1453 40.9797 11.2844 40.1845 11.2779C37.7059 11.2779 35.8027 9.76285 35.8027 7.18505C35.8027 4.86905 37.5951 3.0302 40.0869 3.0302C42.3348 2.98372 44.2279 4.74125 44.176 6.66221ZM41.3875 6.23541C41.2728 5.75905 40.915 5.28345 40.0838 5.28345C39.3023 5.28345 38.9274 5.72651 38.7973 6.23541H41.3875Z" fill="#353535"/>
<path id="Vector_24" d="M35.9536 10.0348C35.9552 10.2897 35.8705 10.5375 35.7132 10.7381C35.556 10.9387 35.3355 11.0801 35.0876 11.1394C34.7238 11.2386 34.3478 11.2866 33.9707 11.2819C32.2333 11.2819 31.2937 10.4089 31.2937 8.75212V1.40212C31.2876 1.22026 31.3181 1.03902 31.3835 0.869187C31.4488 0.699359 31.5477 0.544419 31.6741 0.413592C31.8006 0.282764 31.9521 0.178726 32.1197 0.107672C32.2872 0.0366174 32.4673 0 32.6493 0C32.8312 0 33.0113 0.0366174 33.1789 0.107672C33.3464 0.178726 33.4979 0.282764 33.6244 0.413592C33.7509 0.544419 33.8497 0.699359 33.9151 0.869187C33.9804 1.03902 34.0109 1.22026 34.0048 1.40212V2.69722H34.7143C35.0309 2.69722 35.3345 2.82298 35.5583 3.04683C35.7822 3.27068 35.9079 3.57428 35.9079 3.89085C35.9079 4.20742 35.7822 4.51102 35.5583 4.73487C35.3345 4.95872 35.0309 5.08448 34.7143 5.08448H34.0032V7.98606C34.0032 8.46707 34.2689 8.8381 34.7127 8.85901H34.9784C35.564 8.89464 35.9536 9.4291 35.9536 10.0348Z" fill="#353535"/>
</g>
</g>
</svg>
