<svg width="53" height="9" viewBox="0 0 53 9" fill="none" xmlns="http://www.w3.org/2000/svg">
<g id="Group 1">
<path id="Vector" d="M44.7666 4.59876C44.7028 4.32446 44.5873 4.09361 44.4135 3.89263L44.4122 3.89127C44.1745 3.62511 43.873 3.44858 43.4887 3.35081C43.133 3.25711 42.6088 3.21094 41.8891 3.21094C41.1028 3.21094 40.5977 3.30328 40.2392 3.43907C40.0789 3.49747 39.9051 3.6224 39.7775 3.74325V3.47981H38.7617V8.80298H39.7829V5.42168C39.7829 4.53901 40.6846 4.19002 41.5835 4.19002H42.0344C42.9333 4.19002 43.8432 4.53901 43.8432 5.42168V8.80298H44.8508V5.90104C44.8481 5.24107 44.8236 4.84048 44.7666 4.59876Z" fill="#E30613"/>
<path id="Vector_2" d="M27.585 3.19588H28.6007C28.6129 2.65134 28.6306 2.13124 28.6903 1.89496C28.7379 1.65868 28.8438 1.4577 28.9972 1.30425C29.1738 1.09241 29.4223 0.937606 29.7414 0.831686C30.0483 0.748851 30.5711 0.678237 31.2555 0.666016L32.2101 0.666016L31.2922 1.56226C31.2596 1.56226 30.935 1.56362 30.9038 1.56362C29.5526 1.56362 29.6463 2.42864 29.6463 3.19588H32.0227L31.0613 4.17496H29.6219L29.6273 8.79607H28.6007V4.17496H27.585V3.19588Z" fill="#E30613"/>
<path id="Vector_3" d="M26.5693 1.44531V2.48822H27.5864V1.44531H26.5693Z" fill="#E30613"/>
<path id="Vector_4" d="M18.7199 6.01295C18.7199 6.64575 18.6466 7.16585 18.4999 7.55558C18.3519 7.96161 17.8468 8.87551 15.3902 8.87551C12.9351 8.87551 12.4286 7.96025 12.2805 7.55558C12.1339 7.16585 12.0605 6.64575 12.0605 6.01295C12.0605 5.38015 12.1352 4.86005 12.2805 4.47032C12.4286 4.06429 12.9337 3.15039 15.3902 3.15039C17.8454 3.15039 18.3519 4.06429 18.4999 4.47032C18.6453 4.86005 18.7199 5.38015 18.7199 6.01295ZM17.434 4.78944C17.3389 4.55994 17.1759 4.41057 16.922 4.3223C16.6586 4.23811 16.1969 4.18922 15.3889 4.177C14.5809 4.18922 14.1192 4.23811 13.8558 4.3223C13.6032 4.41057 13.4389 4.55859 13.3438 4.78944C13.2691 4.96597 13.1836 5.39508 13.1836 6.01295C13.1836 6.63082 13.2691 7.05993 13.3438 7.23646C13.4389 7.46596 13.6018 7.61533 13.8558 7.7036C14.1192 7.78779 14.5809 7.83668 15.3889 7.8489C16.1969 7.83668 16.6586 7.78779 16.922 7.7036C17.1759 7.61533 17.3389 7.46732 17.434 7.23646C17.5086 7.05993 17.5942 6.63082 17.5942 6.01295C17.5942 5.39508 17.51 4.96597 17.434 4.78944Z" fill="#0064B0"/>
<path id="Vector_5" d="M38.0139 6.01295C38.0139 6.64575 37.9392 7.16585 37.7939 7.55558C37.6459 7.96161 37.1407 8.87551 34.6842 8.87551C32.229 8.87551 31.7225 7.96025 31.5745 7.55558C31.4278 7.16585 31.3545 6.64575 31.3545 6.01295C31.3545 5.38015 31.4278 4.86005 31.5745 4.47032C31.7225 4.06429 32.2277 3.15039 34.6842 3.15039C37.1394 3.15039 37.6459 4.06429 37.7939 4.47032C37.9406 4.86005 38.0139 5.38015 38.0139 6.01295ZM36.7293 4.78944C36.6342 4.55994 36.4713 4.41057 36.2173 4.3223C35.9539 4.23811 35.4922 4.18922 34.6842 4.177C33.8762 4.18922 33.4145 4.23811 33.1511 4.3223C32.8971 4.41057 32.7328 4.55859 32.6391 4.78944C32.5644 4.96597 32.4789 5.39508 32.4789 6.01295C32.4789 6.63082 32.5644 7.05993 32.6391 7.23646C32.7328 7.46596 32.8971 7.61533 33.1511 7.7036C33.4145 7.78779 33.8762 7.83668 34.6842 7.8489C35.4922 7.83668 35.9539 7.78779 36.2173 7.7036C36.4699 7.61533 36.6342 7.46732 36.7293 7.23646C36.8039 7.05993 36.8895 6.63082 36.8895 6.01295C36.8895 5.39508 36.8039 4.96597 36.7293 4.78944Z" fill="#E30613"/>
<path id="Vector_6" d="M6.66295 3.40274C6.66295 3.4041 6.66295 3.4041 6.66295 3.40274V3.40274ZM11.246 4.59095C11.1822 4.31664 11.0654 4.08579 10.8903 3.88482L10.8889 3.88346C10.6499 3.6173 10.3457 3.44212 9.95734 3.34435C9.59884 3.25065 9.08146 3.20448 8.35496 3.20448C7.56328 3.20448 7.02553 3.26831 6.6616 3.4041H6.66024C6.36013 3.51274 6.11163 3.71371 5.9283 3.98802C5.7151 3.70013 5.44759 3.50187 5.11761 3.39052C4.74145 3.26423 4.04347 3.20312 3.16216 3.20312C2.50084 3.20312 2.04592 3.25065 1.77297 3.34707L1.77026 3.34843C1.56385 3.42583 1.36695 3.55755 1.17276 3.74495C1.17276 3.57792 1.17276 3.472 1.17276 3.472H0.154297V8.79517H1.17004V5.41387C1.17004 4.5312 2.06629 4.18221 2.97204 4.18221H3.42696C4.33271 4.18221 5.23846 4.5312 5.23846 5.41387V8.79517H6.25285V5.41387C6.25285 4.5312 7.13959 4.18221 8.04535 4.18221H8.50026C9.40601 4.18221 10.3145 4.5312 10.3145 5.41387V8.79517H11.3289V5.89187C11.3289 5.2319 11.3031 4.83131 11.246 4.59095Z" fill="#0064B0"/>
<path id="Vector_7" d="M51.6232 6.40073H52.1433C52.1501 6.2758 52.1541 6.14679 52.1541 6.011C52.1541 5.37819 52.0808 4.8581 51.9341 4.46837C51.7861 4.06234 51.281 3.14844 48.8258 3.14844C46.3706 3.14844 45.8641 4.06234 45.7161 4.46837C45.5694 4.8581 45.4961 5.37819 45.4961 6.011C45.4961 6.6438 45.5708 7.1639 45.7161 7.55363C45.8641 7.95966 46.3706 8.87356 48.8258 8.87356C51.281 8.87356 51.7861 7.9583 51.9341 7.55363C51.9477 7.51832 51.9599 7.48166 51.9722 7.44363H50.7459C50.6509 7.55906 50.5246 7.64325 50.3576 7.70164C50.0941 7.78584 49.6324 7.83472 48.8258 7.84695C48.0178 7.83472 47.5561 7.78584 47.2927 7.70164C47.0387 7.61338 46.8758 7.46536 46.7807 7.23451C46.7223 7.09871 46.6599 6.81219 46.6327 6.40616H51.6232V6.40073ZM47.2927 4.32171C47.5561 4.23751 48.0178 4.18863 48.8258 4.17641C49.6338 4.18863 50.0955 4.23751 50.3576 4.32171C50.6101 4.40997 50.7744 4.55799 50.8695 4.78884C50.9184 4.90427 50.9714 5.12833 51.0039 5.44337H46.6476C46.6789 5.12833 46.7318 4.90427 46.7821 4.78884C46.8744 4.55935 47.0387 4.40997 47.2927 4.32171Z" fill="#E30613"/>
<path id="Vector_8" d="M26.5693 3.19531V8.79414H27.5864V3.19531H26.5693Z" fill="#0064B0"/>
<path id="Vector_9" d="M25.633 4.47023C25.485 4.0642 24.9798 3.1503 22.5233 3.1503C21.5836 3.1503 20.9304 3.28474 20.4728 3.4735V0.667969H19.457V8.81024H20.4728V8.55359C20.9304 8.74099 21.5836 8.87542 22.5233 8.87542C24.9785 8.87542 25.485 7.96152 25.633 7.55549C25.7797 7.16576 25.853 6.64567 25.853 6.01286C25.853 5.38006 25.7797 4.85996 25.633 4.47023ZM24.5684 7.23638C24.4733 7.46587 24.3103 7.61524 24.0564 7.70351C23.793 7.7877 23.3313 7.83659 22.5233 7.84881C21.7153 7.83659 21.3975 7.7877 21.1341 7.70351C20.8802 7.61524 20.7159 7.46723 20.6222 7.23638C20.5624 7.09651 20.4972 6.79912 20.4728 6.37544V5.65029C20.4972 5.22661 20.5638 4.92922 20.6222 4.79071C20.7159 4.56121 20.8802 4.41184 21.1341 4.32357C21.3975 4.23938 21.7153 4.19049 22.5233 4.17827C23.3313 4.19049 23.793 4.23938 24.0564 4.32357C24.309 4.41184 24.4733 4.55986 24.5684 4.79071C24.643 4.96724 24.7286 5.39635 24.7286 6.01422C24.7286 6.63073 24.643 7.05984 24.5684 7.23638Z" fill="#0064B0"/>
</g>
</svg>
