<svg width="49" height="24" viewBox="0 0 49 24" fill="none" xmlns="http://www.w3.org/2000/svg">
<g id="Logo mang">
<path id="Union" fill-rule="evenodd" clip-rule="evenodd" d="M29.3028 14.6552H30.729V10.777C30.729 10.2202 30.5348 9.78877 30.145 9.48801C29.8022 9.22628 29.3774 9.09431 28.8675 9.09431C28.5115 9.09431 28.1866 9.16358 27.8907 9.30432C27.5965 9.44198 27.3953 9.62874 27.2874 9.85891V7H25.8617V14.6556H27.2874V11.4035C27.2874 11.0549 27.3843 10.7656 27.5733 10.5354C27.7635 10.3048 28.034 10.1904 28.3813 10.1904C28.7364 10.1904 28.9841 10.2785 29.1257 10.4569C29.2436 10.6086 29.3028 10.8681 29.3028 11.2355V14.6552ZM6.39124 7.00351H7.78102V8.40995H6.39124V7.00351ZM3.63138 14.6412L5.7178 9.08292H4.31618L2.93254 12.8616L1.54802 9.08292H0.154297L2.23371 14.6412H3.63138ZM7.78102 9.07285H6.39124V14.6412H7.78102V9.07285ZM16.9934 14.6499H18.3108V11.2632C18.3108 9.83218 17.5489 9.11055 16.0271 9.09695C15.5769 9.09695 15.1761 9.16316 14.8201 9.29643C14.4374 9.44243 14.1612 9.64848 13.9889 9.91416C13.8184 10.1781 13.7149 10.5279 13.6838 10.9589H15.0363C15.0622 10.7059 15.1691 10.5095 15.359 10.3714C15.5273 10.2443 15.7285 10.1807 15.9649 10.1807C16.1941 10.1807 16.3936 10.243 16.5655 10.3653C16.7373 10.488 16.8242 10.6533 16.8242 10.8598C16.8242 11.0939 16.5374 11.2456 15.9662 11.3197C15.1573 11.4188 14.622 11.5319 14.3594 11.6586C13.7864 11.93 13.5018 12.4302 13.5018 13.1554C13.5018 13.6613 13.6886 14.048 14.0643 14.3132C14.3861 14.5403 14.7965 14.653 15.2919 14.653C16.0096 14.653 16.533 14.4754 16.8614 14.1177C16.8894 14.2431 16.9156 14.3441 16.9409 14.4415L16.9409 14.4416C16.9588 14.5104 16.9761 14.5774 16.9934 14.6499ZM16.0635 12.2198C16.4177 12.1527 16.6637 12.0628 16.8044 11.9493C16.8044 12.0028 16.8075 12.0861 16.8136 12.1996C16.8202 12.3132 16.8242 12.3995 16.8242 12.4605C16.8242 12.7998 16.7544 13.0567 16.6137 13.229C16.5067 13.3566 16.3507 13.4649 16.1437 13.5539C15.9359 13.6455 15.736 13.6894 15.5431 13.6894C15.1231 13.6894 14.9113 13.4899 14.9113 13.0887C14.9113 12.7775 15.0363 12.5565 15.2818 12.4302C15.4024 12.364 15.6623 12.2939 16.0635 12.2198ZM25.1713 11.9282C25.1713 12.6736 24.9893 13.2922 24.6215 13.7814C24.1967 14.3444 23.5916 14.628 22.8051 14.6355H22.795C22.0892 14.6355 21.5315 14.3628 21.0173 13.8143V16.0458H19.6139V9.1066H20.9993C20.9993 9.1066 20.9923 9.91591 20.9993 9.92205C20.9993 9.92205 21.7231 9.11274 22.6854 9.11274C23.1659 9.11274 23.6136 9.24382 24.0248 9.50424C24.4378 9.76685 24.732 10.0983 24.9086 10.4999C25.084 10.9015 25.1713 11.378 25.1713 11.9282ZM23.6171 11.9282C23.6171 10.8611 23.1808 10.3254 22.3119 10.3254C21.4631 10.3254 21.0383 10.8866 21.0383 12.0054C21.0383 12.4745 21.1725 12.8489 21.4377 13.1286C21.6823 13.3833 21.977 13.5096 22.3229 13.5096C22.6745 13.5096 22.9695 13.3794 23.2054 13.119C23.4803 12.8266 23.6171 12.4294 23.6171 11.9282ZM42.5593 14.6552H41.1322V11.2355C41.1322 10.8682 41.073 10.6086 40.9551 10.4569C40.8135 10.2785 40.5658 10.1904 40.2111 10.1904C39.8639 10.1904 39.5934 10.3048 39.4031 10.5354C39.2141 10.7656 39.1173 11.0549 39.1173 11.4035V14.6556H37.6915V9.0838H39.1177V9.85892C39.226 9.62875 39.4268 9.44199 39.7214 9.30432C40.0169 9.16359 40.3418 9.09432 40.6986 9.09432C41.2081 9.09432 41.6333 9.22629 41.9757 9.48802C42.365 9.78877 42.5597 10.2202 42.5597 10.777V14.6552H42.5593ZM11.9162 14.6552H13.3428V10.777C13.3428 10.2202 13.1485 9.78877 12.7588 9.48802C12.4168 9.22629 11.9916 9.09432 11.4821 9.09432C11.1257 9.09432 10.8004 9.16359 10.5049 9.30432C10.2098 9.44199 10.0095 9.62875 9.90119 9.85892V9.0838H8.47546V14.6556H9.90119V11.4035C9.90119 11.0549 9.99764 10.7656 10.187 10.5354C10.3773 10.3048 10.6469 10.1904 10.9946 10.1904C11.3497 10.1904 11.5974 10.2785 11.739 10.4569C11.8574 10.6086 11.9162 10.8682 11.9162 11.2355V14.6552ZM48.1543 12.2277H44.5887C44.6211 12.6608 44.7583 12.9949 44.9982 13.2325C45.2047 13.4294 45.4572 13.5267 45.7544 13.5267C45.9741 13.5267 46.1722 13.4754 46.3467 13.3689C46.5217 13.2641 46.6356 13.1229 46.6878 12.944H48.085C47.9303 13.4807 47.6519 13.8945 47.249 14.1891C46.8487 14.4829 46.3713 14.6298 45.8206 14.6298C44.092 14.6298 43.2283 13.6709 43.2283 11.7507C43.2283 10.9409 43.4475 10.2929 43.8837 9.80718C44.3212 9.32273 44.9342 9.07941 45.7246 9.07941C47.3437 9.07985 48.1543 10.1312 48.1543 12.2277ZM46.7553 11.3478C46.7211 10.9922 46.6036 10.7112 46.3993 10.5065C46.1968 10.3026 45.96 10.1996 45.6948 10.1996C45.4361 10.1996 45.2125 10.2965 45.0258 10.4867C44.8175 10.691 44.6891 10.9795 44.6373 11.3478H46.7553ZM36.2382 13.8972C36.7341 13.3877 36.9809 12.7099 36.9809 11.8638C36.9809 11.0308 36.7433 10.3591 36.2685 9.84576C35.7726 9.3201 35.0922 9.05661 34.2232 9.05661C33.3547 9.05661 32.6717 9.31396 32.178 9.83041C31.6813 10.3473 31.4358 11.0255 31.4358 11.8638C31.4358 12.6959 31.6835 13.3711 32.1837 13.8866C32.6809 14.4044 33.3622 14.6613 34.2232 14.6613C35.072 14.6613 35.7424 14.4079 36.2382 13.8972ZM34.2202 10.2333C35.09 10.2333 35.5253 10.773 35.5253 11.8594C35.5253 12.944 35.09 13.4864 34.2202 13.4864C33.3451 13.4864 32.9062 12.944 32.9062 11.8594C32.9062 10.773 33.3451 10.2333 34.2202 10.2333Z" fill="#00A0E3"/>
</g>
</svg>
