<svg width="28" height="18" viewBox="0 0 28 18" fill="none" xmlns="http://www.w3.org/2000/svg">
<g id="Group">
<g id="Group_2">
<path id="Vector" fill-rule="evenodd" clip-rule="evenodd" d="M1.35716 0.320966C0.209148 0.983025 -0.186764 2.46273 0.474634 3.61074L5.48179 12.2831C6.14451 13.4304 7.62355 13.8257 8.77024 13.1636C9.91825 12.5015 10.3148 11.0218 9.65144 9.87449L4.64561 1.20217C3.98355 0.0541559 2.50252 -0.341094 1.35716 0.320966Z" fill="#939598"/>
<path id="Vector_2" fill-rule="evenodd" clip-rule="evenodd" d="M13.7779 0.320966C14.9252 0.983025 15.3218 2.46207 14.6597 3.61074L9.65259 12.2831C8.9892 13.4304 7.51016 13.8257 6.36281 13.1636C5.21612 12.5015 4.81955 11.0218 5.48227 9.87449L10.4894 1.20217C11.1515 0.0541559 12.6319 -0.341094 13.7779 0.320966Z" fill="#F68B22"/>
<path id="Vector_3" fill-rule="evenodd" clip-rule="evenodd" d="M19.3775 13.1637C18.2302 12.5016 17.8336 11.0206 18.495 9.87454L23.5035 1.20222C24.1649 0.0548744 25.6446 -0.341037 26.7919 0.32036C27.9393 0.983082 28.3352 2.46279 27.6731 3.60881L22.666 12.2818C22.0039 13.4305 20.5249 13.8251 19.3775 13.1637Z" fill="#F68B22"/>
<path id="Vector_4" fill-rule="evenodd" clip-rule="evenodd" d="M12.8584 13.1637C11.7104 12.5016 11.3138 11.0206 11.9759 9.87454L16.9837 1.20222C17.6458 0.0548744 19.1255 -0.341037 20.2722 0.32036C21.4195 0.983082 21.8161 2.46279 21.154 3.60881L16.1469 12.2818C15.4842 13.4305 14.0051 13.8251 12.8584 13.1637Z" fill="#F68B22"/>
</g>
<g id="Group_3">
<path id="Vector_5" d="M1.54418 17.9356H1.29193L0.161133 15H0.610671L1.41706 17.1881L2.22676 15H2.67233L1.54418 17.9356Z" fill="#939598"/>
<path id="Vector_6" d="M3.48966 15.4581H3.09375V15H3.48966V15.4581ZM3.09375 17.9356V15.7177H3.48966V17.9356H3.09375Z" fill="#939598"/>
<path id="Vector_7" d="M4.53111 16.9725C4.56487 17.1579 4.64829 17.3082 4.78203 17.4227C4.91576 17.5379 5.07466 17.5955 5.25805 17.5955C5.38914 17.5955 5.50963 17.5637 5.61755 17.5002C5.72612 17.4366 5.81219 17.3473 5.87641 17.2321H6.32661C6.22466 17.4783 6.08231 17.6677 5.89892 17.7981C5.71487 17.9292 5.50169 17.9947 5.25871 17.9947C5.09518 17.9947 4.94423 17.9656 4.80917 17.9074C4.67411 17.8491 4.55031 17.7624 4.43974 17.6478C4.33712 17.5386 4.25569 17.4115 4.19677 17.2671C4.13851 17.1221 4.10938 16.9745 4.10938 16.8242C4.10938 16.668 4.13586 16.5223 4.18882 16.3866C4.24179 16.2509 4.31991 16.1271 4.42385 16.0152C4.53442 15.894 4.65822 15.8033 4.79659 15.7418C4.93496 15.6802 5.08658 15.6504 5.25077 15.6504C5.44541 15.6504 5.62682 15.6954 5.79365 15.7861C5.96116 15.8768 6.09953 16.0039 6.20877 16.1655C6.27299 16.2668 6.32065 16.3767 6.35111 16.4978C6.38156 16.6183 6.39745 16.7554 6.39745 16.9096V16.9732H4.53111V16.9725ZM5.96049 16.6137C5.91084 16.4316 5.82477 16.2899 5.70229 16.19C5.57981 16.09 5.43349 16.0403 5.26268 16.0403C5.0879 16.0403 4.93629 16.092 4.80851 16.1946C4.68007 16.2972 4.59135 16.4369 4.54302 16.6144H5.96049V16.6137Z" fill="#939598"/>
<path id="Vector_8" d="M7.15042 17.9356V16.0811H6.83594V15.7177H7.15042V15H7.54831V15.7177H7.86213V16.0811H7.54831V17.9356H7.15042Z" fill="#939598"/>
<path id="Vector_9" d="M8.81883 17.9347H8.41895V15.7168H8.8036V15.9677C8.88702 15.8684 8.97839 15.7955 9.07836 15.7492C9.17833 15.7029 9.29286 15.6797 9.42197 15.6797C9.71195 15.6797 9.93506 15.7644 10.0906 15.9352C10.2456 16.1067 10.323 16.3504 10.323 16.6688V17.934H9.92248V16.7549C9.92248 16.5198 9.87879 16.3451 9.79139 16.2318C9.70334 16.118 9.56894 16.0617 9.38621 16.0617C9.1876 16.0617 9.04261 16.1286 8.95389 16.2623C8.86451 16.396 8.81949 16.6172 8.81949 16.925V17.9347H8.81883Z" fill="#939598"/>
<path id="Vector_10" d="M12.853 17.9363V17.6629C12.7511 17.7695 12.6372 17.8496 12.5107 17.9045C12.3856 17.9588 12.2512 17.986 12.1082 17.986C11.7752 17.986 11.4978 17.8754 11.2773 17.6523C11.0562 17.4298 10.9463 17.1511 10.9463 16.8161C10.9463 16.6605 10.9734 16.5122 11.029 16.3725C11.084 16.2335 11.1628 16.109 11.2647 16.0038C11.376 15.8866 11.4991 15.7999 11.6315 15.7442C11.7633 15.6873 11.9149 15.6602 12.0837 15.6602C12.236 15.6602 12.3757 15.6873 12.5035 15.7409C12.6306 15.7952 12.7471 15.876 12.8524 15.9859V15.7191H13.2556V17.937H12.853V17.9363ZM11.3614 16.8115C11.3614 17.0359 11.4356 17.2246 11.5839 17.3762C11.7328 17.5272 11.9142 17.6033 12.1294 17.6033C12.326 17.6033 12.4988 17.5272 12.6484 17.3749C12.7987 17.2226 12.8735 17.0445 12.8735 16.8399C12.8735 16.6215 12.7994 16.4354 12.6511 16.2805C12.5021 16.1249 12.326 16.0481 12.1214 16.0481C11.9116 16.0481 11.7328 16.1216 11.5839 16.2699C11.4349 16.4182 11.3614 16.5983 11.3614 16.8115Z" fill="#939598"/>
<path id="Vector_11" d="M15.3524 16.8164C15.3524 16.5463 15.3146 16.351 15.2378 16.2285C15.1624 16.106 15.0405 16.0451 14.8744 16.0451C14.7029 16.0451 14.5764 16.1067 14.495 16.2298C14.4136 16.3523 14.3725 16.543 14.3725 16.8012V17.936H13.9932V15.7181H14.3487V15.9776C14.4228 15.8783 14.5063 15.8041 14.5996 15.7545C14.6923 15.7061 14.7982 15.6816 14.9174 15.6816C15.0789 15.6816 15.2127 15.7128 15.3193 15.7743C15.4265 15.8366 15.5139 15.9332 15.5828 16.0656C15.651 15.9359 15.7417 15.8405 15.8555 15.7763C15.9694 15.7128 16.1071 15.6816 16.27 15.6816C16.5209 15.6816 16.7215 15.7631 16.8725 15.9266C17.0234 16.0901 17.0989 16.3086 17.0989 16.5814V17.936H16.6983V16.643C16.6983 16.4543 16.6566 16.3066 16.5739 16.202C16.4911 16.0968 16.3753 16.0444 16.2256 16.0444C16.0528 16.0444 15.929 16.1001 15.8536 16.2119C15.7774 16.3238 15.7397 16.5112 15.7397 16.776V17.9353H15.3517V16.8164H15.3524Z" fill="#939598"/>
<path id="Vector_12" d="M17.7158 16.8283C17.7158 16.6714 17.7423 16.5237 17.7946 16.3873C17.8482 16.2509 17.9264 16.1285 18.0303 16.0199C18.1415 15.9001 18.2673 15.808 18.4077 15.7431C18.5467 15.6783 18.693 15.6465 18.8426 15.6465C19.0042 15.6465 19.1538 15.675 19.2915 15.7332C19.4292 15.7908 19.5544 15.8762 19.6656 15.9894C19.7748 16.1013 19.8582 16.2271 19.9165 16.3668C19.9748 16.5065 20.0046 16.6515 20.0046 16.7998C20.0046 16.9521 19.9781 17.0997 19.9231 17.244C19.8688 17.3877 19.792 17.5135 19.6941 17.6214C19.5808 17.7452 19.4544 17.8392 19.3134 17.9028C19.173 17.9663 19.0234 17.9988 18.8645 17.9988C18.7023 17.9988 18.5527 17.969 18.4156 17.9107C18.2779 17.8525 18.1554 17.7657 18.0462 17.6512C17.9429 17.542 17.8615 17.4162 17.8032 17.2712C17.7443 17.1262 17.7158 16.9785 17.7158 16.8283ZM18.1289 16.8243C18.1289 17.0454 18.1998 17.2308 18.3401 17.3784C18.4805 17.5261 18.6553 17.5996 18.8645 17.5996C19.0704 17.5996 19.2432 17.5254 19.3816 17.3778C19.5213 17.2295 19.5908 17.0434 19.5908 16.821C19.5908 16.5959 19.5213 16.4112 19.3816 16.2648C19.2432 16.1185 19.0691 16.045 18.8605 16.045C18.654 16.045 18.4798 16.1192 18.3395 16.2675C18.1998 16.4158 18.1289 16.6012 18.1289 16.8243Z" fill="#939598"/>
<path id="Vector_13" d="M21.0097 17.6621V17.9356H20.6045V15H21.005V15.9851C21.113 15.8759 21.2308 15.7951 21.3592 15.7402C21.4877 15.6866 21.6274 15.6594 21.7777 15.6594C21.9471 15.6594 22.0974 15.6866 22.2298 15.7435C22.3623 15.7991 22.4847 15.8852 22.596 16.003C22.6992 16.1103 22.7787 16.2341 22.8343 16.3731C22.8893 16.5135 22.9171 16.6611 22.9171 16.8154C22.9171 17.1497 22.8065 17.4284 22.586 17.6515C22.3656 17.874 22.0882 17.9852 21.7532 17.9852C21.6108 17.9852 21.4764 17.9581 21.3513 17.9038C21.2255 17.8488 21.1116 17.7687 21.0097 17.6621ZM20.9931 16.8399C20.9931 17.0438 21.0679 17.2219 21.2176 17.3748C21.3672 17.5271 21.5406 17.6032 21.7366 17.6032C21.9505 17.6032 22.1312 17.5277 22.2788 17.3761C22.4271 17.2252 22.5006 17.0372 22.5006 16.8107C22.5006 16.5989 22.4258 16.4188 22.2762 16.2698C22.1272 16.1215 21.9491 16.048 21.7406 16.048C21.536 16.048 21.3606 16.1248 21.2136 16.2791C21.0666 16.4334 20.9931 16.6207 20.9931 16.8399Z" fill="#939598"/>
<path id="Vector_14" d="M23.9408 15.4581H23.5449V15H23.9408V15.4581ZM23.5449 17.9356V15.7177H23.9408V17.9356H23.5449Z" fill="#939598"/>
<path id="Vector_15" d="M24.6855 17.9356V15H25.0815V17.9356H24.6855Z" fill="#939598"/>
<path id="Vector_16" d="M26.1222 16.9725C26.156 17.1579 26.2401 17.3082 26.3738 17.4227C26.5076 17.5379 26.6658 17.5955 26.8498 17.5955C26.9816 17.5955 27.1014 17.5637 27.21 17.5002C27.3179 17.4366 27.404 17.3473 27.4689 17.2321H27.9191C27.8165 17.4783 27.6741 17.6677 27.4907 17.7981C27.3067 17.9292 27.0935 17.9947 26.8498 17.9947C26.6863 17.9947 26.536 17.9656 26.401 17.9074C26.2652 17.8498 26.1421 17.7624 26.0322 17.6478C25.9289 17.5386 25.8475 17.4115 25.7892 17.2671C25.731 17.1221 25.7012 16.9745 25.7012 16.8242C25.7012 16.668 25.7283 16.5223 25.78 16.3866C25.8336 16.2509 25.9124 16.1271 26.0157 16.0152C26.1262 15.894 26.2507 15.8033 26.3884 15.7418C26.5268 15.6802 26.679 15.6504 26.8426 15.6504C27.0372 15.6504 27.2186 15.6954 27.3861 15.7861C27.553 15.8768 27.6913 16.0039 27.7999 16.1655C27.8648 16.2668 27.9125 16.3767 27.9436 16.4978C27.9747 16.6183 27.9899 16.7554 27.9899 16.9096V16.9732H26.1222V16.9725ZM27.551 16.6137C27.5013 16.4316 27.4159 16.2899 27.2934 16.19C27.1716 16.09 27.0253 16.0403 26.8538 16.0403C26.6797 16.0403 26.5274 16.092 26.3996 16.1946C26.2712 16.2972 26.1832 16.4369 26.1342 16.6144H27.551V16.6137Z" fill="#939598"/>
</g>
</g>
</svg>
