<svg width="49" height="24" viewBox="0 0 49 24" fill="none" xmlns="http://www.w3.org/2000/svg">
<g id="Logo mang">
<path id="Union" fill-rule="evenodd" clip-rule="evenodd" d="M10.3619 7C10.0592 7 9.81482 7.24564 9.81482 7.5471V7.88455V7.99992V8.86834C9.98602 8.46639 10.388 8.30387 10.7974 8.26293C10.8631 8.25673 11.0256 8.25549 11.2068 8.25549C11.5541 8.25673 11.837 7.97511 11.837 7.62774V7.5471C11.837 7.2444 11.5914 7 11.2899 7H10.3619ZM31.5178 14.3555C31.947 14.647 32.7187 14.647 32.9718 14.647V14.6458H33.5003V15.5266C33.5003 15.7524 33.3179 15.9348 33.0921 15.9348H32.2522C31.132 15.9348 30.4745 15.7896 29.9038 15.4162C29.2872 15.0105 29.013 14.4547 29.013 13.6173V10.1834H27.435H27.0392H25.0195V13.0181C25.0158 13.4697 25.0121 14.0317 25.5009 14.3543C25.9301 14.6458 26.7018 14.6458 26.9549 14.6458H27.4846V15.5266C27.4846 15.7524 27.3022 15.9348 27.0765 15.9348H26.2366C25.1163 15.9348 24.4588 15.7896 23.8881 15.4162C23.2715 15.0105 22.9974 14.4547 22.9974 13.6173V10.1834H22.4652C22.1017 10.1834 21.8064 9.8881 21.8064 9.52461V8.89438H22.9986V7.89818C22.9986 7.55454 23.2765 7.27664 23.6202 7.27664H24.398C24.7417 7.27664 25.0195 7.55454 25.0195 7.89818V8.89438H27.0231H27.435H29.013V7.93168C29.013 7.56942 29.3058 7.27664 29.6681 7.27664H30.3814C30.7437 7.27664 31.0364 7.56942 31.0364 7.93168V8.89562H33.4519V9.56307C33.4519 9.90671 33.174 10.1846 32.8304 10.1846H31.0364V13.0194C31.0327 13.471 31.029 14.0329 31.5178 14.3555ZM5.05962 14.0652C4.98519 14.2228 4.90827 14.3071 4.88222 14.3071C4.85493 14.3071 4.77801 14.2228 4.70481 14.0652L2.71489 9.86084C2.43576 9.27031 1.84151 8.89441 1.18772 8.89441H0.154297L3.49399 15.3703C3.82275 16.003 4.47406 16.0154 4.8388 16.0154H4.86113H4.88222C5.3003 16.0154 5.93176 16.0154 6.25432 15.3703L9.59401 8.89565H8.56307C7.90804 8.89565 7.31255 9.27403 7.03466 9.8658L5.05962 14.0652ZM10.3942 15.936H11.2564C11.5765 15.936 11.837 15.6768 11.837 15.3554V9.47501C11.837 9.15493 11.5777 8.89441 11.2564 8.89441H10.3942C10.0741 8.89441 9.8136 9.15369 9.8136 9.47501V15.3567C9.8136 15.6768 10.0741 15.936 10.3942 15.936ZM15.0812 13.863C15.0241 13.6806 14.9757 13.2886 14.9695 12.9822H19.9406C20.3723 12.9822 20.6701 12.8978 20.9058 12.708C21.2842 12.4053 21.335 11.9872 21.335 11.6187C21.335 10.8434 21.1924 9.88066 20.0796 9.31991C19.2595 8.9043 18.2063 8.86957 17.1977 8.86957C16.3925 8.86957 14.8951 8.86957 13.9336 9.53329C12.956 10.2082 12.8804 11.1808 12.8804 12.4822C12.8804 13.4102 12.9288 14.3729 13.5143 15.0428C14.2463 15.869 15.2847 15.9373 16.2002 15.9373H20.6242C20.8624 15.9373 21.0547 15.7437 21.0547 15.5068V14.6483H16.7709C16.029 14.647 15.3082 14.5515 15.0812 13.863ZM14.972 11.7068L14.9723 11.6999C14.987 11.2739 14.9987 10.9359 15.3529 10.6151C15.8544 10.1603 16.6103 10.1585 17.1189 10.1573L17.1331 10.1573H17.1741C17.7199 10.1573 18.344 10.1821 18.8204 10.4724C18.9481 10.5506 19.3625 10.8483 19.3625 11.3818C19.3625 11.5604 19.3178 11.7428 18.9841 11.7428H16.3143C15.9682 11.754 15.2127 11.8358 14.972 12.3308V11.7068ZM36.0411 12.9822C36.0473 13.2886 36.0957 13.6806 36.1527 13.863C36.3798 14.5515 37.1005 14.647 37.8424 14.6483H42.1262V15.5068C42.1262 15.7437 41.9339 15.9373 41.6957 15.9373H37.2717C36.3562 15.9373 35.3178 15.869 34.5859 15.0428C34.0003 14.3729 33.9519 13.4102 33.9519 12.4822C33.9519 11.1808 34.0276 10.2082 35.0052 9.53329C35.9666 8.86957 37.464 8.86957 38.2692 8.86957C39.2778 8.86957 40.3311 8.9043 41.1511 9.31991C42.2639 9.88066 42.4066 10.8434 42.4066 11.6187C42.4066 11.9872 42.3557 12.4053 41.9773 12.708C41.7416 12.8978 41.4439 12.9822 41.0121 12.9822H36.0411ZM36.0426 11.6999L36.0423 11.7068V12.3308C36.283 11.8358 37.0385 11.754 37.3846 11.7428H40.0544C40.3881 11.7428 40.4328 11.5604 40.4328 11.3818C40.4328 10.8483 40.0184 10.5506 39.8906 10.4724C39.4143 10.1821 38.7902 10.1573 38.2444 10.1573H38.2034L38.1892 10.1573C37.6806 10.1585 36.9246 10.1603 36.4232 10.6151C36.069 10.9359 36.0573 11.2739 36.0426 11.6999ZM45.5416 7.83865V13.6843C45.5416 14.2166 45.9733 14.6471 46.5055 14.6471H48.1555V15.2351C48.1555 15.6222 47.8417 15.936 47.4546 15.936H45.8579C44.5665 15.936 43.5194 14.889 43.5194 13.5975V7.83865C43.5194 7.5012 43.7923 7.22827 44.1298 7.22827H44.9312C45.2687 7.22827 45.5416 7.5012 45.5416 7.83865Z" fill="#DB3038"/>
</g>
</svg>
