<svg width="33" height="14" viewBox="0 0 33 14" fill="none" xmlns="http://www.w3.org/2000/svg">
<g id="Red">
<path id="Union" fill-rule="evenodd" clip-rule="evenodd" d="M30.5657 3.97678C31.6258 3.97299 32.5508 3.19163 32.5546 1.95552C32.5573 0.898392 31.7406 0.0191632 30.5344 0.000237597C29.4985 -0.0159843 28.5352 0.799979 28.522 1.98094C28.5099 3.10187 29.3936 3.96542 30.5657 3.97678ZM12.2859 4.66188C12.2859 4.7705 12.2856 4.87907 12.2852 4.98763V4.98769V4.98774V4.9878V4.98785V4.98791C12.2844 5.27269 12.2835 5.55735 12.2887 5.84229C12.2909 5.95639 12.2486 5.97964 12.1453 5.97964C11.8172 5.97827 11.4891 5.97796 11.161 5.97765C10.7135 5.97723 10.2661 5.97681 9.81867 5.97369C9.70222 5.97315 9.64345 6.00235 9.60665 6.11861L9.56831 6.24082C9.34182 6.96243 9.11531 7.68409 8.99314 8.4324C8.94205 8.74548 8.92503 9.05964 9.00632 9.37165C9.14034 9.88696 9.49131 10.1633 10.0104 10.2514C10.4283 10.3223 10.8375 10.2633 11.2429 10.1611C11.3282 10.1396 11.4124 10.114 11.4967 10.0883L11.5615 10.0686C11.634 10.047 11.6784 10.0513 11.6889 10.1449C11.7542 10.7291 11.8234 11.3128 11.8926 11.8965L11.8927 11.8974L11.9044 11.9968C11.9232 12.1569 11.9421 12.3175 11.9684 12.4765C11.9882 12.596 11.9536 12.6555 11.8328 12.6998C11.0029 13.0037 10.1504 13.1551 9.26227 13.0962C8.61031 13.0529 7.97372 12.9464 7.37778 12.6706C6.61376 12.317 6.06506 11.7584 5.77011 10.976C5.51031 10.2871 5.45209 9.57226 5.55096 8.84714C5.6386 8.20591 5.82229 7.58647 6.0059 6.96731L6.0059 6.9673L6.00591 6.96728C6.03287 6.87637 6.05983 6.78546 6.08648 6.69449C6.148 6.48522 6.21006 6.27596 6.27762 6.06832C6.30825 5.97415 6.2537 5.97419 6.19114 5.97423L6.18699 5.97423L5.79566 5.97543L5.79531 5.97543C5.53404 5.97628 5.27269 5.97712 5.01159 5.97748C4.83637 5.97802 4.83637 5.97694 4.83692 5.80765L4.83692 5.80607C4.83707 5.60199 4.8374 5.39795 4.83774 5.19392C4.83868 4.62275 4.83961 4.05171 4.83638 3.48038C4.83583 3.37169 4.86713 3.34033 4.97534 3.34087C5.44174 3.34431 5.90814 3.34451 6.37474 3.34471H6.37481H6.37485H6.37488H6.37492H6.37495H6.37499C6.56934 3.3448 6.76372 3.34488 6.95815 3.3452H6.95989C7.1449 3.3452 7.14561 3.3452 7.20037 3.1727C7.25324 3.00603 7.30634 2.83942 7.35944 2.67283L7.35944 2.67281L7.35945 2.6728L7.35945 2.67278L7.35946 2.67277L7.35946 2.67275C7.50824 2.20594 7.65701 1.73918 7.8007 1.27095C7.8397 1.14388 7.89408 1.09684 8.03579 1.09792C8.77031 1.10266 9.50483 1.10192 10.2394 1.10117C10.51 1.1009 10.7806 1.10062 11.0512 1.10062C11.2196 1.10062 11.2193 1.10168 11.1693 1.25562L11.1676 1.26068C10.9589 1.90577 10.7513 2.55086 10.5448 3.1965C10.4986 3.34033 10.5008 3.34249 10.6557 3.34303L10.9052 3.34336H10.9052H10.9052H10.9053H10.9053H10.9053C11.3208 3.34397 11.7363 3.34457 12.1514 3.34141C12.2508 3.34033 12.2887 3.36196 12.287 3.47011C12.2818 3.75794 12.2827 4.04577 12.2836 4.3334V4.33349V4.33358V4.33367V4.33376V4.33384C12.2839 4.44322 12.2843 4.55257 12.2843 4.66188H12.2859ZM3.53414 8.12851L3.53405 9.05638V9.05665C3.53388 10.2939 3.5337 11.5314 3.53634 12.7685C3.53634 12.8778 3.51546 12.9102 3.39463 12.9097C2.56188 12.9044 1.72877 12.9052 0.895593 12.9059H0.895567H0.895541H0.895515H0.895489H0.895462L0.307266 12.9064H0.30563C0.156213 12.9064 0.155123 12.9064 0.155123 12.7583C0.155123 9.68852 0.155123 6.61825 0.156221 3.54851C0.156221 3.51993 0.155597 3.49531 0.15506 3.47411C0.153544 3.41432 0.152718 3.38175 0.168536 3.36407C0.187462 3.34292 0.230212 3.34309 0.32411 3.34347H0.324112L0.367684 3.34358C0.705486 3.3434 1.04323 3.34358 1.38095 3.34376H1.38098H1.38101H1.38104H1.38107H1.3811C2.05646 3.34412 2.73174 3.34448 3.40726 3.34196C3.51711 3.34141 3.53689 3.37927 3.53689 3.4766C3.53475 4.68275 3.53494 5.88858 3.53513 7.09458V7.09463V7.09467V7.09472V7.09476V7.0948L3.53524 8.12851H3.53414ZM27.9035 10.3239C27.781 10.3379 27.6574 10.3304 27.536 10.3158C27.0269 10.2547 26.6182 10.0324 26.3672 9.57766C26.1788 9.23646 26.2035 8.86714 26.2651 8.50431C26.3148 8.20913 26.3765 7.91596 26.4382 7.62274C26.4671 7.48517 26.496 7.3476 26.5238 7.2098C26.5837 6.91057 26.6435 6.61127 26.7032 6.31191C26.7966 5.84363 26.8901 5.37523 26.9846 4.90683C27.0318 4.67236 27.08 4.43817 27.1283 4.20398C27.1764 3.97027 27.2245 3.73656 27.2716 3.50259C27.2717 3.50258 27.2718 3.50257 27.2718 3.50257L27.2829 3.44849C27.2904 3.41244 27.2978 3.3764 27.3048 3.34035C27.3625 3.05105 27.4186 2.76146 27.4747 2.47188L27.4749 2.47091C27.526 2.2071 27.5771 1.94331 27.6294 1.67976C27.6926 1.35965 27.7585 1.03954 27.8277 0.720504C27.8579 0.580455 27.8705 0.515026 27.8348 0.48799C27.8035 0.464198 27.7348 0.470146 27.6058 0.484205C27.0208 0.546929 26.4386 0.629121 25.8641 0.759978C25.367 0.87299 24.8787 1.01628 24.3965 1.18121C24.3794 1.18716 24.3635 1.1931 24.3492 1.20013C24.3185 1.21581 24.2949 1.23852 24.2866 1.28611C24.269 1.38972 24.2467 1.49227 24.2243 1.59482L24.2243 1.5949C24.211 1.65555 24.1978 1.71621 24.1856 1.77709C24.1274 2.06773 24.0696 2.35845 24.0118 2.64916L24.0112 2.65231L24.0108 2.65448C23.9226 3.09811 23.8344 3.5417 23.7451 3.9849C23.6968 4.22295 23.6486 4.46046 23.5998 4.69798C23.5997 4.69802 23.5996 4.69806 23.5995 4.6981L23.5439 4.96873L23.5438 4.96927C23.4398 5.47573 23.3357 5.98198 23.2365 6.48901C23.1952 6.70006 23.1506 6.91051 23.106 7.12094C22.9877 7.67988 22.8694 8.23874 22.8119 8.80874C22.7498 9.42896 22.7372 10.0454 22.9377 10.6478C23.064 11.0279 23.2458 11.3788 23.5122 11.6838C23.5144 11.6908 23.5199 11.6946 23.527 11.6957C23.5305 11.7012 23.5338 11.7069 23.5371 11.7125C23.5383 11.7146 23.5394 11.7167 23.5406 11.7188L23.5407 11.7189C23.5496 11.7345 23.5585 11.7501 23.5699 11.7638C24.0203 12.2959 24.5931 12.649 25.2522 12.8745C25.9377 13.1086 26.6451 13.1416 27.3614 13.0897C27.4471 13.0832 27.4745 13.0389 27.4894 12.9659C27.5668 12.5841 27.6459 12.2029 27.7255 11.8222L27.7257 11.8214L27.7257 11.8213L27.7257 11.8212L27.7258 11.8212C27.8213 11.3641 27.9168 10.907 28.0155 10.4504C28.037 10.3509 28.0084 10.3114 27.9035 10.3239ZM17.3979 6.90376V6.89511H17.5176L17.5396 6.89511H18.8216H18.8232C18.9913 6.89512 18.9934 6.89512 18.9819 6.72641C18.9682 6.52796 18.8996 6.34519 18.7881 6.18297C18.6315 5.95532 18.4409 5.79256 18.2212 5.68225C18.2214 5.68205 18.2215 5.68184 18.2216 5.68163C17.9959 5.56867 17.7406 5.50975 17.4594 5.49353C16.6031 5.44378 15.9166 6.00993 15.8248 6.76371C15.8128 6.86537 15.8287 6.90538 15.9385 6.90484C16.292 6.90287 16.6458 6.90319 16.9997 6.90352H16.9997H16.9997L17.3979 6.90376ZM19.7648 3.85995C19.8555 3.7742 19.9488 3.68891 20.0448 3.60422C19.3681 3.22084 18.631 3.02077 17.845 2.97264C17.4896 2.95101 17.1348 2.9429 16.7811 2.99697C16.7581 2.99893 16.7349 3.00075 16.7116 3.00257L16.7116 3.00257L16.7114 3.00258L16.6465 3.00779C16.4807 3.01374 16.3192 3.04185 16.161 3.09268C16.1497 3.09458 16.1383 3.09633 16.1269 3.09809C16.1155 3.09985 16.1041 3.1016 16.0929 3.1035C15.9834 3.10885 15.8812 3.14299 15.7791 3.17712C15.747 3.18784 15.7149 3.19857 15.6826 3.2084C15.308 3.32195 14.951 3.47444 14.6258 3.6929C14.6214 3.69533 14.6169 3.69763 14.6124 3.69992C14.6078 3.70222 14.6033 3.70452 14.5989 3.70695C14.5291 3.73994 14.4621 3.77617 14.4094 3.83403C14.4012 3.83835 14.3924 3.84268 14.3836 3.847C14.3605 3.84538 14.3446 3.85349 14.3446 3.87891L14.3122 3.89783C14.2589 3.91351 14.2216 3.94974 14.1881 3.99084C14.1815 3.99516 14.1743 4.00003 14.1672 4.00436C14.1535 4.00003 14.1463 4.00382 14.1502 4.01896C14.1439 4.02279 14.138 4.02689 14.1319 4.03107L14.1243 4.03626L14.1161 4.03464C14.1161 4.03464 14.1178 4.04221 14.1178 4.04275C14.1101 4.04491 14.1057 4.04978 14.1046 4.05789C14.0315 4.0925 13.975 4.14549 13.9255 4.20767C13.9189 4.20767 13.9145 4.21092 13.9134 4.2174C13.6976 4.38557 13.5163 4.58456 13.3636 4.80896L13.3594 4.81428C13.353 4.8224 13.3463 4.83082 13.34 4.83925C13.318 4.84465 13.3115 4.85979 13.3136 4.88034L13.3046 4.89116L13.2955 4.90197L13.2873 4.90035L13.29 4.90792L13.2768 4.92793L13.2692 4.92684L13.2741 4.93279L13.2637 4.94678L13.2554 4.95825L13.2499 4.96578C13.2081 4.98638 13.1931 5.02515 13.178 5.0643L13.1758 5.07014C13.1681 5.08041 13.1604 5.09069 13.1522 5.10096C13.1093 5.13611 13.0879 5.18261 13.0725 5.23398C13.0659 5.24371 13.0593 5.25345 13.0533 5.26318C13.0341 5.26913 13.0236 5.28048 13.0286 5.30157C13.0245 5.30786 13.0207 5.31435 13.0168 5.32092L13.0094 5.33347C12.9808 5.34267 12.9709 5.36267 12.977 5.39133C12.972 5.40215 12.9671 5.41296 12.9627 5.42378C12.7962 5.67522 12.6902 5.95261 12.6024 6.23812L12.5992 6.24816C12.5947 6.26227 12.5902 6.2766 12.5853 6.29057C12.4585 6.64529 12.3871 7.01082 12.364 7.38609L12.3593 7.45314L12.3546 7.52019C12.3526 7.53184 12.3502 7.54344 12.3478 7.55501C12.3425 7.58106 12.3371 7.607 12.336 7.6332C12.32 8.00631 12.3189 8.37887 12.3634 8.75035C12.4206 9.22998 12.5282 9.69718 12.7292 10.1406C12.727 10.1481 12.7298 10.1541 12.7369 10.1584C12.749 10.2271 12.7781 10.2882 12.8226 10.3428C12.827 10.3531 12.8314 10.3634 12.8363 10.3742C12.8935 10.518 12.9621 10.6554 13.0577 10.7792C13.0648 10.7905 13.072 10.8019 13.0797 10.8132C13.0823 10.8572 13.1108 10.8857 13.1394 10.9142L13.1445 10.9192L13.1507 10.9279C13.1576 10.9377 13.1646 10.9476 13.1714 10.9576L13.5147 11.4091C13.5103 11.421 13.5141 11.4248 13.5262 11.4205L13.5321 11.4283C13.5368 11.4346 13.5415 11.4409 13.5465 11.447C13.8393 11.8098 14.2007 12.0975 14.5962 12.3414C15.3486 12.8058 16.1742 13.0465 17.0596 13.0978C18.1844 13.1633 19.2593 12.9929 20.2524 12.443C20.5764 12.2635 20.8769 12.0504 21.129 11.7774C21.1367 11.7687 21.1449 11.7595 21.1526 11.7503C21.236 11.689 21.2998 11.61 21.3633 11.5311L21.3634 11.5311L21.3634 11.5311C21.3873 11.5015 21.4111 11.4718 21.436 11.4432C21.491 11.3805 21.4547 11.3442 21.3926 11.308C20.9893 11.0716 20.5864 10.8344 20.1836 10.5973L20.183 10.5969L20.1824 10.5966C19.8155 10.3805 19.4485 10.1645 19.0814 9.94916C18.9227 9.85594 18.9205 9.85829 18.7987 9.98886L18.7974 9.99025L18.7908 9.99743C18.7584 10.0324 18.7258 10.0676 18.6903 10.0989C18.23 10.5061 17.6868 10.6007 17.0969 10.4958C16.4741 10.3855 15.9473 9.84912 15.8518 9.23647C15.8471 9.20682 15.8427 9.18066 15.8387 9.15758C15.8239 9.07054 15.8166 9.02728 15.8348 9.00609C15.8529 8.98515 15.8959 8.98577 15.9816 8.98701C16.0068 8.98738 16.0357 8.9878 16.0687 8.98774C16.2968 8.98774 16.5244 8.98774 16.7525 8.9872M16.7553 8.9872L16.7578 8.9872C17.7579 8.98666 18.758 8.98612 19.758 8.98612C20.3029 7.61591 21.1098 6.58528 21.9979 5.80987C21.6398 4.9501 21.0713 4.25364 20.2678 3.73887C20.1942 3.69182 20.1195 3.64748 20.0442 3.60476C19.9484 3.68926 19.8553 3.77437 19.7648 3.85995M19.7585 8.98667C20.5659 8.98667 21.3739 8.98721 22.1813 8.98775C22.2774 8.98775 22.318 8.96829 22.3334 8.86555C22.4784 7.88953 22.4202 6.93297 22.0736 5.99967C22.05 5.93533 22.0247 5.8726 21.9989 5.80988C21.1102 6.58528 20.3034 7.61646 19.7585 8.98667Z" fill="#EE1C25"/>
<path id="Union_2" fill-rule="evenodd" clip-rule="evenodd" d="M27.6062 0.484969C27.7353 0.47091 27.8039 0.464962 27.8352 0.488755C27.8709 0.515791 27.8583 0.58122 27.8281 0.721269C27.7589 1.0403 27.693 1.36041 27.6298 1.68053C27.5774 1.9444 27.5262 2.20852 27.4751 2.47265C27.419 2.76223 27.3629 3.05182 27.3052 3.34111C27.2982 3.37716 27.2908 3.41321 27.2833 3.44926C27.2796 3.46728 27.2759 3.48531 27.2722 3.50333C26.8125 3.55686 25.2455 3.79857 23.5999 4.69997C23.6488 4.46205 23.6971 4.22413 23.7455 3.98566C23.835 3.54174 23.9233 3.09743 24.0116 2.65307C24.0696 2.36132 24.1276 2.06955 24.186 1.77786C24.1982 1.71698 24.2114 1.65632 24.2247 1.59566C24.2471 1.49308 24.2694 1.39051 24.287 1.28687C24.2953 1.23929 24.3189 1.21658 24.3496 1.2009C24.3639 1.19387 24.3799 1.18792 24.3969 1.18197C24.8791 1.01705 25.3674 0.873755 25.8645 0.760742C26.439 0.629885 27.0212 0.547694 27.6062 0.484969ZM20.0446 3.60553C20.1199 3.64825 20.1946 3.69259 20.2682 3.73963C21.0717 4.25441 21.6402 4.95087 21.9983 5.81063C21.1102 6.58604 20.3033 7.61667 19.7585 8.98689C18.7584 8.98689 17.7583 8.98743 16.7582 8.98797L16.7529 8.98797C16.8144 8.70138 17.0155 7.9011 17.5153 6.89588H17.54H18.822H18.8236C18.9917 6.89588 18.9939 6.89588 18.9824 6.72717C18.9686 6.52872 18.9 6.34595 18.7885 6.18374C18.6319 5.95609 18.4413 5.79333 18.2216 5.68302C18.6814 4.99899 19.2773 4.28253 20.0446 3.60553Z" fill="url(#paint0_linear_887_429)"/>
</g>
<defs>
<linearGradient id="paint0_linear_887_429" x1="27.9985" y1="0.500763" x2="16.9794" y2="10.1362" gradientUnits="userSpaceOnUse">
<stop stop-color="#FFDCA1"/>
<stop offset="1" stop-color="#FDE0A6" stop-opacity="0"/>
</linearGradient>
</defs>
</svg>
