<svg width="17" height="16" viewBox="0 0 17 16" fill="none" xmlns="http://www.w3.org/2000/svg">
<g id="Group 1000003582">
<g id="Group">
<g id="Group_2">
<path id="Vector" d="M16.1083 3.09262C15.4717 2.2167 14.3569 1.4261 12.9693 0.866523C11.5892 0.30999 9.98673 0.00220648 8.45708 3.55615e-05C6.92729 -0.00378784 5.32286 0.300821 3.94073 0.853011C2.55069 1.40841 1.43329 2.19558 0.794388 3.06942C0.180764 3.90869 0.0039155 4.81331 0.282927 5.6855C0.463955 6.25127 0.991942 6.63199 1.59708 6.63287L3.6692 6.63481C3.66991 6.63481 3.67059 6.63481 3.67127 6.63481C4.08446 6.63478 4.47267 6.45391 4.73648 6.13835C4.99751 5.82616 5.1056 5.41816 5.03315 5.0189C5.03101 5.00717 5.02845 4.99554 5.0255 4.98397L4.91647 4.56009C5.52025 4.27201 6.88825 3.71541 8.45069 3.72426C10.012 3.73226 11.3791 4.28854 11.9836 4.57675L11.8728 4.99823C11.8696 5.01019 11.8669 5.02218 11.8647 5.03426C11.7912 5.43329 11.8981 5.84158 12.1582 6.15452C12.4216 6.47141 12.8101 6.65344 13.2243 6.65406L15.2964 6.656C15.2971 6.656 15.2978 6.656 15.2985 6.656C15.9025 6.65597 16.4307 6.27703 16.613 5.71243C16.8947 4.84047 16.7202 3.93458 16.1083 3.09262Z" fill="url(#paint0_linear_887_5278)"/>
</g>
</g>
<g id="Group_3">
<g id="Group_4">
<path id="Vector_2" d="M13.1345 8.77204L11.5892 7.14952C11.4958 7.05141 11.3662 6.99591 11.2308 6.99591H10.2321V6.32121C10.2321 6.04783 10.0105 5.82617 9.73711 5.82617C9.4637 5.82617 9.24207 6.0478 9.24207 6.32121V6.99591H7.65691V6.32121C7.65691 6.04783 7.43529 5.82617 7.16188 5.82617C6.88847 5.82617 6.66685 6.0478 6.66685 6.32121V6.99591H5.66826C5.53279 6.99591 5.40321 7.05144 5.3098 7.14952L3.76456 8.77204C2.55299 10.0442 1.88574 11.7123 1.88574 13.4691V15.5056C1.88574 15.779 2.10737 16.0006 2.38078 16.0006H14.5182C14.7916 16.0006 15.0132 15.779 15.0132 15.5056V13.4691C15.0133 11.7123 14.346 10.0442 13.1345 8.77204ZM8.44949 14.1911C7.0209 14.1911 5.85868 13.0289 5.85868 11.6003C5.85868 10.1717 7.02093 9.00948 8.44949 9.00948C9.87805 9.00948 11.0403 10.1717 11.0403 11.6003C11.0403 13.0289 9.87805 14.1911 8.44949 14.1911Z" fill="url(#paint1_linear_887_5278)"/>
</g>
</g>
<g id="Group_5">
<g id="Group_6">
<path id="Vector_3" d="M8.44921 10.3984C7.38999 10.3984 6.52832 11.2601 6.52832 12.3193C6.52832 13.3786 7.39003 14.2403 8.44921 14.2403C9.5084 14.2403 10.3701 13.3786 10.3701 12.3193C10.3701 11.2602 9.5084 10.3984 8.44921 10.3984Z" fill="url(#paint2_linear_887_5278)"/>
</g>
</g>
</g>
<defs>
<linearGradient id="paint0_linear_887_5278" x1="3.09621" y1="0.387439" x2="7.54263" y2="9.38775" gradientUnits="userSpaceOnUse">
<stop stop-color="#F97045"/>
<stop offset="1" stop-color="#EF2827"/>
</linearGradient>
<linearGradient id="paint1_linear_887_5278" x1="4.21369" y1="6.41842" x2="12.7623" y2="15.3759" gradientUnits="userSpaceOnUse">
<stop stop-color="#F97045"/>
<stop offset="1" stop-color="#EF2827"/>
</linearGradient>
<linearGradient id="paint2_linear_887_5278" x1="7.2096" y1="10.6221" x2="10.3723" y2="13.1905" gradientUnits="userSpaceOnUse">
<stop stop-color="#F97045"/>
<stop offset="1" stop-color="#EF2827"/>
</linearGradient>
</defs>
</svg>
