<svg width="49" height="24" viewBox="0 0 49 24" fill="none" xmlns="http://www.w3.org/2000/svg">
<g id="Logo mang">
<path id="Union" fill-rule="evenodd" clip-rule="evenodd" d="M37.6734 16.3297C37.6813 16.3769 37.6891 16.432 37.6891 16.4792V16.6759C37.697 16.8412 37.6419 16.9986 37.5475 17.1245C37.4924 17.1795 37.4295 17.2268 37.3586 17.2504C37.2878 17.2818 37.2091 17.2897 37.1304 17.2897C37.0517 17.2976 36.9731 17.2818 36.9022 17.2504C36.8314 17.2189 36.7685 17.1795 36.7134 17.1245C36.6111 16.9986 36.556 16.8333 36.5717 16.6759V16.4792C36.5639 16.314 36.6111 16.1566 36.7134 16.0307C36.7685 15.9756 36.8314 15.9284 36.9022 15.8969C36.9731 15.8654 37.0517 15.8576 37.1304 15.8576C37.2091 15.8497 37.2878 15.8654 37.3586 15.8969C37.4295 15.9284 37.5003 15.9677 37.5475 16.0228C37.5711 16.0543 37.5947 16.0936 37.6183 16.1329L37.6183 16.133C37.6419 16.1094 37.6498 16.0779 37.6577 16.0464V15.9127C37.6577 15.8969 37.6734 15.8812 37.697 15.8812H37.7993C37.8072 15.8812 37.815 15.8812 37.8229 15.889L37.8386 15.9048C37.8465 16.1251 37.7914 16.2668 37.6734 16.3297ZM37.4609 16.6838V16.4871C37.4609 16.4084 37.4531 16.3297 37.4216 16.2589C37.398 16.1959 37.3586 16.1487 37.3114 16.1172C37.2563 16.0779 37.1855 16.0622 37.1147 16.07C37.0675 16.07 37.0203 16.0779 36.9731 16.0936C36.9258 16.1094 36.8865 16.1409 36.855 16.1802C36.7921 16.2746 36.7606 16.3848 36.7685 16.495V16.6917C36.7685 16.975 36.8786 17.1166 37.1068 17.1166C37.154 17.1245 37.2091 17.1166 37.2485 17.093C37.2957 17.0772 37.335 17.0458 37.3665 17.0064C37.4373 16.9041 37.4688 16.794 37.4609 16.6838ZM37.5081 15.3225C37.5081 15.3304 37.5003 15.3382 37.5003 15.3382L37.2091 15.653L37.1777 15.6845C37.1698 15.6923 37.1619 15.6923 37.1462 15.6923H37.0045C36.9888 15.6923 36.9809 15.6845 36.9809 15.6766V15.6609C36.9809 15.6569 36.9829 15.6549 36.9849 15.653C36.9868 15.651 36.9888 15.649 36.9888 15.6451L37.2406 15.3304L37.2721 15.2989C37.276 15.2989 37.2819 15.2969 37.2878 15.2949C37.2937 15.293 37.2996 15.291 37.3036 15.291H37.4688L37.4844 15.2985C37.503 15.3073 37.5081 15.3098 37.5081 15.3225ZM27.3887 16.4792C27.3887 16.432 27.3808 16.3769 27.373 16.3297C27.4989 16.2668 27.5461 16.1251 27.5303 15.9048L27.5146 15.8891C27.5067 15.8812 27.4989 15.8812 27.491 15.8812H27.3887C27.3651 15.8812 27.3494 15.8969 27.3494 15.9127V16.0464C27.3494 16.0779 27.3415 16.1094 27.3179 16.133C27.2943 16.0936 27.2707 16.0543 27.2471 16.0228C27.1999 15.9677 27.129 15.9284 27.0582 15.8969C26.9874 15.8655 26.9087 15.8497 26.83 15.8576C26.7513 15.8576 26.6726 15.8655 26.6018 15.8969C26.531 15.9284 26.4681 15.9756 26.413 16.0307C26.3107 16.1566 26.2635 16.314 26.2713 16.4792V16.6759C26.2556 16.8333 26.3107 16.9986 26.413 17.1245C26.5231 17.2268 26.6726 17.2897 26.83 17.2897C26.9874 17.2897 27.1369 17.2346 27.2471 17.1245C27.3494 16.9986 27.3966 16.8412 27.3887 16.6759V16.4792ZM27.1684 16.4871V16.6838C27.1684 16.794 27.1369 16.9041 27.0818 16.9986C27.0504 17.0379 27.011 17.0694 26.9638 17.0851C26.9166 17.1009 26.8694 17.1087 26.8222 17.1087C26.594 17.1087 26.4838 16.9671 26.4838 16.6838V16.4871C26.4759 16.3769 26.5074 16.2668 26.5704 16.1723C26.6018 16.133 26.6412 16.1015 26.6884 16.0858C26.7277 16.0622 26.7828 16.0543 26.83 16.0622C26.893 16.0622 26.9638 16.0779 27.0189 16.1173C27.0661 16.1487 27.1054 16.2038 27.129 16.2589C27.1605 16.3297 27.1684 16.4084 27.1684 16.4871ZM27.2077 15.3304V15.3225C27.2077 15.3146 27.1999 15.3068 27.1841 15.3068H27.0189C27.0149 15.3068 27.009 15.3087 27.0031 15.3107L27.0031 15.3107L27.0031 15.3107C26.9972 15.3127 26.9913 15.3146 26.9874 15.3146L26.9559 15.3461L26.7041 15.6609C26.6963 15.6687 26.6963 15.6766 26.6963 15.6845C26.6963 15.6923 26.7041 15.7002 26.7199 15.7002H26.8615C26.8694 15.7002 26.8772 15.7002 26.8851 15.6923L26.9166 15.6609L27.1999 15.3382L27.2077 15.3304ZM23.4307 15.6451C23.47 15.59 23.4936 15.5192 23.4858 15.4484H23.47V15.4012C23.47 15.3854 23.4621 15.3776 23.4543 15.3697C23.4503 15.3697 23.4484 15.3677 23.4464 15.3658C23.4444 15.3638 23.4425 15.3618 23.4385 15.3618H23.4228H23.3441C23.3284 15.3618 23.3205 15.3697 23.3126 15.3776C23.3126 15.3815 23.3107 15.3835 23.3087 15.3854C23.3067 15.3874 23.3048 15.3894 23.3048 15.3933V15.409V15.4641C23.3126 15.4956 23.3048 15.5271 23.289 15.5507C23.2851 15.5546 23.2812 15.5566 23.2772 15.5586C23.2733 15.5605 23.2694 15.5625 23.2654 15.5664C23.2576 15.5743 23.2418 15.5743 23.234 15.5743C23.2182 15.5743 23.2103 15.5743 23.1946 15.5664C23.1841 15.5664 23.1736 15.5594 23.1631 15.5524C23.1579 15.5489 23.1526 15.5454 23.1474 15.5428L22.9664 15.4012C22.9271 15.3618 22.872 15.3382 22.8169 15.3382C22.7854 15.3382 22.754 15.3382 22.7225 15.354C22.691 15.3697 22.6674 15.3854 22.6438 15.409C22.5966 15.4641 22.573 15.5428 22.5808 15.6136V15.6687V15.6845C22.5808 15.6923 22.5808 15.7002 22.5887 15.7002C22.5926 15.7002 22.5946 15.7022 22.5966 15.7041C22.5985 15.7061 22.6005 15.7081 22.6044 15.7081H22.6202H22.6989C22.7067 15.7081 22.7225 15.7002 22.7303 15.6923C22.7303 15.6884 22.7323 15.6864 22.7343 15.6845C22.7362 15.6825 22.7382 15.6805 22.7382 15.6766V15.6608V15.6058C22.7382 15.5743 22.7382 15.5428 22.754 15.5192C22.754 15.514 22.7609 15.5087 22.7679 15.5035C22.7714 15.5008 22.7749 15.4982 22.7776 15.4956C22.7854 15.4877 22.7933 15.4877 22.809 15.4877C22.8248 15.4877 22.8405 15.4877 22.8562 15.4956L22.8563 15.4956C22.8799 15.5113 22.9035 15.5271 22.9192 15.5428L23.0766 15.6608C23.1238 15.7002 23.1867 15.7159 23.2418 15.7159C23.2812 15.7159 23.3126 15.7081 23.3441 15.7002C23.3756 15.6845 23.4071 15.6687 23.4307 15.6451ZM23.1002 17.2425V17.2268H23.1159V15.9441C23.1159 15.9284 23.1081 15.9127 23.1002 15.9048C23.096 15.9027 23.0923 15.9006 23.0889 15.8986C23.0797 15.8933 23.0724 15.889 23.0608 15.889H22.9428H22.9271C22.9237 15.889 22.9218 15.889 22.9201 15.8896C22.9178 15.8905 22.9159 15.8924 22.9113 15.8969C22.9083 15.8999 22.9053 15.9018 22.9028 15.9034C22.8986 15.9059 22.8956 15.9078 22.8956 15.9127C22.8877 15.9127 22.8877 15.9205 22.8877 15.9284V17.2189C22.8877 17.2268 22.8956 17.2425 22.9035 17.2504L22.9035 17.2504C22.9113 17.2582 22.9192 17.2661 22.9349 17.2661H23.053H23.0766C23.0844 17.2661 23.0844 17.2661 23.0923 17.2582C23.0923 17.2543 23.0943 17.2523 23.0962 17.2504C23.0982 17.2484 23.1002 17.2464 23.1002 17.2425ZM19.5829 17.211V17.211L19.5671 15.4405V15.4405C19.5671 15.4327 19.5671 15.4169 19.5593 15.409C19.5553 15.409 19.5534 15.4071 19.5514 15.4051C19.5494 15.4031 19.5475 15.4012 19.5435 15.4012H19.5278H19.3862H19.3704C19.3626 15.4012 19.3626 15.4012 19.3547 15.409L19.3547 15.409C19.3547 15.413 19.3527 15.4149 19.3507 15.4169C19.3488 15.4189 19.3468 15.4209 19.3468 15.4248V15.4405V16.9199L18.5599 15.4405C18.5599 15.4248 18.5442 15.409 18.5285 15.4012C18.5048 15.3933 18.4812 15.3933 18.4576 15.3933H18.4576H18.316C18.3068 15.3933 18.3003 15.396 18.2949 15.3982C18.291 15.3998 18.2878 15.4012 18.2845 15.4012C18.2767 15.4012 18.2688 15.409 18.2609 15.4169L18.2609 15.4169L18.2609 15.4169C18.253 15.4248 18.2452 15.4327 18.2452 15.4405C18.2373 15.4563 18.2373 15.4641 18.2373 15.472V17.2504C18.2373 17.274 18.253 17.2818 18.2845 17.2818H18.4183H18.434C18.4419 17.2818 18.4498 17.2818 18.4498 17.274C18.4498 17.27 18.4517 17.2681 18.4537 17.2661C18.4557 17.2641 18.4576 17.2622 18.4576 17.2582V17.2425V15.7631C18.4576 15.7553 18.4655 15.7553 18.4655 15.7553C18.4734 15.7553 18.4734 15.7631 18.4734 15.7631L19.2603 17.2504C19.2681 17.2661 19.2839 17.274 19.2996 17.2818C19.3153 17.2897 19.3311 17.2897 19.3468 17.2897H19.3468H19.5042C19.5134 17.2897 19.5199 17.287 19.5253 17.2848C19.5291 17.2832 19.5324 17.2818 19.5357 17.2818C19.5435 17.2818 19.5514 17.274 19.5593 17.2661C19.5671 17.2582 19.575 17.2504 19.575 17.2425C19.5829 17.2268 19.5829 17.2189 19.5829 17.211ZM20.6687 17.573C20.6058 17.5887 20.5428 17.5966 20.4798 17.5966C20.409 17.5966 20.3461 17.5887 20.3067 17.5809C20.2588 17.5672 20.2048 17.5475 20.1345 17.5218L20.1021 17.51C20.0943 17.5022 20.0864 17.5022 20.0785 17.5022H20.0785H20.0785C20.0707 17.5022 20.0628 17.5022 20.0549 17.51C20.0519 17.513 20.0489 17.5149 20.0464 17.5165C20.0422 17.5191 20.0392 17.5209 20.0392 17.5258C20.0313 17.5258 20.0313 17.5336 20.0313 17.5415V17.5415V17.6281C20.0313 17.632 20.0333 17.6379 20.0353 17.6438C20.0372 17.6497 20.0392 17.6556 20.0392 17.6595C20.0392 17.6648 20.0462 17.67 20.0532 17.6753C20.0567 17.6779 20.0602 17.6805 20.0628 17.6832L20.0628 17.6832C20.1179 17.7068 20.173 17.7304 20.2359 17.7461C20.3146 17.7697 20.3933 17.7776 20.4798 17.7776C20.6294 17.7933 20.771 17.754 20.889 17.6674C20.9756 17.5887 21.0228 17.4628 21.0228 17.2818V15.9835V15.9599C21.0228 15.9599 21.0228 15.952 21.0149 15.9441C21.0071 15.9363 20.9913 15.9284 20.9756 15.9284C20.8261 15.8891 20.6687 15.8654 20.5192 15.8654C20.409 15.8654 20.3067 15.8891 20.2044 15.9363C20.1179 15.9835 20.0549 16.0543 20.0156 16.1409C19.9684 16.251 19.9526 16.3691 19.9526 16.4871V16.6759C19.9526 17.093 20.1415 17.2976 20.5192 17.2976C20.5743 17.2976 20.6215 17.2976 20.6687 17.2897C20.7238 17.2818 20.771 17.274 20.8025 17.2661V17.2818C20.8025 17.3448 20.7946 17.4156 20.771 17.4786C20.7474 17.5258 20.7159 17.5573 20.6687 17.573ZM20.7946 16.0779V17.0773C20.7474 17.093 20.7002 17.1009 20.653 17.1009C20.6058 17.1087 20.5585 17.1087 20.5113 17.1087C20.4484 17.1166 20.3854 17.1009 20.3225 17.0694C20.2753 17.0379 20.2359 16.9907 20.2123 16.9356C20.1808 16.8569 20.173 16.7625 20.173 16.6759V16.4871C20.173 16.4241 20.173 16.3533 20.1887 16.2904C20.1966 16.2432 20.2123 16.1959 20.2438 16.1566C20.2753 16.1173 20.3146 16.0936 20.3539 16.0779C20.4012 16.0622 20.4562 16.0543 20.5113 16.0543C20.6058 16.0543 20.7002 16.0622 20.7946 16.0779ZM22.4707 17.2268C22.4707 17.2346 22.4707 17.2425 22.4628 17.2425C22.4628 17.2474 22.4598 17.2492 22.4556 17.2518C22.4531 17.2534 22.4501 17.2552 22.4471 17.2582L22.4471 17.2582C22.4392 17.2661 22.4392 17.2661 22.4313 17.2661C22.4235 17.2661 22.4156 17.274 22.4156 17.274H22.2976H22.2818C22.277 17.274 22.2751 17.271 22.2725 17.2668C22.2709 17.2642 22.2691 17.2612 22.2661 17.2582L22.2661 17.2582C22.2582 17.2504 22.2582 17.2504 22.2582 17.2425C22.2582 17.2346 22.2503 17.2268 22.2503 17.2268V16.3927C22.2582 16.2982 22.2346 16.2038 22.1795 16.133C22.1559 16.1094 22.1166 16.0858 22.0851 16.0779C22.0536 16.0622 22.0143 16.0622 21.9749 16.0622C21.9199 16.0622 21.8569 16.07 21.8018 16.0779C21.7389 16.0858 21.6838 16.1015 21.6287 16.133V17.2268C21.6287 17.2346 21.6287 17.2425 21.6208 17.2425C21.6208 17.2464 21.6189 17.2484 21.6169 17.2504C21.6149 17.2523 21.613 17.2543 21.613 17.2582L21.5972 17.274C21.5933 17.274 21.5894 17.2759 21.5854 17.2779C21.5815 17.2799 21.5776 17.2818 21.5736 17.2818H21.4556H21.4399L21.4241 17.2661L21.4084 17.2504C21.4084 17.2425 21.4005 17.2346 21.4005 17.2346V15.4327C21.4005 15.4248 21.4005 15.4169 21.4084 15.4169C21.4084 15.413 21.4103 15.411 21.4123 15.409C21.4143 15.4071 21.4163 15.4051 21.4163 15.4012C21.4208 15.3967 21.4227 15.3947 21.425 15.3939C21.4267 15.3933 21.4286 15.3933 21.432 15.3933H21.432H21.4477H21.5736H21.5972C21.6051 15.3933 21.613 15.4012 21.613 15.4012C21.6208 15.409 21.6287 15.4248 21.6287 15.4405V15.9599L21.6287 15.9599C21.6917 15.9363 21.7546 15.9127 21.8254 15.8969C21.8685 15.8861 21.9116 15.8827 21.9573 15.8791C21.9783 15.8775 21.9998 15.8758 22.0222 15.8733C22.1087 15.8733 22.1874 15.889 22.2582 15.9284C22.329 15.9677 22.3841 16.0307 22.4156 16.1015C22.4549 16.1959 22.4785 16.2982 22.4707 16.4005V17.2268ZM24.2334 17.2268V16.0071C24.2334 15.9913 24.2334 15.9756 24.2413 15.9677C24.2452 15.9638 24.2511 15.9599 24.257 15.9559C24.2629 15.952 24.2688 15.9481 24.2727 15.9441C24.3672 15.9205 24.4616 15.8969 24.5639 15.8812C24.6347 15.8654 24.7134 15.8654 24.7842 15.8654C24.8393 15.8654 24.9023 15.8733 24.9495 15.8891C24.9967 15.9048 25.0439 15.9284 25.0754 15.9677C25.2091 15.9048 25.3508 15.8654 25.5003 15.8654C25.5711 15.8654 25.6498 15.8812 25.7127 15.9127C25.7757 15.9441 25.8229 15.9992 25.8544 16.0622C25.8937 16.1487 25.9095 16.2432 25.9095 16.3376V17.2346V17.2504C25.9095 17.2543 25.9075 17.2563 25.9055 17.2582C25.9036 17.2602 25.9016 17.2622 25.9016 17.2661C25.8937 17.274 25.8937 17.274 25.8859 17.274H25.8701H25.7521C25.7442 17.274 25.7363 17.274 25.7285 17.2661C25.7206 17.2661 25.7127 17.2582 25.7127 17.2582C25.7049 17.2504 25.7049 17.2504 25.7049 17.2425V17.2425V17.2268V16.3218C25.7127 16.2825 25.7049 16.2432 25.697 16.2117C25.6891 16.1723 25.6734 16.1409 25.6498 16.1094C25.6262 16.0858 25.6026 16.07 25.5711 16.0622C25.5396 16.0543 25.5082 16.0464 25.4845 16.0464C25.3823 16.0543 25.28 16.07 25.1855 16.1173C25.2013 16.1802 25.2091 16.251 25.2091 16.314V17.2189V17.2346C25.2091 17.2386 25.2072 17.2405 25.2052 17.2425C25.2032 17.2445 25.2013 17.2464 25.2013 17.2504C25.2013 17.2552 25.1983 17.2571 25.1941 17.2597C25.1915 17.2612 25.1885 17.2631 25.1855 17.2661C25.1777 17.274 25.1698 17.274 25.1698 17.274H25.036C25.0282 17.274 25.0203 17.274 25.0203 17.2661C25.0163 17.2661 25.0144 17.2641 25.0124 17.2622C25.0104 17.2602 25.0085 17.2582 25.0045 17.2582C24.9967 17.2504 24.9967 17.2346 24.9967 17.2268V17.2268V16.3297C24.9967 16.2746 24.9888 16.2195 24.9731 16.1645C24.9652 16.133 24.9416 16.1015 24.9101 16.0858C24.8786 16.07 24.8393 16.0622 24.8 16.0622C24.6977 16.0622 24.5954 16.0779 24.4931 16.1015V17.2268C24.4931 17.2383 24.4889 17.2456 24.4835 17.2548L24.4835 17.2549L24.4835 17.2549L24.4835 17.2549C24.4815 17.2583 24.4794 17.2619 24.4773 17.2661C24.4773 17.274 24.4695 17.274 24.4616 17.274H24.4459H24.3121C24.3042 17.274 24.3042 17.274 24.2963 17.2661C24.2924 17.2661 24.2904 17.2641 24.2885 17.2622C24.2865 17.2602 24.2845 17.2582 24.2806 17.2582C24.245 17.2511 24.2416 17.244 24.2355 17.231L24.2334 17.2268ZM27.9868 15.6136V15.6294C27.9868 15.6333 27.9848 15.6353 27.9828 15.6373C27.9809 15.6392 27.9789 15.6412 27.9789 15.6451C27.971 15.653 27.9553 15.6609 27.9396 15.6609H27.8058H27.79C27.7861 15.6609 27.7841 15.6589 27.7822 15.6569C27.7802 15.655 27.7782 15.653 27.7743 15.653C27.7664 15.6451 27.7664 15.6451 27.7664 15.6373V15.6215V15.4091C27.7664 15.3975 27.7707 15.3902 27.776 15.381L27.776 15.381L27.776 15.3809L27.776 15.3809L27.776 15.3809L27.7761 15.3809L27.7761 15.3808C27.778 15.3775 27.7801 15.3739 27.7822 15.3697C27.79 15.3618 27.8058 15.354 27.8215 15.354H27.9474H27.971C27.9789 15.354 27.9868 15.3618 27.9868 15.3618C27.9946 15.3697 27.9946 15.3697 27.9946 15.3776V15.3776V15.4012L27.9868 15.6136ZM27.9868 17.2268C27.9868 17.2346 27.9868 17.2425 27.9789 17.2425C27.9789 17.2464 27.9769 17.2484 27.975 17.2504C27.973 17.2523 27.971 17.2543 27.971 17.2582C27.9632 17.2661 27.9632 17.2661 27.9553 17.2661H27.9396H27.8137C27.8058 17.2661 27.7979 17.2661 27.7979 17.2582C27.794 17.2582 27.792 17.2563 27.79 17.2543C27.7881 17.2523 27.7861 17.2504 27.7822 17.2504L27.7664 17.2346C27.7664 17.2316 27.7653 17.2286 27.7643 17.2261C27.7627 17.2219 27.7616 17.2189 27.7664 17.2189V15.9284V15.9127C27.7664 15.9087 27.7684 15.9068 27.7704 15.9048C27.7723 15.9028 27.7743 15.9009 27.7743 15.8969C27.7822 15.8891 27.7822 15.8891 27.79 15.8891H27.8058H27.9317C27.9432 15.8891 27.9505 15.8933 27.9598 15.8986C27.9632 15.9006 27.9668 15.9027 27.971 15.9048C27.9789 15.9127 27.9868 15.9284 27.9868 15.9441V17.2268ZM28.6713 17.0064C28.6792 16.9986 28.6792 16.9907 28.6792 16.9828C28.6792 16.9592 28.6635 16.9514 28.6241 16.9592H28.4589C28.4353 16.9592 28.4195 16.975 28.4117 17.0064L28.27 17.4864V17.5022C28.27 17.5258 28.2858 17.5336 28.3015 17.5336H28.4274H28.4431C28.451 17.5336 28.4589 17.5336 28.4589 17.5258C28.4704 17.5143 28.4735 17.507 28.4774 17.4977C28.4788 17.4943 28.4804 17.4906 28.4825 17.4864L28.6713 17.0064ZM29.9698 17.2267C29.9698 17.2425 29.9698 17.2503 29.9619 17.2661L29.9619 17.2661L29.9619 17.2661C29.9574 17.2706 29.9555 17.2725 29.9532 17.2733C29.9514 17.274 29.9495 17.274 29.9462 17.274H29.9304H29.8045H29.7888C29.7888 17.274 29.7809 17.2661 29.7731 17.2661C29.7652 17.2582 29.7573 17.2425 29.7573 17.2267V15.4169C29.7573 15.4012 29.7652 15.3933 29.7731 15.3854C29.7809 15.3776 29.7809 15.3776 29.7888 15.3776C29.7967 15.3776 29.8045 15.3697 29.8045 15.3697H29.9304H29.9462C29.9501 15.3697 29.9521 15.3717 29.954 15.3736C29.956 15.3756 29.958 15.3776 29.9619 15.3776C29.9698 15.3854 29.9698 15.4012 29.9698 15.409V17.2267ZM31.3468 17.211C31.3546 17.2031 31.3546 17.1953 31.3546 17.1795H31.3468V16.3218C31.3468 15.9992 31.1815 15.8418 30.851 15.8418C30.7723 15.8418 30.6937 15.8576 30.615 15.8733L30.5847 15.8818L30.5847 15.8818L30.5847 15.8818C30.5376 15.8949 30.4871 15.909 30.4418 15.9284C30.434 15.9284 30.4261 15.9362 30.4182 15.9441C30.4104 15.952 30.4104 15.9677 30.4104 15.9756V16.0779C30.4055 16.0827 30.4067 16.0846 30.4082 16.0872C30.4092 16.0888 30.4104 16.0906 30.4104 16.0936C30.4134 16.0966 30.4152 16.0996 30.4168 16.1022C30.4194 16.1064 30.4212 16.1094 30.4261 16.1094C30.434 16.1172 30.4419 16.1172 30.4497 16.1172C30.4537 16.1172 30.4576 16.1153 30.4615 16.1133C30.4655 16.1113 30.4694 16.1094 30.4733 16.1094L30.6622 16.0621C30.7251 16.0543 30.7881 16.0464 30.8589 16.0464C30.9376 16.0385 31.0084 16.0621 31.0714 16.1094C31.1186 16.1723 31.1422 16.251 31.1343 16.3297V16.432H30.9455C30.8274 16.432 30.7094 16.4477 30.5914 16.4792C30.5127 16.5028 30.4418 16.55 30.3946 16.613C30.3474 16.6838 30.3317 16.7703 30.3317 16.849V16.8726C30.3238 16.9277 30.3317 16.9907 30.3553 17.0458C30.3789 17.1008 30.4104 17.148 30.4576 17.1874C30.5441 17.2582 30.6858 17.2897 30.8825 17.2897C30.9546 17.2897 31.0201 17.2831 31.0911 17.2759L31.1107 17.2739C31.1815 17.2661 31.2523 17.2503 31.3153 17.2346C31.331 17.2267 31.3389 17.2189 31.3468 17.211ZM31.0084 15.7002C31.0241 15.7002 31.032 15.6923 31.032 15.6844C31.032 15.6844 31.032 15.6766 31.0399 15.6687L31.032 15.6608L30.7881 15.3461C30.7841 15.3421 30.7782 15.3382 30.7723 15.3343C30.7664 15.3303 30.7605 15.3264 30.7566 15.3225C30.7487 15.3225 30.7428 15.3205 30.7369 15.3185C30.731 15.3166 30.7251 15.3146 30.7173 15.3146H30.552C30.5284 15.3146 30.5205 15.3146 30.5205 15.3303C30.5205 15.3337 30.5205 15.3356 30.5211 15.3373C30.522 15.3396 30.5239 15.3416 30.5284 15.3461L30.5284 15.3461L30.8117 15.6687L30.8353 15.6923C30.8353 15.6923 30.8432 15.7002 30.851 15.7002H30.8746H31.0084ZM31.1343 16.6051V17.1008L31.0792 17.1244C31.0683 17.1244 31.0556 17.1261 31.0421 17.128C31.0264 17.13 31.0095 17.1323 30.9927 17.1323H30.8904C30.8196 17.1323 30.7487 17.1244 30.6858 17.1087C30.6821 17.1068 30.6779 17.105 30.6735 17.103C30.6593 17.0967 30.6427 17.0893 30.6307 17.0772C30.615 17.0694 30.5992 17.0458 30.5914 17.03C30.5678 16.9907 30.5599 16.9356 30.5599 16.8884V16.8648C30.5599 16.8254 30.5599 16.7861 30.5756 16.7467C30.5914 16.7153 30.615 16.6838 30.6386 16.668C30.6779 16.6444 30.7173 16.6287 30.7566 16.6208C30.8196 16.6051 30.8825 16.6051 30.9455 16.6051H31.1343ZM31.7402 17.2268V16.0071C31.7402 15.9913 31.7402 15.9756 31.7481 15.9677C31.752 15.9638 31.7579 15.9599 31.7638 15.9559C31.7697 15.952 31.7756 15.9481 31.7796 15.9441L31.7796 15.9441C31.874 15.9205 31.9684 15.8969 32.0629 15.8812C32.1337 15.8654 32.2124 15.8654 32.2832 15.8654C32.3383 15.8654 32.3933 15.8733 32.4484 15.8891C32.4956 15.9048 32.5429 15.9284 32.5743 15.9677C32.7081 15.9048 32.8497 15.8654 32.9914 15.8654C33.0622 15.8654 33.1409 15.8812 33.2038 15.9127C33.2668 15.9441 33.3219 15.9992 33.3455 16.0622C33.3848 16.1487 33.4006 16.2432 33.4006 16.3376V17.2346C33.4006 17.2425 33.4006 17.2504 33.3927 17.2504C33.3927 17.2543 33.3907 17.2563 33.3888 17.2582C33.3868 17.2602 33.3848 17.2622 33.3848 17.2661C33.3803 17.2706 33.3784 17.2726 33.3761 17.2734C33.3744 17.274 33.3724 17.274 33.3691 17.274H33.3533H33.2353C33.2274 17.274 33.2196 17.274 33.2196 17.2661C33.2156 17.2661 33.2137 17.2641 33.2117 17.2622C33.2097 17.2602 33.2078 17.2582 33.2038 17.2582C33.196 17.2504 33.196 17.2504 33.196 17.2425V17.2268V16.3218C33.2038 16.2432 33.1802 16.1723 33.133 16.1094C33.1094 16.0858 33.0858 16.07 33.0543 16.0622C33.0229 16.0543 32.9914 16.0464 32.9599 16.0464C32.8576 16.0543 32.7553 16.07 32.6609 16.1173C32.6766 16.1802 32.6845 16.251 32.6845 16.314V17.2189C32.6845 17.2346 32.6845 17.2425 32.6766 17.2504L32.6609 17.2661C32.653 17.2661 32.6452 17.274 32.6452 17.274H32.5114H32.4956C32.4917 17.274 32.4897 17.272 32.4878 17.27C32.4858 17.2681 32.4838 17.2661 32.4799 17.2661C32.472 17.2582 32.4642 17.2425 32.4642 17.2346V16.3297C32.4642 16.2746 32.4563 16.2195 32.4406 16.1645C32.4327 16.133 32.4091 16.1015 32.3776 16.0858C32.3461 16.07 32.3068 16.0622 32.2674 16.0622C32.1652 16.0622 32.055 16.0779 31.9606 16.1015V17.2268C31.9606 17.2425 31.9606 17.2504 31.9448 17.2661C31.937 17.274 31.937 17.274 31.9291 17.274H31.9134H31.7796H31.7638C31.7599 17.274 31.7579 17.272 31.756 17.27C31.754 17.2681 31.752 17.2661 31.7481 17.2661C31.7402 17.2504 31.7402 17.2425 31.7402 17.2268ZM34.5337 16.0071V17.2268C34.5337 17.2425 34.5337 17.2504 34.5652 17.2425C34.573 17.2425 34.573 17.2425 34.5809 17.2504C34.5888 17.2582 34.5888 17.2582 34.5966 17.2582H34.7304H34.7462C34.754 17.2582 34.7619 17.2582 34.7619 17.2504C34.7619 17.2464 34.7639 17.2445 34.7658 17.2425C34.7678 17.2405 34.7698 17.2386 34.7698 17.2346V17.2189V16.0936C34.8642 16.07 34.9743 16.0543 35.0766 16.0543C35.116 16.0543 35.1553 16.0622 35.1868 16.0779C35.2183 16.0936 35.2419 16.1251 35.2498 16.1566C35.2655 16.2117 35.2734 16.2668 35.2734 16.3218V17.2268C35.2734 17.2346 35.2812 17.2504 35.2891 17.2582C35.293 17.2582 35.295 17.2602 35.297 17.2622C35.2989 17.2641 35.3009 17.2661 35.3048 17.2661C35.3048 17.274 35.3127 17.274 35.3206 17.274H35.4543C35.4543 17.2788 35.4574 17.2777 35.4615 17.2761C35.4641 17.2751 35.4671 17.274 35.4701 17.274C35.4731 17.271 35.4761 17.2691 35.4787 17.2675C35.4828 17.265 35.4858 17.2631 35.4858 17.2582C35.4858 17.2543 35.4878 17.2523 35.4898 17.2504C35.4917 17.2484 35.4937 17.2464 35.4937 17.2425V17.2268V16.3218C35.4937 16.2589 35.4858 16.1881 35.4701 16.1251C35.5645 16.0779 35.6668 16.0622 35.7691 16.0543C35.7927 16.0543 35.8242 16.0622 35.8557 16.07C35.8871 16.0779 35.9107 16.0936 35.9343 16.1173C35.9816 16.1802 36.0052 16.251 35.9973 16.3297V17.2346V17.2504C35.9973 17.2582 35.9973 17.2582 36.0052 17.2661C36.0091 17.2661 36.0111 17.2681 36.013 17.27C36.015 17.272 36.017 17.274 36.0209 17.274H36.0366H36.1547H36.1704C36.1738 17.274 36.1757 17.274 36.1774 17.2734C36.1797 17.2726 36.1816 17.2706 36.1861 17.2661L36.1861 17.2661C36.1861 17.2622 36.1881 17.2602 36.1901 17.2582C36.1921 17.2563 36.194 17.2543 36.194 17.2504C36.2019 17.2504 36.2019 17.2425 36.2019 17.2346V16.3376C36.2019 16.2432 36.1861 16.1487 36.1468 16.0622C36.1232 15.9992 36.0681 15.9441 36.0052 15.9127C35.9422 15.8812 35.8635 15.8654 35.7927 15.8654C35.6511 15.8654 35.5094 15.9048 35.3757 15.9677C35.3442 15.9284 35.297 15.9048 35.2498 15.8891C35.1947 15.8733 35.1396 15.8654 35.0845 15.8654C35.0058 15.8654 34.9271 15.8654 34.8563 15.8812C34.7619 15.8969 34.6675 15.9205 34.573 15.9441C34.5691 15.9481 34.5632 15.952 34.5573 15.9559C34.5514 15.9599 34.5455 15.9638 34.5416 15.9677C34.5337 15.9756 34.5337 15.9913 34.5337 16.0071ZM38.2792 15.6294V15.6136H38.2714V15.4012V15.3776C38.2714 15.3697 38.2714 15.3697 38.2635 15.3618C38.2635 15.3618 38.2556 15.354 38.2477 15.354H38.2241H38.0982C38.0825 15.354 38.0668 15.3618 38.0589 15.3697C38.0589 15.3697 38.051 15.3776 38.051 15.3854V15.4091V15.6136C38.051 15.6176 38.053 15.6215 38.055 15.6254C38.0569 15.6294 38.0589 15.6333 38.0589 15.6373L38.0746 15.653C38.0786 15.653 38.0805 15.655 38.0825 15.6569C38.0845 15.6589 38.0864 15.6609 38.0904 15.6609H38.1061H38.232C38.2477 15.6609 38.2635 15.653 38.2714 15.6451C38.2714 15.6412 38.2733 15.6392 38.2753 15.6373C38.2773 15.6353 38.2792 15.6333 38.2792 15.6294ZM38.2714 17.2425V17.2268H38.2871V15.9363C38.2871 15.9205 38.2792 15.9048 38.2714 15.8969C38.2671 15.8948 38.2635 15.8927 38.2601 15.8908C38.2508 15.8854 38.2435 15.8812 38.232 15.8812H38.114C38.1061 15.8812 38.0904 15.8891 38.0825 15.8969C38.0825 15.9009 38.0805 15.9028 38.0786 15.9048C38.0766 15.9068 38.0746 15.9087 38.0746 15.9127C38.0668 15.9127 38.0668 15.9205 38.0668 15.9284V17.2189C38.0619 17.2189 38.063 17.2219 38.0646 17.2261C38.0656 17.2286 38.0668 17.2316 38.0668 17.2346C38.0668 17.2425 38.0668 17.2425 38.0746 17.2504C38.0786 17.2504 38.0805 17.2523 38.0825 17.2543C38.0845 17.2563 38.0864 17.2582 38.0904 17.2582C38.0904 17.2661 38.0982 17.2661 38.1061 17.2661H38.2241H38.2477C38.2556 17.2661 38.2556 17.2661 38.2635 17.2582C38.2635 17.2543 38.2654 17.2523 38.2674 17.2504C38.2694 17.2484 38.2714 17.2464 38.2714 17.2425Z" fill="black"/>
<path id="Union_2" fill-rule="evenodd" clip-rule="evenodd" d="M33.7152 9.39844H36.4693C37.7519 9.39844 38.2791 9.83123 38.287 10.8778V12.5145C38.287 13.5611 37.7598 13.9939 36.4772 13.9939H34.5493C33.2273 13.9939 32.6923 13.5768 32.6923 12.546V6.62861C32.6923 6.30598 32.8811 6.125 33.2037 6.125C33.5185 6.125 33.7152 6.31385 33.7152 6.62861V9.39844ZM34.3998 13.0339H36.7526C37.2641 13.0339 37.2641 12.9394 37.2562 12.4988V10.9014C37.2562 10.5158 37.2562 10.3506 36.6031 10.3506H33.6995V12.546C33.6995 12.8843 33.6995 13.0339 34.3998 13.0339ZM39.4043 8.09219C39.1053 8.09219 38.9401 8.25744 38.9401 8.56432C38.9401 8.73744 39.003 9.03646 39.4043 9.03646C39.8214 9.03646 39.8843 8.74531 39.8843 8.56432C39.8843 8.39121 39.8214 8.09219 39.4043 8.09219ZM30.308 9.39844H28.2621C26.9795 9.39844 26.4838 9.81549 26.4838 10.8778V12.5302C26.4838 13.5768 26.9795 13.986 28.2385 13.986H30.308C31.5434 13.986 32.0234 13.5768 32.0234 12.5302V10.8778C32.0234 9.83122 31.5277 9.39844 30.308 9.39844ZM27.5225 10.8778C27.5225 10.5001 27.5225 10.3506 28.152 10.3506H30.4261C30.969 10.3506 30.969 10.4607 30.969 10.8148V12.5381C30.969 12.9394 30.969 13.0338 30.4261 13.0338H28.152C27.5225 13.0338 27.5225 12.9079 27.5225 12.5381V10.8778ZM39.3887 9.25681C39.0976 9.25681 38.9244 9.45353 38.9244 9.78402V13.4509C38.9244 13.7893 39.0976 13.9939 39.4044 13.9939C39.7035 13.9939 39.8923 13.7893 39.8923 13.4509V9.79189C39.8923 9.45353 39.7113 9.25681 39.3887 9.25681ZM40.5532 6.63648C40.5532 6.31385 40.7342 6.125 41.0411 6.125C41.3558 6.125 41.5368 6.31385 41.5368 6.63648V13.4824C41.5368 13.805 41.3637 13.9939 41.049 13.9939C40.7342 13.9939 40.5532 13.805 40.5532 13.4824V6.63648ZM46.2425 9.39844H44.0077C42.7093 9.39844 42.1821 9.82336 42.1821 10.862V12.5145C42.1821 13.4981 42.9139 13.9938 44.3461 13.9938H44.9441C45.2352 13.9938 45.4084 13.805 45.4084 13.506C45.4084 13.207 45.2352 13.0338 44.9441 13.0338H44.1572C43.2208 13.0338 43.2208 12.7191 43.2208 12.6089V12.2312H47.2811C47.4621 12.2312 47.769 12.1683 47.769 11.7276V10.7047C47.769 9.91778 47.5093 9.39844 46.2425 9.39844ZM43.2208 10.8148C43.2208 10.4765 43.2208 10.3506 43.8503 10.3506H46.392C46.6202 10.3506 46.691 10.382 46.7067 10.4057C46.7461 10.445 46.7461 10.563 46.7461 10.7047V11.2555H43.2208V10.8148ZM23.289 9.3591H24.0523C25.3192 9.3591 25.8149 9.77615 25.8228 10.8384V13.4824C25.8228 13.7893 25.6418 13.9073 25.5316 13.9466C25.4529 13.9702 25.3742 13.986 25.2956 13.986H25.2798C25.209 13.986 25.1382 13.9702 25.0674 13.9466C24.9572 13.9073 24.7841 13.7971 24.7841 13.4902V10.8384C24.7841 10.4686 24.7841 10.3112 24.1546 10.3112H23.1946C22.5651 10.3112 22.5651 10.4765 22.5651 10.7991V10.8384V13.4981C22.5651 13.6161 22.5336 13.7263 22.4628 13.8207C22.4156 13.8758 22.3526 13.923 22.2818 13.9545C22.211 13.9781 22.1323 13.9939 22.0536 13.9939H22.03C21.9513 13.9939 21.8726 13.9781 21.8018 13.9545C21.731 13.923 21.668 13.8758 21.6208 13.8129C21.5578 13.7184 21.5185 13.6083 21.5264 13.4902V10.8384V10.7991L21.5262 10.7929C21.5185 10.4744 21.5145 10.3112 20.8969 10.3112H19.9211C19.2916 10.3112 19.2916 10.4686 19.2916 10.8384V13.4902C19.2916 13.7893 19.1106 13.9073 19.0083 13.9466C18.8588 14.0017 18.6936 14.0017 18.5441 13.9466C18.4103 13.8994 18.2529 13.7814 18.2529 13.4902V10.8384C18.2529 9.77615 18.7487 9.3591 20.0234 9.3591H20.7867C21.3533 9.3591 21.7546 9.43779 22.0378 9.61877C22.3211 9.44566 22.7224 9.3591 23.289 9.3591Z" fill="black"/>
<path id="Vector" d="M15.5538 10.2409C15.7898 10.4769 15.9787 10.7524 16.1046 11.0592C16.2305 11.3661 16.2934 11.6966 16.2934 12.0271C16.2934 12.3576 16.2305 12.6881 16.1046 12.995C15.9787 13.3019 15.7898 13.5773 15.5538 13.8133L10.2108 19.1563C9.73867 19.6284 9.09342 19.896 8.42457 19.896C7.75572 19.896 7.11047 19.6284 6.63834 19.1563L1.28752 13.8133C1.05146 13.5773 0.870475 13.3019 0.736704 12.995C0.610802 12.6881 0.547852 12.3576 0.547852 12.0271C0.547852 11.6966 0.610802 11.3661 0.736704 11.0592C0.862606 10.7524 1.05146 10.4769 1.28752 10.2409L6.63834 4.89006C7.11047 4.41793 7.75572 4.15039 8.42457 4.15039C9.09342 4.15039 9.73867 4.41793 10.2108 4.89006L15.5538 10.2409Z" fill="#FFC425"/>
<path id="Vector_2" d="M10.2106 9.09045L9.31351 9.9875C9.23482 10.0662 9.164 10.1685 9.12465 10.2786C9.07744 10.3888 9.05383 10.499 9.05383 10.617C9.05383 10.8531 9.14826 11.0813 9.31351 11.2465C9.47875 11.4118 9.70695 11.5062 9.94301 11.5062C10.1791 11.5062 10.4073 11.4118 10.5725 11.2465L11.1312 10.6878C11.1312 10.6878 11.3358 10.8845 11.8158 11.3645L12.3745 11.9232L8.54236 15.7554C8.36924 15.9285 8.15678 15.9442 7.99154 15.779L4.73383 12.5291C4.70236 12.4977 4.67088 12.4583 4.65515 12.4111C4.63941 12.3639 4.63154 12.3245 4.63154 12.2773C4.63154 12.2301 4.63941 12.1829 4.66301 12.1436C4.67875 12.1042 4.71023 12.0649 4.7417 12.0334L9.23482 7.54029C9.32137 7.4616 9.39219 7.3593 9.43941 7.24914C9.48662 7.13897 9.51023 7.02094 9.51023 6.90291C9.51023 6.78488 9.48662 6.66684 9.44728 6.55668C9.40006 6.44652 9.33711 6.34422 9.25055 6.26553C9.164 6.17897 9.06957 6.11602 8.95941 6.06881C8.84924 6.0216 8.73121 6.00586 8.61318 6.00586C8.49515 6.00586 8.37711 6.02947 8.26695 6.07668C8.15678 6.12389 8.06236 6.19471 7.9758 6.28127L2.86105 11.3882C2.62498 11.6321 2.49121 11.9626 2.49121 12.3009C2.49121 12.6393 2.63285 12.9698 2.87678 13.2059L7.32269 17.6439C7.55875 17.8878 7.88924 18.0216 8.2276 18.0295C8.56596 18.0295 8.89646 17.9036 9.14039 17.6596L13.9719 12.8282C14.2079 12.5842 14.3417 12.2616 14.3417 11.9154C14.3417 11.577 14.2001 11.2465 13.9561 11.0104L13.2715 10.3259L13.0591 10.1134L12.0204 9.07471C11.7765 8.83865 11.446 8.70488 11.1076 8.70488C10.7692 8.71274 10.4466 8.84651 10.2106 9.09045Z" fill="black"/>
</g>
</svg>
