<svg xmlns="http://www.w3.org/2000/svg" width="733" height="16" viewBox="0 0 733 16" fill="none">
  <path fill-rule="evenodd" clip-rule="evenodd" d="M59.4093 16L90.1827 16C92.1627 11.4355 100.787 8 111.125 8C121.464 8 130.088 11.4355 132.068 16L162.842 16C164.822 11.4355 173.446 8 183.784 8C194.123 8 202.747 11.4355 204.727 16L235.5 16C237.48 11.4355 246.104 8 256.443 8C266.782 8 275.406 11.4355 277.386 16L308.159 16C310.139 11.4355 318.763 8 329.102 8C339.441 8 348.065 11.4355 350.045 16L380.818 16C382.798 11.4355 391.422 8 401.761 8C412.1 8 420.724 11.4355 422.704 16L453.477 16C455.457 11.4355 464.081 8 474.42 8C484.759 8 493.383 11.4355 495.363 16L526.136 16C528.116 11.4355 536.74 8 547.079 8C557.417 8 566.041 11.4355 568.021 16L598.795 16C600.775 11.4355 609.399 8 619.738 8C630.076 8 638.7 11.4355 640.68 16L671.454 16C673.434 11.4355 682.058 8 692.397 8C702.735 8 711.359 11.4355 713.339 16L733 16V0L0 0V16L17.5237 16C19.5038 11.4355 28.1278 8 38.4666 8C48.8053 8 57.4293 11.4355 59.4093 16Z" fill="white"/>
</svg>