<svg xmlns="http://www.w3.org/2000/svg" width="16" height="16" viewBox="0 0 16 16" fill="none">
  <path fill-rule="evenodd" clip-rule="evenodd" d="M4.66667 1.83325C3.47005 1.83325 2.5 2.8033 2.5 3.99992L2.5 9.33325C2.5 10.3578 3.2111 11.2162 4.16667 11.4419L4.16667 6.66658C4.16667 4.91768 5.58443 3.49992 7.33333 3.49992L10.7754 3.49992C10.5496 2.54435 9.69119 1.83325 8.66667 1.83325L4.66667 1.83325ZM11.7993 3.53396C11.574 2.00598 10.2573 0.833252 8.66667 0.833252L4.66667 0.833252C2.91777 0.833252 1.5 2.25102 1.5 3.99992L1.5 9.33325C1.5 10.9239 2.67273 12.2405 4.20071 12.4659C4.42604 13.9939 5.74273 15.1666 7.33333 15.1666H8.89543C9.73528 15.1666 10.5407 14.833 11.1346 14.2391L13.5725 11.8012C14.1664 11.2073 14.5 10.4019 14.5 9.56202V6.66658C14.5 5.07598 13.3273 3.75929 11.7993 3.53396ZM7.33333 4.49992C6.13672 4.49992 5.16667 5.46997 5.16667 6.66658L5.16667 11.9999C5.16667 13.1965 6.13672 14.1666 7.33333 14.1666H8.89543C9.10186 14.1666 9.30526 14.1371 9.5 14.0805V13.3333C9.5 11.5843 10.9178 10.1666 12.6667 10.1666H13.4139C13.4705 9.97185 13.5 9.76845 13.5 9.56202V6.66658C13.5 5.46997 12.53 4.49992 11.3333 4.49992L7.33333 4.49992ZM12.7929 11.1666H12.6667C11.4701 11.1666 10.5 12.1366 10.5 13.3333V13.4595L12.7929 11.1666Z" fill="#8E8E93"/>
</svg>