<svg width="550" height="399" viewBox="0 0 550 399" fill="none" xmlns="http://www.w3.org/2000/svg">
<path d="M197.424 247.533L185.587 247.755L179.59 247.845C177.587 247.882 175.575 247.875 173.566 247.889L173.212 247.891L173.21 247.533L173.167 237.452L173.166 237.051L173.566 237.053L185.495 237.103C189.471 237.107 193.447 237.192 197.423 237.234L197.643 237.236L197.641 237.452C197.626 239.159 197.572 240.857 197.536 242.539L197.424 247.533ZM197.424 247.533L197.311 242.445C197.275 240.767 197.221 239.105 197.206 237.452L197.424 237.669C193.447 237.71 189.472 237.796 185.495 237.8L173.567 237.851L173.965 237.452L173.922 247.534L173.566 247.178C175.534 247.192 177.498 247.184 179.471 247.222L185.403 247.311L197.424 247.533Z" fill="#EBEBEB"/>
<path d="M184.115 260.245L172.278 260.468L166.281 260.557C164.278 260.594 162.266 260.587 160.257 260.601L159.903 260.603L159.901 260.245L159.858 250.164L159.856 249.763L160.257 249.765L172.186 249.815C176.162 249.819 180.138 249.904 184.114 249.946L184.333 249.948L184.332 250.164C184.317 251.871 184.263 253.57 184.227 255.251L184.115 260.245ZM184.115 260.245L184.002 255.158C183.966 253.479 183.912 251.817 183.897 250.164L184.115 250.382C180.138 250.422 176.163 250.509 172.186 250.513L160.258 250.563L160.656 250.165L160.613 260.246L160.257 259.89C162.225 259.904 164.189 259.896 166.162 259.934L172.094 260.023L184.115 260.245Z" fill="#EBEBEB"/>
<path d="M184.115 42.1028L172.278 42.3255L166.281 42.4148C164.278 42.4523 162.266 42.4444 160.257 42.4587L159.903 42.4611L159.901 42.1028L159.858 32.0217L159.856 31.6211L160.257 31.6227L172.186 31.673C176.162 31.677 180.138 31.7623 184.114 31.8038L184.333 31.8062L184.332 32.0217C184.317 33.7286 184.263 35.4276 184.227 37.1089L184.115 42.1028ZM184.115 42.1028L184.002 37.0156C183.966 35.3374 183.912 33.6751 183.897 32.0217L184.115 32.2395C180.138 32.2802 176.163 32.3664 172.186 32.3704L160.258 32.4199L160.656 32.0217L160.613 42.1028L160.257 41.7469C162.225 41.7613 164.189 41.7533 166.162 41.7908L172.094 41.8802L184.115 42.1028Z" fill="#EBEBEB"/>
<path d="M485.741 42.1028L473.905 42.3255L467.908 42.4148C465.905 42.4523 463.892 42.4444 461.884 42.4587L461.529 42.4611L461.528 42.1028L461.485 32.0217L461.483 31.6211L461.884 31.6227L473.812 31.673C477.788 31.677 481.764 31.7623 485.741 31.8038L485.96 31.8062L485.958 32.0217C485.943 33.7286 485.89 35.4276 485.854 37.1089L485.741 42.1028ZM485.741 42.1028L485.628 37.0156C485.592 35.3374 485.539 33.6751 485.523 32.0217L485.741 32.2395C481.765 32.2802 477.788 32.3664 473.813 32.3704L461.884 32.4207L462.283 32.0225L462.239 42.1036L461.884 41.7477C463.851 41.7621 465.815 41.7541 467.789 41.7916L473.72 41.881L485.741 42.1028Z" fill="#EBEBEB"/>
<path d="M472.433 54.8147L460.596 55.0374L454.599 55.1268C452.597 55.1643 450.584 55.1563 448.575 55.1706L448.221 55.173L448.219 54.8147L448.176 44.7336L448.175 44.333L448.575 44.3346L460.504 44.3849C464.48 44.3889 468.456 44.4743 472.432 44.5157L472.652 44.5181L472.65 44.7336C472.635 46.4405 472.582 48.1395 472.546 49.8209L472.433 54.8147ZM472.433 54.8147L472.32 49.7275C472.284 48.0493 472.231 46.3871 472.215 44.7336L472.433 44.9515C468.457 44.9922 464.481 45.0783 460.505 45.0823L448.576 45.1326L448.974 44.7344L448.931 54.8155L448.575 54.4596C450.543 54.474 452.507 54.466 454.481 54.5035L460.412 54.5929L472.433 54.8147Z" fill="#EBEBEB"/>
<path d="M411.332 172.754L399.495 172.976L393.498 173.066C391.495 173.103 389.482 173.096 387.474 173.11L387.12 173.112L387.118 172.754L387.075 162.673L387.073 162.272L387.474 162.274L399.402 162.324C403.379 162.328 407.354 162.414 411.331 162.455L411.55 162.457L411.549 162.673C411.534 164.379 411.48 166.078 411.444 167.76L411.332 172.754ZM411.332 172.754L411.218 167.666C411.182 165.987 411.129 164.326 411.114 162.673L411.332 162.89C407.355 162.931 403.379 163.017 399.403 163.021L387.475 163.072L387.873 162.673L387.83 172.755L387.474 172.399C389.442 172.413 391.406 172.406 393.379 172.443L399.311 172.533L411.332 172.754Z" fill="#EBEBEB"/>
<path d="M398.023 185.466L386.186 185.689L380.189 185.778C378.186 185.815 376.173 185.807 374.165 185.822L373.81 185.824L373.809 185.466L373.766 175.385L373.764 174.984L374.165 174.986L386.093 175.036C390.07 175.04 394.045 175.126 398.022 175.167L398.241 175.169L398.24 175.385C398.224 177.092 398.171 178.791 398.135 180.472L398.023 185.466ZM398.023 185.466L397.909 180.379C397.873 178.7 397.82 177.038 397.805 175.385L398.023 175.603C394.046 175.643 390.071 175.729 386.094 175.733L374.166 175.784L374.564 175.386L374.521 185.467L374.165 185.111C376.133 185.125 378.097 185.117 380.07 185.155L386.002 185.244L398.023 185.466Z" fill="#EBEBEB"/>
<path d="M384.767 172.754L372.93 172.976L366.933 173.066C364.931 173.103 362.918 173.096 360.909 173.11L360.555 173.112L360.553 172.754L360.51 162.673L360.509 162.272L360.909 162.274L372.838 162.324C376.814 162.328 380.79 162.414 384.766 162.455L384.986 162.457L384.984 162.673C384.969 164.379 384.916 166.078 384.88 167.76L384.767 172.754ZM384.767 172.754L384.654 167.666C384.618 165.987 384.565 164.326 384.549 162.673L384.767 162.89C380.791 162.931 376.814 163.017 372.839 163.021L360.91 163.072L361.308 162.673L361.265 172.755L360.909 172.399C362.877 172.413 364.841 172.406 366.815 172.443L372.746 172.533L384.767 172.754Z" fill="#EBEBEB"/>
<path d="M485.741 260.245L473.905 260.468L467.908 260.557C465.905 260.594 463.892 260.587 461.884 260.601L461.529 260.603L461.528 260.245L461.485 250.164L461.483 249.763L461.884 249.765L473.812 249.815C477.788 249.819 481.765 249.904 485.741 249.946L485.96 249.948L485.958 250.164C485.943 251.871 485.89 253.57 485.854 255.251L485.741 260.245ZM485.741 260.245L485.628 255.158C485.592 253.479 485.539 251.817 485.523 250.164L485.741 250.382C481.765 250.422 477.789 250.509 473.813 250.513L461.884 250.563L462.283 250.165L462.239 260.246L461.884 259.89C463.851 259.904 465.815 259.896 467.789 259.934L473.72 260.023L485.741 260.245Z" fill="#EBEBEB"/>
<path d="M283.041 72.0813L271.204 72.304L265.207 72.3934C263.204 72.4309 261.191 72.4229 259.183 72.4372L258.829 72.4396L258.827 72.0813L258.784 62.0002L258.782 61.5996L259.183 61.6012L271.111 61.6515C275.088 61.6555 279.063 61.7409 283.04 61.7823L283.259 61.7847L283.258 62.0002C283.243 63.7071 283.189 65.4061 283.153 67.0875L283.041 72.0813ZM283.041 72.0813L282.927 66.9941C282.891 65.3159 282.838 63.6537 282.823 62.0002L283.041 62.2181C279.064 62.2588 275.089 62.3449 271.112 62.3489L259.184 62.3992L259.582 62.001L259.539 72.0821L259.183 71.7262C261.151 71.7406 263.115 71.7326 265.088 71.7701L271.02 71.8595L283.041 72.0813Z" fill="#EBEBEB"/>
<path d="M461.233 138.866L465.931 131.292L463.611 129.856C462.929 129.433 462.559 128.662 462.628 127.863C462.665 127.42 462.68 126.976 462.67 126.53C462.653 125.729 463.071 124.985 463.776 124.607L466.181 123.317L461.967 115.461L459.564 116.75C458.858 117.129 458.007 117.065 457.35 116.608C456.984 116.353 456.605 116.118 456.217 115.905C455.513 115.52 455.075 114.785 455.1 113.984L455.187 111.256L446.278 110.979L446.196 113.716C446.172 114.519 445.68 115.217 444.954 115.561C444.757 115.654 444.561 115.752 444.368 115.856C444.174 115.96 443.984 116.068 443.798 116.181C443.114 116.594 442.265 116.618 441.585 116.197L439.249 114.75L434.551 122.324L436.875 123.766C437.556 124.189 437.926 124.961 437.856 125.761C437.818 126.2 437.804 126.644 437.812 127.088C437.829 127.886 437.411 128.631 436.706 129.008L434.301 130.298L438.515 138.154L440.92 136.865C441.624 136.487 442.475 136.55 443.132 137.006C443.497 137.259 443.874 137.492 444.262 137.703C444.967 138.088 445.405 138.823 445.381 139.625L445.297 142.359L454.205 142.636L454.29 139.901C454.315 139.102 454.806 138.406 455.529 138.063C455.727 137.97 455.924 137.87 456.119 137.766C456.312 137.662 456.503 137.553 456.69 137.441C457.378 137.026 458.231 137.002 458.914 137.426L461.233 138.866ZM453.691 133.242C450.138 135.147 445.717 133.812 443.812 130.26C441.906 126.707 443.237 122.28 446.791 120.374C450.343 118.468 454.774 119.806 456.68 123.359C458.584 126.912 457.244 131.337 453.691 133.242Z" fill="#EBEBEB"/>
<path d="M541.766 250.338L546.464 242.764L544.144 241.328C543.461 240.905 543.092 240.134 543.161 239.334C543.198 238.892 543.212 238.448 543.203 238.002C543.185 237.201 543.603 236.457 544.309 236.079L546.713 234.789L542.5 226.933L540.096 228.222C539.391 228.601 538.539 228.537 537.883 228.079C537.516 227.825 537.138 227.59 536.749 227.377C536.046 226.992 535.608 226.257 535.633 225.456L535.719 222.728L526.811 222.451L526.729 225.188C526.705 225.991 526.213 226.689 525.486 227.033C525.289 227.126 525.094 227.224 524.901 227.328C524.707 227.431 524.517 227.54 524.331 227.653C523.647 228.066 522.797 228.09 522.118 227.669L519.782 226.222L515.084 233.796L517.408 235.238C518.089 235.661 518.458 236.433 518.389 237.233C518.351 237.672 518.336 238.116 518.345 238.56C518.362 239.358 517.944 240.103 517.239 240.48L514.834 241.77L519.047 249.626L521.453 248.337C522.157 247.958 523.008 248.022 523.665 248.478C524.029 248.731 524.407 248.964 524.795 249.175C525.499 249.56 525.938 250.295 525.913 251.097L525.83 253.831L534.738 254.108L534.823 251.373C534.848 250.573 535.339 249.878 536.062 249.535C536.259 249.442 536.457 249.342 536.652 249.238C536.845 249.134 537.036 249.025 537.223 248.913C537.911 248.498 538.764 248.474 539.447 248.898L541.766 250.338ZM534.224 244.714C530.671 246.619 526.25 245.284 524.345 241.732C522.439 238.179 523.77 233.752 527.323 231.846C530.876 229.94 535.307 231.278 537.212 234.831C539.117 238.384 537.776 242.809 534.224 244.714Z" fill="#EBEBEB"/>
<path d="M71.7657 161.338L76.4635 153.764L74.1437 152.328C73.4614 151.905 73.0919 151.134 73.1606 150.334C73.1981 149.892 73.2125 149.448 73.2029 149.002C73.1853 148.201 73.6035 147.457 74.3089 147.079L76.7133 145.789L72.4998 137.933L70.0963 139.222C69.3908 139.601 68.5394 139.537 67.8826 139.079C67.5163 138.825 67.1381 138.59 66.7494 138.377C66.0456 137.992 65.6075 137.257 65.6331 136.456L65.7192 133.728L56.8111 133.451L56.729 136.188C56.705 136.991 56.2127 137.689 55.4865 138.033C55.2894 138.126 55.0939 138.224 54.9007 138.328C54.7068 138.431 54.5169 138.54 54.331 138.653C53.6471 139.066 52.7972 139.09 52.1181 138.669L49.7816 137.222L45.0837 144.796L47.4075 146.238C48.089 146.661 48.4585 147.433 48.3891 148.233C48.3508 148.672 48.3364 149.116 48.3452 149.56C48.3619 150.358 47.9438 151.103 47.2391 151.48L44.834 152.77L49.0474 160.626L51.4526 159.337C52.1572 158.958 53.0079 159.022 53.6646 159.478C54.0293 159.731 54.4068 159.964 54.7946 160.175C55.4992 160.56 55.9381 161.295 55.9134 162.097L55.8296 164.831L64.7377 165.108L64.8231 162.373C64.8478 161.573 65.3386 160.878 66.0616 160.535C66.2595 160.442 66.4566 160.342 66.6521 160.238C66.8452 160.134 67.0359 160.025 67.2227 159.913C67.9105 159.498 68.7636 159.474 69.4467 159.898L71.7657 161.338ZM64.2238 155.714C60.6711 157.619 56.2502 156.284 54.3445 152.732C52.4389 149.179 53.77 144.752 57.3235 142.846C60.8762 140.94 65.3067 142.278 67.2123 145.831C69.1171 149.384 67.7765 153.809 64.2238 155.714Z" fill="#EBEBEB"/>
<path d="M145.521 224.682L150.218 217.108L147.899 215.671C147.216 215.248 146.847 214.477 146.915 213.678C146.954 213.236 146.967 212.791 146.958 212.345C146.94 211.545 147.358 210.8 148.064 210.422L150.468 209.132L146.255 201.276L143.851 202.566C143.146 202.944 142.294 202.88 141.638 202.423C141.271 202.168 140.893 201.934 140.504 201.72C139.801 201.335 139.362 200.6 139.388 199.799L139.474 197.071L130.566 196.794L130.484 199.532C130.46 200.334 129.968 201.033 129.241 201.376C129.044 201.468 128.849 201.567 128.656 201.671C128.462 201.775 128.272 201.883 128.086 201.996C127.402 202.409 126.552 202.433 125.873 202.013L123.536 200.565L118.839 208.139L121.162 209.581C121.844 210.005 122.213 210.776 122.144 211.576C122.106 212.016 122.091 212.459 122.1 212.903C122.117 213.702 121.699 214.446 120.994 214.824L118.589 216.113L122.802 223.97L125.207 222.68C125.912 222.302 126.763 222.366 127.42 222.821C127.784 223.074 128.162 223.307 128.55 223.519C129.254 223.903 129.693 224.638 129.668 225.44L129.585 228.174L138.493 228.451L138.578 225.716C138.603 224.917 139.093 224.221 139.816 223.879C140.014 223.786 140.211 223.686 140.407 223.582C140.601 223.478 140.791 223.369 140.978 223.257C141.665 222.842 142.518 222.818 143.202 223.242L145.521 224.682ZM137.978 219.058C134.425 220.963 130.004 219.628 128.099 216.076C126.193 212.523 127.524 208.096 131.078 206.19C134.63 204.284 139.061 205.622 140.966 209.175C142.872 212.728 141.531 217.152 137.978 219.058Z" fill="#EBEBEB"/>
<path d="M295.763 79.6281L292.642 74.2201L290.987 75.1761C290.501 75.4578 289.902 75.4306 289.431 75.1234C289.171 74.9534 288.901 74.7978 288.623 74.6558C288.123 74.402 287.802 73.8969 287.802 73.3367V71.4263H281.557V73.3375C281.557 73.8977 281.235 74.4028 280.735 74.6566C280.457 74.7978 280.187 74.9542 279.927 75.1242C279.456 75.4306 278.858 75.4586 278.371 75.1769L276.716 74.2209L273.596 79.6289L275.258 80.5857C275.746 80.8666 276.014 81.4013 275.985 81.9631C275.977 82.1155 275.973 82.2687 275.973 82.4227C275.973 82.5767 275.977 82.7299 275.985 82.8824C276.014 83.4418 275.747 83.974 275.263 84.2541L273.596 85.2173L276.716 90.6253L278.376 89.6685C278.863 89.3877 279.462 89.4156 279.933 89.7228C280.192 89.892 280.46 90.0476 280.738 90.1888C281.237 90.4434 281.557 90.9477 281.557 91.5079V93.42H287.803V91.5079C287.803 90.9477 288.123 90.4434 288.622 90.1888C288.899 90.0476 289.168 89.892 289.426 89.7228C289.897 89.4156 290.497 89.3877 290.983 89.6685L292.643 90.6253L295.763 85.2173L294.104 84.2597C293.618 83.9796 293.351 83.4465 293.379 82.8863C293.387 82.7331 293.39 82.5791 293.39 82.4235C293.39 82.2695 293.386 82.1163 293.379 81.9639C293.35 81.4021 293.618 80.8666 294.106 80.5857L295.763 79.6281ZM289.794 82.4227C289.794 85.2468 287.506 87.5347 284.682 87.5347C281.857 87.5347 279.565 85.2468 279.565 82.4227C279.565 79.5986 281.857 77.3059 284.682 77.3059C287.506 77.3059 289.794 79.5986 289.794 82.4227Z" fill="#EBEBEB"/>
<path d="M60.834 299.626L114.215 299.711L167.597 299.742L274.361 299.801L381.124 299.743L434.505 299.712L487.887 299.626L434.505 299.54L381.124 299.509L274.361 299.451L167.597 299.51L114.215 299.541L60.834 299.626Z" fill="#263238"/>
<path d="M323 369.603C388.693 369.603 441.948 362.073 441.948 352.785C441.948 343.497 388.693 335.967 323 335.967C257.307 335.967 204.053 343.497 204.053 352.785C204.053 362.073 257.307 369.603 323 369.603Z" fill="#EBEBEB"/>
<path d="M249.243 176.134L244.289 156.639L205.156 166.584L199.984 146.235L231.256 74.9641L246.767 71.022L261.848 130.36L274.37 127.178L279.578 147.669L267.055 150.852L272.01 170.347L249.243 176.134ZM222.432 140.379L241.785 135.46L235.384 110.273L222.432 140.379Z" fill="#263238"/>
<path d="M361.321 111.054C361.321 117.514 360.341 123.46 358.384 128.893C356.425 134.326 353.733 139.024 350.308 142.988C346.88 146.952 342.843 150.036 338.196 152.238C333.545 154.44 328.479 155.541 322.998 155.541C317.515 155.541 312.427 154.44 307.729 152.238C303.03 150.035 298.968 146.952 295.542 142.988C292.115 139.024 289.449 134.326 287.541 128.893C285.632 123.46 284.678 117.514 284.678 111.054C284.678 104.594 285.632 98.6472 287.541 93.2152C289.45 87.7824 292.115 83.0846 295.542 79.1201C298.968 75.1556 303.03 72.0498 307.729 69.7971C312.427 67.5467 317.515 66.4199 322.998 66.4199C328.479 66.4199 333.544 67.5467 338.196 69.7971C342.843 72.0498 346.88 75.1556 350.308 79.1201C353.733 83.0846 356.425 87.7824 358.384 93.2152C360.341 98.6472 361.321 104.594 361.321 111.054ZM337.682 111.054C337.682 104.204 336.31 98.6472 333.57 94.389C330.828 90.1317 327.306 88.0026 322.999 88.0026C318.496 88.0026 314.899 90.1317 312.208 94.389C309.515 98.6472 308.17 104.204 308.17 111.054C308.17 117.906 309.515 123.438 312.208 127.645C314.899 131.854 318.496 133.959 322.999 133.959C327.306 133.959 330.828 131.855 333.57 127.645C336.311 123.438 337.682 117.906 337.682 111.054Z" fill="#263238"/>
<path d="M403.473 172.377L406.69 152.521L366.833 146.064L370.191 125.338L427.255 72.4106L443.053 74.9698L433.261 135.407L446.016 137.473L442.635 158.344L429.88 156.278L426.664 176.134L403.473 172.377ZM393.114 128.903L412.825 132.097L416.981 106.444L393.114 128.903Z" fill="#263238"/>
<path d="M290.023 52.2753C288.346 52.2753 286.826 51.9473 285.461 51.2921C284.096 50.637 282.925 49.7663 281.948 48.6811C280.969 47.5966 280.212 46.3549 279.675 44.9584C279.138 43.5619 278.869 42.1327 278.869 40.6707C278.869 39.145 279.153 37.6838 279.723 36.2865C280.292 34.89 281.077 33.6539 282.076 32.579C283.075 31.5041 284.263 30.6503 285.639 30.0158C287.014 29.3822 288.507 29.0654 290.119 29.0654C291.774 29.0654 293.283 29.4038 294.649 30.0805C296.013 30.7572 297.179 31.6438 298.146 32.7402C299.114 33.8367 299.865 35.0831 300.403 36.4796C300.94 37.8769 301.209 39.295 301.209 40.7354C301.209 42.262 300.929 43.7167 300.371 45.1036C299.812 46.4898 299.039 47.7147 298.05 48.7784C297.061 49.8422 295.879 50.6912 294.504 51.3248C293.128 51.9585 291.635 52.2753 290.023 52.2753ZM283.382 40.6699C283.382 41.6587 283.532 42.6155 283.833 43.5388C284.134 44.4628 284.568 45.28 285.138 45.9886C285.707 46.698 286.406 47.267 287.234 47.6971C288.061 48.1273 289.001 48.3419 290.055 48.3419C291.129 48.3419 292.08 48.1217 292.908 47.6812C293.735 47.2415 294.433 46.6549 295.003 45.924C295.572 45.1938 296.002 44.3719 296.293 43.4582C296.583 42.5444 296.728 41.6156 296.728 40.6691C296.728 39.6812 296.571 38.7244 296.26 37.8003C295.948 36.8763 295.507 36.0599 294.938 35.3505C294.369 34.6411 293.67 34.0777 292.844 33.6579C292.016 33.239 291.087 33.0291 290.056 33.0291C288.981 33.0291 288.025 33.2493 287.186 33.6898C286.348 34.1303 285.65 34.7105 285.091 35.4303C284.532 36.1509 284.108 36.9672 283.818 37.8801C283.527 38.7954 283.382 39.7243 283.382 40.6699Z" fill="#263238"/>
<path d="M312.008 52.4366C310.633 52.4366 309.397 52.2004 308.302 51.7271C307.205 51.2547 306.276 50.6147 305.513 49.8096C304.75 49.0036 304.164 48.0739 303.755 47.0205C303.347 45.968 303.143 44.8604 303.143 43.7001C303.143 42.5182 303.347 41.401 303.755 40.3477C304.163 39.2951 304.75 38.3654 305.513 37.5595C306.276 36.7535 307.205 36.1143 308.302 35.6411C309.397 35.1686 310.633 34.9316 312.008 34.9316C313.383 34.9316 314.614 35.1686 315.7 35.6411C316.784 36.1143 317.709 36.7535 318.472 37.5595C319.235 38.3654 319.821 39.2951 320.229 40.3477C320.637 41.401 320.841 42.5182 320.841 43.7001C320.841 44.8604 320.637 45.968 320.229 47.0205C319.821 48.0739 319.241 49.0028 318.489 49.8096C317.736 50.6155 316.812 51.2555 315.717 51.7271C314.619 52.1996 313.383 52.4366 312.008 52.4366ZM307.591 43.7001C307.591 44.4526 307.705 45.1349 307.93 45.7469C308.156 46.3598 308.467 46.8913 308.864 47.3429C309.262 47.7938 309.729 48.1433 310.266 48.3907C310.803 48.6381 311.384 48.7618 312.008 48.7618C312.631 48.7618 313.211 48.6381 313.748 48.3907C314.285 48.1441 314.753 47.7946 315.15 47.3429C315.547 46.8913 315.86 46.3542 316.085 45.731C316.31 45.1077 316.423 44.4207 316.423 43.6681C316.423 42.938 316.31 42.2613 316.085 41.6372C315.859 41.014 315.547 40.4769 315.15 40.0253C314.752 39.5736 314.284 39.2249 313.748 38.9775C313.211 38.7301 312.631 38.6064 312.008 38.6064C311.384 38.6064 310.803 38.7357 310.266 38.9935C309.729 39.2512 309.262 39.6063 308.864 40.0572C308.466 40.5089 308.155 41.0459 307.93 41.6692C307.704 42.2932 307.591 42.9699 307.591 43.7001Z" fill="#263238"/>
<path d="M333.864 52.4366C332.531 52.4366 331.371 52.1413 330.383 51.55C329.394 50.9595 328.62 50.1591 328.061 49.1488V58.981H323.742V35.2221H327.513V38.1228C328.136 37.1349 328.942 36.3553 329.931 35.7855C330.919 35.2165 332.058 34.9316 333.347 34.9316C334.487 34.9316 335.539 35.1631 336.506 35.6251C337.474 36.0871 338.307 36.7104 339.005 37.4948C339.703 38.2792 340.252 39.2033 340.65 40.2671C341.047 41.3308 341.246 42.4544 341.246 43.6362C341.246 44.8612 341.063 46.0111 340.698 47.0852C340.332 48.1601 339.821 49.0953 339.166 49.8902C338.51 50.6858 337.731 51.3082 336.829 51.7599C335.927 52.2107 334.938 52.4366 333.864 52.4366ZM332.414 48.7618C333.058 48.7618 333.654 48.6221 334.203 48.3428C334.75 48.0635 335.218 47.6877 335.605 47.2145C335.991 46.742 336.292 46.1938 336.507 45.5698C336.723 44.9465 336.83 44.3026 336.83 43.6362C336.83 42.9268 336.712 42.2661 336.475 41.654C336.238 41.0411 335.911 40.5097 335.492 40.058C335.073 39.6071 334.579 39.252 334.01 38.9943C333.44 38.7365 332.822 38.6072 332.157 38.6072C331.748 38.6072 331.329 38.6775 330.9 38.8171C330.47 38.9568 330.072 39.1555 329.707 39.414C329.341 39.6718 329.014 39.9734 328.724 40.3165C328.434 40.6605 328.213 41.0371 328.063 41.4449V45.4102C328.45 46.3774 329.041 47.1777 329.836 47.8114C330.629 48.445 331.489 48.7618 332.414 48.7618Z" fill="#263238"/>
<path d="M350.562 52.4366C349.144 52.4366 347.757 52.2107 346.404 51.7599C345.05 51.309 343.89 50.6634 342.922 49.8255L344.534 47.1179C345.566 47.8489 346.571 48.4019 347.548 48.7777C348.527 49.1544 349.499 49.3419 350.466 49.3419C351.325 49.3419 352.002 49.1807 352.497 48.8583C352.991 48.5359 353.238 48.0739 353.238 47.4722C353.238 46.8705 352.948 46.43 352.367 46.1507C351.787 45.8714 350.842 45.549 349.531 45.1836C348.435 44.8827 347.5 44.5922 346.726 44.3129C345.952 44.0336 345.328 43.7168 344.856 43.3617C344.383 43.0074 344.04 42.5988 343.824 42.1368C343.609 41.6747 343.503 41.1209 343.503 40.4761C343.503 39.6167 343.668 38.8434 344.002 38.1548C344.335 37.4677 344.802 36.8812 345.404 36.3976C346.006 35.914 346.71 35.5437 347.516 35.286C348.322 35.0282 349.196 34.8989 350.143 34.8989C351.411 34.8989 352.597 35.0817 353.705 35.4472C354.812 35.8126 355.827 36.4032 356.751 37.2203L355.01 39.8314C354.15 39.1866 353.318 38.7142 352.511 38.4133C351.705 38.1125 350.905 37.9624 350.11 37.9624C349.379 37.9624 348.766 38.1133 348.272 38.4133C347.777 38.7142 347.53 39.1978 347.53 39.8641C347.53 40.1649 347.589 40.4123 347.708 40.6054C347.825 40.7985 348.014 40.9709 348.272 41.1209C348.53 41.2718 348.868 41.417 349.287 41.5558C349.706 41.6963 350.227 41.8407 350.85 41.9908C352.011 42.2916 353.004 42.5924 353.832 42.8933C354.659 43.1941 355.336 43.5381 355.863 43.9243C356.389 44.3113 356.776 44.7574 357.024 45.2618C357.27 45.7669 357.394 46.3742 357.394 47.0836C357.394 48.7386 356.782 50.0442 355.556 51.0002C354.335 51.9586 352.668 52.4366 350.562 52.4366Z" fill="#263238"/>
<path d="M361.039 43.5068V29H365.358V43.5068H361.039ZM361.039 52.1141V47.2463H365.358V52.1141H361.039Z" fill="#263238"/>
<path d="M339.44 244.899H311.102V247.221H339.44V244.899Z" fill="#37474F"/>
<path d="M339.44 247.923H311.102V250.244H339.44V247.923Z" fill="#37474F"/>
<path d="M339.44 250.948H311.102V253.269H339.44V250.948Z" fill="#37474F"/>
<path d="M339.44 253.971H311.102V256.293H339.44V253.971Z" fill="#37474F"/>
<path d="M339.44 256.995H311.102V259.316H339.44V256.995Z" fill="#37474F"/>
<path d="M351.708 317.317H297.83V319.639H351.708V317.317Z" fill="#37474F"/>
<path d="M351.708 320.341H297.83V322.662H351.708V320.341Z" fill="#37474F"/>
<path d="M351.708 323.364H297.83V325.686H351.708V323.364Z" fill="#37474F"/>
<path d="M351.708 326.388H297.83V328.709H351.708V326.388Z" fill="#37474F"/>
<path d="M351.708 329.412H297.83V331.734H351.708V329.412Z" fill="#37474F"/>
<path d="M274.19 225.71C274.216 225.396 262.398 221.437 262.398 221.437L263.096 180.83L278.768 177.468L274.19 225.71Z" fill="#F69F06"/>
<path opacity="0.2" d="M274.19 225.71C274.216 225.396 262.398 221.437 262.398 221.437L263.096 180.83L278.768 177.468L274.19 225.71Z" fill="black"/>
<path d="M382.443 241.649C382.526 241.345 394.986 241.695 394.986 241.695L408.304 203.328L394.747 194.778L382.443 241.649Z" fill="#F69F06"/>
<path opacity="0.2" d="M382.443 241.649C382.526 241.345 394.986 241.695 394.986 241.695L408.304 203.328L394.747 194.778L382.443 241.649Z" fill="black"/>
<path d="M271.915 240.663C271.915 240.663 276.297 174.989 280.14 153.385C280.14 153.385 359.475 159.385 402.303 175.754C402.303 175.754 380.223 252.464 379.08 256.271C379.08 256.271 323.214 245.266 271.915 240.663Z" fill="#F69F06"/>
<path opacity="0.1" d="M342.729 162.155C341.439 170.062 340.134 177.967 338.783 185.864L334.694 209.548L334.473 209.214L361.055 215.528L374.333 218.746L387.595 222.027L374.262 219.043L360.945 215.997L334.339 209.782L334.07 209.719L334.119 209.447L338.352 185.788C339.775 177.904 341.244 170.028 342.729 162.155Z" fill="black"/>
<path opacity="0.1" d="M339.812 166.662C339.826 167.386 339.249 168.131 338.419 168.204C338.017 168.242 337.579 168.113 337.252 167.829C336.925 167.544 336.729 167.105 336.727 166.662C336.729 166.219 336.923 165.779 337.251 165.494C337.578 165.207 338.017 165.081 338.419 165.119C339.25 165.191 339.826 165.937 339.812 166.662ZM339.812 166.662C339.809 166.296 339.647 165.937 339.375 165.707C339.102 165.476 338.744 165.382 338.42 165.419C337.75 165.497 337.316 166.098 337.326 166.662C337.315 167.226 337.748 167.83 338.42 167.906C338.744 167.943 339.103 167.848 339.376 167.618C339.647 167.386 339.809 167.027 339.812 166.662Z" fill="black"/>
<path opacity="0.1" d="M338.419 176.433C338.433 177.158 337.855 177.903 337.025 177.975C336.623 178.013 336.186 177.885 335.859 177.6C335.531 177.315 335.336 176.876 335.333 176.433C335.336 175.99 335.53 175.551 335.858 175.266C336.184 174.979 336.623 174.852 337.025 174.89C337.857 174.963 338.434 175.71 338.419 176.433ZM338.419 176.433C338.415 176.068 338.253 175.709 337.981 175.478C337.708 175.248 337.351 175.153 337.026 175.191C336.357 175.268 335.922 175.869 335.932 176.433C335.922 176.998 336.355 177.602 337.026 177.677C337.351 177.714 337.709 177.62 337.982 177.389C338.254 177.159 338.415 176.799 338.419 176.433Z" fill="black"/>
<path opacity="0.1" d="M336.703 186.759C336.717 187.483 336.139 188.229 335.309 188.301C334.907 188.339 334.47 188.211 334.143 187.925C333.816 187.641 333.62 187.202 333.618 186.759C333.62 186.316 333.814 185.876 334.142 185.591C334.468 185.304 334.907 185.178 335.309 185.215C336.141 185.289 336.718 186.034 336.703 186.759ZM336.703 186.759C336.7 186.393 336.538 186.034 336.265 185.804C335.993 185.573 335.635 185.479 335.31 185.516C334.641 185.594 334.207 186.195 334.216 186.759C334.206 187.323 334.639 187.927 335.31 188.003C335.635 188.04 335.993 187.945 336.266 187.715C336.538 187.483 336.7 187.124 336.703 186.759Z" fill="black"/>
<path opacity="0.1" d="M334.987 197.084C335.003 197.809 334.424 198.553 333.594 198.626C333.192 198.663 332.755 198.536 332.427 198.251C332.1 197.966 331.905 197.527 331.902 197.084C331.904 196.641 332.099 196.201 332.427 195.916C332.753 195.629 333.192 195.503 333.594 195.541C334.426 195.613 335.003 196.359 334.987 197.084ZM334.987 197.084C334.984 196.718 334.822 196.359 334.549 196.129C334.276 195.898 333.919 195.804 333.594 195.841C332.925 195.919 332.49 196.52 332.5 197.084C332.49 197.648 332.923 198.252 333.594 198.328C333.919 198.365 334.277 198.271 334.55 198.04C334.822 197.809 334.984 197.449 334.987 197.084Z" fill="black"/>
<path opacity="0.1" d="M340.834 213.551C340.849 214.275 340.27 215.02 339.44 215.092C339.038 215.13 338.601 215.002 338.274 214.717C337.946 214.433 337.751 213.994 337.749 213.551C337.75 213.108 337.945 212.668 338.273 212.383C338.599 212.096 339.038 211.97 339.44 212.007C340.271 212.08 340.848 212.826 340.834 213.551ZM340.834 213.551C340.83 213.185 340.668 212.826 340.396 212.596C340.123 212.365 339.765 212.271 339.44 212.308C338.771 212.386 338.337 212.987 338.346 213.551C338.336 214.115 338.769 214.719 339.44 214.795C339.765 214.832 340.123 214.737 340.396 214.506C340.668 214.275 340.83 213.916 340.834 213.551Z" fill="black"/>
<path opacity="0.1" d="M350.579 215.928C350.594 216.653 350.016 217.398 349.186 217.47C348.784 217.507 348.346 217.38 348.019 217.095C347.692 216.81 347.497 216.371 347.494 215.928C347.497 215.485 347.691 215.045 348.018 214.76C348.345 214.473 348.784 214.347 349.186 214.385C350.017 214.458 350.594 215.203 350.579 215.928ZM350.579 215.928C350.576 215.562 350.414 215.203 350.142 214.973C349.869 214.742 349.511 214.648 349.187 214.685C348.517 214.763 348.083 215.364 348.093 215.928C348.082 216.492 348.516 217.096 349.187 217.172C349.511 217.209 349.87 217.115 350.143 216.883C350.414 216.653 350.576 216.293 350.579 215.928Z" fill="black"/>
<path opacity="0.1" d="M360.326 218.306C360.341 219.031 359.763 219.775 358.933 219.848C358.531 219.885 358.093 219.758 357.766 219.473C357.439 219.188 357.244 218.749 357.241 218.306C357.244 217.863 357.438 217.424 357.766 217.139C358.092 216.851 358.531 216.725 358.933 216.763C359.764 216.835 360.341 217.582 360.326 218.306ZM360.326 218.306C360.323 217.941 360.161 217.582 359.889 217.351C359.616 217.12 359.259 217.026 358.934 217.064C358.264 217.141 357.83 217.742 357.84 218.306C357.829 218.87 358.263 219.474 358.934 219.55C359.259 219.587 359.617 219.493 359.89 219.261C360.161 219.031 360.322 218.671 360.326 218.306Z" fill="black"/>
<path opacity="0.1" d="M370.072 220.683C370.088 221.408 369.509 222.152 368.679 222.225C368.277 222.263 367.84 222.136 367.512 221.85C367.185 221.565 366.99 221.126 366.987 220.683C366.99 220.24 367.184 219.801 367.512 219.516C367.838 219.229 368.277 219.102 368.679 219.14C369.511 219.213 370.087 219.959 370.072 220.683ZM370.072 220.683C370.069 220.318 369.907 219.959 369.635 219.728C369.362 219.498 369.005 219.403 368.68 219.441C368.01 219.518 367.576 220.119 367.586 220.683C367.575 221.248 368.009 221.852 368.68 221.927C369.005 221.964 369.363 221.87 369.636 221.639C369.907 221.408 370.069 221.049 370.072 220.683Z" fill="black"/>
<path opacity="0.1" d="M379.814 223.168C379.773 223.891 379.14 224.59 378.307 224.598C377.903 224.605 377.477 224.444 377.172 224.134C376.867 223.824 376.706 223.373 376.738 222.931C376.774 222.489 377.002 222.066 377.351 221.807C377.699 221.546 378.146 221.453 378.544 221.522C379.367 221.659 379.884 222.447 379.814 223.168ZM379.814 223.168C379.839 222.803 379.705 222.433 379.451 222.181C379.197 221.93 378.847 221.809 378.521 221.821C377.847 221.847 377.368 222.413 377.334 222.976C377.28 223.538 377.666 224.173 378.329 224.301C378.65 224.363 379.015 224.297 379.304 224.087C379.594 223.878 379.783 223.532 379.814 223.168Z" fill="black"/>
<path opacity="0.1" d="M333.272 207.409C333.286 208.134 332.708 208.879 331.878 208.951C331.476 208.989 331.039 208.862 330.712 208.576C330.384 208.291 330.189 207.852 330.187 207.409C330.189 206.966 330.384 206.527 330.711 206.242C331.037 205.955 331.476 205.828 331.878 205.866C332.71 205.939 333.287 206.685 333.272 207.409ZM333.272 207.409C333.268 207.044 333.106 206.685 332.833 206.454C332.561 206.224 332.203 206.129 331.878 206.167C331.209 206.244 330.775 206.845 330.784 207.409C330.774 207.974 331.207 208.578 331.878 208.653C332.203 208.69 332.561 208.596 332.833 208.365C333.107 208.134 333.268 207.775 333.272 207.409Z" fill="black"/>
<path opacity="0.2" d="M316.858 224.518C326.11 216.199 326.867 201.955 318.548 192.703C310.229 183.451 295.985 182.695 286.734 191.014C277.482 199.332 276.725 213.576 285.044 222.828C293.363 232.08 307.607 232.837 316.858 224.518Z" fill="black"/>
<path d="M318.686 214.162C322.218 204.831 317.517 194.402 308.185 190.87C298.853 187.337 288.425 192.039 284.892 201.371C281.36 210.702 286.062 221.131 295.393 224.663C304.725 228.196 315.154 223.494 318.686 214.162Z" fill="#263238"/>
<path d="M300.707 201.123L296.483 200.439L295.799 204.663L300.023 205.347L300.707 201.123Z" fill="#F69F06"/>
<path d="M297.167 196.216L292.943 195.532L292.259 199.755L296.483 200.44L297.167 196.216Z" fill="#F69F06"/>
<path d="M314.062 198.953L309.838 198.268L309.154 202.492L313.377 203.176L314.062 198.953Z" fill="#F69F06"/>
<path d="M294.445 213.015L290.222 212.331L289.537 216.554L293.761 217.238L294.445 213.015Z" fill="#F69F06"/>
<path d="M311.34 215.752L307.117 215.067L306.433 219.291L310.656 219.975L311.34 215.752Z" fill="#F69F06"/>
<path d="M299.354 209.476L295.13 208.792L294.446 213.015L298.669 213.7L299.354 209.476Z" fill="#F69F06"/>
<path d="M304.254 205.984L300.03 205.3L299.346 209.523L303.57 210.207L304.254 205.984Z" fill="#F69F06"/>
<path d="M309.154 202.492L304.931 201.808L304.246 206.031L308.47 206.715L309.154 202.492Z" fill="#F69F06"/>
<path d="M307.806 210.842L303.582 210.157L302.898 214.381L307.122 215.065L307.806 210.842Z" fill="#F69F06"/>
<path d="M379.681 231.474C387.567 221.85 386.158 207.655 376.534 199.77C366.91 191.884 352.716 193.293 344.83 202.917C336.944 212.541 338.353 226.735 347.977 234.621C357.601 242.507 371.795 241.098 379.681 231.474Z" fill="#F69F06"/>
<path opacity="0.2" d="M379.681 231.474C387.567 221.85 386.158 207.655 376.534 199.77C366.91 191.884 352.716 193.293 344.83 202.917C336.944 212.541 338.353 226.735 347.977 234.621C357.601 242.507 371.795 241.098 379.681 231.474Z" fill="black"/>
<path opacity="0.2" d="M384.176 222.418C384.072 222.861 383.954 223.29 383.821 223.718L339.908 214.352C340.012 213.569 340.152 212.785 340.337 211.994C343.213 199.892 355.358 192.411 367.468 195.286C379.57 198.162 387.052 210.308 384.176 222.418Z" fill="black"/>
<path d="M369.217 233.879C378.424 230.033 382.77 219.451 378.923 210.244C375.076 201.036 364.494 196.691 355.287 200.538C346.08 204.384 341.735 214.967 345.581 224.174C349.428 233.381 360.01 237.726 369.217 233.879Z" fill="#263238"/>
<path d="M366.803 207.334L362.64 206.345L357.716 227.065L361.879 228.055L366.803 207.334Z" fill="#F69F06"/>
<path d="M385.483 221.994L339.357 211.032C342.384 198.297 355.165 190.429 367.899 193.455C380.635 196.483 388.509 209.259 385.483 221.994Z" fill="#F69F06"/>
<path opacity="0.2" d="M385.483 221.994L339.357 211.032C342.384 198.297 355.165 190.429 367.899 193.455C380.635 196.483 388.509 209.259 385.483 221.994Z" fill="black"/>
<path opacity="0.1" d="M323.057 230.597C323.174 228.796 323.835 226.969 325.142 225.525C325.785 224.797 326.645 224.226 327.591 223.878C328.543 223.528 329.57 223.467 330.545 223.55C331.537 223.665 332.549 224.015 333.376 224.641C334.187 225.279 334.808 226.111 335.174 227.008C335.926 228.793 336.009 230.702 335.644 232.472C335.344 230.703 334.887 228.985 334.056 227.575C333.232 226.154 331.928 225.27 330.374 225.133C328.789 224.936 327.243 225.361 325.997 226.414C324.751 227.463 323.8 228.966 323.057 230.597Z" fill="black"/>
<path d="M278.086 184.646C278.273 182.24 278.543 179.844 278.771 177.443C279.028 175.046 279.291 172.649 279.582 170.258C279.859 167.864 280.171 165.475 280.478 163.084C280.778 160.693 281.124 158.308 281.445 155.92L281.53 155.282L282.176 155.323C287.375 155.65 292.562 156.07 297.741 156.603C300.331 156.869 302.917 157.17 305.5 157.502C308.079 157.872 310.661 158.214 313.224 158.683L297.65 157.719L282.091 156.712L282.823 156.116C282.469 158.499 282.141 160.886 281.766 163.266C281.398 165.648 281.035 168.03 280.637 170.407C280.254 172.786 279.843 175.161 279.424 177.536C278.978 179.906 278.574 182.282 278.086 184.646Z" fill="white"/>
<path d="M281.833 202.854C282.355 199.96 283.67 197.203 285.437 194.802C285.877 194.198 286.377 193.64 286.858 193.065C287.379 192.528 287.921 192.007 288.456 191.48C289.039 191.006 289.628 190.536 290.227 190.08C290.863 189.677 291.491 189.257 292.137 188.869C292.818 188.542 293.494 188.206 294.182 187.894L296.322 187.154L298.537 186.697C299.281 186.588 300.037 186.565 300.783 186.509C303.786 186.432 306.743 187.072 309.456 188.171C306.568 187.63 303.691 187.33 300.854 187.601C298.024 187.864 295.274 188.71 292.815 190.095C290.338 191.448 288.143 193.314 286.289 195.481C284.444 197.659 282.915 200.127 281.833 202.854Z" fill="white"/>
<path d="M343.978 208.939C344.895 206.145 346.578 203.597 348.659 201.462C349.178 200.925 349.751 200.441 350.307 199.939C350.897 199.478 351.506 199.038 352.108 198.588C352.752 198.199 353.4 197.815 354.055 197.446C354.741 197.135 355.421 196.805 356.115 196.511C356.835 196.281 357.552 196.041 358.275 195.828L360.497 195.39L362.754 195.243C363.506 195.238 364.257 195.32 365.004 195.367C367.99 195.705 370.829 196.748 373.365 198.211C370.579 197.276 367.771 196.581 364.923 196.459C362.084 196.329 359.244 196.787 356.618 197.82C353.977 198.817 351.546 200.362 349.41 202.253C347.28 204.156 345.426 206.388 343.978 208.939Z" fill="white"/>
<path d="M274.435 281.134C268.664 281.134 256.03 279.837 247.9 269.384C237.499 256.011 241.258 230.35 241.423 229.264L245.938 229.95C245.901 230.196 242.312 254.759 251.505 266.579C260.493 278.135 276.796 276.476 276.959 276.456L277.473 280.994C277.295 281.016 276.177 281.134 274.435 281.134Z" fill="#F69F06"/>
<path opacity="0.4" d="M274.435 281.134C268.664 281.134 256.03 279.837 247.9 269.384C237.499 256.011 241.258 230.35 241.423 229.264L245.938 229.95C245.901 230.196 242.312 254.759 251.505 266.579C260.493 278.135 276.796 276.476 276.959 276.456L277.473 280.994C277.295 281.016 276.177 281.134 274.435 281.134Z" fill="white"/>
<path d="M247.268 233.057C246.444 233.057 245.603 232.989 244.747 232.85C237.129 231.616 233.757 227.058 232.269 223.451C230.777 219.836 230.432 215.463 231.244 210.455L240.905 212.02C240.402 215.123 240.548 217.858 241.316 219.719C241.863 221.046 242.926 222.641 246.312 223.189C247.858 223.44 249.53 223.307 251.281 220.667C252.632 218.629 253.444 215.855 253.728 214.097L263.389 215.662C263.166 217.044 262.218 221.88 259.437 226.075C256.413 230.637 252.156 233.057 247.268 233.057Z" fill="#F69F06"/>
<path d="M283.978 294.206C283.962 293.998 275.794 292.693 275.794 292.693L271.83 266.036L281.722 262.128L283.978 294.206Z" fill="#F69F06"/>
<path opacity="0.2" d="M283.978 294.206C283.962 293.998 275.794 292.693 275.794 292.693L271.83 266.036L281.722 262.128L283.978 294.206Z" fill="black"/>
<path d="M364.732 294.256C364.754 294.048 372.949 292.924 372.949 292.924L377.501 266.361L367.697 262.235L364.732 294.256Z" fill="#F69F06"/>
<path opacity="0.2" d="M364.732 294.256C364.754 294.048 372.949 292.924 372.949 292.924L377.501 266.361L367.697 262.235L364.732 294.256Z" fill="black"/>
<path d="M280.58 256.159C280.58 256.159 346.643 253.334 368.959 257.054C368.959 257.054 362.406 320.978 362.051 322.219C362.051 322.219 296.335 322.041 286.063 322.219C286.063 322.219 280.495 279.711 280.58 256.159Z" fill="#F69F06"/>
<path opacity="0.2" d="M300.646 273.676C300.646 273.676 336.71 272.252 348.893 274.127C348.893 274.127 345.316 306.361 345.123 306.986C345.123 306.986 309.248 306.897 303.64 306.986C303.638 306.986 301.174 284.925 300.646 273.676Z" fill="black"/>
<path opacity="0.2" d="M305.575 306.973C304.749 306.973 304.095 306.983 303.637 306.989C303.637 306.989 301.176 284.923 300.644 273.675C300.644 273.675 301.464 273.643 302.896 273.595L305.575 306.973Z" fill="black"/>
<path d="M316.213 281.63C314.191 280.993 312.037 282.115 311.401 284.135C310.763 286.159 311.887 288.31 313.908 288.947C315.928 289.584 318.079 288.462 318.716 286.441C319.353 284.422 318.232 282.267 316.213 281.63ZM318.271 286.301C317.712 288.077 315.821 289.062 314.048 288.502C312.274 287.943 311.288 286.053 311.848 284.277C312.408 282.503 314.298 281.517 316.074 282.078C317.845 282.636 318.831 284.527 318.271 286.301ZM316.213 281.63C314.191 280.993 312.037 282.115 311.401 284.135C310.763 286.159 311.887 288.31 313.908 288.947C315.928 289.584 318.079 288.462 318.716 286.441C319.353 284.422 318.232 282.267 316.213 281.63ZM318.271 286.301C317.712 288.077 315.821 289.062 314.048 288.502C312.274 287.943 311.288 286.053 311.848 284.277C312.408 282.503 314.298 281.517 316.074 282.078C317.845 282.636 318.831 284.527 318.271 286.301ZM316.213 281.63C314.191 280.993 312.037 282.115 311.401 284.135C310.763 286.159 311.887 288.31 313.908 288.947C315.928 289.584 318.079 288.462 318.716 286.441C319.353 284.422 318.232 282.267 316.213 281.63ZM318.271 286.301C317.712 288.077 315.821 289.062 314.048 288.502C312.274 287.943 311.288 286.053 311.848 284.277C312.408 282.503 314.298 281.517 316.074 282.078C317.845 282.636 318.831 284.527 318.271 286.301ZM317.491 277.578C313.229 276.235 308.691 278.603 307.348 282.859C306.006 287.117 308.369 291.658 312.629 293C316.885 294.34 321.427 291.976 322.769 287.718C324.112 283.462 321.747 278.918 317.491 277.578ZM319.286 286.62C318.551 288.952 316.058 290.252 313.728 289.517C311.398 288.782 310.099 286.289 310.833 283.957C311.568 281.624 314.063 280.328 316.393 281.062C318.721 281.797 320.021 284.29 319.286 286.62ZM318.716 286.442C319.353 284.422 318.232 282.268 316.213 281.631C314.191 280.994 312.037 282.116 311.401 284.136C310.763 286.159 311.887 288.311 313.908 288.948C315.928 289.584 318.079 288.463 318.716 286.442ZM318.271 286.301C317.712 288.077 315.821 289.062 314.048 288.502C312.274 287.943 311.288 286.053 311.848 284.277C312.408 282.503 314.298 281.517 316.074 282.078C317.845 282.636 318.831 284.527 318.271 286.301ZM316.213 281.63C314.191 280.993 312.037 282.115 311.401 284.135C310.763 286.159 311.887 288.31 313.908 288.947C315.928 289.584 318.079 288.462 318.716 286.441C319.353 284.422 318.232 282.267 316.213 281.63ZM318.271 286.301C317.712 288.077 315.821 289.062 314.048 288.502C312.274 287.943 311.288 286.053 311.848 284.277C312.408 282.503 314.298 281.517 316.074 282.078C317.845 282.636 318.831 284.527 318.271 286.301ZM316.213 281.63C314.191 280.993 312.037 282.115 311.401 284.135C310.763 286.159 311.887 288.31 313.908 288.947C315.928 289.584 318.079 288.462 318.716 286.441C319.353 284.422 318.232 282.267 316.213 281.63ZM318.271 286.301C317.712 288.077 315.821 289.062 314.048 288.502C312.274 287.943 311.288 286.053 311.848 284.277C312.408 282.503 314.298 281.517 316.074 282.078C317.845 282.636 318.831 284.527 318.271 286.301Z" fill="#F69F06"/>
<path d="M314.213 293.147L311.248 292.212L310.75 294.363L313.388 295.193L314.213 293.147Z" fill="#F69F06"/>
<path d="M308.885 290.37L307.448 287.613L305.576 288.782L306.853 291.234L308.885 290.37Z" fill="#F69F06"/>
<path d="M307.08 284.638L308.014 281.673L305.864 281.176L305.033 283.813L307.08 284.638Z" fill="#F69F06"/>
<path d="M309.857 279.309L312.614 277.874L311.445 276.001L308.993 277.279L309.857 279.309Z" fill="#F69F06"/>
<path d="M315.589 277.505L318.554 278.44L319.051 276.289L316.415 275.458L315.589 277.505Z" fill="#F69F06"/>
<path d="M320.917 280.282L322.353 283.039L324.226 281.871L322.948 279.419L320.917 280.282Z" fill="#F69F06"/>
<path d="M322.722 286.014L321.788 288.979L323.938 289.477L324.769 286.839L322.722 286.014Z" fill="#F69F06"/>
<path d="M319.945 291.343L317.187 292.779L318.356 294.651L320.808 293.374L319.945 291.343Z" fill="#F69F06"/>
<path d="M329.252 292.913C328.057 292.134 326.457 292.473 325.679 293.667C324.899 294.864 325.239 296.462 326.435 297.241C327.629 298.019 329.227 297.681 330.006 296.486C330.784 295.292 330.447 293.691 329.252 292.913ZM329.743 296.314C329.059 297.365 327.655 297.662 326.605 296.978C325.556 296.295 325.259 294.89 325.943 293.84C326.626 292.791 328.031 292.494 329.081 293.178C330.129 293.861 330.426 295.265 329.743 296.314ZM329.252 292.913C328.057 292.134 326.457 292.473 325.679 293.667C324.899 294.864 325.239 296.462 326.435 297.241C327.629 298.019 329.227 297.681 330.006 296.486C330.784 295.292 330.447 293.691 329.252 292.913ZM329.743 296.314C329.059 297.365 327.655 297.662 326.605 296.978C325.556 296.295 325.259 294.89 325.943 293.84C326.626 292.791 328.031 292.494 329.081 293.178C330.129 293.861 330.426 295.265 329.743 296.314ZM329.252 292.913C328.057 292.134 326.457 292.473 325.679 293.667C324.899 294.864 325.239 296.462 326.435 297.241C327.629 298.019 329.227 297.681 330.006 296.486C330.784 295.292 330.447 293.691 329.252 292.913ZM329.743 296.314C329.059 297.365 327.655 297.662 326.605 296.978C325.556 296.295 325.259 294.89 325.943 293.84C326.626 292.791 328.031 292.494 329.081 293.178C330.129 293.861 330.426 295.265 329.743 296.314ZM330.814 290.516C328.292 288.876 324.922 289.59 323.281 292.108C321.641 294.627 322.352 297.999 324.872 299.639C327.39 301.278 330.763 300.566 332.403 298.047C334.043 295.53 333.332 292.156 330.814 290.516ZM330.343 296.705C329.445 298.085 327.593 298.477 326.215 297.579C324.837 296.681 324.444 294.83 325.343 293.45C326.241 292.07 328.094 291.68 329.472 292.578C330.849 293.475 331.241 295.326 330.343 296.705ZM330.006 296.486C330.784 295.291 330.447 293.692 329.252 292.914C328.057 292.135 326.457 292.474 325.679 293.668C324.899 294.865 325.239 296.463 326.435 297.242C327.629 298.02 329.227 297.681 330.006 296.486ZM329.743 296.314C329.059 297.365 327.655 297.662 326.605 296.978C325.556 296.295 325.259 294.89 325.943 293.84C326.626 292.791 328.031 292.494 329.081 293.178C330.129 293.861 330.426 295.265 329.743 296.314ZM329.252 292.913C328.057 292.134 326.457 292.473 325.679 293.667C324.899 294.864 325.239 296.462 326.435 297.241C327.629 298.019 329.227 297.681 330.006 296.486C330.784 295.292 330.447 293.691 329.252 292.913ZM329.743 296.314C329.059 297.365 327.655 297.662 326.605 296.978C325.556 296.295 325.259 294.89 325.943 293.84C326.626 292.791 328.031 292.494 329.081 293.178C330.129 293.861 330.426 295.265 329.743 296.314ZM329.252 292.913C328.057 292.134 326.457 292.473 325.679 293.667C324.899 294.864 325.239 296.462 326.435 297.241C327.629 298.019 329.227 297.681 330.006 296.486C330.784 295.292 330.447 293.691 329.252 292.913ZM329.743 296.314C329.059 297.365 327.655 297.662 326.605 296.978C325.556 296.295 325.259 294.89 325.943 293.84C326.626 292.791 328.031 292.494 329.081 293.178C330.129 293.861 330.426 295.265 329.743 296.314Z" fill="#DBDBDB"/>
<path d="M325.873 300.02L324.119 298.878L323.408 300.183L324.968 301.199L325.873 300.02Z" fill="#DBDBDB"/>
<path d="M322.92 297.255L322.487 295.208L321.061 295.628L321.446 297.449L322.92 297.255Z" fill="#DBDBDB"/>
<path d="M322.786 293.212L323.928 291.458L322.623 290.747L321.607 292.307L322.786 293.212Z" fill="#DBDBDB"/>
<path d="M325.551 290.259L327.598 289.826L327.178 288.401L325.357 288.786L325.551 290.259Z" fill="#DBDBDB"/>
<path d="M329.594 290.125L331.347 291.267L332.059 289.963L330.499 288.947L329.594 290.125Z" fill="#DBDBDB"/>
<path d="M332.547 292.89L332.98 294.937L334.405 294.518L334.02 292.697L332.547 292.89Z" fill="#DBDBDB"/>
<path d="M332.681 296.933L331.539 298.687L332.843 299.398L333.859 297.838L332.681 296.933Z" fill="#DBDBDB"/>
<path d="M329.916 299.886L327.869 300.319L328.288 301.744L330.109 301.36L329.916 299.886Z" fill="#DBDBDB"/>
<path d="M367.365 314.78L369.904 315.252L377.165 266.074L374.272 265.542L367.365 314.78Z" fill="#F69F06"/>
<path d="M345.122 306.986L348.893 274.127L374.272 265.542C374.272 265.542 367.365 315.311 367.365 314.78L345.122 306.986Z" fill="#F69F06"/>
<path opacity="0.4" d="M345.122 306.986L348.893 274.127L374.272 265.542C374.272 265.542 367.365 315.311 367.365 314.78L345.122 306.986Z" fill="white"/>
<path d="M283.611 275.458C283.198 272.736 282.974 269.992 282.804 267.245C282.726 265.871 282.691 264.495 282.661 263.119C282.633 261.744 282.609 260.366 282.65 258.99L282.661 258.628L283.013 258.609C288.055 258.339 293.094 258.007 298.139 257.787C303.182 257.538 308.225 257.312 313.273 257.154C308.241 257.61 303.207 257.998 298.172 258.363C293.138 258.757 288.099 259.039 283.063 259.382L283.425 259.002L283.404 263.111L283.452 267.223C283.459 268.594 283.484 269.965 283.524 271.337L283.611 275.458Z" fill="white"/>
<path d="M352.432 274.609C354.004 273.862 355.601 273.168 357.217 272.527C358.828 271.871 360.454 271.25 362.098 270.681C363.745 270.118 365.398 269.567 367.079 269.101C368.756 268.628 370.449 268.192 372.179 267.908L372.605 267.839L372.529 268.245C372.131 270.373 371.714 272.497 371.222 274.609C371.406 272.448 371.666 270.298 371.945 268.152L372.294 268.489C370.618 268.889 368.955 269.357 367.296 269.847C365.64 270.342 363.988 270.864 362.341 271.4L352.432 274.609Z" fill="white"/>
<path opacity="0.1" d="M294.594 256.292L295.021 264.511L295.387 272.732L296.021 289.177L296.516 305.627L296.714 313.854L296.85 322.083L296.421 313.864L296.056 305.643L295.423 289.198L294.929 272.748L294.73 264.521L294.594 256.292Z" fill="black"/>
<path opacity="0.1" d="M292.24 261.246C292.398 261.954 291.978 262.799 291.179 263.033C290.792 263.15 290.339 263.111 289.962 262.896C289.584 262.681 289.306 262.29 289.216 261.856C289.131 261.421 289.235 260.952 289.5 260.608C289.763 260.263 290.168 260.051 290.57 260.009C291.398 259.916 292.111 260.534 292.24 261.246ZM292.24 261.246C292.164 260.889 291.934 260.569 291.622 260.397C291.309 260.224 290.94 260.203 290.629 260.304C289.988 260.512 289.681 261.187 289.802 261.739C289.903 262.293 290.448 262.8 291.12 262.742C291.446 262.714 291.779 262.551 292 262.27C292.222 261.99 292.309 261.606 292.24 261.246Z" fill="black"/>
<path opacity="0.1" d="M292.806 271.101C292.964 271.809 292.544 272.653 291.745 272.888C291.358 273.004 290.905 272.966 290.528 272.75C290.15 272.536 289.872 272.145 289.782 271.711C289.697 271.276 289.801 270.806 290.065 270.463C290.329 270.117 290.734 269.906 291.136 269.863C291.964 269.771 292.677 270.388 292.806 271.101ZM292.806 271.101C292.73 270.743 292.5 270.423 292.188 270.251C291.875 270.079 291.506 270.057 291.195 270.158C290.554 270.367 290.247 271.042 290.368 271.593C290.469 272.148 291.013 272.655 291.686 272.596C292.012 272.568 292.345 272.405 292.566 272.125C292.787 271.845 292.875 271.46 292.806 271.101Z" fill="black"/>
<path opacity="0.1" d="M293.165 281.562C293.323 282.27 292.903 283.114 292.104 283.349C291.717 283.465 291.264 283.427 290.886 283.211C290.509 282.997 290.23 282.606 290.141 282.172C290.056 281.737 290.159 281.267 290.424 280.923C290.688 280.577 291.093 280.366 291.494 280.324C292.323 280.232 293.036 280.849 293.165 281.562ZM293.165 281.562C293.089 281.204 292.859 280.884 292.547 280.712C292.234 280.54 291.865 280.518 291.554 280.619C290.913 280.828 290.606 281.502 290.727 282.053C290.828 282.609 291.372 283.115 292.045 283.057C292.371 283.029 292.703 282.866 292.924 282.585C293.146 282.305 293.233 281.921 293.165 281.562Z" fill="black"/>
<path opacity="0.1" d="M293.524 292.022C293.682 292.73 293.262 293.574 292.464 293.809C292.076 293.925 291.623 293.887 291.246 293.672C290.868 293.457 290.59 293.066 290.5 292.632C290.415 292.197 290.519 291.728 290.784 291.384C291.047 291.038 291.452 290.827 291.854 290.784C292.682 290.692 293.396 291.309 293.524 292.022ZM293.524 292.022C293.448 291.665 293.219 291.345 292.906 291.172C292.594 291 292.224 290.978 291.913 291.08C291.272 291.288 290.965 291.962 291.086 292.514C291.188 293.069 291.732 293.576 292.404 293.518C292.73 293.49 293.063 293.327 293.284 293.046C293.506 292.766 293.593 292.381 293.524 292.022Z" fill="black"/>
<path opacity="0.1" d="M293.883 302.483C294.041 303.191 293.621 304.035 292.822 304.27C292.435 304.386 291.982 304.348 291.605 304.132C291.227 303.918 290.949 303.527 290.859 303.093C290.774 302.658 290.878 302.189 291.143 301.845C291.406 301.499 291.811 301.288 292.213 301.245C293.041 301.153 293.754 301.77 293.883 302.483ZM293.883 302.483C293.807 302.126 293.577 301.806 293.265 301.633C292.952 301.461 292.583 301.439 292.272 301.541C291.631 301.749 291.324 302.423 291.445 302.975C291.546 303.531 292.091 304.037 292.763 303.978C293.089 303.951 293.422 303.788 293.644 303.507C293.865 303.226 293.952 302.841 293.883 302.483Z" fill="black"/>
<path opacity="0.1" d="M294.242 312.943C294.4 313.651 293.98 314.495 293.181 314.73C292.794 314.846 292.341 314.808 291.964 314.593C291.586 314.378 291.308 313.987 291.218 313.553C291.133 313.119 291.237 312.649 291.501 312.305C291.765 311.958 292.169 311.748 292.572 311.706C293.4 311.613 294.113 312.231 294.242 312.943ZM294.242 312.943C294.166 312.586 293.936 312.266 293.624 312.093C293.311 311.921 292.942 311.899 292.631 312.001C291.99 312.209 291.683 312.883 291.804 313.436C291.905 313.991 292.45 314.497 293.122 314.439C293.448 314.411 293.781 314.247 294.002 313.967C294.223 313.686 294.31 313.302 294.242 312.943Z" fill="black"/>
<path d="M297.472 328.939L260.065 340.274L261.39 344.645L298.796 333.31L297.472 328.939Z" fill="#F69F06"/>
<path opacity="0.4" d="M297.472 328.939L260.065 340.274L261.39 344.645L298.796 333.31L297.472 328.939Z" fill="white"/>
<path d="M279.574 332.878L275.222 334.263L277.278 340.728L281.631 339.343L279.574 332.878Z" fill="#F69F06"/>
<path d="M261.097 351.048L251.445 309.249L222.31 316.157L236.656 356.892L261.097 351.048Z" fill="#F69F06"/>
<path d="M267.562 348.923L261.097 351.048L251.444 309.249L260.743 311.463L267.562 348.923Z" fill="#F69F06"/>
<path opacity="0.2" d="M267.562 348.923L261.097 351.048L251.444 309.249L260.743 311.463L267.562 348.923Z" fill="black"/>
<path d="M298.15 336.081C300.888 336.081 303.108 333.861 303.108 331.122C303.108 328.384 300.888 326.164 298.15 326.164C295.411 326.164 293.191 328.384 293.191 331.122C293.191 333.861 295.411 336.081 298.15 336.081Z" fill="#F69F06"/>
<path d="M349.176 328.818L347.843 333.186L385.225 344.599L386.559 340.231L349.176 328.818Z" fill="#F69F06"/>
<path opacity="0.4" d="M349.176 328.818L347.843 333.186L385.225 344.599L386.559 340.231L349.176 328.818Z" fill="white"/>
<path d="M367.1 332.777L365.029 339.237L369.378 340.631L371.449 334.171L367.1 332.777Z" fill="#F69F06"/>
<path d="M385.529 351.012L395.271 309.233L424.391 316.203L409.958 356.908L385.529 351.012Z" fill="#F69F06"/>
<path d="M379.069 348.872L385.529 351.012L395.271 309.233L385.968 311.428L379.069 348.872Z" fill="#F69F06"/>
<path opacity="0.2" d="M379.069 348.872L385.529 351.012L395.271 309.233L385.968 311.428L379.069 348.872Z" fill="black"/>
<path d="M343.56 330.997C343.554 333.736 345.77 335.961 348.508 335.967C351.247 335.973 353.472 333.758 353.478 331.019C353.484 328.28 351.269 326.055 348.53 326.049C345.79 326.042 343.566 328.258 343.56 330.997Z" fill="#F69F06"/>
<path d="M380.985 279.442C381.103 279.332 393.117 268.188 407.252 272C421.705 275.9 433.638 297.67 433.756 297.89L437.773 295.718C437.252 294.752 424.805 271.999 408.44 267.592C391.796 263.103 378.401 275.599 377.839 276.134L380.985 279.442Z" fill="#F69F06"/>
<path opacity="0.4" d="M380.985 279.442C381.103 279.332 393.117 268.188 407.252 272C421.705 275.9 433.638 297.67 433.756 297.89L437.773 295.718C437.252 294.752 424.805 271.999 408.44 267.592C391.796 263.103 378.401 275.599 377.839 276.134L380.985 279.442Z" fill="white"/>
<path d="M428.43 319.805L437.085 315.236C436.255 313.663 435.232 310.959 435.083 308.518C434.891 305.355 436.146 304.243 437.531 303.511C440.563 301.909 442.373 302.545 443.609 303.272C445.343 304.296 447.107 306.391 448.574 309.171L457.229 304.602C454.861 300.115 451.952 296.833 448.584 294.844C445.223 292.863 439.786 291.254 432.961 294.856C427.642 297.664 424.926 302.727 425.315 309.112C425.62 314.136 427.777 318.567 428.43 319.805Z" fill="#F69F06"/>
<path d="M382.81 264.193C384.686 262.897 386.606 261.676 388.533 260.466C390.455 259.249 392.41 258.086 394.364 256.922C396.328 255.775 398.292 254.63 400.289 253.538L403.285 251.902C404.298 251.382 405.297 250.838 406.323 250.339C405.39 250.994 404.43 251.604 403.483 252.239L400.601 254.066C398.678 255.283 396.724 256.447 394.769 257.608C392.805 258.754 390.84 259.899 388.843 260.991C386.851 262.092 384.852 263.18 382.81 264.193Z" fill="#263238"/>
<path d="M377.839 282.867C380.525 284.397 383.071 286.125 385.583 287.9C388.081 289.696 390.544 291.54 392.864 293.583C390.177 292.054 387.631 290.326 385.12 288.549C382.624 286.753 380.161 284.909 377.839 282.867Z" fill="#263238"/>
<path d="M382.251 280.57C384.324 281.2 386.365 281.911 388.401 282.635C390.441 283.35 392.458 284.124 394.475 284.898C396.485 285.69 398.494 286.483 400.481 287.334L403.461 288.612C404.443 289.066 405.436 289.493 406.41 289.97C405.371 289.662 404.349 289.307 403.319 288.977L400.259 287.906C398.219 287.19 396.202 286.417 394.186 285.642C392.176 284.85 390.166 284.057 388.18 283.205C386.19 282.362 384.205 281.507 382.251 280.57Z" fill="#263238"/>
<path d="M388.141 265.944C390.128 265.428 392.13 264.998 394.134 264.581C396.136 264.154 398.15 263.791 400.164 263.426C402.18 263.08 404.198 262.736 406.225 262.453L409.267 262.031C410.286 261.919 411.301 261.78 412.324 261.693C411.333 261.959 410.332 262.175 409.335 262.416L406.332 263.057C404.329 263.483 402.315 263.847 400.302 264.21C398.284 264.554 396.268 264.899 394.24 265.181C392.214 265.474 390.185 265.753 388.141 265.944Z" fill="#263238"/>
<path d="M331.865 278.369C332.242 276.755 332.848 275.181 333.632 273.681C334.416 272.182 335.377 270.745 336.582 269.468C337.791 268.204 339.278 267.089 341.068 266.472C342.857 265.876 344.906 265.881 346.701 266.521C348.518 267.154 349.95 268.519 350.723 270.088C351.123 270.871 351.374 271.712 351.478 272.571C351.568 273.429 351.53 274.321 351.147 275.178C350.953 275.599 350.649 276.025 350.161 276.308C349.925 276.455 349.637 276.539 349.354 276.578C349.076 276.614 348.79 276.603 348.465 276.502C347.868 276.275 347.569 275.845 347.312 275.458C347.082 275.056 346.906 274.644 346.785 274.228C346.283 272.563 346.233 270.869 346.321 269.194C346.587 265.857 347.567 262.52 349.578 259.649C350.593 258.23 351.866 256.924 353.449 255.969C355.011 255.009 356.84 254.347 358.707 254.156C359.626 253.957 360.575 253.975 361.513 253.935C361.983 253.89 362.45 253.992 362.919 254.014C363.384 254.069 363.861 254.061 364.313 254.182C366.168 254.48 367.912 255.145 369.54 255.95C371.158 256.784 372.6 257.855 373.916 259.017C375.22 260.191 376.406 261.475 377.359 262.889C375.248 260.196 372.53 257.858 369.326 256.292C367.713 255.543 366.008 254.927 364.213 254.678C363.775 254.569 363.315 254.588 362.867 254.543C362.416 254.531 361.967 254.44 361.516 254.494C360.615 254.553 359.708 254.549 358.829 254.76C357.029 254.987 355.36 255.634 353.891 256.536C352.414 257.439 351.223 258.679 350.266 260.035C348.371 262.78 347.443 266.021 347.212 269.242C347.111 270.851 347.156 272.497 347.606 274.026C347.821 274.757 348.208 275.58 348.771 275.811C348.844 275.817 348.892 275.852 348.979 275.854C349.067 275.848 349.16 275.865 349.243 275.846C349.413 275.821 349.578 275.781 349.72 275.69C350.013 275.525 350.245 275.233 350.401 274.898C350.715 274.22 350.772 273.415 350.693 272.64C350.606 271.861 350.382 271.087 350.022 270.369C349.316 268.933 348.063 267.693 346.441 267.085C344.827 266.472 342.937 266.422 341.261 266.944C339.578 267.484 338.124 268.521 336.911 269.724C334.479 272.158 332.839 275.202 331.865 278.369Z" fill="#E2332E"/>
<path d="M249.38 299.05C250.241 297.599 251.508 296.343 252.987 295.35C254.464 294.357 256.161 293.587 257.986 293.21C259.802 292.821 261.752 292.815 263.569 293.308C265.386 293.794 267.023 294.747 268.334 295.96C269.653 297.173 270.639 298.646 271.317 300.213C271.982 301.783 272.381 303.464 272.24 305.184C272.144 306.029 271.952 306.943 271.204 307.675C270.832 308.035 270.259 308.273 269.699 308.281C269.162 308.276 268.654 308.205 268.161 307.969C267.671 307.744 267.279 307.351 267.054 306.917C266.827 306.482 266.742 306.021 266.719 305.576C266.683 304.682 266.899 303.833 267.193 303.026C267.792 301.408 268.776 299.951 269.925 298.63C271.081 297.311 272.442 296.137 273.966 295.158C276.991 293.195 280.843 292.104 284.601 292.544C286.456 292.768 288.297 293.247 289.921 294.093C291.559 294.911 292.979 296.046 294.137 297.344C295.294 298.647 296.195 300.111 296.89 301.637C297.584 303.164 298.097 304.757 298.348 306.384C297.599 303.186 296.127 300.08 293.784 297.602C292.624 296.363 291.225 295.3 289.638 294.551C288.064 293.775 286.298 293.358 284.521 293.18C280.95 292.833 277.328 293.85 274.447 295.756C271.57 297.648 269.217 300.289 268.027 303.276C267.746 304.02 267.551 304.799 267.577 305.549C267.596 306.294 267.889 307.009 268.558 307.31C268.873 307.472 269.3 307.535 269.674 307.541C270.035 307.532 270.356 307.404 270.614 307.165C271.136 306.679 271.359 305.884 271.438 305.121C271.578 303.562 271.218 301.949 270.594 300.459C269.962 298.966 269.023 297.572 267.809 296.406C266.597 295.242 265.071 294.334 263.382 293.84C261.696 293.338 259.847 293.297 258.09 293.629C254.576 294.297 251.32 296.262 249.38 299.05Z" fill="#E2332E"/>
<path d="M208.082 106.337C207.981 103.053 207.202 99.7474 205.492 96.8666C204.636 95.4398 203.501 94.1215 202.01 93.2381C200.522 92.3746 198.674 92.0195 196.943 92.2701C195.205 92.5143 193.658 93.4519 192.589 94.6944C192.047 95.3153 191.623 96.0183 191.33 96.7573C191.046 97.493 190.887 98.2862 191.011 99.0116C191.072 99.3699 191.219 99.7027 191.46 99.9253C191.575 100.044 191.724 100.118 191.882 100.179C191.958 100.215 192.053 100.218 192.136 100.243C192.222 100.259 192.277 100.236 192.349 100.245C192.957 100.142 193.554 99.4242 193.957 98.7602C194.803 97.3717 195.286 95.7829 195.618 94.1989C196.252 91.022 196.216 87.676 195.109 84.6069C194.543 83.0851 193.716 81.6272 192.524 80.4358C191.337 79.2468 189.889 78.262 188.202 77.6579C187.405 77.2653 186.523 77.0762 185.664 76.8256C185.24 76.6772 184.78 76.6708 184.339 76.5854C183.892 76.5336 183.451 76.417 182.995 76.429C181.186 76.2878 179.367 76.5216 177.6 76.9054C174.07 77.7425 170.806 79.4327 168.037 81.5977C169.34 80.4286 170.835 79.4343 172.415 78.5724C174.003 77.725 175.688 76.9932 177.482 76.528C179.277 76.0931 181.149 75.8185 183.029 75.9255C183.501 75.9047 183.961 76.0141 184.428 76.0595C184.889 76.1377 185.37 76.1385 185.814 76.2822C186.714 76.5224 187.642 76.7067 188.48 77.0953C190.242 77.6795 191.842 78.7121 193.102 79.9785C194.384 81.2426 195.271 82.7827 195.878 84.3771C197.065 87.5938 197.125 91.0444 196.492 94.3409C196.132 95.9864 195.629 97.6207 194.698 99.1313C194.47 99.5096 194.187 99.8719 193.858 100.213C193.505 100.534 193.1 100.888 192.46 100.981C192.117 101.009 191.838 100.959 191.576 100.865C191.312 100.766 191.054 100.624 190.865 100.43C190.468 100.051 190.285 99.5734 190.209 99.1233C190.066 98.2104 190.267 97.3358 190.584 96.5211C190.913 95.7079 191.382 94.9458 191.98 94.2707C193.148 92.9125 194.904 91.8927 196.837 91.666C198.752 91.4266 200.742 91.8591 202.321 92.8207C203.894 93.8015 205.041 95.202 205.878 96.687C206.707 98.1849 207.255 99.7857 207.617 101.408C207.978 103.031 208.147 104.689 208.082 106.337Z" fill="#E2332E"/>
<path d="M405.196 147.963C401.601 147.285 397.822 147.191 394.29 148.005C392.538 148.416 390.84 149.095 389.53 150.185C388.244 151.276 387.426 152.801 387.295 154.364C387.155 155.931 387.814 157.495 388.916 158.715C389.464 159.331 390.131 159.863 390.865 160.29C391.599 160.708 392.426 161.032 393.244 161.094C393.648 161.124 394.044 161.073 394.342 160.916C394.498 160.845 394.614 160.733 394.716 160.61C394.774 160.552 394.799 160.47 394.846 160.404C394.883 160.334 394.871 160.279 394.899 160.22C394.928 159.667 394.286 158.981 393.659 158.476C392.346 157.418 390.73 156.626 389.085 155.969C385.777 154.676 382.129 153.926 378.532 154.172C376.745 154.31 374.966 154.688 373.391 155.446C371.821 156.199 370.412 157.229 369.361 158.554C368.748 159.156 368.337 159.878 367.864 160.566C367.604 160.9 367.489 161.299 367.294 161.662C367.132 162.039 366.903 162.395 366.811 162.793C366.235 164.333 366.065 165.969 366.07 167.594C366.157 170.858 367.234 174.09 368.943 177.002C367.975 175.597 367.242 174.066 366.674 172.491C366.123 170.913 365.719 169.277 365.633 167.608C365.579 165.946 365.717 164.255 366.272 162.646C366.359 162.231 366.585 161.856 366.744 161.461C366.937 161.078 367.05 160.66 367.31 160.307C367.781 159.581 368.198 158.818 368.817 158.18C369.864 156.784 371.36 155.635 373.031 154.835C374.706 154.015 376.587 153.603 378.464 153.448C382.24 153.168 386.008 153.919 389.445 155.239C391.151 155.936 392.811 156.754 394.237 157.917C394.595 158.203 394.924 158.533 395.218 158.9C395.485 159.28 395.774 159.715 395.727 160.294C395.678 160.598 395.557 160.83 395.394 161.035C395.225 161.242 395.009 161.433 394.756 161.552C394.251 161.809 393.688 161.856 393.18 161.817C392.154 161.728 391.249 161.35 390.437 160.884C389.63 160.408 388.91 159.823 388.314 159.146C387.109 157.813 386.41 156.048 386.614 154.316C386.8 152.596 387.736 150.966 389.149 149.818C390.583 148.679 392.373 148.009 394.184 147.629C396.007 147.258 397.876 147.154 399.726 147.218C401.576 147.282 403.418 147.522 405.196 147.963Z" fill="#E2332E"/>
<path d="M349.932 96.3328C349.321 94.4423 349.239 92.4202 349.583 90.4675C349.924 88.5148 350.665 86.594 351.873 84.9118C353.064 83.228 354.725 81.7717 356.735 80.8436C358.739 79.9084 361.022 79.5022 363.27 79.5636C365.524 79.6179 367.739 80.1398 369.779 80.9713C371.81 81.8148 373.718 82.9543 375.196 84.5216C375.9 85.3108 376.58 86.2309 376.621 87.3864C376.639 87.957 376.38 88.5666 375.922 88.98C375.469 89.3678 374.973 89.6831 374.349 89.845C373.735 90.0134 373.052 89.9719 372.468 89.7724C371.879 89.5745 371.384 89.2497 370.955 88.8906C370.099 88.1613 369.492 87.2787 368.992 86.3722C367.997 84.5487 367.474 82.5713 367.222 80.5867C366.977 78.5988 367.04 76.5807 367.427 74.6088C368.173 70.6763 370.44 66.8786 374.051 64.4463C375.841 63.2517 377.856 62.2845 380.03 61.7922C382.19 61.2647 384.463 61.1713 386.666 61.4115C388.874 61.6557 391.016 62.2279 393.042 63.0091C395.067 63.7911 397.001 64.7663 398.746 65.9633C395.12 63.7704 390.952 62.1999 386.616 61.8169C384.459 61.6206 382.257 61.7523 380.186 62.2973C378.102 62.808 376.189 63.7728 374.491 64.9522C372.813 66.1532 371.385 67.6303 370.341 69.3101C369.289 70.9859 368.602 72.8381 368.238 74.7357C367.543 78.5246 367.992 82.5601 369.782 86.029C370.243 86.8821 370.808 87.7016 371.546 88.3344C372.269 88.9649 373.223 89.3782 374.116 89.1252C374.556 89.0231 374.988 88.7526 375.325 88.4669C375.641 88.1772 375.805 87.8022 375.8 87.3896C375.788 86.5517 375.223 85.697 374.572 84.978C373.219 83.5257 371.392 82.4125 369.453 81.6001C367.504 80.7917 365.384 80.2978 363.243 80.2108C361.104 80.123 358.935 80.4909 357.017 81.3408C355.094 82.1819 353.467 83.5392 352.275 85.1464C349.893 88.3656 348.96 92.4968 349.932 96.3328Z" fill="#E2332E"/>
<path d="M246.396 299.225C244.396 298.662 242.265 299.654 241.635 301.441C241.004 303.231 242.115 305.134 244.116 305.698C246.114 306.262 248.243 305.27 248.874 303.482C249.504 301.695 248.395 299.788 246.396 299.225ZM248.433 303.356C247.88 304.927 246.009 305.799 244.254 305.304C242.498 304.809 241.523 303.138 242.078 301.566C242.631 299.997 244.501 299.125 246.259 299.621C248.012 300.115 248.987 301.787 248.433 303.356ZM246.396 299.225C244.396 298.662 242.265 299.654 241.635 301.441C241.004 303.231 242.115 305.134 244.116 305.698C246.114 306.262 248.243 305.27 248.874 303.482C249.504 301.695 248.395 299.788 246.396 299.225ZM248.433 303.356C247.88 304.927 246.009 305.799 244.254 305.304C242.498 304.809 241.523 303.138 242.078 301.566C242.631 299.997 244.501 299.125 246.259 299.621C248.012 300.115 248.987 301.787 248.433 303.356ZM246.396 299.225C244.396 298.662 242.265 299.654 241.635 301.441C241.004 303.231 242.115 305.134 244.116 305.698C246.114 306.262 248.243 305.27 248.874 303.482C249.504 301.695 248.395 299.788 246.396 299.225ZM248.433 303.356C247.88 304.927 246.009 305.799 244.254 305.304C242.498 304.809 241.523 303.138 242.078 301.566C242.631 299.997 244.501 299.125 246.259 299.621C248.012 300.115 248.987 301.787 248.433 303.356ZM247.661 295.64C243.444 294.452 238.953 296.547 237.624 300.312C236.297 304.078 238.636 308.096 242.851 309.283C247.062 310.469 251.557 308.377 252.884 304.61C254.213 300.846 251.874 296.825 247.661 295.64ZM249.438 303.639C248.71 305.702 246.244 306.851 243.938 306.202C241.632 305.552 240.346 303.347 241.074 301.284C241.801 299.221 244.269 298.073 246.575 298.723C248.879 299.372 250.164 301.577 249.438 303.639ZM248.874 303.481C249.504 301.694 248.395 299.788 246.396 299.224C244.396 298.661 242.265 299.654 241.635 301.44C241.004 303.23 242.115 305.133 244.116 305.698C246.114 306.261 248.243 305.269 248.874 303.481ZM248.433 303.356C247.88 304.927 246.009 305.799 244.254 305.304C242.498 304.809 241.523 303.138 242.078 301.566C242.631 299.997 244.501 299.125 246.259 299.621C248.012 300.115 248.987 301.787 248.433 303.356ZM246.396 299.225C244.396 298.662 242.265 299.654 241.635 301.441C241.004 303.231 242.115 305.134 244.116 305.698C246.114 306.262 248.243 305.27 248.874 303.482C249.504 301.695 248.395 299.788 246.396 299.225ZM248.433 303.356C247.88 304.927 246.009 305.799 244.254 305.304C242.498 304.809 241.523 303.138 242.078 301.566C242.631 299.997 244.501 299.125 246.259 299.621C248.012 300.115 248.987 301.787 248.433 303.356ZM246.396 299.225C244.396 298.662 242.265 299.654 241.635 301.441C241.004 303.231 242.115 305.134 244.116 305.698C246.114 306.262 248.243 305.27 248.874 303.482C249.504 301.695 248.395 299.788 246.396 299.225ZM248.433 303.356C247.88 304.927 246.009 305.799 244.254 305.304C242.498 304.809 241.523 303.138 242.078 301.566C242.631 299.997 244.501 299.125 246.259 299.621C248.012 300.115 248.987 301.787 248.433 303.356Z" fill="#455A64"/>
<path d="M244.418 309.412L241.484 308.586L240.992 310.489L243.601 311.224L244.418 309.412Z" fill="#455A64"/>
<path d="M239.145 306.956L237.724 304.517L235.872 305.551L237.135 307.721L239.145 306.956Z" fill="#455A64"/>
<path d="M237.36 301.885L238.285 299.262L236.157 298.823L235.334 301.155L237.36 301.885Z" fill="#455A64"/>
<path d="M240.108 297.172L242.836 295.901L241.679 294.245L239.253 295.375L240.108 297.172Z" fill="#455A64"/>
<path d="M245.779 295.576L248.713 296.402L249.206 294.5L246.596 293.765L245.779 295.576Z" fill="#455A64"/>
<path d="M251.052 298.032L252.473 300.472L254.326 299.438L253.062 297.269L251.052 298.032Z" fill="#455A64"/>
<path d="M252.839 303.103L251.914 305.726L254.042 306.166L254.864 303.833L252.839 303.103Z" fill="#455A64"/>
<path d="M250.09 307.816L247.361 309.087L248.518 310.743L250.945 309.614L250.09 307.816Z" fill="#455A64"/>
<path d="M394.399 276.424C398.423 271.577 397.289 264.729 391.867 261.132C386.443 257.534 378.783 258.548 374.76 263.394C370.735 268.242 371.869 275.09 377.293 278.688C382.714 282.286 390.374 281.273 394.399 276.424ZM389.165 272.951C387.284 275.217 383.709 275.69 381.177 274.01C378.642 272.329 378.113 269.133 379.994 266.867C381.873 264.603 385.449 264.13 387.983 265.811C390.515 267.492 391.044 270.688 389.165 272.951Z" fill="#E2332E"/>
<path d="M379.481 279.576L375.705 277.071L373.93 279.599L377.288 281.827L379.481 279.576Z" fill="#E2332E"/>
<path d="M373.239 273.671L372.55 269.512L369.295 270.178L369.907 273.876L373.239 273.671Z" fill="#E2332E"/>
<path d="M373.494 265.548L376.297 262.173L373.469 260.586L370.977 263.589L373.494 265.548Z" fill="#E2332E"/>
<path d="M380.102 259.968L384.754 259.352L384.009 256.442L379.872 256.99L380.102 259.968Z" fill="#E2332E"/>
<path d="M389.187 260.197L392.962 262.703L394.737 260.175L391.379 257.947L389.187 260.197Z" fill="#E2332E"/>
<path d="M395.43 266.103L396.118 270.261L399.373 269.596L398.76 265.897L395.43 266.103Z" fill="#E2332E"/>
<path d="M395.173 274.225L392.37 277.601L395.198 279.187L397.69 276.185L395.173 274.225Z" fill="#E2332E"/>
<path d="M388.566 279.806L383.915 280.421L384.659 283.33L388.796 282.784L388.566 279.806Z" fill="#E2332E"/>
<path d="M380.199 270.434L382.797 273.362L386.933 272.813L388.469 269.34L385.874 266.413L381.737 266.958L380.199 270.434ZM385.123 268.935C385.712 269.326 385.835 270.066 385.397 270.593C384.962 271.117 384.132 271.229 383.543 270.838C382.957 270.448 382.833 269.704 383.269 269.18C383.706 268.654 384.537 268.546 385.123 268.935Z" fill="#E2332E"/>
<path d="M403.568 63.5587C401.817 63.0655 399.953 63.9345 399.401 65.4978C398.849 67.0643 399.821 68.7297 401.572 69.2229C403.321 69.716 405.183 68.8478 405.735 67.2829C406.287 65.7196 405.316 64.051 403.568 63.5587ZM405.35 67.1736C404.866 68.5486 403.229 69.3106 401.692 68.8781C400.156 68.4456 399.304 66.9821 399.787 65.6071C400.271 64.2338 401.908 63.4717 403.446 63.9042C404.982 64.3367 405.835 65.8002 405.35 67.1736ZM403.568 63.5587C401.817 63.0655 399.953 63.9345 399.401 65.4978C398.849 67.0643 399.821 68.7297 401.572 69.2229C403.321 69.716 405.183 68.8478 405.735 67.2829C406.287 65.7196 405.316 64.051 403.568 63.5587ZM405.35 67.1736C404.866 68.5486 403.229 69.3106 401.692 68.8781C400.156 68.4456 399.304 66.9821 399.787 65.6071C400.271 64.2338 401.908 63.4717 403.446 63.9042C404.982 64.3367 405.835 65.8002 405.35 67.1736ZM403.568 63.5587C401.817 63.0655 399.953 63.9345 399.401 65.4978C398.849 67.0643 399.821 68.7297 401.572 69.2229C403.321 69.716 405.183 68.8478 405.735 67.2829C406.287 65.7196 405.316 64.051 403.568 63.5587ZM405.35 67.1736C404.866 68.5486 403.229 69.3106 401.692 68.8781C400.156 68.4456 399.304 66.9821 399.787 65.6071C400.271 64.2338 401.908 63.4717 403.446 63.9042C404.982 64.3367 405.835 65.8002 405.35 67.1736ZM404.676 60.4217C400.985 59.3827 397.055 61.2157 395.893 64.5099C394.731 67.8056 396.777 71.3216 400.467 72.3598C404.152 73.398 408.085 71.5674 409.246 68.2709C410.408 64.9767 408.36 61.4591 404.676 60.4217ZM406.23 67.421C405.593 69.2261 403.435 70.2323 401.416 69.6634C399.398 69.0944 398.273 67.1648 398.91 65.3598C399.546 63.5547 401.707 62.55 403.724 63.119C405.741 63.6871 406.865 65.6167 406.23 67.421ZM405.736 67.2829C406.288 65.7196 405.317 64.051 403.569 63.5587C401.818 63.0655 399.953 63.9345 399.402 65.4978C398.85 67.0643 399.822 68.7297 401.573 69.2229C403.321 69.7152 405.184 68.8478 405.736 67.2829ZM405.35 67.1736C404.866 68.5486 403.229 69.3106 401.692 68.8781C400.156 68.4456 399.304 66.9821 399.787 65.6071C400.271 64.2338 401.908 63.4717 403.446 63.9042C404.982 64.3367 405.835 65.8002 405.35 67.1736ZM403.568 63.5587C401.817 63.0655 399.953 63.9345 399.401 65.4978C398.849 67.0643 399.821 68.7297 401.572 69.2229C403.321 69.716 405.183 68.8478 405.735 67.2829C406.287 65.7196 405.316 64.051 403.568 63.5587ZM405.35 67.1736C404.866 68.5486 403.229 69.3106 401.692 68.8781C400.156 68.4456 399.304 66.9821 399.787 65.6071C400.271 64.2338 401.908 63.4717 403.446 63.9042C404.982 64.3367 405.835 65.8002 405.35 67.1736ZM403.568 63.5587C401.817 63.0655 399.953 63.9345 399.401 65.4978C398.849 67.0643 399.821 68.7297 401.572 69.2229C403.321 69.716 405.183 68.8478 405.735 67.2829C406.287 65.7196 405.316 64.051 403.568 63.5587ZM405.35 67.1736C404.866 68.5486 403.229 69.3106 401.692 68.8781C400.156 68.4456 399.304 66.9821 399.787 65.6071C400.271 64.2338 401.908 63.4717 403.446 63.9042C404.982 64.3367 405.835 65.8002 405.35 67.1736Z" fill="#E2332E"/>
<path d="M401.836 72.473L399.269 71.75L398.838 73.4146L401.122 74.0578L401.836 72.473Z" fill="#E2332E"/>
<path d="M397.222 70.3233L395.978 68.1895L394.357 69.0936L395.463 70.992L397.222 70.3233Z" fill="#E2332E"/>
<path d="M395.66 65.8862L396.469 63.5912L394.607 63.2065L393.888 65.2478L395.66 65.8862Z" fill="#E2332E"/>
<path d="M398.065 61.7615L400.453 60.6499L399.441 59.2007L397.317 60.1894L398.065 61.7615Z" fill="#E2332E"/>
<path d="M403.028 60.3651L405.595 61.0881L406.026 59.4235L403.743 58.7803L403.028 60.3651Z" fill="#E2332E"/>
<path d="M407.642 62.5149L408.886 64.6496L410.507 63.7446L409.401 61.8462L407.642 62.5149Z" fill="#E2332E"/>
<path d="M409.203 66.9517L408.395 69.2467L410.257 69.6321L410.976 67.5909L409.203 66.9517Z" fill="#E2332E"/>
<path d="M406.799 71.0767L404.412 72.1883L405.423 73.6374L407.547 72.6487L406.799 71.0767Z" fill="#E2332E"/>
<path d="M369.451 177.565C367.701 177.071 365.836 177.94 365.284 179.504C364.732 181.07 365.705 182.736 367.455 183.229C369.204 183.722 371.067 182.854 371.618 181.289C372.169 179.726 371.2 178.057 369.451 177.565ZM371.233 181.179C370.748 182.554 369.112 183.317 367.576 182.884C366.039 182.451 365.187 180.988 365.671 179.613C366.154 178.24 367.792 177.478 369.33 177.91C370.864 178.343 371.717 179.806 371.233 181.179ZM369.451 177.565C367.701 177.071 365.836 177.94 365.284 179.504C364.732 181.07 365.705 182.736 367.455 183.229C369.204 183.722 371.067 182.854 371.618 181.289C372.169 179.726 371.2 178.057 369.451 177.565ZM371.233 181.179C370.748 182.554 369.112 183.317 367.576 182.884C366.039 182.451 365.187 180.988 365.671 179.613C366.154 178.24 367.792 177.478 369.33 177.91C370.864 178.343 371.717 179.806 371.233 181.179ZM369.451 177.565C367.701 177.071 365.836 177.94 365.284 179.504C364.732 181.07 365.705 182.736 367.455 183.229C369.204 183.722 371.067 182.854 371.618 181.289C372.169 179.726 371.2 178.057 369.451 177.565ZM371.233 181.179C370.748 182.554 369.112 183.317 367.576 182.884C366.039 182.451 365.187 180.988 365.671 179.613C366.154 178.24 367.792 177.478 369.33 177.91C370.864 178.343 371.717 179.806 371.233 181.179ZM370.558 174.428C366.868 173.389 362.937 175.222 361.775 178.516C360.614 181.812 362.66 185.327 366.349 186.366C370.035 187.404 373.967 185.573 375.128 182.277C376.291 178.983 374.243 175.465 370.558 174.428ZM372.112 181.427C371.476 183.232 369.317 184.238 367.299 183.669C365.281 183.101 364.156 181.171 364.792 179.366C365.429 177.561 367.589 176.556 369.606 177.125C371.623 177.693 372.748 179.623 372.112 181.427ZM371.618 181.289C372.169 179.726 371.2 178.057 369.451 177.565C367.701 177.071 365.836 177.94 365.284 179.504C364.732 181.07 365.705 182.736 367.455 183.229C369.204 183.722 371.067 182.854 371.618 181.289ZM371.233 181.179C370.748 182.554 369.112 183.317 367.576 182.884C366.039 182.451 365.187 180.988 365.671 179.613C366.154 178.24 367.792 177.478 369.33 177.91C370.864 178.343 371.717 179.806 371.233 181.179ZM369.451 177.565C367.701 177.071 365.836 177.94 365.284 179.504C364.732 181.07 365.705 182.736 367.455 183.229C369.204 183.722 371.067 182.854 371.618 181.289C372.169 179.726 371.2 178.057 369.451 177.565ZM371.233 181.179C370.748 182.554 369.112 183.317 367.576 182.884C366.039 182.451 365.187 180.988 365.671 179.613C366.154 178.24 367.792 177.478 369.33 177.91C370.864 178.343 371.717 179.806 371.233 181.179ZM369.451 177.565C367.701 177.071 365.836 177.94 365.284 179.504C364.732 181.07 365.705 182.736 367.455 183.229C369.204 183.722 371.067 182.854 371.618 181.289C372.169 179.726 371.2 178.057 369.451 177.565ZM371.233 181.179C370.748 182.554 369.112 183.317 367.576 182.884C366.039 182.451 365.187 180.988 365.671 179.613C366.154 178.24 367.792 177.478 369.33 177.91C370.864 178.343 371.717 179.806 371.233 181.179Z" fill="#E2332E"/>
<path d="M367.719 186.479L365.151 185.756L364.721 187.421L367.005 188.064L367.719 186.479Z" fill="#E2332E"/>
<path d="M363.105 184.329L361.862 182.195L360.24 183.099L361.346 184.998L363.105 184.329Z" fill="#E2332E"/>
<path d="M361.542 179.893L362.352 177.598L360.49 177.213L359.771 179.254L361.542 179.893Z" fill="#E2332E"/>
<path d="M363.948 175.768L366.336 174.657L365.323 173.207L363.2 174.196L363.948 175.768Z" fill="#E2332E"/>
<path d="M368.911 174.371L371.478 175.095L371.909 173.43L369.626 172.787L368.911 174.371Z" fill="#E2332E"/>
<path d="M373.525 176.521L374.768 178.655L376.389 177.75L375.283 175.852L373.525 176.521Z" fill="#E2332E"/>
<path d="M375.087 180.958L374.278 183.253L376.14 183.638L376.859 181.597L375.087 180.958Z" fill="#E2332E"/>
<path d="M372.682 185.083L370.295 186.194L371.306 187.643L373.43 186.655L372.682 185.083Z" fill="#E2332E"/>
<path d="M174.221 87.8114C175.598 82.7617 172.133 77.6696 166.485 76.4391C160.834 75.2086 155.137 78.3056 153.761 83.3554C152.384 88.4067 155.849 93.4996 161.499 94.7301C167.149 95.9598 172.845 92.8627 174.221 87.8114ZM168.769 86.624C168.125 88.9845 165.467 90.4304 162.828 89.8551C160.188 89.2797 158.57 86.9033 159.214 84.5428C159.857 82.1839 162.516 80.7387 165.156 81.3141C167.794 81.8887 169.412 84.2651 168.769 86.624Z" fill="#E2332E"/>
<path d="M163.569 94.7779L159.635 93.9209L159.174 96.4577L162.673 97.2198L163.569 94.7779Z" fill="#E2332E"/>
<path d="M156.405 91.9627L154.301 88.8696L151.969 90.3723L153.84 93.123L156.405 91.9627Z" fill="#E2332E"/>
<path d="M153.566 85.4422L154.524 81.9262L151.686 81.5137L150.834 84.6418L153.566 85.4422Z" fill="#E2332E"/>
<path d="M156.715 79.0378L160.174 77.157L158.494 75.0718L155.417 76.7452L156.715 79.0378Z" fill="#E2332E"/>
<path d="M164.008 76.5L167.942 77.357L168.404 74.8202L164.905 74.0581L164.008 76.5Z" fill="#E2332E"/>
<path d="M171.173 79.3156L173.277 82.4086L175.61 80.906L173.739 78.1553L171.173 79.3156Z" fill="#E2332E"/>
<path d="M174.013 85.8359L173.055 89.3527L175.892 89.7645L176.745 86.6363L174.013 85.8359Z" fill="#E2332E"/>
<path d="M170.862 92.2407L167.403 94.1216L169.084 96.2068L172.161 94.5334L170.862 92.2407Z" fill="#E2332E"/>
<path d="M160.714 87.3114L163.871 88.8571L166.946 87.1829L166.863 83.9678L163.708 82.4229L160.631 84.0939L160.714 87.3114ZM164.059 84.6485C164.673 84.7817 165.047 85.3324 164.897 85.8814C164.748 86.428 164.132 86.7648 163.518 86.6307C162.906 86.4974 162.53 85.9444 162.68 85.3978C162.829 84.8496 163.447 84.5152 164.059 84.6485Z" fill="#E2332E"/>
<path d="M121.035 239.688C110.605 249.898 108.855 265.693 111.053 279.528C111.11 279.841 111.596 279.756 111.596 279.461C111.596 276.312 111.501 273.191 111.51 270.079C111.567 269.937 111.615 269.803 111.672 269.66C114.394 267.681 116.896 265.445 118.447 262.381C120.189 258.956 120.873 255.092 122.206 251.515C122.33 251.172 121.964 251.273 121.726 251.449C115.382 256.127 113.36 261.162 111.54 267.89C111.625 264.398 111.892 260.906 112.644 257.414C114.014 251.029 116.725 244.702 121.312 239.964C121.482 239.783 121.216 239.507 121.035 239.688Z" fill="#263238"/>
<path d="M122.994 240.878C124.788 240.939 125.913 243.806 127.311 244.643C128.051 245.088 128.772 245.061 129.291 244.332C130.677 242.398 128.776 240.012 126.988 238.678C128.267 239.204 129.327 240.127 130.705 240.389C131.54 240.542 132.189 240.233 132.384 239.384C132.991 236.748 129.684 235.575 127.415 235.52C128.515 234.755 131.668 232.676 129.993 231.654C128.295 230.628 124.596 233.6 123.389 234.579C121.616 236.018 119.501 238.168 119.421 240.419C119.317 243.046 121.614 241.43 122.994 240.878Z" fill="#DD1A21"/>
<path opacity="0.1" d="M122.994 240.878C124.788 240.939 125.913 243.806 127.311 244.643C128.051 245.088 128.772 245.061 129.291 244.332C130.677 242.398 128.776 240.012 126.988 238.678C128.267 239.204 129.327 240.127 130.705 240.389C131.54 240.542 132.189 240.233 132.384 239.384C132.991 236.748 129.684 235.575 127.415 235.52C128.515 234.755 131.668 232.676 129.993 231.654C128.295 230.628 124.596 233.6 123.389 234.579C121.616 236.018 119.501 238.168 119.421 240.419C119.317 243.046 121.614 241.43 122.994 240.878Z" fill="black"/>
<path d="M122.476 241.321C124.77 240.278 129.176 241.779 129.551 240.911C130.31 239.144 126.789 237.931 124.888 237.697C126.639 237.223 129.993 236.467 129.89 234.778C129.764 232.717 124.745 234.489 122.205 236.437C119.005 238.891 119.026 241.259 119.555 241.733C120.28 242.384 122.097 241.493 122.476 241.321Z" fill="#DD1A21"/>
<path d="M97.2846 238.677C108.093 248.483 110.444 264.2 108.774 278.109C108.729 278.425 108.241 278.358 108.23 278.063C108.11 274.916 108.086 271.793 107.959 268.685C107.896 268.545 107.844 268.414 107.781 268.273C104.986 266.398 102.401 264.259 100.734 261.257C98.8638 257.9 98.0323 254.066 96.5656 250.541C96.4291 250.203 96.7978 250.29 97.0436 250.457C103.56 254.891 105.773 259.846 107.848 266.499C107.629 263.012 107.23 259.533 106.347 256.072C104.735 249.744 101.784 243.524 97.0212 238.964C96.8417 238.79 97.097 238.503 97.2846 238.677Z" fill="#263238"/>
<path d="M95.3719 239.941C93.5812 240.07 92.5669 242.978 91.2015 243.867C90.4793 244.341 89.7588 244.341 89.2113 243.632C87.7534 241.752 89.5616 239.296 91.2973 237.894C90.0396 238.468 89.015 239.431 87.648 239.746C86.8197 239.93 86.1598 239.646 85.9323 238.806C85.2253 236.194 88.4851 234.896 90.7499 234.755C89.6215 234.033 86.392 232.075 88.0271 230.99C89.6837 229.9 93.4942 232.729 94.7367 233.662C96.5633 235.032 98.7586 237.1 98.9246 239.346C99.1281 241.967 96.7724 240.439 95.3719 239.941Z" fill="#DD1A21"/>
<path opacity="0.1" d="M95.3719 239.941C93.5812 240.07 92.5669 242.978 91.2015 243.867C90.4793 244.341 89.7588 244.341 89.2113 243.632C87.7534 241.752 89.5616 239.296 91.2973 237.894C90.0396 238.468 89.015 239.431 87.648 239.746C86.8197 239.93 86.1598 239.646 85.9323 238.806C85.2253 236.194 88.4851 234.896 90.7499 234.755C89.6215 234.033 86.392 232.075 88.0271 230.99C89.6837 229.9 93.4942 232.729 94.7367 233.662C96.5633 235.032 98.7586 237.1 98.9246 239.346C99.1281 241.967 96.7724 240.439 95.3719 239.941Z" fill="black"/>
<path d="M95.9075 240.363C93.5757 239.408 89.229 241.076 88.822 240.223C87.9961 238.486 91.4682 237.141 93.3586 236.834C91.5911 236.427 88.2107 235.8 88.2498 234.109C88.2969 232.044 93.3794 233.624 95.992 235.474C99.283 237.804 99.3524 240.171 98.8417 240.665C98.1411 241.343 96.2921 240.521 95.9075 240.363Z" fill="#DD1A21"/>
<path d="M108.339 264.575C109.137 269.743 110.126 275.086 111.695 280.079C111.845 280.534 112.52 280.418 112.451 279.927C111.741 275.149 110.446 270.459 109.737 265.682C109.016 260.847 108.63 255.946 108.907 251.057C109.362 243.006 111.548 234.442 116.802 228.141C116.918 227.992 116.673 227.781 116.554 227.92C106.036 240.183 107.709 255.22 107.719 256.568C106.23 251.49 104.695 245.671 99.0629 240.501C98.8203 240.277 98.6303 240.383 98.671 240.763C99.6781 250.18 102.296 255.096 107.756 260.131C107.909 261.623 108.102 263.108 108.339 264.575Z" fill="#263238"/>
<path d="M116.896 229.551C118.788 228.711 121.398 231.12 123.27 231.285C124.262 231.374 124.996 230.983 125.168 229.965C125.633 227.261 122.459 225.743 119.932 225.258C121.524 225.16 123.088 225.584 124.65 225.162C125.593 224.901 126.111 224.253 125.886 223.275C125.189 220.233 121.168 220.681 118.786 221.766C119.542 220.419 121.766 216.675 119.514 216.458C117.237 216.247 114.895 221.193 114.135 222.816C113.019 225.202 111.907 228.497 112.957 230.873C114.172 233.651 115.741 230.818 116.896 229.551Z" fill="#DD1A21"/>
<path opacity="0.1" d="M116.896 229.551C118.788 228.711 121.398 231.12 123.27 231.285C124.262 231.374 124.996 230.983 125.168 229.965C125.633 227.261 122.459 225.743 119.932 225.258C121.524 225.16 123.088 225.584 124.65 225.162C125.593 224.901 126.111 224.253 125.886 223.275C125.189 220.233 121.168 220.681 118.786 221.766C119.542 220.419 121.766 216.675 119.514 216.458C117.237 216.247 114.895 221.193 114.135 222.816C113.019 225.202 111.907 228.497 112.957 230.873C114.172 233.651 115.741 230.818 116.896 229.551Z" fill="black"/>
<path d="M116.58 230.272C118.435 228.035 123.763 227.374 123.714 226.285C123.613 224.07 119.349 224.585 117.258 225.297C118.836 223.924 121.935 221.452 120.978 219.752C119.81 217.676 115.495 222.042 113.84 225.342C111.755 229.499 112.968 231.945 113.756 232.17C114.838 232.479 116.274 230.641 116.58 230.272Z" fill="#DD1A21"/>
<path d="M101.419 267.409L96.7798 302.853H125.008C124.426 299.712 119.172 267.368 119.172 267.368L101.419 267.409Z" fill="#DD1A21"/>
</svg>
