<svg width="376" height="132" viewBox="0 0 376 132" fill="none" xmlns="http://www.w3.org/2000/svg">
<rect x="128.5" y="34.917" width="104" height="61" rx="8" transform="rotate(-15 128.5 34.917)" fill="#0CBC67" fill-opacity="0.3"/>
<g filter="url(#filter0_d_431_10593)">
<rect x="144.5" y="37" width="104" height="61" rx="8" fill="white"/>
</g>
<rect opacity="0.05" x="152.5" y="44" width="77" height="6" rx="2" fill="black"/>
<path opacity="0.05" fill-rule="evenodd" clip-rule="evenodd" d="M174.956 71.2976C174.493 71.748 173.872 72 173.226 72H154.983C153.612 72 152.5 70.8884 152.5 69.5172V56.4828C152.5 55.1116 153.612 54 154.983 54H177.017C178.388 54 179.5 55.1116 179.5 56.4828V65.8319C179.5 66.5026 179.229 67.1448 178.748 67.6122L174.956 71.2976Z" fill="black"/>
<g clip-path="url(#clip0_431_10593)">
<g filter="url(#filter1_b_431_10593)">
<circle cx="188.5" cy="98" r="27" fill="url(#paint0_linear_431_10593)" fill-opacity="0.85"/>
</g>
<path d="M174.5 99.3582L183.142 108" stroke="white" stroke-width="4" stroke-linecap="round" stroke-linejoin="round"/>
<path d="M183.142 108L201.5 89" stroke="white" stroke-width="4" stroke-linecap="round" stroke-linejoin="round"/>
</g>
<defs>
<filter id="filter0_d_431_10593" x="118.5" y="19" width="156" height="113" filterUnits="userSpaceOnUse" color-interpolation-filters="sRGB">
<feFlood flood-opacity="0" result="BackgroundImageFix"/>
<feColorMatrix in="SourceAlpha" type="matrix" values="0 0 0 0 0 0 0 0 0 0 0 0 0 0 0 0 0 0 127 0" result="hardAlpha"/>
<feMorphology radius="2" operator="dilate" in="SourceAlpha" result="effect1_dropShadow_431_10593"/>
<feOffset dy="8"/>
<feGaussianBlur stdDeviation="12"/>
<feColorMatrix type="matrix" values="0 0 0 0 0.501961 0 0 0 0 0.415686 0 0 0 0 0.25098 0 0 0 0.12 0"/>
<feBlend mode="normal" in2="BackgroundImageFix" result="effect1_dropShadow_431_10593"/>
<feBlend mode="normal" in="SourceGraphic" in2="effect1_dropShadow_431_10593" result="shape"/>
</filter>
<filter id="filter1_b_431_10593" x="116.5" y="26" width="144" height="144" filterUnits="userSpaceOnUse" color-interpolation-filters="sRGB">
<feFlood flood-opacity="0" result="BackgroundImageFix"/>
<feGaussianBlur in="BackgroundImageFix" stdDeviation="22.5"/>
<feComposite in2="SourceAlpha" operator="in" result="effect1_backgroundBlur_431_10593"/>
<feBlend mode="normal" in="SourceGraphic" in2="effect1_backgroundBlur_431_10593" result="shape"/>
</filter>
<linearGradient id="paint0_linear_431_10593" x1="168" y1="80" x2="201.5" y2="123" gradientUnits="userSpaceOnUse">
<stop stop-color="#0CBC67"/>
<stop offset="1" stop-color="#087641"/>
</linearGradient>
<clipPath id="clip0_431_10593">
<rect width="54" height="54" fill="white" transform="translate(161.5 71)"/>
</clipPath>
</defs>
</svg>
