<svg xmlns="http://www.w3.org/2000/svg" width="733" height="16" viewBox="0 0 733 16" fill="none">
  <path fill-rule="evenodd" clip-rule="evenodd" d="M673.591 0H642.817C640.837 4.56448 632.213 8 621.875 8C611.536 8 602.912 4.56448 600.932 0H570.159C568.179 4.56448 559.555 8 549.216 8C538.877 8 530.253 4.56448 528.273 0H497.5C495.52 4.56448 486.896 8 476.557 8C466.218 8 457.594 4.56448 455.614 0H424.841C422.861 4.56448 414.237 8 403.898 8C393.559 8 384.935 4.56448 382.955 0H352.182C350.202 4.56448 341.578 8 331.239 8C320.9 8 312.276 4.56448 310.296 0H279.523C277.543 4.56448 268.919 8 258.58 8C248.241 8 239.617 4.56448 237.637 0H206.864C204.884 4.56448 196.26 8 185.921 8C175.583 8 166.959 4.56448 164.979 0H134.205C132.225 4.56448 123.601 8 113.262 8C102.924 8 94.2996 4.56448 92.3196 0H61.5462C59.5662 4.56448 50.9422 8 40.6035 8C30.2647 8 21.6407 4.56448 19.6607 0H0V16H733V0H715.476C713.496 4.56448 704.872 8 694.533 8C684.195 8 675.571 4.56448 673.591 0Z" fill="white"/>
</svg>