<svg width="17" height="16" viewBox="0 0 17 16" fill="none" xmlns="http://www.w3.org/2000/svg">
<g clip-path="url(#clip0_716_6642)">
<path d="M4.06559 4.18611C4.14775 4.36211 4.32441 4.47458 4.51866 4.47458H6.95013V5.33333C6.95013 5.60949 7.174 5.83333 7.45013 5.83333C7.72625 5.83333 7.95013 5.60949 7.95013 5.33333V4.47458H8.18047C8.45659 4.47458 8.68047 4.25074 8.68047 3.97458C8.68047 3.69842 8.45659 3.47458 8.18047 3.47458H7.95013V0.474112C7.95013 0.263831 7.81856 0.0760182 7.62091 0.00417447C7.42331 -0.0675443 7.20181 -0.00816927 7.06681 0.153112L4.13531 3.65358C4.01059 3.80249 3.98341 4.01014 4.06559 4.18611ZM6.95009 1.84992V3.47458H5.58953L6.95009 1.84992ZM9.48031 12.4708L12.0998 8.38114H10.1711C9.89497 8.38114 9.67109 8.1573 9.67109 7.88114C9.67109 7.60499 9.89497 7.38114 10.1711 7.38114H13.0138C13.1966 7.38114 13.3647 7.48083 13.4525 7.64117C13.5402 7.80152 13.5334 7.99692 13.4348 8.15083L10.3224 13.0102C10.227 13.1592 10.0657 13.2406 9.90091 13.2406C9.80859 13.2406 9.71522 13.215 9.63169 13.1616C9.39913 13.0126 9.33138 12.7034 9.48031 12.4708ZM12.0978 3.28311C12.2931 3.47836 12.2931 3.79496 12.0978 3.99021L4.72725 11.3608C4.62963 11.4584 4.50166 11.5073 4.37372 11.5073C4.24578 11.5073 4.11781 11.4584 4.02019 11.3608C3.82491 11.1655 3.82491 10.849 4.02019 10.6537L11.3907 3.28311C11.586 3.08786 11.9026 3.08786 12.0978 3.28311ZM3.32803 2.23555C3.45459 1.77211 3.37437 1.42289 3.08962 1.19758C2.77084 0.945393 2.24012 0.900799 1.88137 1.09614C1.60881 1.24458 1.48803 1.50105 1.52241 1.85849C1.54884 2.13336 1.34744 2.37761 1.07256 2.40408C0.797688 2.43008 0.553438 2.22908 0.527 1.95424C0.453875 1.19383 0.773219 0.560956 1.40312 0.217924C2.11016 -0.167075 3.08034 -0.084888 3.71012 0.413362C4.31225 0.889768 4.52456 1.64992 4.29269 2.49896C4.13619 3.07202 3.6005 3.49005 2.98022 3.97411C2.64534 4.23542 2.28416 4.51727 1.98131 4.83333H4.05247C4.32859 4.83333 4.55247 5.05717 4.55247 5.33333C4.55247 5.60949 4.32859 5.83333 4.05247 5.83333H1.01047C0.83825 5.83333 0.678125 5.74467 0.586719 5.59871C0.495313 5.45274 0.485438 5.26999 0.560625 5.11505C0.967625 4.27614 1.71 3.69683 2.365 3.18574C2.80456 2.84277 3.25906 2.48808 3.32803 2.23555ZM16.5 8.02586C16.5 10.1627 15.6679 12.1717 14.1569 13.6827C12.6459 15.1937 10.6369 16.0259 8.5 16.0259C6.36312 16.0259 4.35416 15.1937 2.84313 13.6827C1.33213 12.1717 0.5 10.1627 0.5 8.02586C0.5 7.7497 0.723875 7.52586 1 7.52586C1.27613 7.52586 1.5 7.7497 1.5 8.02586C1.5 11.8857 4.64019 15.0259 8.5 15.0259C12.3598 15.0259 15.5 11.8857 15.5 8.02586C15.5 4.52161 12.8839 1.53783 9.41481 1.08527C9.141 1.04955 8.94797 0.798612 8.98369 0.524799C9.01941 0.250956 9.27013 0.057862 9.54419 0.0936745C11.454 0.342799 13.2118 1.27817 14.494 2.72752C15.7876 4.18986 16.5 6.07152 16.5 8.02586Z" fill="#EE6D6B"/>
</g>
<defs>
<clipPath id="clip0_716_6642">
<rect width="16" height="16" fill="white" transform="translate(0.5)"/>
</clipPath>
</defs>
</svg>
