<svg width="17" height="16" viewBox="0 0 17 16" fill="none" xmlns="http://www.w3.org/2000/svg">
<path d="M8.34717 13.5605C8.21773 13.5605 8.11279 13.6655 8.11279 13.7949V15.7656C8.11279 15.8951 8.21773 16 8.34717 16C8.47661 16 8.58154 15.8951 8.58154 15.7656V13.7949C8.58154 13.6655 8.47661 13.5605 8.34717 13.5605Z" fill="#DD1A21"/>
<path d="M7.4867 14.3069C7.4867 13.8952 7.1388 13.5603 6.71117 13.5603H6.18749C6.05811 13.5603 5.95317 13.6651 5.95311 13.7945L5.95245 15.7654C5.95245 15.8948 6.05739 15.9997 6.18683 15.9997C6.31627 15.9997 6.4212 15.8948 6.4212 15.7654V15.1758L7.07636 15.9202C7.12267 15.9729 7.18736 15.9997 7.25239 15.9997C7.30739 15.9997 7.36261 15.9805 7.40714 15.9413C7.5043 15.8558 7.51377 15.7077 7.42824 15.6105L6.91473 15.0271C7.24392 14.9408 7.4867 14.6507 7.4867 14.3069ZM6.7112 14.5846C6.6442 14.5846 6.5277 14.5851 6.42142 14.5856L6.42177 14.0291H6.71124C6.87752 14.0291 7.01802 14.1563 7.01802 14.3069C7.01802 14.4575 6.87748 14.5846 6.7112 14.5846Z" fill="#DD1A21"/>
<path d="M4.55089 13.5605H4.02721C3.89783 13.5605 3.79289 13.6654 3.79283 13.7948L3.79218 15.7656C3.79218 15.8951 3.89711 16 4.02655 16C4.15599 16 4.26093 15.8951 4.26093 15.7656V15.0546C4.36714 15.0541 4.48386 15.0536 4.55086 15.0536C4.97849 15.0536 5.32639 14.7187 5.32639 14.3071C5.32643 13.8954 4.97852 13.5605 4.55089 13.5605ZM4.55089 14.5849C4.48389 14.5849 4.36739 14.5854 4.26111 14.5859L4.26146 14.0293H4.55093C4.71721 14.0293 4.85771 14.1565 4.85771 14.3071C4.85771 14.4577 4.71718 14.5849 4.55089 14.5849Z" fill="#DD1A21"/>
<path d="M12.9733 15.5312H12.3773V15.0146H12.9121C13.0416 15.0146 13.1465 14.9097 13.1465 14.7803C13.1465 14.6508 13.0416 14.5459 12.9121 14.5459H12.3773V14.0293H12.9733C13.1028 14.0293 13.2077 13.9244 13.2077 13.7949C13.2077 13.6655 13.1028 13.5605 12.9733 13.5605H12.1429C12.0135 13.5605 11.9086 13.6655 11.9086 13.7949V15.7656C11.9086 15.8951 12.0135 16 12.1429 16H12.9733C13.1028 16 13.2077 15.8951 13.2077 15.7656C13.2077 15.6361 13.1028 15.5312 12.9733 15.5312Z" fill="#DD1A21"/>
<path d="M11.1989 15.3077C11.0997 15.2245 10.9519 15.2374 10.8687 15.3365C10.851 15.3576 10.832 15.3771 10.8123 15.3947C10.7107 15.4851 10.5812 15.531 10.4274 15.531C10.0133 15.531 9.67639 15.1941 9.67639 14.78C9.67639 14.3659 10.0133 14.0291 10.4274 14.0291C10.5779 14.0291 10.723 14.0734 10.8471 14.1572C10.9544 14.2296 11.1001 14.2014 11.1725 14.0941C11.245 13.9869 11.2168 13.8412 11.1095 13.7687C10.9076 13.6324 10.6717 13.5603 10.4274 13.5603C9.75483 13.5603 9.20764 14.1075 9.20764 14.78C9.20764 15.4526 9.7548 15.9998 10.4274 15.9998C10.6959 15.9998 10.9368 15.9116 11.1241 15.7447C11.1606 15.7122 11.1955 15.6762 11.2276 15.638C11.3109 15.5388 11.298 15.391 11.1989 15.3077Z" fill="#DD1A21"/>
<path d="M7.84283 10.7446C7.97226 10.7446 8.0772 10.6397 8.0772 10.5103C8.0772 10.3808 7.97226 10.2759 7.84283 10.2759H7.01245C6.88301 10.2759 6.77808 10.3808 6.77808 10.5103V12.4809C6.77808 12.6104 6.88301 12.7153 7.01245 12.7153H7.84283C7.97226 12.7153 8.0772 12.6104 8.0772 12.4809C8.0772 12.3515 7.97226 12.2466 7.84283 12.2466H7.24683V11.73H7.78161C7.91104 11.73 8.01598 11.6251 8.01598 11.4956C8.01598 11.3661 7.91104 11.2612 7.78161 11.2612H7.24683V10.7446H7.84283Z" fill="#DD1A21"/>
<path d="M5.85838 11.3465C5.93197 11.237 5.975 11.1053 5.975 10.9637C5.975 10.5844 5.66644 10.2759 5.28716 10.2759H4.71472C4.58528 10.2759 4.48035 10.3808 4.48035 10.5103V12.4809C4.48035 12.5433 4.50519 12.603 4.54935 12.647C4.59328 12.6908 4.65275 12.7153 4.71472 12.7153H4.71575C4.71578 12.7153 5.24207 12.713 5.38713 12.713C5.80885 12.713 6.15194 12.3699 6.15194 11.9482C6.15197 11.7042 6.03691 11.4866 5.85838 11.3465ZM5.28716 10.7447C5.40797 10.7447 5.50625 10.8429 5.50625 10.9638C5.50625 11.0846 5.40797 11.1828 5.28716 11.1828C5.24466 11.1828 4.9491 11.1834 4.9491 11.1834V10.7447H5.28716V10.7447ZM5.38713 12.2443C5.30669 12.2443 5.10944 12.245 4.94907 12.2456V11.6526C4.99085 11.6524 5.38713 11.6521 5.38713 11.6521C5.55038 11.6521 5.68319 11.7849 5.68319 11.9482C5.68319 12.1115 5.55041 12.2443 5.38713 12.2443Z" fill="#DD1A21"/>
<path d="M10.3915 12.095C10.4398 11.825 10.3166 11.4721 9.82629 11.2912L9.73829 11.2588C9.50695 11.1737 9.39079 11.131 9.28398 11.0728C9.22698 11.0418 9.22398 10.9838 9.22729 10.952C9.23423 10.8848 9.28298 10.8005 9.39892 10.7656C9.68276 10.6801 9.94467 10.8871 9.95226 10.8932C10.0514 10.9754 10.1984 10.9623 10.2814 10.8637C10.3646 10.7646 10.3518 10.6167 10.2528 10.5334C10.2344 10.518 9.79607 10.1565 9.26373 10.3168C8.98661 10.4002 8.78926 10.6307 8.76101 10.9038C8.73576 11.1479 8.85023 11.3704 9.05982 11.4845C9.19679 11.5591 9.33167 11.6087 9.57651 11.6987L9.66411 11.731C9.75332 11.7639 9.95786 11.8572 9.93014 12.0126C9.90961 12.1276 9.77082 12.2465 9.57411 12.2465C9.37492 12.2465 9.18307 12.1661 9.06098 12.0314C8.97401 11.9355 8.82589 11.9282 8.72992 12.0151C8.63404 12.102 8.62673 12.2502 8.71367 12.3462C8.92314 12.5773 9.24479 12.7153 9.57407 12.7153C9.98354 12.7153 10.3274 12.4544 10.3915 12.095Z" fill="#DD1A21"/>
<path d="M11.9732 10.7446H12.2852C12.4146 10.7446 12.5195 10.6397 12.5195 10.5103C12.5195 10.3808 12.4146 10.2759 12.2852 10.2759H11.1968C11.0674 10.2759 10.9625 10.3808 10.9625 10.5103C10.9625 10.6397 11.0674 10.7446 11.1968 10.7446H11.5044V12.4809C11.5044 12.6104 11.6093 12.7153 11.7388 12.7153C11.8683 12.7153 11.9732 12.6104 11.9732 12.4809V10.7446H11.9732Z" fill="#DD1A21"/>
<path d="M8.49998 9.05062C10.9992 9.05062 13.0253 7.02457 13.0253 4.52531C13.0253 2.02605 10.9992 0 8.49998 0C6.00072 0 3.97467 2.02605 3.97467 4.52531C3.97467 7.02457 6.00072 9.05062 8.49998 9.05062Z" fill="#EE6D6B"/>
<path d="M10.982 0.743408C11.4516 1.45656 11.7254 2.3096 11.7254 3.22544C11.7254 5.72072 9.69536 7.75075 7.20008 7.75075C6.28421 7.75075 5.43117 7.477 4.71802 7.00738C5.52783 8.23716 6.92055 9.05066 8.49996 9.05066C10.9952 9.05066 13.0253 7.02063 13.0253 4.52535C13.0253 2.94597 12.2118 1.55322 10.982 0.743408Z" fill="#EE6D6B"/>
<path d="M8.49996 7.88272C10.3543 7.88272 11.8575 6.37952 11.8575 4.52522C11.8575 2.67093 10.3543 1.16772 8.49996 1.16772C6.64566 1.16772 5.14246 2.67093 5.14246 4.52522C5.14246 6.37952 6.64566 7.88272 8.49996 7.88272Z" fill="#DD1A21"/>
<path d="M8.93052 4.32301C8.86606 4.30022 8.80018 4.27641 8.73437 4.25166V3.0631C8.92096 3.11466 9.0574 3.19766 9.06165 3.20026C9.17102 3.26882 9.31534 3.23607 9.38434 3.12679C9.45343 3.01735 9.42074 2.8726 9.31127 2.80347C9.29477 2.79307 9.05634 2.64529 8.73437 2.58238V2.33569C8.73437 2.20622 8.62946 2.10132 8.49999 2.10132C8.37056 2.10132 8.26562 2.20622 8.26562 2.33569V2.56897C8.17462 2.58307 8.08234 2.60804 7.99077 2.64788C7.66156 2.7911 7.44765 3.06932 7.40384 3.41119C7.36115 3.74447 7.49087 4.07404 7.74234 4.27126C7.87327 4.37394 8.03731 4.46769 8.26562 4.5676V6.01785C8.06209 6.00669 7.93009 5.96347 7.7064 5.81713C7.59812 5.74629 7.45281 5.7766 7.38196 5.88497C7.31109 5.99329 7.34146 6.13854 7.44981 6.20941C7.76724 6.41707 7.98102 6.47394 8.26559 6.48672V6.71507C8.26559 6.84454 8.37052 6.94944 8.49996 6.94944C8.62943 6.94944 8.73434 6.84454 8.73434 6.71507V6.46304C9.26256 6.35182 9.57134 5.91294 9.64031 5.50266C9.72987 4.9701 9.45124 4.50704 8.93052 4.32301ZM8.03159 3.90244C7.91118 3.80801 7.84727 3.63857 7.86877 3.47079C7.88187 3.36851 7.93943 3.18141 8.17774 3.07776C8.20668 3.06519 8.23606 3.05532 8.26562 3.04735V4.04882C8.17674 4.00238 8.09684 3.9536 8.03159 3.90244ZM9.17809 5.42491C9.14115 5.64454 8.99037 5.8776 8.73437 5.9746V4.75063C8.74774 4.75541 8.76065 4.7601 8.77431 4.76494C9.22512 4.92432 9.19734 5.31038 9.17809 5.42491Z" fill="#FFEAED"/>
<path d="M15.2684 4.75977H14.307C14.1775 4.75977 14.0726 4.65486 14.0726 4.52539C14.0726 4.39592 14.1775 4.29102 14.307 4.29102H15.2684C15.3978 4.29102 15.5027 4.39592 15.5027 4.52539C15.5027 4.65486 15.3978 4.75977 15.2684 4.75977Z" fill="#EE6D6B"/>
<path d="M13.5292 1.85623C13.4482 1.85623 13.3695 1.81419 13.3261 1.73901C13.2613 1.62691 13.2997 1.48357 13.4118 1.41885L14.2444 0.938163C14.3564 0.873476 14.4998 0.911851 14.5645 1.02394C14.6292 1.13604 14.5908 1.27938 14.4787 1.3441L13.6462 1.82479C13.6093 1.8461 13.569 1.85623 13.5292 1.85623Z" fill="#EE6D6B"/>
<path d="M14.109 3.25685C14.0055 3.25685 13.9108 3.18779 13.8828 3.08307C13.8493 2.95804 13.9235 2.82951 14.0485 2.79601L14.6676 2.63014C14.7926 2.59657 14.9211 2.67082 14.9546 2.79585C14.9881 2.92089 14.914 3.04942 14.7889 3.08292L14.1699 3.24879C14.1495 3.25426 14.1291 3.25685 14.109 3.25685Z" fill="#EE6D6B"/>
<path d="M14.3613 8.14381C14.3216 8.14381 14.2813 8.13369 14.2444 8.11238L13.4118 7.63172C13.2997 7.567 13.2613 7.42366 13.3261 7.31156C13.3907 7.19944 13.5341 7.16106 13.6462 7.22578L14.4787 7.70644C14.5908 7.77116 14.6292 7.9145 14.5645 8.02659C14.5211 8.10181 14.4423 8.14381 14.3613 8.14381Z" fill="#EE6D6B"/>
<path d="M14.7283 6.42853C14.7082 6.42853 14.6878 6.42593 14.6675 6.42046L14.0485 6.25456C13.9234 6.22106 13.8492 6.09253 13.8827 5.96749C13.9162 5.84249 14.0447 5.76818 14.1698 5.80178L14.7889 5.96768C14.9139 6.00118 14.9881 6.12971 14.9546 6.25474C14.9265 6.35946 14.8318 6.42853 14.7283 6.42853Z" fill="#EE6D6B"/>
<path d="M2.69291 4.75977H1.73157C1.60213 4.75977 1.49719 4.65486 1.49719 4.52539C1.49719 4.39592 1.60213 4.29102 1.73157 4.29102H2.69288C2.82232 4.29102 2.92725 4.39592 2.92725 4.52539C2.92725 4.65486 2.82235 4.75977 2.69291 4.75977Z" fill="#EE6D6B"/>
<path d="M3.47068 1.85622C3.43093 1.85622 3.39062 1.8461 3.35371 1.82478L2.52115 1.34413C2.40906 1.27941 2.37065 1.13607 2.43537 1.02397C2.50009 0.911816 2.6434 0.873472 2.75553 0.938191L3.58809 1.41885C3.70018 1.48357 3.73859 1.62691 3.67387 1.739C3.63046 1.81419 3.55168 1.85622 3.47068 1.85622Z" fill="#EE6D6B"/>
<path d="M2.89092 3.25683C2.87082 3.25683 2.85045 3.25424 2.83011 3.24877L2.21107 3.0829C2.08604 3.04943 2.01186 2.92086 2.04532 2.79583C2.07886 2.6708 2.20745 2.59661 2.33239 2.63011L2.95142 2.79599C3.07645 2.82946 3.15064 2.95802 3.11717 3.08305C3.08911 3.18777 2.99439 3.25683 2.89092 3.25683Z" fill="#EE6D6B"/>
<path d="M2.63856 8.14379C2.55756 8.14379 2.47878 8.10176 2.43537 8.02657C2.37065 7.91448 2.40906 7.77114 2.52115 7.70642L3.35368 7.22576C3.46578 7.16107 3.60912 7.19945 3.67384 7.31154C3.73856 7.42364 3.70015 7.56698 3.58806 7.6317L2.75553 8.11235C2.71862 8.13367 2.67834 8.14379 2.63856 8.14379Z" fill="#EE6D6B"/>
<path d="M2.27156 6.42853C2.16806 6.42853 2.0734 6.35946 2.04534 6.25474C2.01184 6.12971 2.08602 6.00121 2.21106 5.96768L2.83009 5.80178C2.95509 5.76818 3.08362 5.84249 3.11715 5.96749C3.15065 6.09253 3.07646 6.22103 2.95143 6.25456L2.3324 6.42046C2.31209 6.42593 2.29165 6.42853 2.27156 6.42853Z" fill="#EE6D6B"/>
</svg>
