<svg width="20" height="20" viewBox="0 0 20 20" fill="none" xmlns="http://www.w3.org/2000/svg">
<g clip-path="url(#clip0_484_9976)">
<path d="M13.5 9C15.9853 9 18 6.98528 18 4.5C18 2.01472 15.9853 0 13.5 0C11.0147 0 9 2.01472 9 4.5C9 6.98528 11.0147 9 13.5 9Z" fill="#F69F06"/>
<path d="M4.91935 9.89443L8.46598 10.5393C9.93338 10.8061 11 12.0841 11 13.5756V13.9918C11 14.2564 10.7603 14.4564 10.5 14.4091L6.3699 13.6582C5.91695 13.5758 5.5 13.9238 5.5 14.3842C5.5 14.7408 5.75504 15.0464 6.1059 15.1102L11 16L16.5968 13.3882C17.7136 12.867 19.0421 13.1776 19.812 14.14C20.1661 14.5826 20.0219 15.239 19.5149 15.4925L11.8007 19.3497C10.9605 19.7698 9.99919 19.8808 9.08534 19.6632L0.76838 17.6829C0.317912 17.5757 0 17.1732 0 16.7101V14C0 11.3965 2.35787 9.4287 4.91935 9.89443Z" fill="#F69F06"/>
</g>
<defs>
<clipPath id="clip0_484_9976">
<rect width="20" height="20" fill="white"/>
</clipPath>
</defs>
</svg>
