<svg width="20" height="16" viewBox="0 0 20 16" fill="none" xmlns="http://www.w3.org/2000/svg">
<path fill-rule="evenodd" clip-rule="evenodd" d="M10 3.25C10.4142 3.25 10.75 3.58579 10.75 4V4.51802C11.1797 4.55671 11.6072 4.62871 12.0285 4.73404L13.1819 5.02239C13.5837 5.12286 13.8281 5.53006 13.7276 5.9319C13.6271 6.33375 13.2199 6.57807 12.8181 6.47761L11.6647 6.18925C11.3629 6.11381 11.0573 6.0592 10.75 6.02542V7.33791L12.1057 7.50738C13.0451 7.6248 13.75 8.42332 13.75 9.36999C13.75 10.2313 13.1638 10.9821 12.3282 11.191L12.0285 11.266C11.6072 11.3713 11.1797 11.4433 10.75 11.482V12C10.75 12.4142 10.4142 12.75 10 12.75C9.58579 12.75 9.25 12.4142 9.25 12V11.482C8.82028 11.4433 8.39282 11.3713 7.97151 11.266L6.8181 10.9776C6.41625 10.8771 6.17193 10.4699 6.27239 10.0681C6.37285 9.66625 6.78006 9.42193 7.1819 9.52239L8.33532 9.81075C8.63707 9.88619 8.94268 9.9408 9.25 9.97458V8.66209L7.89428 8.49262C6.95492 8.3752 6.25 7.57668 6.25 6.63002C6.25 5.76867 6.83621 5.01787 7.67184 4.80896L7.97151 4.73404C8.39282 4.62871 8.82028 4.55671 9.25 4.51802V4C9.25 3.58579 9.58579 3.25 10 3.25ZM9.25 6.02542C8.94268 6.0592 8.63707 6.11381 8.33532 6.18925L8.03564 6.26417C7.86777 6.30614 7.75 6.45698 7.75 6.63002C7.75 6.8202 7.89162 6.98062 8.08033 7.00421L9.25 7.15041V6.02542ZM10.75 8.84959V9.97458C11.0573 9.9408 11.3629 9.88619 11.6647 9.81075L11.9644 9.73583C12.1322 9.69386 12.25 9.54303 12.25 9.36999C12.25 9.17981 12.1084 9.01939 11.9197 8.9958L10.75 8.84959Z" fill="#00B700"/>
<path fill-rule="evenodd" clip-rule="evenodd" d="M18 0C19.1046 0 20 0.895431 20 2V14C20 15.1046 19.1046 16 18 16H2C0.895431 16 0 15.1046 0 14V2C0 0.895431 0.89543 0 2 0H18ZM18 14V2L2 2L2 14L18 14Z" fill="#00B700"/>
</svg>
