<svg width="20" height="20" viewBox="0 0 20 20" fill="none" xmlns="http://www.w3.org/2000/svg">
<path fill-rule="evenodd" clip-rule="evenodd" d="M0 1C0 0.447715 0.447715 0 1 0H19C19.5523 0 20 0.447715 20 1V3.58579C20 4.11622 19.7893 4.62493 19.4142 5L13 11.4142V17C13 17.3788 12.786 17.725 12.4472 17.8944L8.44721 19.8944C8.13723 20.0494 7.76909 20.0329 7.47427 19.8507C7.17945 19.6684 7 19.3466 7 19V11.4142L0.585786 5C0.210712 4.62493 0 4.11622 0 3.58579V1ZM2 2V3.58579L8.70711 10.2929C8.89464 10.4804 9 10.7348 9 11V17.382L11 16.382V11C11 10.7348 11.1054 10.4804 11.2929 10.2929L18 3.58579V2H2Z" fill="#4B5460"/>
</svg>
