<svg width="17" height="16" viewBox="0 0 17 16" fill="none" xmlns="http://www.w3.org/2000/svg">
<g clip-path="url(#clip0_716_6629)">
<path d="M7.0971 12.0629C7.60743 11.5868 7.68573 10.8413 7.272 10.3979C6.85826 9.95441 6.10916 9.98088 5.59883 10.457C5.08851 10.9331 5.0102 11.6786 5.42394 12.122C5.83767 12.5655 6.58678 12.539 7.0971 12.0629Z" fill="#454565"/>
<path d="M13.8505 12.0627C14.3608 11.5866 14.4392 10.8411 14.0254 10.3976C13.6117 9.95416 12.8626 9.98064 12.3523 10.4568C11.8419 10.9329 11.7636 11.6783 12.1774 12.1218C12.5911 12.5653 13.3402 12.5388 13.8505 12.0627Z" fill="#454565"/>
<path d="M1.74004 6.24331C1.74004 5.94861 1.50114 5.70972 1.20645 5.70972C0.91175 5.70972 0.672852 5.94861 0.672852 6.24331C0.672852 6.53801 0.91175 6.7769 1.20645 6.7769C1.50114 6.7769 1.74004 6.53801 1.74004 6.24331Z" fill="#EE6D6B"/>
<path d="M11.3313 11.1547C11.521 10.2172 12.4066 9.47216 13.3585 9.47216C14.3103 9.47216 14.936 10.1631 14.9178 11.0515C15.9091 11.0775 16.185 9.77216 16.185 9.77216C16.2685 9.40716 16.3932 8.6956 16.4975 7.99716C16.531 7.77341 16.5047 7.55372 16.4216 7.35935C16.261 6.98372 15.946 6.31278 15.486 5.6256C15.1428 5.1131 14.5657 4.80903 13.9075 4.79841C13.515 4.79185 13.1294 4.78841 12.8388 4.78841L12.8363 4.78591C12.7991 4.1581 12.3413 3.67778 11.6991 3.62028C11.2813 3.58278 9.62628 3.55591 8.8319 3.55591C8.51628 3.55591 8.06315 3.56028 7.60503 3.56778V3.56591H7.6019L7.60034 3.56528L7.59909 3.56591H2.09284C1.79815 3.56591 1.55909 3.80497 1.55909 4.09966V4.10247C1.55909 4.3956 1.7969 4.63341 2.09003 4.63341L3.20034 4.63497C3.47565 4.65466 3.69253 4.88403 3.69253 5.16435V5.16716C3.69253 5.46185 3.45346 5.70091 3.15878 5.70091H2.59003C2.29534 5.70091 2.05628 5.93997 2.05628 6.23466C2.05628 6.52935 2.29534 6.76841 2.59003 6.76841H3.15878C3.45346 6.76841 3.69253 7.00747 3.69253 7.30216C3.69253 7.59685 3.45346 7.83591 3.15878 7.83591H1.03003C0.735339 7.83591 0.496277 8.07497 0.496277 8.36966C0.496277 8.66435 0.735339 8.90341 1.03003 8.90341H3.1594C3.45409 8.90341 3.69315 9.14247 3.69315 9.43716C3.69315 9.73185 3.45409 9.97091 3.1594 9.97091H2.50128C2.20659 9.97091 1.96753 10.21 1.96753 10.5047C1.96753 10.7993 2.20659 11.0384 2.50128 11.0384L4.60284 11.0368L4.77784 10.6015C5.13565 9.94122 5.84753 9.47372 6.60128 9.47372C7.55346 9.47372 8.23003 10.2193 8.15534 11.1575H11.3307M12.7882 5.52903C13.0669 5.52935 13.4285 5.5331 13.791 5.53903C14.2303 5.54622 14.6147 5.74778 14.8453 6.09247C15.1244 6.50966 15.3475 6.92247 15.5091 7.25278C15.6119 7.46278 15.4225 7.73622 15.1741 7.73622H12.51L12.7882 5.52903Z" fill="#EE6D6B"/>
<path d="M11.6988 3.6198C11.281 3.5823 9.62597 3.55542 8.8316 3.55542C8.51597 3.55542 8.06285 3.5598 7.60472 3.5673V3.56542H7.6016L7.60003 3.5648L7.59878 3.56542H2.09285C1.79816 3.56542 1.5591 3.80448 1.5591 4.09917V4.10198C1.5591 4.39511 1.79691 4.63292 2.09003 4.63292L3.20035 4.63448C3.47566 4.65417 3.69253 4.88355 3.69253 5.16386V5.16667C3.69253 5.46136 3.45347 5.70042 3.15878 5.70042H2.59003C2.29535 5.70042 2.05628 5.93948 2.05628 6.23417C2.05628 6.52886 2.29535 6.76792 2.59003 6.76792H3.15878C3.45347 6.76792 3.69253 7.00698 3.69253 7.30167C3.69253 7.59636 3.45347 7.83542 3.15878 7.83542H1.03003C0.764409 7.83542 0.544722 8.0298 0.503784 8.28417V8.45417C0.544722 8.70823 0.764409 8.90292 1.03003 8.90292H3.15941C3.4541 8.90292 3.69316 9.14198 3.69316 9.43667C3.69316 9.56355 3.64878 9.6798 3.57472 9.77136C3.81847 9.79198 4.06472 9.80261 4.31378 9.80261C4.79253 9.80261 5.26222 9.76292 5.71972 9.68823C5.99253 9.55073 6.29347 9.47261 6.60128 9.47261C6.62785 9.47261 6.6541 9.47355 6.68035 9.47448C9.39753 8.70261 11.5694 6.63511 12.4863 3.98198C12.2875 3.78042 12.0157 3.64886 11.6985 3.62042L11.6988 3.6198Z" fill="#EE6D6B"/>
<path d="M9.72908 5.53442H8.71065C8.5894 5.53442 8.47721 5.63286 8.46002 5.75411L8.21346 7.50786C8.19627 7.62911 8.28096 7.72755 8.40221 7.72755H9.42065C9.52752 7.72755 9.62627 7.64099 9.64127 7.53411C9.65627 7.42724 9.5819 7.34067 9.47502 7.34067H8.65408C8.65252 7.34067 8.65127 7.33911 8.65127 7.33755L8.72971 6.77942C8.72971 6.77942 8.73096 6.77724 8.73252 6.77724H9.37127C9.47815 6.77724 9.5769 6.69067 9.5919 6.5838C9.6069 6.47692 9.53252 6.39036 9.42565 6.39036H8.78752C8.78596 6.39036 8.78471 6.3888 8.78471 6.38724L8.85002 5.92349C8.85002 5.92349 8.85127 5.9213 8.85283 5.9213H9.6744C9.78127 5.9213 9.88002 5.83474 9.89502 5.72786C9.91002 5.62099 9.83565 5.53442 9.72877 5.53442H9.72908Z" fill="white"/>
<path d="M6.09567 5.53467H5.18224C5.06099 5.53467 4.9488 5.63311 4.93161 5.75436L4.68349 7.52061C4.66755 7.63498 4.74724 7.72779 4.86161 7.72779C4.97599 7.72779 5.08161 7.63498 5.09786 7.52061L5.19349 6.84061C5.19349 6.84061 5.19474 6.83842 5.1963 6.83842H5.73005C5.84442 6.83842 5.95005 6.74561 5.9663 6.63123C5.98224 6.51686 5.90255 6.42404 5.78817 6.42404H5.25505C5.25349 6.42404 5.25224 6.42248 5.25224 6.42092L5.31817 5.95123C5.31817 5.95123 5.31942 5.94904 5.32099 5.94904H6.03755C6.15192 5.94904 6.25786 5.85623 6.2738 5.74186C6.28974 5.62748 6.21005 5.53467 6.09567 5.53467Z" fill="white"/>
<path d="M7.95161 5.67609C7.7763 5.52547 7.46661 5.53453 7.46661 5.53453H6.76036C6.63911 5.53453 6.52692 5.63297 6.50974 5.75422L6.26161 7.52047C6.24567 7.63484 6.32536 7.72765 6.43974 7.72765C6.55411 7.72765 6.65974 7.63484 6.67599 7.52047L6.75099 6.98672C6.75099 6.98672 6.75224 6.98453 6.7538 6.98453H7.21161C7.21161 6.98453 7.2138 6.98515 7.21411 6.9864L7.42911 7.61109C7.4538 7.68265 7.51974 7.72797 7.59911 7.72797H7.60692C7.76005 7.72797 7.88286 7.56765 7.83505 7.43015L7.65724 6.91797C7.65724 6.91797 7.65724 6.91515 7.6588 6.91453C7.75974 6.87203 7.8438 6.81109 7.91099 6.73109C8.02067 6.60047 8.08849 6.44359 8.11442 6.25984C8.13161 6.13703 8.12755 6.02547 8.10192 5.92547C8.0763 5.82547 8.0263 5.74234 7.95192 5.6764L7.95161 5.67609ZM7.69661 6.25953C7.69661 6.25953 7.65505 6.59765 7.2988 6.59765H6.80536L6.90036 5.9214H7.3938C7.3938 5.9214 7.7563 5.89828 7.69661 6.25953Z" fill="white"/>
<path d="M11.4357 5.53442H10.4173C10.296 5.53442 10.1838 5.63286 10.1666 5.75411L9.92006 7.50786C9.90287 7.62911 9.98756 7.72755 10.1088 7.72755H11.1273C11.2341 7.72755 11.3329 7.64099 11.3479 7.53411C11.3629 7.42724 11.2885 7.34067 11.1816 7.34067H10.3607C10.3591 7.34067 10.3579 7.33911 10.3579 7.33755L10.4363 6.77942C10.4363 6.77942 10.4376 6.77724 10.4391 6.77724H11.0779C11.1847 6.77724 11.2835 6.69067 11.2985 6.5838C11.3135 6.47692 11.2391 6.39036 11.1323 6.39036H10.4941C10.4926 6.39036 10.4913 6.3888 10.4913 6.38724L10.5566 5.92349C10.5566 5.92349 10.5579 5.9213 10.5594 5.9213H11.381C11.4879 5.9213 11.5866 5.83474 11.6016 5.72786C11.6166 5.62099 11.5422 5.53442 11.4354 5.53442H11.4357Z" fill="white"/>
</g>
<defs>
<clipPath id="clip0_716_6629">
<rect width="16" height="16" fill="white" transform="translate(0.5)"/>
</clipPath>
</defs>
</svg>
