<svg width="17" height="16" viewBox="0 0 17 16" fill="none" xmlns="http://www.w3.org/2000/svg">
<g clip-path="url(#clip0_426_5287)">
<path d="M7.0971 12.0627C7.60743 11.5866 7.68573 10.8411 7.272 10.3977C6.85826 9.95422 6.10916 9.9807 5.59883 10.4568C5.08851 10.9329 5.0102 11.6784 5.42394 12.1219C5.83767 12.5653 6.58678 12.5389 7.0971 12.0627Z" fill="#454565"/>
<path d="M13.8505 12.0626C14.3608 11.5865 14.4392 10.841 14.0254 10.3975C13.6117 9.95407 12.8626 9.98055 12.3523 10.4567C11.8419 10.9328 11.7636 11.6783 12.1774 12.1217C12.5911 12.5652 13.3402 12.5387 13.8505 12.0626Z" fill="#454565"/>
<path d="M1.74004 6.24328C1.74004 5.94858 1.50114 5.70969 1.20645 5.70969C0.91175 5.70969 0.672852 5.94858 0.672852 6.24328C0.672852 6.53798 0.91175 6.77687 1.20645 6.77687C1.50114 6.77687 1.74004 6.53798 1.74004 6.24328Z" fill="#DD1A21"/>
<path d="M11.3313 11.1545C11.521 10.217 12.4067 9.47204 13.3585 9.47204C14.3104 9.47204 14.936 10.163 14.9179 11.0514C15.9092 11.0774 16.1851 9.77204 16.1851 9.77204C16.2685 9.40704 16.3932 8.69547 16.4976 7.99704C16.531 7.77329 16.5048 7.5536 16.4216 7.35922C16.261 6.9836 15.946 6.31266 15.486 5.62547C15.1429 5.11297 14.5657 4.80891 13.9076 4.79829C13.5151 4.79172 13.1295 4.78829 12.8388 4.78829L12.8363 4.78579C12.7992 4.15797 12.3413 3.67766 11.6992 3.62016C11.2813 3.58266 9.62634 3.55579 8.83196 3.55579C8.51634 3.55579 8.06321 3.56016 7.60509 3.56766V3.56579H7.60196L7.6004 3.56516L7.59915 3.56579H2.0929C1.79821 3.56579 1.55915 3.80485 1.55915 4.09954V4.10235C1.55915 4.39547 1.79696 4.63329 2.09009 4.63329L3.2004 4.63485C3.47571 4.65454 3.69259 4.88391 3.69259 5.16422V5.16704C3.69259 5.46172 3.45353 5.70079 3.15884 5.70079H2.59009C2.2954 5.70079 2.05634 5.93985 2.05634 6.23454C2.05634 6.52922 2.2954 6.76829 2.59009 6.76829H3.15884C3.45353 6.76829 3.69259 7.00735 3.69259 7.30204C3.69259 7.59672 3.45353 7.83579 3.15884 7.83579H1.03009C0.7354 7.83579 0.496338 8.07485 0.496338 8.36954C0.496338 8.66422 0.7354 8.90329 1.03009 8.90329H3.15946C3.45415 8.90329 3.69321 9.14235 3.69321 9.43704C3.69321 9.73172 3.45415 9.97079 3.15946 9.97079H2.50134C2.20665 9.97079 1.96759 10.2098 1.96759 10.5045C1.96759 10.7992 2.20665 11.0383 2.50134 11.0383L4.6029 11.0367L4.7779 10.6014C5.13571 9.9411 5.84759 9.4736 6.60134 9.4736C7.55353 9.4736 8.23009 10.2192 8.1554 11.1573H11.3307M12.7882 5.52891C13.067 5.52922 13.4285 5.53297 13.791 5.53891C14.2304 5.5461 14.6148 5.74766 14.8454 6.09235C15.1245 6.50954 15.3476 6.92235 15.5092 7.25266C15.612 7.46266 15.4226 7.7361 15.1742 7.7361H12.5101L12.7882 5.52891Z" fill="#EF2827"/>
<path d="M11.6989 3.61967C11.2811 3.58217 9.62609 3.5553 8.83172 3.5553C8.51609 3.5553 8.06297 3.55967 7.60484 3.56717V3.5653H7.60172L7.60016 3.56467L7.59891 3.5653H2.09297C1.79828 3.5653 1.55922 3.80436 1.55922 4.09905V4.10186C1.55922 4.39499 1.79703 4.6328 2.09016 4.6328L3.20047 4.63436C3.47578 4.65405 3.69266 4.88342 3.69266 5.16374V5.16655C3.69266 5.46124 3.45359 5.7003 3.15891 5.7003H2.59016C2.29547 5.7003 2.05641 5.93936 2.05641 6.23405C2.05641 6.52874 2.29547 6.7678 2.59016 6.7678H3.15891C3.45359 6.7678 3.69266 7.00686 3.69266 7.30155C3.69266 7.59624 3.45359 7.8353 3.15891 7.8353H1.03016C0.764531 7.8353 0.544844 8.02967 0.503906 8.28405V8.45405C0.544844 8.70811 0.764531 8.9028 1.03016 8.9028H3.15953C3.45422 8.9028 3.69328 9.14186 3.69328 9.43655C3.69328 9.56342 3.64891 9.67967 3.57484 9.77124C3.81859 9.79186 4.06484 9.80249 4.31391 9.80249C4.79266 9.80249 5.26234 9.7628 5.71984 9.68811C5.99266 9.55061 6.29359 9.47249 6.60141 9.47249C6.62797 9.47249 6.65422 9.47342 6.68047 9.47436C9.39766 8.70249 11.5695 6.63499 12.4864 3.98186C12.2877 3.7803 12.0158 3.64874 11.6986 3.6203L11.6989 3.61967Z" fill="#F94945"/>
<path d="M9.72902 5.53436H8.71058C8.58933 5.53436 8.47715 5.6328 8.45996 5.75405L8.2134 7.5078C8.19621 7.62905 8.2809 7.72749 8.40215 7.72749H9.42058C9.52746 7.72749 9.62621 7.64092 9.64121 7.53405C9.65621 7.42718 9.58183 7.34061 9.47496 7.34061H8.65402C8.65246 7.34061 8.65121 7.33905 8.65121 7.33749L8.72965 6.77936C8.72965 6.77936 8.7309 6.77717 8.73246 6.77717H9.37121C9.47808 6.77717 9.57683 6.69061 9.59183 6.58374C9.60683 6.47686 9.53246 6.3903 9.42558 6.3903H8.78746C8.7859 6.3903 8.78465 6.38874 8.78465 6.38718L8.84996 5.92343C8.84996 5.92343 8.85121 5.92124 8.85277 5.92124H9.67433C9.78121 5.92124 9.87996 5.83467 9.89496 5.7278C9.90996 5.62092 9.83558 5.53436 9.72871 5.53436H9.72902Z" fill="white"/>
<path d="M6.09561 5.53442H5.18218C5.06093 5.53442 4.94874 5.63286 4.93155 5.75411L4.68343 7.52036C4.66749 7.63474 4.74718 7.72755 4.86155 7.72755C4.97593 7.72755 5.08155 7.63474 5.0978 7.52036L5.19343 6.84036C5.19343 6.84036 5.19468 6.83817 5.19624 6.83817H5.72999C5.84436 6.83817 5.94999 6.74536 5.96624 6.63099C5.98218 6.51661 5.90249 6.4238 5.78811 6.4238H5.25499C5.25343 6.4238 5.25218 6.42224 5.25218 6.42067L5.31811 5.95099C5.31811 5.95099 5.31936 5.9488 5.32093 5.9488H6.03749C6.15186 5.9488 6.2578 5.85599 6.27374 5.74161C6.28968 5.62724 6.20999 5.53442 6.09561 5.53442Z" fill="white"/>
<path d="M7.95155 5.67594C7.77624 5.52531 7.46655 5.53438 7.46655 5.53438H6.7603C6.63905 5.53438 6.52686 5.63281 6.50968 5.75406L6.26155 7.52031C6.24561 7.63469 6.3253 7.7275 6.43968 7.7275C6.55405 7.7275 6.65968 7.63469 6.67593 7.52031L6.75093 6.98656C6.75093 6.98656 6.75218 6.98438 6.75374 6.98438H7.21155C7.21155 6.98438 7.21374 6.985 7.21405 6.98625L7.42905 7.61094C7.45374 7.6825 7.51968 7.72781 7.59905 7.72781H7.60686C7.75999 7.72781 7.8828 7.5675 7.83499 7.43L7.65718 6.91781C7.65718 6.91781 7.65718 6.915 7.65874 6.91438C7.75968 6.87188 7.84374 6.81094 7.91093 6.73094C8.02061 6.60031 8.08843 6.44344 8.11436 6.25969C8.13155 6.13688 8.12749 6.02531 8.10186 5.92531C8.07624 5.82531 8.02624 5.74219 7.95186 5.67625L7.95155 5.67594ZM7.69655 6.25938C7.69655 6.25938 7.65499 6.5975 7.29874 6.5975H6.8053L6.9003 5.92125H7.39374C7.39374 5.92125 7.75624 5.89813 7.69655 6.25938Z" fill="white"/>
<path d="M11.4356 5.53436H10.4171C10.2959 5.53436 10.1837 5.6328 10.1665 5.75405L9.91994 7.5078C9.90275 7.62905 9.98744 7.72749 10.1087 7.72749H11.1271C11.234 7.72749 11.3328 7.64092 11.3478 7.53405C11.3628 7.42718 11.2884 7.34061 11.1815 7.34061H10.3606C10.359 7.34061 10.3578 7.33905 10.3578 7.33749L10.4362 6.77936C10.4362 6.77936 10.4374 6.77717 10.439 6.77717H11.0778C11.1846 6.77717 11.2834 6.69061 11.2984 6.58374C11.3134 6.47686 11.239 6.3903 11.1321 6.3903H10.494C10.4924 6.3903 10.4912 6.38874 10.4912 6.38718L10.5565 5.92343C10.5565 5.92343 10.5578 5.92124 10.5593 5.92124H11.3809C11.4878 5.92124 11.5865 5.83467 11.6015 5.7278C11.6165 5.62092 11.5421 5.53436 11.4353 5.53436H11.4356Z" fill="white"/>
</g>
<defs>
<clipPath id="clip0_426_5287">
<rect width="16" height="16" fill="white" transform="translate(0.5)"/>
</clipPath>
</defs>
</svg>
