<svg width="20" height="18" viewBox="0 0 20 18" fill="none" xmlns="http://www.w3.org/2000/svg">
<path fill-rule="evenodd" clip-rule="evenodd" d="M8.79294 3.20712C7.25046 1.66465 4.74962 1.66464 3.20715 3.20712C1.66467 4.74959 1.66467 7.25043 3.20715 8.7929L10 15.5858L16.7929 8.7929C18.3354 7.25043 18.3354 4.74959 16.7929 3.20712C15.2505 1.66464 12.7496 1.66465 11.2071 3.20712L10.7071 3.70712C10.3166 4.09764 9.68346 4.09764 9.29293 3.70712L8.79294 3.20712ZM10 1.59536C7.66491 -0.528636 4.04863 -0.46279 1.79293 1.7929C-0.530587 4.11642 -0.530588 7.88359 1.79293 10.2071L9.29293 17.7071C9.68346 18.0976 10.3166 18.0976 10.7071 17.7071L18.2071 10.2071C20.5307 7.88359 20.5307 4.11642 18.2071 1.7929C15.9515 -0.46279 12.3352 -0.528636 10 1.59536Z" fill="white"/>
</svg>
