<svg width="20" height="18" viewBox="0 0 20 18" fill="none" xmlns="http://www.w3.org/2000/svg">
<path fill-rule="evenodd" clip-rule="evenodd" d="M8.79294 3.20709C7.25046 1.66461 4.74962 1.66461 3.20715 3.20708C1.66467 4.74956 1.66467 7.2504 3.20715 8.79287L10 15.5858L16.7929 8.79287C18.3354 7.2504 18.3354 4.74956 16.7929 3.20708C15.2505 1.66461 12.7496 1.66461 11.2071 3.20709L10.7071 3.70709C10.3166 4.09761 9.68346 4.09761 9.29293 3.70709L8.79294 3.20709ZM10 1.59533C7.66491 -0.528666 4.04863 -0.462821 1.79293 1.79287C-0.530587 4.11639 -0.530588 7.88356 1.79293 10.2071L9.29293 17.7071C9.68346 18.0976 10.3166 18.0976 10.7071 17.7071L18.2071 10.2071C20.5307 7.88356 20.5307 4.11639 18.2071 1.79287C15.9515 -0.46282 12.3352 -0.528666 10 1.59533Z" fill="#F7E11B"/>
</svg>
