<svg width="20" height="20" viewBox="0 0 20 20" fill="none" xmlns="http://www.w3.org/2000/svg">
<g clip-path="url(#clip0_484_9987)">
<g clip-path="url(#clip1_484_9987)">
<path fill-rule="evenodd" clip-rule="evenodd" d="M18.6486 0H1.35135C0.608108 0 0 0.608108 0 1.35135V18.6486C0 19.3919 0.608108 20 1.35135 20H18.6486C19.3919 20 20 19.3919 20 18.6486V1.35135C20 0.608108 19.3919 0 18.6486 0Z" fill="#A50064"/>
<path d="M13.8378 9.39189C15.4256 9.39189 16.7094 8.10811 16.7094 6.52027C16.7094 4.93243 15.4256 3.64865 13.8378 3.64865C12.25 3.64865 10.9662 4.93243 10.9662 6.52027C10.9662 8.10811 12.25 9.39189 13.8378 9.39189ZM13.8378 5.2973C14.5135 5.2973 15.0608 5.8446 15.0608 6.52027C15.0608 7.19595 14.5135 7.74325 13.8378 7.74325C13.1621 7.74325 12.6148 7.19595 12.6148 6.52027C12.6148 5.8446 13.1621 5.2973 13.8378 5.2973Z" fill="white"/>
<path d="M13.8378 10.6351C12.25 10.6351 10.9662 11.9189 10.9662 13.5068C10.9662 15.0946 12.25 16.3784 13.8378 16.3784C15.4256 16.3784 16.7094 15.0946 16.7094 13.5068C16.7094 11.9189 15.4256 10.6351 13.8378 10.6351ZM13.8378 14.7297C13.1621 14.7297 12.6148 14.1824 12.6148 13.5068C12.6148 12.8311 13.1621 12.2838 13.8378 12.2838C14.5135 12.2838 15.0608 12.8311 15.0608 13.5068C15.0608 14.1824 14.5135 14.7297 13.8378 14.7297Z" fill="white"/>
<path d="M7.98649 10.6351C7.5 10.6351 7.05405 10.7973 6.69595 11.0676C6.33784 10.7973 5.88514 10.6351 5.40541 10.6351C4.21622 10.6351 3.25 11.6013 3.25 12.7905V16.3851H4.89865V12.7703C4.89865 12.5 5.11486 12.2838 5.38513 12.2838C5.65541 12.2838 5.87162 12.5 5.87162 12.7703V16.3784H7.52027V12.7703C7.52027 12.5 7.73649 12.2838 8.00676 12.2838C8.27703 12.2838 8.49324 12.5 8.49324 12.7703V16.3784H10.1351V12.7838C10.1351 11.6013 9.17568 10.6351 7.98649 10.6351Z" fill="white"/>
<path d="M7.98647 3.64865C7.49998 3.64865 7.05404 3.81081 6.69593 4.08108C6.33782 3.81081 5.88512 3.64865 5.40539 3.64865C4.20944 3.64865 3.24323 4.61487 3.24323 5.80406V9.39189H4.89187V5.78379C4.89187 5.51352 5.10809 5.2973 5.37836 5.2973C5.64863 5.2973 5.86485 5.51352 5.86485 5.78379V9.39189H7.51349V5.78379C7.51349 5.51352 7.72971 5.2973 7.99998 5.2973C8.27025 5.2973 8.48647 5.51352 8.48647 5.78379V9.39189H10.1351V5.80406C10.1351 4.61487 9.17566 3.64865 7.98647 3.64865Z" fill="white"/>
</g>
</g>
<defs>
<clipPath id="clip0_484_9987">
<rect width="20" height="20" fill="white"/>
</clipPath>
<clipPath id="clip1_484_9987">
<rect width="20" height="20" fill="white"/>
</clipPath>
</defs>
</svg>
