<svg width="20" height="20" viewBox="0 0 20 20" fill="none" xmlns="http://www.w3.org/2000/svg">
<g clip-path="url(#clip0_426_1069)">
<path fill-rule="evenodd" clip-rule="evenodd" d="M10 20C4.47715 20 0 15.5228 0 10C0 4.47715 4.47715 0 10 0C15.5228 0 20 4.47715 20 10C20 15.5228 15.5228 20 10 20ZM10 11.25C10.6904 11.25 11.25 10.6904 11.25 10V5C11.25 4.30964 10.6904 3.75 10 3.75C9.30964 3.75 8.75 4.30964 8.75 5V10C8.75 10.6904 9.30964 11.25 10 11.25ZM11.5 14.5C11.5 13.6716 10.8284 13 10 13C9.17157 13 8.5 13.6716 8.5 14.5C8.5 15.3284 9.17157 16 10 16C10.8284 16 11.5 15.3284 11.5 14.5Z" fill="#EF2827"/>
</g>
<defs>
<clipPath id="clip0_426_1069">
<rect width="20" height="20" fill="white"/>
</clipPath>
</defs>
</svg>
