<svg xmlns="http://www.w3.org/2000/svg" width="26" height="26" viewBox="0 0 26 26" fill="none">
<g clip-path="url(#clip0_950_225)">
<path fill-rule="evenodd" clip-rule="evenodd" d="M10.5 0.5C4.97715 0.5 0.5 4.97715 0.5 10.5C0.5 16.0228 4.97715 20.5 10.5 20.5C12.8109 20.5 14.9387 19.7161 16.6321 18.3998L23.3661 25.1339C23.8543 25.622 24.6457 25.622 25.1339 25.1339C25.622 24.6457 25.622 23.8543 25.1339 23.3661L18.3998 16.6321C19.7161 14.9387 20.5 12.8109 20.5 10.5C20.5 4.97715 16.0228 0.5 10.5 0.5ZM3 10.5C3 6.35786 6.35786 3 10.5 3C14.6421 3 18 6.35786 18 10.5C18 14.6421 14.6421 18 10.5 18C6.35786 18 3 14.6421 3 10.5Z" fill="white"/>
</g>
<defs>
<clipPath id="clip0_950_225">
<rect width="25" height="25" fill="white" transform="translate(0.5 0.5)"/>
</clipPath>
</defs>
</svg>