<svg width="20" height="20" viewBox="0 0 20 20" fill="none" xmlns="http://www.w3.org/2000/svg">
<path d="M10.4694 5.29185C10.2774 4.90272 9.72249 4.90272 9.53044 5.29185L8.80716 6.75738C8.7309 6.9119 8.58348 7.01901 8.41295 7.04379L6.79565 7.27879C6.36621 7.3412 6.19474 7.86893 6.50548 8.17183L7.67578 9.31258C7.79917 9.43286 7.85548 9.60616 7.82635 9.776L7.55008 11.3868C7.47673 11.8145 7.92564 12.1406 8.30974 11.9387L9.7563 11.1782C9.90883 11.098 10.091 11.098 10.2436 11.1782L11.6901 11.9387C12.0742 12.1406 12.5231 11.8145 12.4498 11.3868L12.1735 9.776C12.1444 9.60616 12.2007 9.43286 12.3241 9.31258L13.4944 8.17183C13.8051 7.86893 13.6337 7.3412 13.2042 7.27879L11.5869 7.04379C11.4164 7.01901 11.269 6.9119 11.1927 6.75738L10.4694 5.29185Z" fill="#16CC0F"/>
<path fill-rule="evenodd" clip-rule="evenodd" d="M10.3731 0.0722019C10.1337 -0.0240673 9.86632 -0.0240673 9.62692 0.0722019L0.626917 3.69125C0.248153 3.84356 0 4.21081 0 4.61905C0 5.99459 0.550846 8.74068 1.97754 11.6435C3.41497 14.5681 5.78597 17.7437 9.50386 19.8682C9.81129 20.0439 10.1887 20.0439 10.4961 19.8682C14.214 17.7437 16.585 14.5681 18.0225 11.6435C19.4492 8.74068 20 5.99459 20 4.61905C20 4.21081 19.7518 3.84356 19.3731 3.69125L10.3731 0.0722019ZM3.77246 10.7613C2.68203 8.54266 2.18515 6.49246 2.04405 5.27704L10 2.07782L17.956 5.27704C17.8148 6.49246 17.318 8.54266 16.2275 10.7613C14.9823 13.2949 13.0023 15.9668 10 17.8357C6.99771 15.9668 5.01768 13.2949 3.77246 10.7613Z" fill="#16CC0F"/>
</svg>
