<svg width="35" height="25" viewBox="0 0 35 25" fill="none" xmlns="http://www.w3.org/2000/svg">
<path d="M30.7939 24.3771H5.18743C2.94835 24.3771 1.13477 22.5699 1.13477 20.3386V4.18451C1.13477 1.95325 2.94835 0.145996 5.18743 0.145996H30.8009C33.0399 0.145996 34.8535 1.95325 34.8535 4.18451V20.3386C34.8465 22.5699 33.033 24.3771 30.7939 24.3771Z" fill="url(#paint0_linear_461_12028)"/>
<path d="M30.1661 0H18.9289H18.6289H17.3524H17.0525H5.81523C3.15065 0 0.981323 1.72384 0.981323 3.83693V4.91434V5.21323V9.82868V10.1276V14.889V15.1879V19.3237V19.6226V20.6931C0.981323 22.8131 3.15065 24.53 5.81523 24.53H17.0525H17.3524H18.6289H18.9289H30.1661C32.8307 24.53 35 22.8062 35 20.6931V19.6226V19.3237V15.1879V14.889V10.1276V9.82868V5.21323V4.91434V3.83693C34.993 1.72384 32.8307 0 30.1661 0ZM1.28126 3.83693C1.28126 1.88371 3.31108 0.298887 5.81523 0.298887H17.0525V1.4736C17.0106 1.48056 16.9618 1.49445 16.92 1.5014C16.7525 1.52921 16.5921 1.56396 16.4247 1.59872C16.341 1.61957 16.2643 1.64043 16.1806 1.66128C16.0341 1.70299 15.8876 1.75164 15.7411 1.8003C15.6784 1.82115 15.6156 1.84201 15.5598 1.86982C15.3714 1.94628 15.1901 2.02968 15.0087 2.12004C14.939 2.1548 14.8692 2.19651 14.7995 2.23822C14.6879 2.30078 14.5762 2.37028 14.4646 2.43979C14.4088 2.47454 14.3461 2.5093 14.2903 2.54405C14.1717 2.62746 14.0531 2.71783 13.9415 2.80819L13.8927 2.8499C13.788 2.94026 13.6834 3.03063 13.5648 3.14879L13.5369 3.17659C13.4393 3.27391 13.3486 3.37817 13.2579 3.48244L13.223 3.52414C13.0277 3.76047 12.8464 4.01071 12.6999 4.2679C12.679 4.30266 12.658 4.33741 12.6441 4.37216L12.6162 4.43472C12.5743 4.51118 12.5395 4.58764 12.5046 4.6641C12.4836 4.71276 12.4627 4.76837 12.4418 4.81702L12.4069 4.90739H1.28126V3.83693ZM1.28126 5.21323H12.2883C12.2744 5.25494 12.2674 5.29664 12.2604 5.33835C12.2186 5.48432 12.1837 5.63725 12.1558 5.79017C12.1419 5.85273 12.1349 5.91528 12.1279 5.97784C12.1 6.17246 12.0861 6.37404 12.0861 6.57562V6.58258C12.0861 7.63218 12.4488 8.64007 13.1254 9.50199C13.2091 9.60625 13.2719 9.71747 13.3416 9.82868H1.28126V5.21323ZM1.28126 10.1206H13.516C13.5997 10.2805 13.6764 10.4473 13.7322 10.6141C13.7462 10.6628 13.7601 10.7115 13.7741 10.7601C13.8229 10.9061 13.8578 11.059 13.8857 11.2119C13.8927 11.2675 13.9066 11.3162 13.9136 11.3718C13.9415 11.5734 13.9624 11.775 13.9624 11.9765V12.7272C13.9624 12.9427 13.9415 13.1443 13.9136 13.3528C13.8996 13.4293 13.8787 13.4988 13.8648 13.5753C13.8369 13.7004 13.809 13.8255 13.7671 13.9506C13.7392 14.034 13.7113 14.1174 13.6764 14.2008C13.6346 14.3121 13.5857 14.4163 13.5369 14.5206C13.4951 14.604 13.4532 14.6805 13.4114 14.7569C13.3835 14.7986 13.3556 14.8403 13.3277 14.882H1.28126V10.1206ZM1.28126 15.1809H13.1323C13.1254 15.1879 13.1184 15.1948 13.1184 15.2018C12.4418 16.0637 12.0791 17.0786 12.0791 18.1212C12.0791 18.3089 12.093 18.4965 12.1209 18.6842C12.1209 18.712 12.1279 18.7329 12.1349 18.7607C12.1628 18.9345 12.1977 19.1082 12.2395 19.282C12.2395 19.289 12.2465 19.3029 12.2465 19.3098H1.28126V15.1809ZM17.0525 24.2311H5.81523C3.31806 24.2311 1.28126 22.6463 1.28126 20.6931V19.6226H12.3302C12.3441 19.6713 12.372 19.7199 12.393 19.7686C12.4348 19.8729 12.4767 19.9771 12.5255 20.0814C12.5674 20.1648 12.6022 20.2482 12.6441 20.3247C12.7208 20.4706 12.8045 20.6096 12.9022 20.7487C12.958 20.8321 13.0207 20.9085 13.0766 20.985C13.1393 21.0615 13.2021 21.1449 13.2649 21.2213C13.3277 21.2908 13.3904 21.3673 13.4532 21.4368C13.5718 21.5619 13.7043 21.6871 13.8369 21.8052C13.8787 21.84 13.9275 21.8747 13.9694 21.9095C14.0949 22.0137 14.2275 22.1111 14.36 22.2014C14.4088 22.2362 14.4577 22.264 14.5065 22.2987C14.8762 22.5351 15.2808 22.7367 15.7132 22.8965C15.7342 22.9035 15.7551 22.9104 15.769 22.9174C16.1736 23.0634 16.5991 23.1746 17.0455 23.2371V24.2311H17.0525ZM34.7001 20.6931C34.7001 22.6463 32.6703 24.2311 30.1661 24.2311H18.9289V23.251C19.2148 23.2163 19.4939 23.1607 19.7589 23.0842C21.6492 22.5837 23.1489 21.2978 23.7209 19.6157H34.6931V20.6931H34.7001ZM34.7001 19.3168H23.5047L23.4698 19.421C22.9397 21.0823 21.4609 22.3613 19.5845 22.8201C19.3195 22.8896 19.0405 22.9382 18.7614 22.966L18.6289 22.9799V24.2311H17.3524V22.973H17.3245L17.1153 22.9452C17.0804 22.9382 17.0455 22.9313 17.0106 22.9313L16.9618 22.9243C16.8502 22.9035 16.7386 22.8896 16.634 22.8618H16.627C16.5921 22.8548 16.5503 22.8409 16.5154 22.834C16.055 22.7227 15.6156 22.5629 15.204 22.3543C15.1761 22.3404 15.1482 22.3265 15.1203 22.3126C14.9599 22.2292 14.8064 22.1389 14.6599 22.0415C14.6181 22.0137 14.5762 21.9859 14.5344 21.9581C14.374 21.8539 14.2275 21.7357 14.081 21.6175C14.0252 21.5689 13.9694 21.5202 13.9206 21.4646C13.8369 21.3882 13.7532 21.3048 13.6764 21.2213C13.6137 21.1588 13.5509 21.0893 13.4951 21.0198C13.4183 20.9294 13.3416 20.8321 13.2719 20.7348C13.1951 20.6305 13.1254 20.5262 13.0556 20.415C13.0068 20.3316 12.951 20.2482 12.9091 20.1578C12.8673 20.0814 12.8254 19.998 12.7906 19.9215C12.7278 19.7825 12.672 19.6435 12.6232 19.5044L12.6022 19.428C12.5395 19.2264 12.4906 19.0179 12.4557 18.8163C12.4488 18.7885 12.4488 18.7676 12.4418 18.7398C12.4139 18.5383 12.393 18.3367 12.393 18.1351C12.393 17.155 12.7278 16.2097 13.3695 15.4034C13.3904 15.3825 13.3974 15.3547 13.4183 15.3269C13.4532 15.2852 13.4811 15.2365 13.516 15.1948H13.523L13.5648 15.1253C13.5718 15.1114 13.5788 15.0975 13.5857 15.0836L13.7113 14.8959H13.6974C13.7392 14.8264 13.7741 14.7569 13.809 14.6874C13.8648 14.5762 13.9136 14.465 13.9554 14.3468C13.9903 14.2565 14.0322 14.1661 14.0601 14.0688C14.1019 13.9367 14.1298 13.8046 14.1577 13.6726C14.1787 13.5892 14.1996 13.5058 14.2135 13.4223C14.2484 13.1999 14.2693 12.9705 14.2693 12.7411V11.9904C14.2693 11.775 14.2484 11.5595 14.2205 11.351C14.2066 11.2745 14.1926 11.205 14.1786 11.1285C14.1507 10.9895 14.1159 10.8574 14.074 10.7254C14.0531 10.6489 14.0252 10.5724 13.9973 10.496C13.9554 10.3778 13.8996 10.2596 13.8438 10.1415H13.8648L13.7532 9.93294C13.7532 9.93294 13.7532 9.93295 13.7532 9.926L13.7462 9.91904C13.7462 9.91209 13.7392 9.90515 13.7322 9.90515L13.6974 9.84258H13.6904C13.5857 9.66185 13.4741 9.48809 13.3556 9.32821C12.7208 8.5219 12.379 7.56961 12.379 6.58953C12.379 6.58953 12.379 6.58953 12.379 6.58258C12.379 6.3671 12.3999 6.15161 12.4348 5.93613C12.4418 5.88747 12.4488 5.83187 12.4557 5.78321C12.4906 5.58858 12.5464 5.40091 12.6092 5.21323C12.958 4.19144 13.6904 3.30171 14.6669 2.67612C14.7646 2.61356 14.8692 2.55101 14.9669 2.4954C15.0506 2.44674 15.1343 2.40503 15.218 2.36333C15.3714 2.28687 15.5249 2.21736 15.6853 2.1548C15.7621 2.12699 15.8388 2.09919 15.9155 2.07139C16.055 2.02273 16.2015 1.97407 16.348 1.93932C16.4247 1.91847 16.5084 1.89762 16.5851 1.87676C16.7526 1.84201 16.913 1.80725 17.0874 1.7864C17.1292 1.77945 17.1711 1.7725 17.2059 1.76554L17.3385 1.75164V0.319739H18.615V1.74469L18.7475 1.7586C18.7545 1.7586 18.7684 1.76554 18.7754 1.76554C18.9916 1.79335 19.2009 1.82811 19.4032 1.87676C19.466 1.89066 19.5218 1.90456 19.5845 1.91847C19.7798 1.96712 19.9682 2.02273 20.1495 2.08529C20.1705 2.09224 20.1984 2.09919 20.2193 2.10615C20.4216 2.18261 20.6169 2.26602 20.8122 2.36333C20.861 2.39113 20.9168 2.41894 20.9657 2.43979C21.1331 2.53015 21.2935 2.62052 21.4469 2.72478C22.27 3.26696 22.9118 3.99681 23.2884 4.83788C23.2954 4.85178 23.3024 4.86568 23.3094 4.88654C23.3512 4.9908 23.3931 5.09506 23.4279 5.19933C23.4977 5.39396 23.5465 5.59554 23.5884 5.79711C23.5954 5.84577 23.6023 5.89442 23.6093 5.94308C23.6442 6.15856 23.6651 6.37404 23.6651 6.59647C23.6651 6.59647 23.6651 6.59648 23.6651 6.60343C23.6651 7.58352 23.3303 8.5219 22.6955 9.32821C22.57 9.48809 22.4584 9.66881 22.3537 9.84954H22.3468L22.3119 9.91209C22.3119 9.91904 22.3049 9.92599 22.2979 9.93294L22.1794 10.1554H22.2003C22.1445 10.2735 22.0887 10.3917 22.0468 10.5168C22.0259 10.5794 22.005 10.635 21.991 10.6976C21.9422 10.8505 21.9073 11.0034 21.8724 11.1633C21.8585 11.2258 21.8515 11.2814 21.8376 11.344C21.8027 11.5595 21.7818 11.775 21.7818 11.9974V12.7829C21.7818 13.6378 22.0259 14.458 22.4863 15.1531L22.5281 15.2226H34.6722V19.3168H34.7001ZM34.7001 14.882H22.7165C22.3189 14.2495 22.1096 13.5127 22.1096 12.7481V11.9626C22.1096 11.7611 22.1305 11.5595 22.1584 11.3579C22.1654 11.3092 22.1794 11.2536 22.1863 11.205C22.2142 11.0451 22.2561 10.8922 22.3049 10.7462C22.3189 10.7045 22.3258 10.6628 22.3468 10.6141C22.4026 10.4473 22.4793 10.2874 22.563 10.1276H34.714V14.882H34.7001ZM34.7001 9.82868H22.7304C22.8002 9.71747 22.8699 9.59929 22.9536 9.49503C23.6302 8.63311 23.986 7.62523 23.986 6.58258V6.57562C23.986 6.37404 23.965 6.17247 23.9371 5.97089C23.9302 5.91528 23.9232 5.85272 23.9092 5.79711C23.8813 5.63029 23.8395 5.47042 23.7976 5.31055C23.7907 5.27579 23.7837 5.24104 23.7767 5.21323H34.7071V9.82868H34.7001ZM23.6581 4.91434L23.6163 4.81008C23.6163 4.80313 23.6163 4.80312 23.6093 4.79617C23.6023 4.77532 23.5954 4.75447 23.5814 4.73362C23.5744 4.70581 23.5605 4.68496 23.5535 4.65715C23.5186 4.58069 23.4768 4.49728 23.4279 4.40692L23.4 4.35131C23.3861 4.32351 23.3721 4.28875 23.3512 4.26094C23.2745 4.12887 23.1978 4.00376 23.1141 3.88559L23.0583 3.81608C22.9885 3.71182 22.9118 3.61451 22.8281 3.51719L22.7513 3.42683C22.6746 3.33646 22.5979 3.25306 22.5072 3.16964L22.4235 3.08624C22.3537 3.01673 22.277 2.94721 22.2003 2.88465C22.1933 2.8777 22.1863 2.87075 22.1794 2.87075C22.1654 2.8638 22.1584 2.8499 22.1515 2.84295L22.0747 2.78039C22.005 2.72478 21.9282 2.66917 21.8585 2.61356C21.8306 2.59271 21.8097 2.57881 21.7818 2.55796C21.7608 2.54405 21.7539 2.5371 21.7329 2.5232L21.6981 2.50235C21.6632 2.48149 21.6283 2.46064 21.6004 2.43979C21.4609 2.34943 21.3144 2.26602 21.1679 2.18261C21.1191 2.1548 21.0633 2.12699 21.0145 2.09919C20.8261 2.00187 20.6308 1.91847 20.4286 1.83506C20.3867 1.82116 20.3448 1.80726 20.303 1.79335C20.1356 1.7308 19.9612 1.67518 19.7798 1.62653C19.724 1.61262 19.6613 1.59177 19.6055 1.57786C19.3892 1.52921 19.166 1.48056 18.9358 1.45275V0.29194H30.1731C32.6703 0.29194 34.7071 1.87676 34.7071 3.82999V4.90739H23.6581V4.91434Z" fill="#856400"/>
<defs>
<linearGradient id="paint0_linear_461_12028" x1="-4.13377" y1="18.6513" x2="42.3268" y2="5.14398" gradientUnits="userSpaceOnUse">
<stop stop-color="#F7B261"/>
<stop offset="0.244" stop-color="#F9CD63"/>
<stop offset="0.5006" stop-color="#FBE164"/>
<stop offset="0.7543" stop-color="#FCEE65"/>
<stop offset="1" stop-color="#FCF265"/>
</linearGradient>
</defs>
</svg>
