<svg width="24" height="24" viewBox="0 0 24 24" fill="none" xmlns="http://www.w3.org/2000/svg">
<path d="M11.2807 4.29279C11.4682 4.10532 11.7225 4 11.9877 4C12.2529 4 12.5072 4.10532 12.6947 4.29279L16.6947 8.29279C16.8769 8.48139 16.9777 8.73399 16.9754 8.99619C16.9731 9.25838 16.8679 9.5092 16.6825 9.6946C16.4971 9.88001 16.2463 9.98518 15.9841 9.98746C15.7219 9.98974 15.4693 9.88894 15.2807 9.70679L12.9877 7.41379V18.9998C12.9877 19.265 12.8824 19.5194 12.6948 19.7069C12.5073 19.8944 12.2529 19.9998 11.9877 19.9998C11.7225 19.9998 11.4681 19.8944 11.2806 19.7069C11.0931 19.5194 10.9877 19.265 10.9877 18.9998V7.41379L8.69471 9.70679C8.50611 9.88894 8.25351 9.98974 7.99131 9.98746C7.72911 9.98518 7.4783 9.88001 7.29289 9.6946C7.10749 9.5092 7.00232 9.25838 7.00004 8.99619C6.99776 8.73399 7.09855 8.48139 7.28071 8.29279L11.2807 4.29279Z" fill="#DD1A21"/>
</svg>
