<svg width="40" height="40" viewBox="0 0 40 40" fill="none" xmlns="http://www.w3.org/2000/svg">
<g id="M&#225;&#187;&#135;nh" clip-path="url(#clip0_636_3682)">
<path id="Vector" d="M20 0C16.0443 0 12.1775 1.17298 8.88855 3.37061C5.59957 5.56824 3.03611 8.69181 1.52236 12.3463C0.00860699 16.0009 -0.387463 20.0222 0.384242 23.9018C1.15595 27.7814 3.06077 31.3451 5.85782 34.1421C8.65487 36.9392 12.2185 38.844 16.0982 39.6157C19.9778 40.3874 23.9991 39.9914 27.6536 38.4776C31.3081 36.9638 34.4317 34.4004 36.6293 31.1114C38.827 27.8224 39.9999 23.9556 39.9999 20C39.9944 14.6974 37.8855 9.61352 34.136 5.86399C30.3864 2.11447 25.3026 0.00554886 20 0ZM20 39.6882C16.106 39.6882 12.2995 38.5335 9.06178 36.3701C5.82407 34.2068 3.30058 31.1319 1.81043 27.5344C0.320279 23.9368 -0.0696163 19.9782 0.690057 16.159C1.44973 12.3399 3.32485 8.83179 6.07829 6.07834C8.83174 3.3249 12.3398 1.44978 16.159 0.690107C19.9781 -0.0695665 23.9368 0.320326 27.5343 1.81048C31.1318 3.30063 34.2067 5.82412 36.3701 9.06183C38.5335 12.2995 39.6881 16.106 39.6881 20C39.6826 25.2199 37.6065 30.2245 33.9155 33.9155C30.2244 37.6066 25.2199 39.6827 20 39.6882Z" fill="#94760B"/>
<path id="Vector_2" d="M20 39.6882C30.8735 39.6882 39.6882 30.8735 39.6882 20C39.6882 9.12647 30.8735 0.311768 20 0.311768C9.12651 0.311768 0.311806 9.12647 0.311806 20C0.311806 30.8735 9.12651 39.6882 20 39.6882Z" fill="#A88011"/>
<path id="Vector_3" d="M29.6397 23.6841L22.8796 28.5865L25.7147 32.0347L23.3093 37.0681C20.9057 37.5338 18.4308 37.486 16.047 36.9278C13.6632 36.3697 11.4243 35.3138 9.47726 33.8295L17.7361 24.3968L21.2184 22.0098L30.1795 13.219L31.8512 15.3754L27.2946 21.1137L29.6397 23.6841Z" fill="url(#paint0_linear_636_3682)"/>
<path id="Vector_4" d="M21.3101 20.8255L20.7206 21.4019L17.2147 23.8073L8.86938 33.3448C8.25415 32.8501 7.69056 32.2944 7.18721 31.6862V31.398L8.34011 25.4475H13.0958L12.4643 22.0412L16.3291 16.5388L21.3101 20.8255Z" fill="url(#paint1_linear_636_3682)"/>
<path id="Vector_5" d="M11.6416 21.8605L12.1656 24.6693H7.71125L6.4981 30.9264C4.85526 28.9022 3.69087 26.5331 3.09184 23.9959L4.62204 22.809H5.95834L14.1203 14.6208L15.75 16.0253L11.6416 21.8605Z" fill="url(#paint2_linear_636_3682)"/>
<path id="Vector_6" d="M37.2278 22.324C36.7605 25.7612 35.2781 28.9807 32.9703 31.5704C30.6625 34.1601 27.6344 36.0022 24.2736 36.8609L26.6317 31.9297L24.0115 28.7409L30.8031 23.8018L28.3113 21.0716L32.3359 16.0015L37.2278 22.324Z" fill="url(#paint3_linear_636_3682)"/>
</g>
<defs>
<linearGradient id="paint0_linear_636_3682" x1="20.6603" y1="13.7797" x2="20.6603" y2="37.2672" gradientUnits="userSpaceOnUse">
<stop stop-color="#C0C652"/>
<stop offset="1" stop-color="#828423"/>
</linearGradient>
<linearGradient id="paint1_linear_636_3682" x1="14.2487" y1="13.7797" x2="14.2487" y2="37.2672" gradientUnits="userSpaceOnUse">
<stop stop-color="#C0C652"/>
<stop offset="1" stop-color="#828423"/>
</linearGradient>
<linearGradient id="paint2_linear_636_3682" x1="9.40914" y1="13.7798" x2="9.40914" y2="37.2673" gradientUnits="userSpaceOnUse">
<stop stop-color="#C0C652"/>
<stop offset="1" stop-color="#828423"/>
</linearGradient>
<linearGradient id="paint3_linear_636_3682" x1="30.6171" y1="13.7795" x2="30.6171" y2="37.267" gradientUnits="userSpaceOnUse">
<stop stop-color="#C0C652"/>
<stop offset="1" stop-color="#707212"/>
</linearGradient>
<clipPath id="clip0_636_3682">
<rect width="40" height="40" fill="white"/>
</clipPath>
</defs>
</svg>
