<svg width="41" height="40" viewBox="0 0 41 40" fill="none" xmlns="http://www.w3.org/2000/svg">
<g id="M&#225;&#187;&#135;nh" clip-path="url(#clip0_636_3674)">
<path id="Vector" d="M20.3441 0C16.3884 0 12.5216 1.17298 9.23266 3.37061C5.94368 5.56824 3.38023 8.69181 1.86647 12.3463C0.35272 16.0009 -0.0433457 20.0222 0.728359 23.9018C1.50006 27.7814 3.40488 31.3451 6.20193 34.1421C8.99898 36.9392 12.5626 38.844 16.4423 39.6157C20.3219 40.3874 24.3432 39.9913 27.9977 38.4776C31.6523 36.9638 34.7758 34.4004 36.9735 31.1114C39.1711 27.8224 40.3441 23.9556 40.3441 20C40.3385 14.6974 38.2296 9.61352 34.4801 5.86399C30.7305 2.11447 25.6467 0.00554886 20.3441 0ZM20.3441 39.6882C16.4504 39.6866 12.6447 38.5306 9.40803 36.3663C6.17136 34.202 3.6491 31.1266 2.16015 27.5289C0.6712 23.9312 0.282431 19.9728 1.04299 16.1542C1.80355 12.3356 3.67929 8.82822 6.43305 6.07557C9.1868 3.32291 12.6949 1.44857 16.5138 0.689534C20.3328 -0.0695023 24.291 0.320848 27.8881 1.81123C31.4852 3.30162 34.5596 5.8251 36.7226 9.06264C38.8856 12.3002 40.0401 16.1064 40.0401 20C40.0346 25.2213 37.9574 30.227 34.2647 33.9183C30.5719 37.6096 25.5654 39.6847 20.3441 39.6882Z" fill="#3D0105"/>
<path id="Vector_2" d="M20.3441 39.6882C31.2176 39.6882 40.0323 30.8735 40.0323 20C40.0323 9.12647 31.2176 0.311768 20.3441 0.311768C9.47059 0.311768 0.655884 9.12647 0.655884 20C0.655884 30.8735 9.47059 39.6882 20.3441 39.6882Z" fill="#670001"/>
<path id="Vector_3" d="M27.7068 35.6504C25.8727 37.0915 23.4464 37.8566 20.6061 37.8566C19.5854 37.862 18.5658 37.7893 17.5562 37.6392C17.2182 37.4007 15.6382 35.9963 15.9317 30.7402C16.1125 27.5383 17.6977 26.1103 18.9921 25.4788C20.5825 24.6927 22.3826 24.8264 23.2001 25.395C24.0595 25.9897 24.7172 27.6352 24.2482 28.7855C24.1476 29.0294 23.9887 29.2448 23.7854 29.413C23.5821 29.5811 23.3406 29.6967 23.0822 29.7497C23.2881 29.3092 23.3954 28.829 23.3966 28.3427C23.4295 28.0417 23.3792 27.7375 23.2512 27.463C23.1233 27.1886 22.9225 26.9546 22.6708 26.7863C22.118 26.4457 21.3293 26.4745 20.614 26.8701C19.5502 27.4544 18.903 28.6283 18.8873 30.0144C18.8611 32.1577 20.2681 34.3953 22.3092 35.4565C23.3442 35.991 25.2308 36.5754 27.7068 35.6504Z" fill="url(#paint0_linear_636_3674)"/>
<path id="Vector_4" d="M30.2327 32.5822C30.0513 32.9333 29.8483 33.2729 29.6248 33.5989C27.1854 35.3361 24.7355 35.7134 22.7206 34.6627C20.9651 33.7508 19.7545 31.8433 19.7781 30.0249C19.7912 28.9768 20.2629 28.0781 21.0411 27.6484C21.4708 27.4152 21.9267 27.3733 22.2044 27.5462C22.3168 27.6361 22.4039 27.7536 22.4572 27.8873C22.5104 28.0209 22.5281 28.1661 22.5084 28.3087C22.4822 28.9795 22.3223 29.4432 22.042 29.6528C21.9053 29.7492 21.7399 29.7963 21.573 29.7865L21.3922 29.7577L21.193 30.6249C21.2867 30.6488 21.3823 30.6646 21.4786 30.6721C23.9102 31.0049 24.7748 29.852 25.0735 29.1209C25.7103 27.5488 24.8797 25.4762 23.7084 24.6666C22.6918 23.9618 20.5642 23.7259 18.6043 24.6797C17.3649 25.285 15.2583 26.8676 15.0408 30.6931C14.839 34.3089 15.4967 36.2924 16.1465 37.3536C12.0485 36.3055 10.238 33.7325 9.56195 30.9839C9.56195 30.9315 8.40382 25.4422 18.7091 18.4882C24.4866 14.5893 25.891 11.1097 26.0745 8.87988C26.0954 8.92181 26.1138 8.96635 26.1321 9.00827C27.8012 12.9386 27.4055 17.0025 26.9732 17.8881C25.2281 21.4726 26.0561 23.0919 26.1583 23.2648L26.3548 23.6028L26.7164 23.4508C28.3147 22.7774 29.182 21.3547 29.5986 20.414C31.8153 24.098 32.1009 28.9795 30.2327 32.5822Z" fill="url(#paint1_linear_636_3674)"/>
<path id="Vector_5" d="M24.9871 9.87291C24.5154 11.6913 22.9617 14.5316 18.2191 17.7335C12.528 21.5878 10.1698 25.0229 9.22133 27.4597C9.3078 23.836 10.4292 17.5213 16.4688 12.7158C20.331 9.64233 19.4611 4.23685 18.9423 2.14331C21.3524 3.01934 23.4314 4.62141 24.8928 6.72866C24.9452 6.84919 25.4666 8.03876 24.9871 9.87291Z" fill="url(#paint2_linear_636_3674)"/>
</g>
<defs>
<linearGradient id="paint0_linear_636_3674" x1="21.8009" y1="1.85506" x2="21.8009" y2="38.2313" gradientUnits="userSpaceOnUse">
<stop stop-color="#FABA3E"/>
<stop offset="1" stop-color="#C8211B"/>
</linearGradient>
<linearGradient id="paint1_linear_636_3674" x1="20.4961" y1="1.85512" x2="20.4961" y2="38.2314" gradientUnits="userSpaceOnUse">
<stop stop-color="#FABA3E"/>
<stop offset="1" stop-color="#C8211B"/>
</linearGradient>
<linearGradient id="paint2_linear_636_3674" x1="17.2051" y1="1.85509" x2="17.2051" y2="38.2313" gradientUnits="userSpaceOnUse">
<stop stop-color="#FABA3E"/>
<stop offset="1" stop-color="#C8211B"/>
</linearGradient>
<clipPath id="clip0_636_3674">
<rect width="40" height="40" fill="white" transform="translate(0.344086)"/>
</clipPath>
</defs>
</svg>
