<svg width="41" height="40" viewBox="0 0 41 40" fill="none" xmlns="http://www.w3.org/2000/svg">
<g id="Group 1000003583">
<path id="Vector" d="M20.3441 39.3764C31.2176 39.3764 40.0323 30.5617 40.0323 19.6882C40.0323 8.81471 31.2176 0 20.3441 0C9.47059 0 0.655884 8.81471 0.655884 19.6882C0.655884 30.5617 9.47059 39.3764 20.3441 39.3764Z" fill="#204307"/>
<g id="Group 1000003582">
<g id="Vector_2">
<path d="M21.6397 22.5043C17.8924 21.8133 13.7898 20.7141 11.0256 17.9876C10.4503 16.7565 10.2562 15.3814 10.4685 14.0392C10.6807 12.6969 11.2896 11.4488 12.2167 10.4553C13.7016 8.82036 15.4981 8.02024 17.2718 8.21136C18.0999 8.3167 18.8916 8.61489 19.5835 9.08196C20.2753 9.54902 20.8479 10.1719 21.2552 10.9006C22.1432 12.4425 21.8518 15.0056 20.6246 16.3868C19.9349 17.1608 18.6758 17.8985 16.5929 17.0047C14.7248 16.1941 14.6373 14.9116 14.7557 14.2133C14.9481 13.0289 15.9718 11.9512 16.974 11.8757C17.7729 11.8164 18.4242 12.429 18.8087 13.6023C18.6656 11.6175 17.5714 11.2057 16.9263 11.2564C15.641 11.3517 14.3908 12.6311 14.143 14.1092C13.8951 15.5873 14.6958 16.8596 16.351 17.5718C18.3085 18.4131 19.6557 17.9524 20.4846 17.3487C19.8388 19.4308 20.9471 21.488 21.6397 22.5043Z" fill="url(#paint0_linear_636_3654)"/>
<path d="M21.6397 22.5043C17.8924 21.8133 13.7898 20.7141 11.0256 17.9876C10.4503 16.7565 10.2562 15.3814 10.4685 14.0392C10.6807 12.6969 11.2896 11.4488 12.2167 10.4553C13.7016 8.82036 15.4981 8.02024 17.2718 8.21136C18.0999 8.3167 18.8916 8.61489 19.5835 9.08196C20.2753 9.54902 20.8479 10.1719 21.2552 10.9006C22.1432 12.4425 21.8518 15.0056 20.6246 16.3868C19.9349 17.1608 18.6758 17.8985 16.5929 17.0047C14.7248 16.1941 14.6373 14.9116 14.7557 14.2133C14.9481 13.0289 15.9718 11.9512 16.974 11.8757C17.7729 11.8164 18.4242 12.429 18.8087 13.6023C18.6656 11.6175 17.5714 11.2057 16.9263 11.2564C15.641 11.3517 14.3908 12.6311 14.143 14.1092C13.8951 15.5873 14.6958 16.8596 16.351 17.5718C18.3085 18.4131 19.6557 17.9524 20.4846 17.3487C19.8388 19.4308 20.9471 21.488 21.6397 22.5043Z" fill="url(#paint1_linear_636_3654)"/>
</g>
<g id="Vector_3">
<path d="M19.7475 22.8463C23.41 22.9296 27.4867 22.6981 30.6222 20.673C31.4048 19.6269 31.8566 18.3706 31.9196 17.0657C31.9826 15.7608 31.6539 14.4668 30.9757 13.3502C29.8981 11.5206 28.3639 10.4158 26.657 10.2484C25.857 10.1854 25.0533 10.3111 24.3107 10.6153C23.5681 10.9195 22.9072 11.3937 22.3812 11.9997C21.2435 13.2772 21.016 15.7468 21.9007 17.2871C22.3983 18.1506 23.439 19.0914 25.5745 18.6579C27.4915 18.2607 27.825 17.0707 27.8502 16.3903C27.901 15.2378 27.1484 14.023 26.2199 13.7557C25.4795 13.5435 24.7466 13.9926 24.155 15.0217C24.6782 13.1816 25.7888 13.0081 26.3861 13.1822C27.5771 13.5235 28.5034 14.9725 28.4473 16.4123C28.3912 17.852 27.3885 18.8928 25.6911 19.2391C23.684 19.6477 22.5061 18.9504 21.8441 18.2199C22.0444 20.306 20.5984 22.0254 19.7475 22.8463Z" fill="url(#paint2_linear_636_3654)"/>
<path d="M19.7475 22.8463C23.41 22.9296 27.4867 22.6981 30.6222 20.673C31.4048 19.6269 31.8566 18.3706 31.9196 17.0657C31.9826 15.7608 31.6539 14.4668 30.9757 13.3502C29.8981 11.5206 28.3639 10.4158 26.657 10.2484C25.857 10.1854 25.0533 10.3111 24.3107 10.6153C23.5681 10.9195 22.9072 11.3937 22.3812 11.9997C21.2435 13.2772 21.016 15.7468 21.9007 17.2871C22.3983 18.1506 23.439 19.0914 25.5745 18.6579C27.4915 18.2607 27.825 17.0707 27.8502 16.3903C27.901 15.2378 27.1484 14.023 26.2199 13.7557C25.4795 13.5435 24.7466 13.9926 24.155 15.0217C24.6782 13.1816 25.7888 13.0081 26.3861 13.1822C27.5771 13.5235 28.5034 14.9725 28.4473 16.4123C28.3912 17.852 27.3885 18.8928 25.6911 19.2391C23.684 19.6477 22.5061 18.9504 21.8441 18.2199C22.0444 20.306 20.5984 22.0254 19.7475 22.8463Z" fill="url(#paint3_linear_636_3654)"/>
</g>
<g id="Vector_4">
<path d="M22.0079 22.4004C19.3257 24.8132 15.4746 27.9028 11.849 28.3405C10.6012 28.0299 9.46721 27.344 8.5927 26.3711C7.71819 25.3981 7.14315 24.1826 6.9415 22.8806C6.58605 20.7689 7.03123 18.9273 8.19976 17.703C8.75728 17.1411 9.4371 16.7235 10.1845 16.4835C10.932 16.2436 11.7262 16.1881 12.5034 16.3215C14.163 16.5841 15.8989 18.356 16.2149 20.1193C16.3909 21.109 16.2103 22.5068 14.3407 23.5394C12.6572 24.46 11.6537 23.7497 11.2033 23.2375C10.4346 22.3751 10.2263 20.9492 10.7502 20.1463C11.1685 19.5069 10.7547 19.7265 11.849 20.1463C10.2914 19.0528 10.5981 19.2894 10.2624 19.8075C9.58941 20.8362 9.8165 22.5553 10.7714 23.6374C11.7262 24.7195 13.135 24.8848 14.6222 24.0654C16.3801 23.0959 16.2299 21.8921 16.261 20.9004C19.0079 21.9004 20.852 22.3084 22.0079 22.4004Z" fill="url(#paint4_linear_636_3654)"/>
<path d="M22.0079 22.4004C19.3257 24.8132 15.4746 27.9028 11.849 28.3405C10.6012 28.0299 9.46721 27.344 8.5927 26.3711C7.71819 25.3981 7.14315 24.1826 6.9415 22.8806C6.58605 20.7689 7.03123 18.9273 8.19976 17.703C8.75728 17.1411 9.4371 16.7235 10.1845 16.4835C10.932 16.2436 11.7262 16.1881 12.5034 16.3215C14.163 16.5841 15.8989 18.356 16.2149 20.1193C16.3909 21.109 16.2103 22.5068 14.3407 23.5394C12.6572 24.46 11.6537 23.7497 11.2033 23.2375C10.4346 22.3751 10.2263 20.9492 10.7502 20.1463C11.1685 19.5069 10.7547 19.7265 11.849 20.1463C10.2914 19.0528 10.5981 19.2894 10.2624 19.8075C9.58941 20.8362 9.8165 22.5553 10.7714 23.6374C11.7262 24.7195 13.135 24.8848 14.6222 24.0654C16.3801 23.0959 16.2299 21.8921 16.261 20.9004C19.0079 21.9004 20.852 22.3084 22.0079 22.4004Z" fill="url(#paint5_linear_636_3654)"/>
</g>
<g id="Vector_5">
<path d="M19.0081 21.9643C20.4811 25.3185 22.4145 28.9151 25.5753 30.9003C26.8542 31.1672 28.1837 31.0455 29.3929 30.5509C30.6021 30.0563 31.6357 29.2113 32.361 28.1247C33.5634 26.3746 33.9159 24.5171 33.3459 22.8995C33.0647 22.1479 32.6111 21.4727 32.0215 20.9283C31.4318 20.384 30.7227 19.9855 29.951 19.7651C28.3124 19.2742 25.9782 20.1122 24.9564 21.5651C24.3842 22.3812 23.9716 23.7221 25.2673 25.474C26.4378 27.0433 27.6571 26.8424 28.2845 26.5776C29.3503 26.1363 30.1331 24.9407 29.9827 23.9862C29.862 23.2256 29.1451 22.7512 27.9624 22.6502C29.8512 22.3464 30.4779 23.2795 30.5727 23.8943C30.767 25.118 29.8455 26.5701 28.517 27.128C27.1885 27.6859 25.8214 27.2172 24.7899 25.8254C23.5711 24.1793 23.705 22.817 24.0871 21.9082C22.2813 22.9717 20.1118 22.3883 19.0081 21.9643Z" fill="url(#paint6_linear_636_3654)"/>
<path d="M19.0081 21.9643C20.4811 25.3185 22.4145 28.9151 25.5753 30.9003C26.8542 31.1672 28.1837 31.0455 29.3929 30.5509C30.6021 30.0563 31.6357 29.2113 32.361 28.1247C33.5634 26.3746 33.9159 24.5171 33.3459 22.8995C33.0647 22.1479 32.6111 21.4727 32.0215 20.9283C31.4318 20.384 30.7227 19.9855 29.951 19.7651C28.3124 19.2742 25.9782 20.1122 24.9564 21.5651C24.3842 22.3812 23.9716 23.7221 25.2673 25.474C26.4378 27.0433 27.6571 26.8424 28.2845 26.5776C29.3503 26.1363 30.1331 24.9407 29.9827 23.9862C29.862 23.2256 29.1451 22.7512 27.9624 22.6502C29.8512 22.3464 30.4779 23.2795 30.5727 23.8943C30.767 25.118 29.8455 26.5701 28.517 27.128C27.1885 27.6859 25.8214 27.2172 24.7899 25.8254C23.5711 24.1793 23.705 22.817 24.0871 21.9082C22.2813 22.9717 20.1118 22.3883 19.0081 21.9643Z" fill="url(#paint7_linear_636_3654)"/>
</g>
<path id="Vector 2542" d="M16.5079 32.4002C19.3079 29.2002 18.6746 26.7336 18.0079 25.9002C19.5079 24.9002 20.5079 22.9002 20.5079 23.9002C20.5079 24.7002 22.3413 25.7336 23.0079 26.4002C23.0079 26.4002 23.1079 26.6002 21.5079 27.4002C19.9513 28.1786 20.7925 30.7553 21.4532 32.2757C21.4749 32.3147 21.4933 32.3562 21.5079 32.4002C21.4899 32.3596 21.4716 32.318 21.4532 32.2757C20.8825 31.2513 17.9529 31.9186 16.5079 32.4002Z" fill="#93760B" stroke="#93760B"/>
</g>
</g>
<defs>
<linearGradient id="paint0_linear_636_3654" x1="22.3015" y1="9.6803" x2="5.85173" y2="30.4575" gradientUnits="userSpaceOnUse">
<stop stop-color="#7DA484"/>
<stop offset="1" stop-color="#042D0B"/>
</linearGradient>
<linearGradient id="paint1_linear_636_3654" x1="22.3015" y1="9.6803" x2="5.85173" y2="30.4575" gradientUnits="userSpaceOnUse">
<stop stop-color="#7DA484"/>
<stop offset="1" stop-color="#042D0B"/>
</linearGradient>
<linearGradient id="paint2_linear_636_3654" x1="21.6353" y1="10.6464" x2="33.0508" y2="33.4231" gradientUnits="userSpaceOnUse">
<stop stop-color="#7DA484"/>
<stop offset="1" stop-color="#042D0B"/>
</linearGradient>
<linearGradient id="paint3_linear_636_3654" x1="21.6353" y1="10.6464" x2="33.0508" y2="33.4231" gradientUnits="userSpaceOnUse">
<stop stop-color="#7DA484"/>
<stop offset="1" stop-color="#042D0B"/>
</linearGradient>
<linearGradient id="paint4_linear_636_3654" x1="12.2022" y1="14.7923" x2="18.1204" y2="39.7987" gradientUnits="userSpaceOnUse">
<stop stop-color="#7DA484"/>
<stop offset="1" stop-color="#042D0B"/>
</linearGradient>
<linearGradient id="paint5_linear_636_3654" x1="12.2022" y1="14.7923" x2="18.1204" y2="39.7987" gradientUnits="userSpaceOnUse">
<stop stop-color="#7DA484"/>
<stop offset="1" stop-color="#042D0B"/>
</linearGradient>
<linearGradient id="paint6_linear_636_3654" x1="31.2122" y1="19.1691" x2="15.3977" y2="39.144" gradientUnits="userSpaceOnUse">
<stop stop-color="#7DA484"/>
<stop offset="1" stop-color="#042D0B"/>
</linearGradient>
<linearGradient id="paint7_linear_636_3654" x1="31.2122" y1="19.1691" x2="15.3977" y2="39.144" gradientUnits="userSpaceOnUse">
<stop stop-color="#7DA484"/>
<stop offset="1" stop-color="#042D0B"/>
</linearGradient>
</defs>
</svg>
