<svg width="41" height="40" viewBox="0 0 41 40" fill="none" xmlns="http://www.w3.org/2000/svg">
<g id="M&#225;&#187;&#135;nh" clip-path="url(#clip0_636_3664)">
<path id="Vector" d="M20.6881 0C16.7325 0 12.8657 1.17298 9.57671 3.37061C6.28773 5.56824 3.72428 8.69181 2.21053 12.3463C0.696778 16.0009 0.300709 20.0222 1.07241 23.9018C1.84412 27.7814 3.74894 31.3451 6.54599 34.1421C9.34304 36.9392 12.9067 38.844 16.7863 39.6157C20.6659 40.3874 24.6873 39.9914 28.3418 38.4776C31.9963 36.9638 35.1199 34.4004 37.3175 31.1114C39.5151 27.8224 40.6881 23.9556 40.6881 20C40.6826 14.6974 38.5737 9.61352 34.8241 5.86399C31.0746 2.11447 25.9907 0.00554886 20.6881 0ZM20.6881 39.6882C16.7942 39.6882 12.9877 38.5335 9.74994 36.3701C6.51224 34.2068 3.98876 31.1319 2.4986 27.5344C1.00845 23.9368 0.618555 19.9782 1.37823 16.159C2.1379 12.3399 4.01302 8.83179 6.76647 6.07834C9.51991 3.3249 13.028 1.44978 16.8471 0.690107C20.6663 -0.0695665 24.6249 0.320326 28.2225 1.81048C31.82 3.30063 34.8949 5.82412 37.0583 9.06183C39.2216 12.2995 40.3763 16.106 40.3763 20C40.3708 25.2199 38.2947 30.2245 34.6036 33.9155C30.9126 37.6066 25.908 39.6827 20.6881 39.6882Z" fill="#021D2D"/>
<path id="Vector_2" d="M20.6882 39.6882C31.5617 39.6882 40.3764 30.8735 40.3764 20C40.3764 9.12647 31.5617 0.311768 20.6882 0.311768C9.81467 0.311768 0.999969 9.12647 0.999969 20C0.999969 30.8735 9.81467 39.6882 20.6882 39.6882Z" fill="#014171"/>
<path id="Vector_3" d="M35.4897 28.3453C34.0559 31.0784 31.9236 33.3828 29.3098 35.0241C26.6961 36.6653 23.6941 37.5848 20.6096 37.6889C22.1817 36.785 23.6516 34.9665 25.0875 33.1874C26.2561 31.7384 27.3618 30.3707 28.4623 29.5584C30.9882 27.6902 34.3604 28.1304 35.4897 28.3453Z" fill="url(#paint0_linear_636_3664)"/>
<path id="Vector_4" d="M36.5744 25.8169C36.3532 26.4841 36.0907 27.1369 35.7884 27.7715C34.7691 27.5462 30.996 26.9173 28.0929 29.058C26.9295 29.9149 25.8002 31.314 24.6027 32.7971C22.7083 35.1553 20.7511 37.5685 18.7125 37.6497C15.5997 37.4139 12.6081 36.3431 10.0528 34.55C10.5463 34.648 11.0483 34.6971 11.5515 34.6967C15.6521 34.6967 19.7423 31.5525 23.1695 28.9323C24.3617 28.0178 25.4858 27.1558 26.4945 26.5112C30.4039 24.022 35.3561 25.4133 36.5744 25.8169Z" fill="url(#paint1_linear_636_3664)"/>
<path id="Vector_5" d="M37.24 23.1836C37.1243 23.8714 36.9659 24.5513 36.7657 25.2195C35.4399 24.7714 30.3384 23.3146 26.146 25.9819C25.1111 26.6396 23.9791 27.5095 22.7765 28.4318C18.5841 31.6494 13.3778 35.6479 8.59332 33.4102C6.50254 31.5937 4.87343 29.3063 3.84027 26.7366C5.72205 28.0746 7.97703 28.7868 10.286 28.7725C14.777 28.7725 19.1947 26.3121 22.7634 24.3181C24.4482 23.3801 25.9076 22.5678 27.0579 22.1931C27.5004 22.0484 27.9533 21.9372 28.4125 21.8604H28.4361H28.4544C32.3166 21.2105 36.2862 22.7748 37.24 23.1836Z" fill="url(#paint2_linear_636_3664)"/>
<path id="Vector_6" d="M25.588 22.1172C24.6525 22.5495 23.6018 23.1338 22.4437 23.781C21.9721 24.043 21.4847 24.305 20.9843 24.5906C20.3475 24.4439 16.8889 23.5426 16.4461 20.7049C16.2469 19.4315 16.4592 18.4017 17.0749 17.6445C17.3848 17.2893 17.7636 17.0007 18.1883 16.7962C18.613 16.5918 19.0748 16.4756 19.5458 16.4549C20.4262 16.4078 21.1179 16.6305 21.5948 17.1074C21.886 17.4118 22.0975 17.7836 22.2105 18.1895C21.7787 17.8555 21.2498 17.6715 20.7039 17.6655C19.7187 17.6655 19.0034 18.3677 18.7911 19.4996C18.7322 19.7601 18.7397 20.0313 18.813 20.2881C18.8862 20.545 19.0229 20.7793 19.2104 20.9695C20.303 22.1198 23.3058 22.2246 25.588 22.1172Z" fill="url(#paint3_linear_636_3664)"/>
<path id="Vector_7" d="M20.1851 25.0202C16.8181 26.8046 12.9193 28.4894 9.05973 28.0675C7.84445 27.4594 6.83879 26.5018 6.17203 25.3177C5.50528 24.1336 5.20788 22.7771 5.31808 21.4227C5.46743 19.2191 6.37926 17.4766 7.8885 16.5255C8.60311 16.0941 9.40899 15.8364 10.2413 15.7732C11.0737 15.7099 11.9092 15.8428 12.6808 16.1613C14.3342 16.819 15.6967 19.0095 15.5919 20.8541C15.5316 21.8891 15.0023 23.249 12.8145 23.8411C10.8467 24.3652 9.98204 23.414 9.64141 22.793C9.05711 21.745 9.19073 20.2645 9.92963 19.5833C10.5192 19.0409 11.41 19.1169 12.4398 19.7981C11.0956 18.3308 9.98203 18.6872 9.50778 19.1274C8.55926 19.9999 8.37323 21.779 9.0964 23.0917C9.81958 24.4045 11.2371 24.9049 12.9769 24.4359C15.0338 23.8804 15.8041 22.683 16.0792 21.6952C16.8653 23.7284 19.0112 24.6534 20.1851 25.0202Z" fill="url(#paint4_linear_636_3664)"/>
</g>
<defs>
<linearGradient id="paint0_linear_636_3664" x1="28.0457" y1="14.5552" x2="28.0457" y2="41.0559" gradientUnits="userSpaceOnUse">
<stop stop-color="#00ADEF"/>
<stop offset="1" stop-color="#0069A3"/>
</linearGradient>
<linearGradient id="paint1_linear_636_3664" x1="23.3057" y1="14.5552" x2="23.3057" y2="41.0559" gradientUnits="userSpaceOnUse">
<stop stop-color="#00ADEF"/>
<stop offset="1" stop-color="#0069A3"/>
</linearGradient>
<linearGradient id="paint2_linear_636_3664" x1="20.5336" y1="14.5552" x2="20.5336" y2="41.056" gradientUnits="userSpaceOnUse">
<stop stop-color="#00ADEF"/>
<stop offset="1" stop-color="#0069A3"/>
</linearGradient>
<linearGradient id="paint3_linear_636_3664" x1="20.9843" y1="14.5553" x2="20.9843" y2="41.056" gradientUnits="userSpaceOnUse">
<stop stop-color="#00ADEF"/>
<stop offset="1" stop-color="#0069A3"/>
</linearGradient>
<linearGradient id="paint4_linear_636_3664" x1="12.7437" y1="14.5551" x2="12.7437" y2="41.0558" gradientUnits="userSpaceOnUse">
<stop stop-color="#00ADEF"/>
<stop offset="1" stop-color="#0069A3"/>
</linearGradient>
<clipPath id="clip0_636_3664">
<rect width="40" height="40" fill="white" transform="translate(0.688171)"/>
</clipPath>
</defs>
</svg>
