<svg width="40" height="40" viewBox="0 0 40 40" fill="none" xmlns="http://www.w3.org/2000/svg">
<g id="M&#225;&#187;&#135;nh" clip-path="url(#clip0_636_3646)">
<path id="Vector" d="M20 1.71716e-07C16.0443 -0.00051807 12.1772 1.17202 8.88789 3.36934C5.59856 5.56665 3.0347 8.69004 1.52054 12.3445C0.00638798 15.999 -0.390048 20.0204 0.381361 23.9002C1.15277 27.78 3.05738 31.3439 5.85433 34.1412C8.65127 36.9385 12.2149 38.8436 16.0946 39.6155C19.9743 40.3874 23.9958 39.9915 27.6504 38.4779C31.3051 36.9642 34.4289 34.4007 36.6266 31.1117C38.8243 27.8226 39.9974 23.9557 39.9974 20C39.9918 14.6978 37.8833 9.61438 34.1343 5.86493C30.3854 2.11547 25.3022 0.00624247 20 1.71716e-07ZM20 39.6882C16.1064 39.6866 12.3006 38.5306 9.06397 36.3663C5.8273 34.202 3.30504 31.1266 1.81609 27.5289C0.327143 23.9312 -0.0616302 19.9728 0.698931 16.1542C1.45949 12.3356 3.33523 8.82823 6.08899 6.07557C8.84275 3.32291 12.3509 1.44858 16.1698 0.689538C19.9887 -0.0694982 23.9469 0.320849 27.544 1.81123C31.1411 3.30162 34.2155 5.82511 36.3785 9.06265C38.5416 12.3002 39.6961 16.1064 39.6961 20C39.6905 25.2213 37.6134 30.227 33.9206 33.9183C30.2279 37.6096 25.2213 39.6847 20 39.6882Z" fill="#B07F11"/>
<path id="Vector_2" d="M20 39.6882C30.8735 39.6882 39.6882 30.8735 39.6882 20C39.6882 9.12647 30.8735 0.311768 20 0.311768C9.1265 0.311768 0.311798 9.12647 0.311798 20C0.311798 30.8735 9.1265 39.6882 20 39.6882Z" fill="#BF9214"/>
<path id="Vector_3" d="M29.5794 5.49707L15.5325 17.0155H20.1467L12.8023 24.3599H17.4977L10.4205 34.5001L25.8483 22.6122H20.7651L29.1157 14.3534H24.85L29.5794 5.49707Z" fill="url(#paint0_linear_636_3646)"/>
<path id="Vector_4" d="M7.11384 30.596L12.3935 21.6428L9.92531 21.9887L10.5358 16.0618L6.04218 24.2709L8.64142 23.6866L7.11384 30.596Z" fill="url(#paint1_linear_636_3646)"/>
<path id="Vector_5" d="M17.0654 35.5457L26.5426 31.28L24.3259 30.1376L28.2458 25.6492L19.8402 29.7603L22.2979 30.7821L17.0654 35.5457Z" fill="url(#paint2_linear_636_3646)"/>
</g>
<defs>
<linearGradient id="paint0_linear_636_3646" x1="19.7013" y1="6.52419" x2="20.4271" y2="39.3972" gradientUnits="userSpaceOnUse">
<stop stop-color="#FFED4D"/>
<stop offset="1" stop-color="#DFAA00"/>
</linearGradient>
<linearGradient id="paint1_linear_636_3646" x1="10.0077" y1="15.3458" x2="8.36082" y2="31.3098" gradientUnits="userSpaceOnUse">
<stop stop-color="#FFED4D"/>
<stop offset="1" stop-color="#DFAA00"/>
</linearGradient>
<linearGradient id="paint2_linear_636_3646" x1="26.8358" y1="24.3179" x2="16.2453" y2="36.3525" gradientUnits="userSpaceOnUse">
<stop stop-color="#FFED4D"/>
<stop offset="1" stop-color="#DFAA00"/>
</linearGradient>
<clipPath id="clip0_636_3646">
<rect width="40" height="40" fill="white"/>
</clipPath>
</defs>
</svg>
