<svg width="111" height="43" viewBox="0 0 111 43" fill="none" xmlns="http://www.w3.org/2000/svg">
<rect x="31.4062" y="8.73438" width="79.2812" height="25.5313" rx="1.22204" fill="#0084CB"/>
<path d="M47.9965 20.8315V16.9516H47.4975V16.198H47.9965V12.5828H49.9518C50.6239 12.5828 51.1466 12.6744 51.52 12.8577C51.9002 13.041 52.165 13.3228 52.3144 13.703C52.4705 14.0832 52.5486 14.5652 52.5486 15.149V18.1634C52.5486 18.7609 52.4705 19.2599 52.3144 19.6604C52.1582 20.0542 51.8934 20.3495 51.52 20.5464C51.1534 20.7365 50.6476 20.8315 50.0027 20.8315H47.9965ZM49.4833 19.7826H49.9823C50.3285 19.7826 50.5764 19.7215 50.7257 19.5993C50.8751 19.4771 50.9667 19.3006 51.0007 19.0698C51.0346 18.8321 51.0516 18.5436 51.0516 18.2042V15.0472C51.0516 14.7145 51.0278 14.4464 50.9803 14.2427C50.9396 14.039 50.8411 13.8897 50.685 13.7946C50.5356 13.6996 50.298 13.652 49.9721 13.652H49.4833V16.198H50.0332V16.9516H49.4833V19.7826ZM53.1831 20.8315L54.8329 12.5828H56.4419L58.0917 20.8315H56.6965L56.3706 18.9272H54.9347L54.5987 20.8315H53.1831ZM55.0875 17.9699H56.2077L55.6476 14.5075L55.0875 17.9699ZM56.4419 11.5135C56.2586 11.5135 56.0957 11.4727 55.9531 11.3913C55.8105 11.303 55.6748 11.2215 55.5458 11.1469C55.4168 11.0654 55.281 11.0247 55.1384 11.0247C55.0026 11.0247 54.9076 11.062 54.8533 11.1367C54.8057 11.2046 54.782 11.3064 54.782 11.4422H54.0691C54.0691 11.1978 54.0929 10.9805 54.1404 10.7904C54.1947 10.5935 54.2864 10.4408 54.4154 10.3322C54.5444 10.2167 54.7175 10.159 54.9347 10.159C55.1045 10.159 55.2572 10.1998 55.393 10.2812C55.5288 10.3559 55.6612 10.434 55.7902 10.5155C55.926 10.5901 56.0651 10.6275 56.2077 10.6275C56.3231 10.6275 56.4046 10.5935 56.4521 10.5256C56.5064 10.4578 56.5336 10.3559 56.5336 10.2201H57.2057C57.2057 10.4306 57.1887 10.6343 57.1548 10.8312C57.1208 11.028 57.0462 11.191 56.9307 11.32C56.8221 11.449 56.6592 11.5135 56.4419 11.5135ZM62.2143 20.8315V13.6928H60.9006V12.5828H65.0148V13.6928H63.7215V20.8315H62.2143ZM65.7815 20.8315V12.5828H67.2785V16.035H68.9588V12.5828H70.466V20.8315H68.9588V17.1043H67.2785V20.8315H65.7815ZM73.9645 20.9436C73.3806 20.9436 72.9156 20.8349 72.5693 20.6177C72.2231 20.4004 71.9753 20.0881 71.8259 19.6808C71.6766 19.2734 71.6019 18.7914 71.6019 18.2347V15.149C71.6019 14.5923 71.6766 14.1171 71.8259 13.7233C71.9753 13.3228 72.2231 13.0173 72.5693 12.8068C72.9156 12.5963 73.3806 12.4911 73.9645 12.4911C74.5619 12.4911 75.0304 12.5963 75.3698 12.8068C75.7161 13.0173 75.9639 13.3228 76.1132 13.7233C76.2694 14.1171 76.3475 14.5923 76.3475 15.149V18.2449C76.3475 18.7948 76.2694 19.2734 76.1132 19.6808C75.9639 20.0813 75.7161 20.3936 75.3698 20.6177C75.0304 20.8349 74.5619 20.9436 73.9645 20.9436ZM73.9645 19.8335C74.2157 19.8335 74.399 19.7792 74.5144 19.6706C74.6366 19.562 74.7181 19.4126 74.7588 19.2225C74.7996 19.0324 74.8199 18.8254 74.8199 18.6013V14.8028C74.8199 14.572 74.7996 14.3649 74.7588 14.1816C74.7181 13.9983 74.6366 13.8557 74.5144 13.7539C74.399 13.6453 74.2157 13.5909 73.9645 13.5909C73.7269 13.5909 73.547 13.6453 73.4248 13.7539C73.3025 13.8557 73.2211 13.9983 73.1803 14.1816C73.1396 14.3649 73.1192 14.572 73.1192 14.8028V18.6013C73.1192 18.8254 73.1362 19.0324 73.1702 19.2225C73.2109 19.4126 73.2924 19.562 73.4146 19.6706C73.5368 19.7792 73.7201 19.8335 73.9645 19.8335ZM72.4268 11.931L73.3433 10.0572H74.5857L75.5226 11.931H74.494L73.9645 10.709L73.4451 11.931H72.4268ZM77.4583 20.8315V12.5828H78.5072L80.5134 17.2876V12.5828H81.7558V20.8315H80.7578L78.7414 15.9026V20.8315H77.4583ZM85.0708 20.9436C84.5277 20.9436 84.0966 20.8281 83.7775 20.5973C83.4584 20.3665 83.2276 20.0406 83.085 19.6197C82.9492 19.192 82.8813 18.6896 82.8813 18.1125V15.3425C82.8813 14.7519 82.9492 14.2427 83.085 13.815C83.2208 13.3873 83.4584 13.0614 83.7978 12.8373C84.1441 12.6065 84.6193 12.4911 85.2236 12.4911C85.7871 12.4911 86.2351 12.5861 86.5678 12.7762C86.9005 12.9663 87.1381 13.2413 87.2807 13.6011C87.43 13.9542 87.5047 14.3853 87.5047 14.8945V15.3222H86.0688V14.8537C86.0688 14.5889 86.0484 14.3615 86.0077 14.1714C85.9738 13.9813 85.8991 13.8387 85.7837 13.7437C85.675 13.6419 85.4951 13.5909 85.2439 13.5909C84.9791 13.5909 84.7857 13.6554 84.6635 13.7844C84.548 13.9134 84.4734 14.0832 84.4394 14.2936C84.4123 14.5041 84.3987 14.7349 84.3987 14.9861V18.4384C84.3987 18.7235 84.4224 18.9713 84.47 19.1818C84.5175 19.3922 84.6057 19.5552 84.7347 19.6706C84.8637 19.7792 85.047 19.8335 85.2847 19.8335C85.5291 19.8335 85.7158 19.7724 85.8448 19.6502C85.9738 19.528 86.062 19.3583 86.1095 19.1411C86.1639 18.9238 86.191 18.6658 86.191 18.3671V17.5931H85.305V16.646H87.5454V20.8315H86.578L86.466 20.0168C86.3573 20.2884 86.191 20.5125 85.967 20.689C85.7497 20.8587 85.451 20.9436 85.0708 20.9436ZM91.1602 20.8315V12.5828H93.1868C93.5534 12.5828 93.8827 12.6167 94.1746 12.6846C94.4733 12.7525 94.7279 12.8679 94.9384 13.0308C95.1556 13.187 95.322 13.4008 95.4374 13.6724C95.5528 13.944 95.6105 14.2868 95.6105 14.701C95.6105 15.0336 95.563 15.3188 95.4679 15.5564C95.3797 15.794 95.2473 15.9841 95.0708 16.1267C94.8942 16.2625 94.6736 16.3541 94.4088 16.4016C94.7347 16.456 95.0029 16.5714 95.2133 16.7479C95.4306 16.9176 95.5901 17.1417 95.692 17.42C95.8006 17.6984 95.8549 18.0344 95.8549 18.4282C95.8549 18.822 95.804 19.1716 95.7021 19.4771C95.6071 19.7758 95.4611 20.027 95.2642 20.2307C95.0742 20.4276 94.8331 20.577 94.5412 20.6788C94.2561 20.7806 93.92 20.8315 93.533 20.8315H91.1602ZM92.6674 19.7724H93.2377C93.6926 19.7724 94.0015 19.6638 94.1644 19.4466C94.3273 19.2225 94.4088 18.8797 94.4088 18.418C94.4088 18.0853 94.3681 17.8172 94.2866 17.6135C94.2119 17.403 94.0829 17.2469 93.8996 17.145C93.7231 17.0432 93.4855 16.9923 93.1868 16.9923H92.6674V19.7724ZM92.6674 15.9536H93.1766C93.4753 15.9536 93.7061 15.9094 93.8691 15.8212C94.032 15.7329 94.144 15.5971 94.2051 15.4138C94.273 15.2305 94.307 14.9997 94.307 14.7213C94.307 14.4294 94.2561 14.2054 94.1542 14.0492C94.0592 13.8863 93.9132 13.7776 93.7163 13.7233C93.5194 13.6622 93.2682 13.6317 92.9627 13.6317H92.6674V15.9536ZM96.3973 20.8315L98.0471 12.5828H99.6561L101.306 20.8315H99.9107L99.5848 18.9272H98.1489L97.8129 20.8315H96.3973ZM98.3017 17.9699H99.4219L98.8618 14.5075L98.3017 17.9699ZM98.4341 12.0125L99.0553 9.97573H100.45L99.2386 12.0125H98.4341ZM104.282 20.9436C103.698 20.9436 103.233 20.8349 102.887 20.6177C102.541 20.4004 102.293 20.0881 102.144 19.6808C101.994 19.2734 101.92 18.7914 101.92 18.2347V15.149C101.92 14.5923 101.994 14.1171 102.144 13.7233C102.293 13.3228 102.541 13.0173 102.887 12.8068C103.233 12.5963 103.698 12.4911 104.282 12.4911C104.88 12.4911 105.348 12.5963 105.688 12.8068C106.034 13.0173 106.282 13.3228 106.431 13.7233C106.587 14.1171 106.665 14.5923 106.665 15.149V18.2449C106.665 18.7948 106.587 19.2734 106.431 19.6808C106.282 20.0813 106.034 20.3936 105.688 20.6177C105.348 20.8349 104.88 20.9436 104.282 20.9436ZM104.282 19.8335C104.533 19.8335 104.717 19.7792 104.832 19.6706C104.954 19.562 105.036 19.4126 105.077 19.2225C105.117 19.0324 105.138 18.8254 105.138 18.6013V14.8028C105.138 14.572 105.117 14.3649 105.077 14.1816C105.036 13.9983 104.954 13.8557 104.832 13.7539C104.717 13.6453 104.533 13.5909 104.282 13.5909C104.045 13.5909 103.865 13.6453 103.743 13.7539C103.62 13.8557 103.539 13.9983 103.498 14.1816C103.457 14.3649 103.437 14.572 103.437 14.8028V18.6013C103.437 18.8254 103.454 19.0324 103.488 19.2225C103.529 19.4126 103.61 19.562 103.732 19.6706C103.855 19.7792 104.038 19.8335 104.282 19.8335Z" fill="#F7F7F7"/>
<path d="M49.6711 28.1566H48.4234L48.4166 27.6325H49.5493C49.7364 27.6325 49.8999 27.6009 50.0396 27.5378C50.1794 27.4747 50.2876 27.3845 50.3642 27.2673C50.4431 27.1478 50.4826 27.0058 50.4826 26.8412C50.4826 26.6609 50.4476 26.5144 50.3778 26.4017C50.3101 26.2867 50.2053 26.2033 50.0633 26.1514C49.9235 26.0973 49.7455 26.0703 49.529 26.0703H48.5688V30.4592H47.9162V25.5361H49.529C49.7815 25.5361 50.0069 25.562 50.2053 25.6138C50.4037 25.6634 50.5716 25.7423 50.7091 25.8505C50.8489 25.9565 50.9548 26.0917 51.027 26.2563C51.0991 26.4208 51.1352 26.6181 51.1352 26.848C51.1352 27.0509 51.0833 27.2346 50.9796 27.3991C50.8759 27.5615 50.7317 27.6944 50.5468 27.7981C50.3642 27.9018 50.1501 27.9683 49.9044 27.9976L49.6711 28.1566ZM49.6406 30.4592H48.1664L48.5349 29.9284H49.6406C49.848 29.9284 50.0238 29.8923 50.1681 29.8202C50.3146 29.748 50.4262 29.6466 50.5029 29.5158C50.5795 29.3828 50.6178 29.2262 50.6178 29.0458C50.6178 28.8633 50.5851 28.7055 50.5198 28.5725C50.4544 28.4395 50.3518 28.3369 50.2121 28.2648C50.0723 28.1926 49.892 28.1566 49.6711 28.1566H48.7412L48.748 27.6325H50.0193L50.158 27.8218C50.3947 27.8421 50.5953 27.9097 50.7598 28.0247C50.9244 28.1374 51.0495 28.2817 51.1352 28.4575C51.2231 28.6333 51.267 28.8272 51.267 29.0391C51.267 29.3457 51.1994 29.6049 51.0642 29.8168C50.9312 30.0264 50.7429 30.1865 50.4995 30.2969C50.256 30.4051 49.9697 30.4592 49.6406 30.4592ZM56.0619 27.8421V28.1532C56.0619 28.5229 56.0157 28.8542 55.9233 29.1473C55.8308 29.4403 55.6978 29.6894 55.5243 29.8946C55.3507 30.0997 55.1422 30.2564 54.8987 30.3646C54.6575 30.4728 54.387 30.5269 54.0872 30.5269C53.7964 30.5269 53.5293 30.4728 53.2858 30.3646C53.0446 30.2564 52.835 30.0997 52.6569 29.8946C52.4811 29.6894 52.3447 29.4403 52.2478 29.1473C52.1508 28.8542 52.1024 28.5229 52.1024 28.1532V27.8421C52.1024 27.4724 52.1497 27.1422 52.2444 26.8514C52.3413 26.5583 52.4777 26.3092 52.6535 26.1041C52.8294 25.8967 53.0379 25.7389 53.2791 25.6307C53.5225 25.5225 53.7896 25.4684 54.0804 25.4684C54.3802 25.4684 54.6508 25.5225 54.892 25.6307C55.1354 25.7389 55.3439 25.8967 55.5175 26.1041C55.6933 26.3092 55.8274 26.5583 55.9199 26.8514C56.0145 27.1422 56.0619 27.4724 56.0619 27.8421ZM55.4161 28.1532V27.8353C55.4161 27.5423 55.3856 27.2831 55.3248 27.0576C55.2662 26.8322 55.1794 26.6429 55.0644 26.4896C54.9494 26.3363 54.8085 26.2202 54.6417 26.1413C54.4772 26.0624 54.2901 26.023 54.0804 26.023C53.8776 26.023 53.6938 26.0624 53.5293 26.1413C53.367 26.2202 53.2272 26.3363 53.11 26.4896C52.995 26.6429 52.906 26.8322 52.8429 27.0576C52.7798 27.2831 52.7482 27.5423 52.7482 27.8353V28.1532C52.7482 28.4485 52.7798 28.71 52.8429 28.9376C52.906 29.1631 52.9962 29.3535 53.1134 29.5091C53.2329 29.6624 53.3737 29.7785 53.5361 29.8574C53.7006 29.9363 53.8843 29.9757 54.0872 29.9757C54.2991 29.9757 54.4873 29.9363 54.6519 29.8574C54.8164 29.7785 54.9551 29.6624 55.0678 29.5091C55.1827 29.3535 55.2695 29.1631 55.3281 28.9376C55.3868 28.71 55.4161 28.4485 55.4161 28.1532ZM54.2799 24.2072L55.1185 25.1303V25.1641H54.5978L54.0906 24.5927L53.5868 25.1641H53.0728V25.1269L53.9012 24.2072H54.2799ZM53.7017 31.291C53.7017 31.1896 53.7322 31.1039 53.793 31.034C53.8561 30.9642 53.9486 30.9292 54.0703 30.9292C54.1898 30.9292 54.2811 30.9642 54.3442 31.034C54.4096 31.1039 54.4422 31.1896 54.4422 31.291C54.4422 31.388 54.4096 31.4702 54.3442 31.5379C54.2811 31.6077 54.1898 31.6427 54.0703 31.6427C53.9486 31.6427 53.8561 31.6077 53.793 31.5379C53.7322 31.4702 53.7017 31.388 53.7017 31.291ZM61.8104 28.8937H62.4596C62.4258 29.2048 62.3368 29.4832 62.1925 29.7289C62.0482 29.9746 61.8442 30.1696 61.5805 30.3138C61.3167 30.4558 60.9876 30.5269 60.5931 30.5269C60.3046 30.5269 60.042 30.4728 59.8053 30.3646C59.5709 30.2564 59.3691 30.1031 59.2001 29.9047C59.031 29.7041 58.9002 29.464 58.8078 29.1845C58.7177 28.9027 58.6726 28.5894 58.6726 28.2445V27.7542C58.6726 27.4093 58.7177 27.0971 58.8078 26.8176C58.9002 26.5358 59.0321 26.2946 59.2034 26.094C59.377 25.8933 59.5855 25.7389 59.829 25.6307C60.0724 25.5225 60.3463 25.4684 60.6506 25.4684C61.0226 25.4684 61.337 25.5383 61.594 25.6781C61.851 25.8178 62.0505 26.0117 62.1925 26.2597C62.3368 26.5054 62.4258 26.7905 62.4596 27.1151H61.8104C61.7789 26.8852 61.7202 26.6879 61.6346 26.5234C61.5489 26.3566 61.4272 26.2281 61.2694 26.1379C61.1116 26.0478 60.9054 26.0027 60.6506 26.0027C60.432 26.0027 60.2392 26.0444 60.0724 26.1278C59.9079 26.2112 59.7692 26.3295 59.6565 26.4828C59.5461 26.6361 59.4627 26.8198 59.4063 27.034C59.35 27.2481 59.3218 27.4859 59.3218 27.7474V28.2445C59.3218 28.4857 59.3466 28.7122 59.3962 28.9241C59.448 29.136 59.5258 29.322 59.6295 29.482C59.7332 29.6421 59.865 29.7683 60.0251 29.8607C60.1851 29.9509 60.3745 29.996 60.5931 29.996C60.8704 29.996 61.0913 29.952 61.2559 29.8641C61.4204 29.7762 61.5444 29.65 61.6278 29.4854C61.7135 29.3209 61.7743 29.1236 61.8104 28.8937ZM67.1801 27.8421V28.1532C67.1801 28.5229 67.1339 28.8542 67.0415 29.1473C66.949 29.4403 66.816 29.6894 66.6425 29.8946C66.4689 30.0997 66.2604 30.2564 66.0169 30.3646C65.7757 30.4728 65.5052 30.5269 65.2054 30.5269C64.9146 30.5269 64.6475 30.4728 64.404 30.3646C64.1628 30.2564 63.9532 30.0997 63.7751 29.8946C63.5993 29.6894 63.4629 29.4403 63.366 29.1473C63.269 28.8542 63.2206 28.5229 63.2206 28.1532V27.8421C63.2206 27.4724 63.2679 27.1422 63.3626 26.8514C63.4595 26.5583 63.5959 26.3092 63.7717 26.1041C63.9476 25.8967 64.1561 25.7389 64.3973 25.6307C64.6407 25.5225 64.9078 25.4684 65.1986 25.4684C65.4984 25.4684 65.769 25.5225 66.0102 25.6307C66.2536 25.7389 66.4621 25.8967 66.6357 26.1041C66.8115 26.3092 66.9456 26.5583 67.0381 26.8514C67.1327 27.1422 67.1801 27.4724 67.1801 27.8421ZM66.5343 28.1532V27.8353C66.5343 27.5423 66.5038 27.2831 66.443 27.0576C66.3844 26.8322 66.2976 26.6429 66.1826 26.4896C66.0676 26.3363 65.9267 26.2202 65.7599 26.1413C65.5954 26.0624 65.4083 26.023 65.1986 26.023C64.9958 26.023 64.812 26.0624 64.6475 26.1413C64.4852 26.2202 64.3454 26.3363 64.2282 26.4896C64.1132 26.6429 64.0242 26.8322 63.9611 27.0576C63.898 27.2831 63.8664 27.5423 63.8664 27.8353V28.1532C63.8664 28.4485 63.898 28.71 63.9611 28.9376C64.0242 29.1631 64.1144 29.3535 64.2316 29.5091C64.3511 29.6624 64.4919 29.7785 64.6543 29.8574C64.8188 29.9363 65.0025 29.9757 65.2054 29.9757C65.4173 29.9757 65.6055 29.9363 65.7701 29.8574C65.9346 29.7785 66.0733 29.6624 66.186 29.5091C66.3009 29.3535 66.3877 29.1631 66.4463 28.9376C66.505 28.71 66.5343 28.4485 66.5343 28.1532ZM65.3981 24.2072L66.2367 25.1303V25.1641H65.716L65.2088 24.5927L64.705 25.1641H64.191V25.1269L65.0194 24.2072H65.3981ZM71.9851 25.5361V30.4592H71.3291L68.8506 26.662V30.4592H68.198V25.5361H68.8506L71.3392 29.3434V25.5361H71.9851ZM76.8205 28.0078V29.81C76.7596 29.9002 76.6627 30.0016 76.5297 30.1143C76.3967 30.2248 76.213 30.3217 75.9786 30.4051C75.7464 30.4863 75.4466 30.5269 75.0791 30.5269C74.7793 30.5269 74.5032 30.475 74.2507 30.3713C74.0005 30.2654 73.783 30.1121 73.5981 29.9115C73.4155 29.7086 73.2735 29.4629 73.1721 29.1743C73.0729 28.8835 73.0233 28.5544 73.0233 28.187V27.8049C73.0233 27.4375 73.0661 27.1095 73.1518 26.8209C73.2397 26.5324 73.3682 26.2878 73.5373 26.0872C73.7063 25.8843 73.9137 25.731 74.1594 25.6273C74.4051 25.5214 74.6869 25.4684 75.0047 25.4684C75.3812 25.4684 75.6957 25.5338 75.9481 25.6645C76.2028 25.793 76.4012 25.9711 76.5432 26.1988C76.6875 26.4265 76.7799 26.6857 76.8205 26.9765H76.1679C76.1386 26.7984 76.08 26.6361 75.9921 26.4896C75.9064 26.3431 75.7836 26.2258 75.6235 26.1379C75.4635 26.0478 75.2572 26.0027 75.0047 26.0027C74.7771 26.0027 74.5798 26.0444 74.413 26.1278C74.2462 26.2112 74.1087 26.3307 74.0005 26.4862C73.8923 26.6417 73.8111 26.83 73.757 27.0509C73.7052 27.2718 73.6793 27.5209 73.6793 27.7981V28.187C73.6793 28.471 73.712 28.7246 73.7773 28.9478C73.845 29.171 73.9408 29.3614 74.0647 29.5192C74.1887 29.6748 74.3364 29.7931 74.5077 29.8743C74.6813 29.9554 74.8729 29.996 75.0825 29.996C75.3147 29.996 75.5029 29.9768 75.6472 29.9385C75.7915 29.8979 75.9042 29.8506 75.9853 29.7965C76.0665 29.7401 76.1285 29.6872 76.1713 29.6376V28.5353H75.0318V28.0078H76.8205ZM81.3856 25.5361V30.4592H80.7431V25.5361H81.3856ZM82.968 25.5361V26.0703H79.1641V25.5361H82.968ZM86.9547 27.6527V28.1836H84.2903V27.6527H86.9547ZM84.3917 25.5361V30.4592H83.7391V25.5361H84.3917ZM87.5228 25.5361V30.4592H86.8736V25.5361H87.5228ZM92.9094 25.2588H93.4436C93.4436 25.5766 93.3963 25.8438 93.3016 26.0602C93.2092 26.2766 93.0593 26.44 92.8519 26.5504C92.6468 26.6609 92.374 26.7161 92.0336 26.7161V26.2597C92.2635 26.2597 92.4416 26.2225 92.5679 26.1481C92.6963 26.0714 92.7854 25.9587 92.835 25.8099C92.8846 25.6612 92.9094 25.4774 92.9094 25.2588ZM91.5399 25.5361H92.1892V28.8666C92.1892 29.2363 92.1069 29.544 91.9423 29.7897C91.7778 30.0354 91.5591 30.2203 91.2863 30.3443C91.0158 30.466 90.7217 30.5269 90.4038 30.5269C90.0702 30.5269 89.7681 30.466 89.4976 30.3443C89.2294 30.2203 89.0164 30.0354 88.8586 29.7897C88.703 29.544 88.6253 29.2363 88.6253 28.8666V25.5361H89.2711V28.8666C89.2711 29.1236 89.3184 29.3355 89.4131 29.5023C89.5078 29.6691 89.6397 29.7931 89.8087 29.8743C89.98 29.9554 90.1784 29.996 90.4038 29.996C90.6315 29.996 90.8299 29.9554 90.9989 29.8743C91.1703 29.7931 91.3033 29.6691 91.3979 29.5023C91.4926 29.3355 91.5399 29.1236 91.5399 28.8666V25.5361ZM97.3018 25.0762H97.8665C97.8665 25.367 97.8192 25.6149 97.7245 25.8201C97.6298 26.0252 97.4867 26.1819 97.2951 26.2901C97.1057 26.396 96.8679 26.449 96.5816 26.449V25.9925C96.7597 25.9925 96.9006 25.9565 97.0043 25.8843C97.1102 25.8122 97.1858 25.7074 97.2308 25.5699C97.2782 25.4324 97.3018 25.2678 97.3018 25.0762ZM97.312 27.8421V28.1532C97.312 28.5229 97.2658 28.8542 97.1734 29.1473C97.0809 29.4403 96.9479 29.6894 96.7744 29.8946C96.6008 30.0997 96.3923 30.2564 96.1488 30.3646C95.9076 30.4728 95.6371 30.5269 95.3373 30.5269C95.1051 30.5269 94.8876 30.4919 94.6847 30.422C94.4818 30.3522 94.2981 30.2507 94.1336 30.1177C93.9713 29.9825 93.8315 29.819 93.7143 29.6274C93.5971 29.4336 93.5069 29.2138 93.4438 28.9681C93.3829 28.7201 93.3525 28.4485 93.3525 28.1532V27.8421C93.3525 27.4724 93.3998 27.1422 93.4945 26.8514C93.5914 26.5583 93.7278 26.3092 93.9036 26.1041C94.0795 25.8967 94.288 25.7389 94.5292 25.6307C94.7726 25.5225 95.0398 25.4684 95.3305 25.4684C95.5695 25.4684 95.7915 25.5034 95.9967 25.5732C96.2018 25.6431 96.3844 25.7457 96.5444 25.8809C96.7067 26.0139 96.8454 26.1774 96.9603 26.3712C97.0753 26.5628 97.1621 26.7826 97.2207 27.0306C97.2816 27.2763 97.312 27.5468 97.312 27.8421ZM96.6662 28.1532V27.8353C96.6662 27.6009 96.647 27.389 96.6087 27.1997C96.5704 27.008 96.514 26.839 96.4396 26.6925C96.3652 26.5459 96.2739 26.4231 96.1657 26.3239C96.0575 26.2247 95.9335 26.1503 95.7938 26.1007C95.654 26.0489 95.4996 26.023 95.3305 26.023C95.1299 26.023 94.9473 26.0624 94.7828 26.1413C94.6205 26.2202 94.4807 26.3363 94.3635 26.4896C94.2463 26.6429 94.1561 26.8322 94.093 27.0576C94.0299 27.2831 93.9983 27.5423 93.9983 27.8353V28.1532C93.9983 28.3899 94.0186 28.604 94.0592 28.7956C94.0997 28.9872 94.1584 29.1574 94.235 29.3062C94.3139 29.4527 94.4074 29.5756 94.5156 29.6748C94.6261 29.774 94.7501 29.8495 94.8876 29.9013C95.0274 29.9509 95.1773 29.9757 95.3373 29.9757C95.5492 29.9757 95.7374 29.9363 95.902 29.8574C96.0665 29.7785 96.2052 29.6624 96.3179 29.5091C96.4328 29.3535 96.5196 29.1631 96.5782 28.9376C96.6369 28.71 96.6662 28.4485 96.6662 28.1532ZM102.168 25.5361V30.4592H101.512L99.0332 26.662V30.4592H98.3806V25.5361H99.0332L101.522 29.3434V25.5361H102.168ZM107.003 28.0078V29.81C106.942 29.9002 106.845 30.0016 106.712 30.1143C106.579 30.2248 106.396 30.3217 106.161 30.4051C105.929 30.4863 105.629 30.5269 105.262 30.5269C104.962 30.5269 104.686 30.475 104.433 30.3713C104.183 30.2654 103.966 30.1121 103.781 29.9115C103.598 29.7086 103.456 29.4629 103.355 29.1743C103.256 28.8835 103.206 28.5544 103.206 28.187V27.8049C103.206 27.4375 103.249 27.1095 103.334 26.8209C103.422 26.5324 103.551 26.2878 103.72 26.0872C103.889 25.8843 104.096 25.731 104.342 25.6273C104.588 25.5214 104.87 25.4684 105.187 25.4684C105.564 25.4684 105.878 25.5338 106.131 25.6645C106.385 25.793 106.584 25.9711 106.726 26.1988C106.87 26.4265 106.963 26.6857 107.003 26.9765H106.351C106.321 26.7984 106.263 26.6361 106.175 26.4896C106.089 26.3431 105.966 26.2258 105.806 26.1379C105.646 26.0478 105.44 26.0027 105.187 26.0027C104.96 26.0027 104.762 26.0444 104.596 26.1278C104.429 26.2112 104.291 26.3307 104.183 26.4862C104.075 26.6417 103.994 26.83 103.94 27.0509C103.888 27.2718 103.862 27.5209 103.862 27.7981V28.187C103.862 28.471 103.895 28.7246 103.96 28.9478C104.028 29.171 104.123 29.3614 104.247 29.5192C104.371 29.6748 104.519 29.7931 104.69 29.8743C104.864 29.9554 105.055 29.996 105.265 29.996C105.497 29.996 105.686 29.9768 105.83 29.9385C105.974 29.8979 106.087 29.8506 106.168 29.7965C106.249 29.7401 106.311 29.6872 106.354 29.6376V28.5353H105.214V28.0078H107.003Z" fill="#F7F7F7"/>
<path d="M47.6528 23.2307H106.778" stroke="#F7F7F7" stroke-width="0.611021"/>
<ellipse cx="22" cy="21.5" rx="21.5" ry="21.5" fill="#F7F7F7"/>
<ellipse cx="22" cy="21.5" rx="16.7969" ry="16.7969" fill="#0084CB"/>
<rect x="5.20312" y="21.2063" width="5.18484" height="18.0386" rx="0.509184" transform="rotate(-46.1295 5.20312 21.2063)" fill="#F7F7F7"/>
<rect x="35.6763" y="8.50342" width="5.18484" height="29.9594" rx="0.509184" transform="rotate(44.6773 35.6763 8.50342)" fill="#F7F7F7"/>
</svg>
