<svg xmlns="http://www.w3.org/2000/svg" width="19" height="18" viewBox="0 0 19 18" fill="none">
            <path fill-rule="evenodd" clip-rule="evenodd" d="M4.25 2.8125C3.73223 2.8125 3.3125 3.23223 3.3125 3.75C3.3125 10.0668 8.43324 15.1875 14.75 15.1875C15.2678 15.1875 15.6875 14.7678 15.6875 14.25V13.0155C15.6875 12.6322 15.4541 12.2875 15.0982 12.1451L13.5726 11.5349C13.1199 11.3538 12.6039 11.5499 12.3859 11.986L12.2531 12.2516C12.1397 12.4784 11.8884 12.6013 11.6397 12.5516L11.75 12C11.6397 12.5516 11.6399 12.5516 11.6397 12.5516L11.6389 12.5514L11.638 12.5512L11.6356 12.5508L11.6289 12.5493L11.6073 12.5447C11.5894 12.5408 11.5647 12.5351 11.5336 12.5275C11.4713 12.5124 11.3836 12.4896 11.2749 12.4576C11.0576 12.3937 10.755 12.2927 10.4034 12.142C9.70281 11.8418 8.79207 11.3376 7.97725 10.5227C7.16244 9.70793 6.65824 8.79719 6.35798 8.09658C6.2073 7.74498 6.10628 7.44237 6.04239 7.22512C6.0104 7.11638 5.98761 7.02866 5.97248 6.96644C5.96491 6.93533 5.95925 6.91056 5.95531 6.89269L5.95065 6.87113L5.94924 6.86435L5.94876 6.86199L5.94857 6.86107C5.94854 6.86089 5.94842 6.86032 6.5 6.75L5.94842 6.86032C5.89868 6.61158 6.02156 6.36032 6.24844 6.24688L6.51395 6.11413C6.95006 5.89607 7.14622 5.38013 6.96514 4.92742L6.3549 3.40182C6.21253 3.04589 5.8678 2.8125 5.48445 2.8125H4.25ZM7.16242 7.04032C8.01914 6.52297 8.38734 5.45378 8.00968 4.50961L7.39943 2.98401C7.08622 2.20096 6.32782 1.6875 5.48445 1.6875H4.25C3.11091 1.6875 2.1875 2.61091 2.1875 3.75C2.1875 10.6881 7.81192 16.3125 14.75 16.3125C15.8891 16.3125 16.8125 15.3891 16.8125 14.25V13.0155C16.8125 12.1722 16.299 11.4138 15.516 11.1006L13.9904 10.4903C13.0462 10.1127 11.977 10.4809 11.4597 11.3376C11.2929 11.2843 11.0833 11.2094 10.8466 11.108C10.2347 10.8457 9.45793 10.4124 8.77275 9.72725C8.08756 9.04207 7.65426 8.26531 7.39202 7.65342C7.29058 7.41673 7.21575 7.20706 7.16242 7.04032Z" fill="#EF2827"/>
        </svg>