<svg width="25" height="24" viewBox="0 0 25 24" fill="none" xmlns="http://www.w3.org/2000/svg">
<g id="Bold / Essentional, UI / Danger Triangle">
<path id="Vector" fill-rule="evenodd" clip-rule="evenodd" d="M5.46601 10.7615C8.38437 5.58716 9.84355 3 12.1543 3C14.465 3 15.9242 5.58716 18.8426 10.7615L19.2062 11.4063C21.6314 15.7061 22.844 17.856 21.748 19.428C20.6521 21 17.9407 21 12.518 21H11.7906C6.36786 21 3.65647 21 2.56055 19.428C1.46464 17.856 2.67721 15.7061 5.10235 11.4063L5.46601 10.7615ZM12.1543 7.25C12.5685 7.25 12.9043 7.58579 12.9043 8V13C12.9043 13.4142 12.5685 13.75 12.1543 13.75C11.7401 13.75 11.4043 13.4142 11.4043 13V8C11.4043 7.58579 11.7401 7.25 12.1543 7.25ZM12.1543 17C12.7066 17 13.1543 16.5523 13.1543 16C13.1543 15.4477 12.7066 15 12.1543 15C11.602 15 11.1543 15.4477 11.1543 16C11.1543 16.5523 11.602 17 12.1543 17Z" fill="#FD3426"/>
</g>
</svg>
