<svg width="16" height="18" viewBox="0 0 16 18" fill="none" xmlns="http://www.w3.org/2000/svg">
<g id="Delete">
<path id="Stroke 1" d="M14.1042 6.89062C14.1042 6.89062 13.6517 12.5031 13.3892 14.8673C13.2642 15.9965 12.5667 16.6581 11.4242 16.679C9.24999 16.7181 7.07332 16.7206 4.89999 16.6748C3.80082 16.6523 3.11499 15.9823 2.99249 14.8731C2.72832 12.4881 2.27832 6.89062 2.27832 6.89062" stroke="#45464E" stroke-width="1.5" stroke-linecap="round" stroke-linejoin="round"/>
<path id="Stroke 3" d="M15.2567 4.19987H1.125" stroke="#45464E" stroke-width="1.5" stroke-linecap="round" stroke-linejoin="round"/>
<path id="Stroke 5" d="M12.5335 4.20047C11.8793 4.20047 11.316 3.73797 11.1877 3.09714L10.9852 2.0838C10.8602 1.6163 10.4368 1.29297 9.95432 1.29297H6.42682C5.94432 1.29297 5.52099 1.6163 5.39599 2.0838L5.19349 3.09714C5.06516 3.73797 4.50182 4.20047 3.84766 4.20047" stroke="#45464E" stroke-width="1.5" stroke-linecap="round" stroke-linejoin="round"/>
</g>
</svg>
