<svg width="133" height="40" viewBox="0 0 133 40" fill="none" xmlns="http://www.w3.org/2000/svg">
<rect x="0.5" y="0.5" width="132" height="39" rx="1.5" stroke="#333436"/>
<circle cx="22" cy="20" r="9.25" stroke="#333436" stroke-width="1.5"/>
<path d="M23.5686 25.6833L21.0718 21.522H20.1336V25.6833H18V15H22.0706C23.3114 15 24.2546 15.3026 24.9003 15.9079C25.556 16.5132 25.8839 17.3102 25.8839 18.2988C25.8839 19.1059 25.6569 19.7818 25.2029 20.3265C24.759 20.8713 24.1134 21.2345 23.266 21.416L25.9293 25.6833H23.5686ZM20.1336 20.0541H21.889C23.1096 20.0541 23.72 19.5144 23.72 18.435C23.72 17.9205 23.5686 17.522 23.266 17.2396C22.9734 16.947 22.5144 16.8007 21.889 16.8007H20.1336V20.0541Z" fill="#333436"/>
<path d="M41.224 11.84C40.92 11.84 40.6453 11.8933 40.4 12C40.1547 12.1013 39.9467 12.2533 39.776 12.456C39.6053 12.6533 39.4747 12.896 39.384 13.184C39.2933 13.4667 39.248 13.7867 39.248 14.144C39.248 14.6133 39.32 15.0213 39.464 15.368C39.6133 15.7147 39.832 15.9813 40.12 16.168C40.4133 16.3547 40.7787 16.448 41.216 16.448C41.4667 16.448 41.704 16.4267 41.928 16.384C42.152 16.3413 42.3707 16.288 42.584 16.224V16.848C42.3707 16.928 42.1493 16.9867 41.92 17.024C41.696 17.0613 41.4267 17.08 41.112 17.08C40.5307 17.08 40.0453 16.96 39.656 16.72C39.2667 16.48 38.9733 16.1387 38.776 15.696C38.584 15.2533 38.488 14.7333 38.488 14.136C38.488 13.704 38.5467 13.3093 38.664 12.952C38.7867 12.5947 38.9627 12.2853 39.192 12.024C39.4267 11.7627 39.7147 11.5627 40.056 11.424C40.3973 11.28 40.7893 11.208 41.232 11.208C41.5253 11.208 41.808 11.2373 42.08 11.296C42.352 11.3547 42.5947 11.4373 42.808 11.544L42.52 12.152C42.344 12.072 42.1467 12 41.928 11.936C41.7147 11.872 41.48 11.84 41.224 11.84ZM47.3187 12.712V17H46.7427L46.6387 16.432H46.6067C46.516 16.5813 46.3987 16.704 46.2547 16.8C46.1107 16.896 45.9534 16.9653 45.7827 17.008C45.612 17.056 45.4334 17.08 45.2467 17.08C44.9054 17.08 44.6174 17.0267 44.3827 16.92C44.1534 16.808 43.98 16.6373 43.8627 16.408C43.7454 16.1787 43.6867 15.8827 43.6867 15.52V12.712H44.3987V15.472C44.3987 15.8133 44.476 16.0693 44.6307 16.24C44.7854 16.4107 45.0254 16.496 45.3507 16.496C45.6707 16.496 45.9214 16.4373 46.1027 16.32C46.2894 16.1973 46.42 16.0213 46.4947 15.792C46.5747 15.5573 46.6147 15.2747 46.6147 14.944V12.712H47.3187ZM45.3987 18.408C45.2867 18.408 45.188 18.3707 45.1027 18.296C45.0227 18.2213 44.9827 18.1093 44.9827 17.96C44.9827 17.8053 45.0227 17.6907 45.1027 17.616C45.188 17.5467 45.2867 17.512 45.3987 17.512C45.5107 17.512 45.6067 17.5467 45.6867 17.616C45.772 17.6907 45.8147 17.8053 45.8147 17.96C45.8147 18.1093 45.772 18.2213 45.6867 18.296C45.6067 18.3707 45.5107 18.408 45.3987 18.408ZM50.4 17.08C50.0213 17.08 49.6827 17.0027 49.384 16.848C49.0907 16.6933 48.8587 16.4533 48.688 16.128C48.5227 15.8027 48.44 15.3867 48.44 14.88C48.44 14.352 48.528 13.9227 48.704 13.592C48.88 13.2613 49.1173 13.0187 49.416 12.864C49.72 12.7093 50.064 12.632 50.448 12.632C50.6667 12.632 50.8773 12.656 51.08 12.704C51.2827 12.7467 51.448 12.8 51.576 12.864L51.36 13.448C51.232 13.4 51.0827 13.3547 50.912 13.312C50.7413 13.2693 50.5813 13.248 50.432 13.248C50.144 13.248 49.9067 13.3093 49.72 13.432C49.5333 13.5547 49.3947 13.736 49.304 13.976C49.2133 14.216 49.168 14.5147 49.168 14.872C49.168 15.2133 49.2133 15.504 49.304 15.744C49.3947 15.984 49.5307 16.1653 49.712 16.288C49.8933 16.4107 50.12 16.472 50.392 16.472C50.6267 16.472 50.832 16.448 51.008 16.4C51.1893 16.352 51.3547 16.2933 51.504 16.224V16.848C51.36 16.9227 51.2 16.9787 51.024 17.016C50.8533 17.0587 50.6453 17.08 50.4 17.08ZM57.9379 15.472C57.9379 15.8133 57.8552 16.104 57.6899 16.344C57.5245 16.5787 57.2872 16.76 56.9779 16.888C56.6739 17.016 56.3139 17.08 55.8979 17.08C55.6845 17.08 55.4792 17.0693 55.2819 17.048C55.0899 17.0267 54.9139 16.9973 54.7539 16.96C54.5939 16.9173 54.4525 16.8667 54.3299 16.808V16.12C54.5219 16.2053 54.7592 16.2827 55.0419 16.352C55.3299 16.4213 55.6259 16.456 55.9299 16.456C56.2125 16.456 56.4499 16.4187 56.6419 16.344C56.8339 16.2693 56.9779 16.1627 57.0739 16.024C57.1699 15.8853 57.2179 15.7227 57.2179 15.536C57.2179 15.3493 57.1779 15.192 57.0979 15.064C57.0179 14.936 56.8792 14.8187 56.6819 14.712C56.4899 14.6 56.2205 14.4827 55.8739 14.36C55.6285 14.2693 55.4125 14.1733 55.2259 14.072C55.0445 13.9653 54.8925 13.8453 54.7699 13.712C54.6472 13.5787 54.5539 13.4267 54.4899 13.256C54.4312 13.0853 54.4019 12.888 54.4019 12.664C54.4019 12.36 54.4792 12.1013 54.6339 11.888C54.7885 11.6693 55.0019 11.5013 55.2739 11.384C55.5512 11.2667 55.8685 11.208 56.2259 11.208C56.5405 11.208 56.8285 11.2373 57.0899 11.296C57.3512 11.3547 57.5885 11.432 57.8019 11.528L57.5779 12.144C57.3805 12.0587 57.1645 11.9867 56.9299 11.928C56.7005 11.8693 56.4605 11.84 56.2099 11.84C55.9699 11.84 55.7699 11.8747 55.6099 11.944C55.4499 12.0133 55.3299 12.112 55.2499 12.24C55.1699 12.3627 55.1299 12.5067 55.1299 12.672C55.1299 12.864 55.1699 13.024 55.2499 13.152C55.3299 13.28 55.4605 13.3947 55.6419 13.496C55.8232 13.5973 56.0685 13.7067 56.3779 13.824C56.7139 13.9467 56.9965 14.08 57.2259 14.224C57.4605 14.3627 57.6365 14.5307 57.7539 14.728C57.8765 14.9253 57.9379 15.1733 57.9379 15.472ZM62.7205 14.848C62.7205 15.3227 62.6378 15.728 62.4725 16.064C62.3125 16.3947 62.0832 16.648 61.7845 16.824C61.4858 16.9947 61.1312 17.08 60.7205 17.08C60.3418 17.08 60.0032 16.9947 59.7045 16.824C59.4112 16.648 59.1792 16.3947 59.0085 16.064C58.8378 15.728 58.7525 15.3227 58.7525 14.848C58.7525 14.1387 58.9312 13.592 59.2885 13.208C59.6458 12.824 60.1312 12.632 60.7445 12.632C61.0272 12.632 61.2858 12.68 61.5205 12.776C61.7605 12.872 61.9658 13.008 62.1365 13.184C62.2965 13.136 62.4138 13.0587 62.4885 12.952C62.5685 12.84 62.6192 12.7067 62.6405 12.552C62.6618 12.3973 62.6725 12.232 62.6725 12.056H63.4245L63.4805 12.144C63.4325 12.3893 63.3658 12.608 63.2805 12.8C63.2005 12.992 63.0938 13.1573 62.9605 13.296C62.8272 13.4293 62.6565 13.5333 62.4485 13.608C62.5338 13.7733 62.6005 13.96 62.6485 14.168C62.6965 14.376 62.7205 14.6027 62.7205 14.848ZM59.4805 14.848C59.4805 15.2053 59.5232 15.5067 59.6085 15.752C59.6992 15.9973 59.8352 16.184 60.0165 16.312C60.2032 16.4347 60.4432 16.496 60.7365 16.496C61.0298 16.496 61.2672 16.4347 61.4485 16.312C61.6352 16.184 61.7712 15.9973 61.8565 15.752C61.9472 15.5067 61.9925 15.2053 61.9925 14.848C61.9925 14.4907 61.9472 14.192 61.8565 13.952C61.7712 13.712 61.6352 13.5307 61.4485 13.408C61.2618 13.2853 61.0218 13.224 60.7285 13.224C60.2912 13.224 59.9738 13.36 59.7765 13.632C59.5792 13.904 59.4805 14.3093 59.4805 14.848ZM61.5445 11.16C61.5445 11.3627 61.4832 11.52 61.3605 11.632C61.2378 11.7387 61.0832 11.8133 60.8965 11.856L60.8565 12.28H60.4245L60.3685 11.6C60.5605 11.568 60.7125 11.5227 60.8245 11.464C60.9418 11.4 61.0005 11.3067 61.0005 11.184C61.0005 11.056 60.9498 10.9707 60.8485 10.928C60.7525 10.8853 60.6298 10.864 60.4805 10.864C60.4112 10.864 60.3392 10.8667 60.2645 10.872C60.1952 10.8773 60.1392 10.8853 60.0965 10.896V10.48C60.1445 10.464 60.2032 10.4533 60.2725 10.448C60.3472 10.4373 60.4352 10.432 60.5365 10.432C60.8565 10.432 61.1045 10.4907 61.2805 10.608C61.4565 10.7253 61.5445 10.9093 61.5445 11.16ZM66.7043 12.704C66.7043 12.8053 66.699 12.9093 66.6883 13.016C66.683 13.1227 66.675 13.2187 66.6643 13.304H66.7123C66.803 13.1547 66.9176 13.032 67.0563 12.936C67.195 12.84 67.3496 12.768 67.5203 12.72C67.691 12.6667 67.867 12.64 68.0483 12.64C68.395 12.64 68.683 12.696 68.9123 12.808C69.147 12.9147 69.323 13.0827 69.4403 13.312C69.5576 13.5413 69.6163 13.84 69.6163 14.208V17H68.9203V14.256C68.9203 13.9093 68.843 13.6507 68.6883 13.48C68.5336 13.3093 68.291 13.224 67.9603 13.224C67.6403 13.224 67.3896 13.2853 67.2083 13.408C67.027 13.5253 66.8963 13.7013 66.8163 13.936C66.7416 14.1653 66.7043 14.448 66.7043 14.784V17H66.0003V10.92H66.7043V12.704ZM75.9296 12.136C75.8976 12.3227 75.8496 12.504 75.7856 12.68C75.727 12.856 75.6443 13.016 75.5376 13.16C75.4363 13.2987 75.303 13.416 75.1376 13.512C74.9723 13.6027 74.7696 13.6613 74.5296 13.688V17H73.9536L73.8496 16.432H73.8176C73.727 16.5813 73.6096 16.704 73.4656 16.8C73.327 16.896 73.1723 16.9653 73.0016 17.008C72.831 17.056 72.655 17.08 72.4736 17.08C72.127 17.08 71.8363 17.0267 71.6016 16.92C71.367 16.808 71.191 16.6373 71.0736 16.408C70.9563 16.1787 70.8976 15.8827 70.8976 15.52V12.72H71.6096V15.472C71.6096 15.8133 71.687 16.0693 71.8416 16.24C71.9963 16.4107 72.2363 16.496 72.5616 16.496C73.0363 16.496 73.3643 16.3627 73.5456 16.096C73.7323 15.8293 73.8256 15.4453 73.8256 14.944V12.72H74.5296V13.192C74.7003 13.16 74.8283 13.0933 74.9136 12.992C74.999 12.8907 75.055 12.76 75.0816 12.6C75.1136 12.4347 75.1296 12.2507 75.1296 12.048H75.8736L75.9296 12.136ZM71.2656 12.152C71.2816 11.992 71.311 11.8507 71.3536 11.728C71.4016 11.6 71.463 11.4933 71.5376 11.408C71.6123 11.3173 71.7003 11.248 71.8016 11.2C71.903 11.152 72.0176 11.128 72.1456 11.128C72.263 11.128 72.375 11.152 72.4816 11.2C72.5936 11.2427 72.7003 11.296 72.8016 11.36C72.903 11.4187 72.999 11.472 73.0896 11.52C73.1856 11.5627 73.2763 11.584 73.3616 11.584C73.4843 11.584 73.5776 11.5467 73.6416 11.472C73.711 11.392 73.7643 11.2747 73.8016 11.12H74.2016C74.1696 11.4293 74.079 11.6773 73.9296 11.864C73.7803 12.0507 73.5803 12.144 73.3296 12.144C73.2176 12.144 73.1083 12.1227 73.0016 12.08C72.895 12.032 72.7883 11.9787 72.6816 11.92C72.5803 11.856 72.4816 11.8027 72.3856 11.76C72.295 11.712 72.2043 11.688 72.1136 11.688C71.9856 11.688 71.8896 11.728 71.8256 11.808C71.7616 11.8827 71.711 11.9973 71.6736 12.152H71.2656ZM79.9203 12.712V17H79.3443L79.2403 16.432H79.2083C79.1176 16.5813 79.0003 16.704 78.8563 16.8C78.7123 16.896 78.5549 16.9653 78.3843 17.008C78.2136 17.056 78.0349 17.08 77.8483 17.08C77.5069 17.08 77.2189 17.0267 76.9843 16.92C76.7549 16.808 76.5816 16.6373 76.4643 16.408C76.3469 16.1787 76.2883 15.8827 76.2883 15.52V12.712H77.0003V15.472C77.0003 15.8133 77.0776 16.0693 77.2323 16.24C77.3869 16.4107 77.6269 16.496 77.9523 16.496C78.2723 16.496 78.5229 16.4373 78.7043 16.32C78.8909 16.1973 79.0216 16.0213 79.0963 15.792C79.1763 15.5573 79.2163 15.2747 79.2163 14.944V12.712H79.9203ZM84.7917 16.504C84.8984 16.504 85.0077 16.496 85.1197 16.48C85.2317 16.4587 85.3224 16.4373 85.3917 16.416V16.952C85.317 16.9893 85.2104 17.0187 85.0717 17.04C84.933 17.0667 84.7997 17.08 84.6717 17.08C84.4477 17.08 84.2397 17.0427 84.0477 16.968C83.861 16.888 83.709 16.752 83.5917 16.56C83.4744 16.368 83.4157 16.0987 83.4157 15.752V13.256H82.8077V12.92L83.4237 12.64L83.7037 11.728H84.1197V12.712H85.3597V13.256H84.1197V15.736C84.1197 15.9973 84.181 16.192 84.3037 16.32C84.4317 16.4427 84.5944 16.504 84.7917 16.504ZM88.2503 12.632C88.3303 12.632 88.4156 12.6373 88.5063 12.648C88.6023 12.6533 88.685 12.664 88.7543 12.68L88.6663 13.328C88.597 13.312 88.5196 13.2987 88.4343 13.288C88.3543 13.2773 88.277 13.272 88.2023 13.272C88.037 13.272 87.8796 13.3067 87.7303 13.376C87.581 13.4453 87.4476 13.544 87.3303 13.672C87.213 13.7947 87.1196 13.944 87.0503 14.12C86.9863 14.296 86.9543 14.4933 86.9543 14.712V17H86.2503V12.712H86.8263L86.9063 13.496H86.9383C87.029 13.336 87.1383 13.192 87.2663 13.064C87.3943 12.9307 87.541 12.8267 87.7063 12.752C87.8716 12.672 88.053 12.632 88.2503 12.632ZM90.259 17H89.555V12.712H90.259V17ZM91.091 10.952C91.043 11.0267 90.9737 11.1173 90.883 11.224C90.7923 11.3307 90.691 11.4427 90.579 11.56C90.4723 11.672 90.363 11.7813 90.251 11.888C90.1443 11.9893 90.043 12.0773 89.947 12.152H89.483V12.056C89.563 11.9547 89.6483 11.8347 89.739 11.696C89.835 11.5573 89.9283 11.416 90.019 11.272C90.1097 11.1227 90.1843 10.9893 90.243 10.872H91.091V10.952ZM95.1276 16.504C95.2343 16.504 95.3436 16.496 95.4556 16.48C95.5676 16.4587 95.6583 16.4373 95.7276 16.416V16.952C95.653 16.9893 95.5463 17.0187 95.4076 17.04C95.269 17.0667 95.1356 17.08 95.0076 17.08C94.7836 17.08 94.5756 17.0427 94.3836 16.968C94.197 16.888 94.045 16.752 93.9276 16.56C93.8103 16.368 93.7516 16.0987 93.7516 15.752V13.256H93.1436V12.92L93.7596 12.64L94.0396 11.728H94.4556V12.712H95.6956V13.256H94.4556V15.736C94.4556 15.9973 94.517 16.192 94.6396 16.32C94.7676 16.4427 94.9303 16.504 95.1276 16.504ZM100.17 12.712V17H99.5943L99.4903 16.432H99.4583C99.3676 16.5813 99.2503 16.704 99.1063 16.8C98.9623 16.896 98.8049 16.9653 98.6343 17.008C98.4636 17.056 98.2849 17.08 98.0983 17.08C97.7569 17.08 97.4689 17.0267 97.2343 16.92C97.0049 16.808 96.8316 16.6373 96.7143 16.408C96.5969 16.1787 96.5383 15.8827 96.5383 15.52V12.712H97.2503V15.472C97.2503 15.8133 97.3276 16.0693 97.4823 16.24C97.6369 16.4107 97.8769 16.496 98.2023 16.496C98.5223 16.496 98.7729 16.4373 98.9543 16.32C99.1409 16.1973 99.2716 16.0213 99.3463 15.792C99.4263 15.5573 99.4663 15.2747 99.4663 14.944V12.712H100.17ZM103.188 12.632C103.556 12.632 103.87 12.712 104.132 12.872C104.398 13.032 104.601 13.2587 104.74 13.552C104.884 13.84 104.956 14.1787 104.956 14.568V14.992H102.02C102.03 15.4773 102.153 15.848 102.388 16.104C102.628 16.3547 102.961 16.48 103.388 16.48C103.66 16.48 103.9 16.456 104.108 16.408C104.321 16.3547 104.54 16.28 104.764 16.184V16.8C104.545 16.896 104.329 16.9653 104.116 17.008C103.902 17.056 103.649 17.08 103.356 17.08C102.95 17.08 102.59 16.9973 102.276 16.832C101.966 16.6667 101.724 16.4213 101.548 16.096C101.377 15.7653 101.292 15.3627 101.292 14.888C101.292 14.4187 101.369 14.016 101.524 13.68C101.684 13.344 101.905 13.0853 102.188 12.904C102.476 12.7227 102.809 12.632 103.188 12.632ZM103.18 13.208C102.844 13.208 102.577 13.3173 102.38 13.536C102.188 13.7493 102.073 14.048 102.036 14.432H104.22C104.22 14.1867 104.182 13.9733 104.108 13.792C104.033 13.6107 103.918 13.4693 103.764 13.368C103.614 13.2613 103.42 13.208 103.18 13.208ZM103.5 10.872C103.564 10.9893 103.654 11.1227 103.772 11.272C103.894 11.416 104.02 11.56 104.148 11.704C104.281 11.8427 104.398 11.9627 104.5 12.064V12.152H104.004C103.865 12.0667 103.721 11.9627 103.572 11.84C103.422 11.712 103.276 11.576 103.132 11.432C102.988 11.576 102.844 11.7093 102.7 11.832C102.556 11.9547 102.414 12.0613 102.276 12.152H101.796V12.064C101.897 11.9573 102.009 11.8347 102.132 11.696C102.26 11.5573 102.382 11.416 102.5 11.272C102.617 11.1227 102.71 10.9893 102.78 10.872H103.5ZM103.252 18.408C103.14 18.408 103.041 18.3707 102.956 18.296C102.876 18.2213 102.836 18.1093 102.836 17.96C102.836 17.8053 102.876 17.6907 102.956 17.616C103.041 17.5467 103.14 17.512 103.252 17.512C103.364 17.512 103.46 17.5467 103.54 17.616C103.625 17.6907 103.668 17.8053 103.668 17.96C103.668 18.1093 103.625 18.2213 103.54 18.296C103.46 18.3707 103.364 18.408 103.252 18.408ZM108.829 12.4C108.829 12.5813 108.824 12.752 108.813 12.912C108.808 13.0667 108.8 13.1893 108.789 13.28H108.829C108.952 13.0987 109.12 12.9467 109.333 12.824C109.547 12.7013 109.821 12.64 110.157 12.64C110.691 12.64 111.117 12.8267 111.437 13.2C111.763 13.568 111.925 14.12 111.925 14.856C111.925 15.3467 111.851 15.7573 111.701 16.088C111.557 16.4187 111.352 16.6667 111.085 16.832C110.819 16.9973 110.509 17.08 110.157 17.08C109.821 17.08 109.547 17.0187 109.333 16.896C109.12 16.7733 108.952 16.6267 108.829 16.456H108.773L108.629 17H108.125V10.92H108.829V12.4ZM110.037 13.224C109.733 13.224 109.493 13.2827 109.317 13.4C109.141 13.512 109.016 13.688 108.941 13.928C108.867 14.1627 108.829 14.464 108.829 14.832V14.864C108.829 15.392 108.915 15.7973 109.085 16.08C109.261 16.3573 109.584 16.496 110.053 16.496C110.437 16.496 110.723 16.3547 110.909 16.072C111.101 15.7893 111.197 15.3813 111.197 14.848C111.197 14.3093 111.101 13.904 110.909 13.632C110.723 13.36 110.432 13.224 110.037 13.224ZM114.671 12.64C115.194 12.64 115.581 12.7547 115.831 12.984C116.082 13.2133 116.207 13.5787 116.207 14.08V17H115.695L115.559 16.392H115.527C115.405 16.5467 115.277 16.6773 115.143 16.784C115.015 16.8853 114.866 16.96 114.695 17.008C114.53 17.056 114.327 17.08 114.087 17.08C113.831 17.08 113.599 17.0347 113.391 16.944C113.189 16.8533 113.029 16.7147 112.911 16.528C112.794 16.336 112.735 16.096 112.735 15.808C112.735 15.3813 112.903 15.0533 113.239 14.824C113.575 14.5893 114.093 14.4613 114.791 14.44L115.519 14.416V14.16C115.519 13.8027 115.442 13.5547 115.287 13.416C115.133 13.2773 114.914 13.208 114.631 13.208C114.407 13.208 114.194 13.2427 113.991 13.312C113.789 13.376 113.599 13.4507 113.423 13.536L113.207 13.008C113.394 12.9067 113.615 12.8213 113.871 12.752C114.127 12.6773 114.394 12.64 114.671 12.64ZM114.879 14.928C114.346 14.9493 113.975 15.0347 113.767 15.184C113.565 15.3333 113.463 15.544 113.463 15.816C113.463 16.056 113.535 16.232 113.679 16.344C113.829 16.456 114.018 16.512 114.247 16.512C114.61 16.512 114.911 16.4133 115.151 16.216C115.391 16.0133 115.511 15.704 115.511 15.288V14.904L114.879 14.928ZM115.423 11.16C115.423 11.3627 115.362 11.52 115.239 11.632C115.117 11.7387 114.962 11.8133 114.775 11.856L114.735 12.28H114.303L114.247 11.6C114.439 11.568 114.591 11.5227 114.703 11.464C114.821 11.4 114.879 11.3067 114.879 11.184C114.879 11.056 114.829 10.9707 114.727 10.928C114.631 10.8853 114.509 10.864 114.359 10.864C114.29 10.864 114.218 10.8667 114.143 10.872C114.074 10.8773 114.018 10.8853 113.975 10.896V10.48C114.023 10.464 114.082 10.4533 114.151 10.448C114.226 10.4373 114.314 10.432 114.415 10.432C114.735 10.432 114.983 10.4907 115.159 10.608C115.335 10.7253 115.423 10.9093 115.423 11.16ZM121.26 14.848C121.26 15.2053 121.212 15.5227 121.116 15.8C121.025 16.072 120.892 16.304 120.716 16.496C120.545 16.688 120.334 16.8347 120.084 16.936C119.838 17.032 119.564 17.08 119.26 17.08C118.977 17.08 118.716 17.032 118.476 16.936C118.236 16.8347 118.028 16.688 117.852 16.496C117.676 16.304 117.537 16.072 117.436 15.8C117.34 15.5227 117.292 15.2053 117.292 14.848C117.292 14.3733 117.372 13.9733 117.532 13.648C117.692 13.3173 117.921 13.0667 118.22 12.896C118.518 12.72 118.873 12.632 119.284 12.632C119.673 12.632 120.014 12.72 120.308 12.896C120.606 13.0667 120.838 13.3173 121.004 13.648C121.174 13.9733 121.26 14.3733 121.26 14.848ZM118.02 14.848C118.02 15.184 118.062 15.4773 118.148 15.728C118.238 15.9733 118.377 16.1627 118.564 16.296C118.75 16.4293 118.988 16.496 119.276 16.496C119.564 16.496 119.801 16.4293 119.988 16.296C120.174 16.1627 120.31 15.9733 120.396 15.728C120.486 15.4773 120.532 15.184 120.532 14.848C120.532 14.5067 120.486 14.216 120.396 13.976C120.305 13.736 120.166 13.552 119.98 13.424C119.798 13.2907 119.561 13.224 119.268 13.224C118.83 13.224 118.513 13.368 118.316 13.656C118.118 13.944 118.02 14.3413 118.02 14.848ZM39.384 24.704C39.384 24.8053 39.3787 24.9093 39.368 25.016C39.3627 25.1227 39.3547 25.2187 39.344 25.304H39.392C39.4827 25.1547 39.5973 25.032 39.736 24.936C39.8747 24.84 40.0293 24.768 40.2 24.72C40.3707 24.6667 40.5467 24.64 40.728 24.64C41.0747 24.64 41.3627 24.696 41.592 24.808C41.8267 24.9147 42.0027 25.0827 42.12 25.312C42.2373 25.5413 42.296 25.84 42.296 26.208V29H41.6V26.256C41.6 25.9093 41.5227 25.6507 41.368 25.48C41.2133 25.3093 40.9707 25.224 40.64 25.224C40.32 25.224 40.0693 25.2853 39.888 25.408C39.7067 25.5253 39.576 25.7013 39.496 25.936C39.4213 26.1653 39.384 26.448 39.384 26.784V29H38.68V22.92H39.384V24.704ZM47.3533 26.848C47.3533 27.2053 47.3053 27.5227 47.2093 27.8C47.1186 28.072 46.9853 28.304 46.8093 28.496C46.6386 28.688 46.428 28.8347 46.1773 28.936C45.932 29.032 45.6573 29.08 45.3533 29.08C45.0706 29.08 44.8093 29.032 44.5693 28.936C44.3293 28.8347 44.1213 28.688 43.9453 28.496C43.7693 28.304 43.6306 28.072 43.5293 27.8C43.4333 27.5227 43.3853 27.2053 43.3853 26.848C43.3853 26.3733 43.4653 25.9733 43.6253 25.648C43.7853 25.3173 44.0146 25.0667 44.3133 24.896C44.612 24.72 44.9666 24.632 45.3773 24.632C45.7666 24.632 46.108 24.72 46.4013 24.896C46.7 25.0667 46.932 25.3173 47.0973 25.648C47.268 25.9733 47.3533 26.3733 47.3533 26.848ZM44.1133 26.848C44.1133 27.184 44.156 27.4773 44.2413 27.728C44.332 27.9733 44.4706 28.1627 44.6573 28.296C44.844 28.4293 45.0813 28.496 45.3693 28.496C45.6573 28.496 45.8946 28.4293 46.0813 28.296C46.268 28.1627 46.404 27.9733 46.4893 27.728C46.58 27.4773 46.6253 27.184 46.6253 26.848C46.6253 26.5067 46.58 26.216 46.4893 25.976C46.3986 25.736 46.26 25.552 46.0733 25.424C45.892 25.2907 45.6546 25.224 45.3613 25.224C44.924 25.224 44.6066 25.368 44.4093 25.656C44.212 25.944 44.1133 26.3413 44.1133 26.848ZM45.3453 30.408C45.2333 30.408 45.1346 30.3707 45.0493 30.296C44.9693 30.2213 44.9293 30.1093 44.9293 29.96C44.9293 29.8053 44.9693 29.6907 45.0493 29.616C45.1346 29.5467 45.2333 29.512 45.3453 29.512C45.4573 29.512 45.5533 29.5467 45.6333 29.616C45.7186 29.6907 45.7613 29.8053 45.7613 29.96C45.7613 30.1093 45.7186 30.2213 45.6333 30.296C45.5533 30.3707 45.4573 30.408 45.3453 30.408ZM45.7373 22.872C45.8013 22.9893 45.892 23.1227 46.0093 23.272C46.132 23.416 46.2573 23.56 46.3853 23.704C46.5186 23.8427 46.636 23.9627 46.7373 24.064V24.152H46.2413C46.1026 24.0667 45.9586 23.9627 45.8093 23.84C45.66 23.712 45.5133 23.576 45.3693 23.432C45.2253 23.576 45.0813 23.7093 44.9373 23.832C44.7933 23.9547 44.652 24.0613 44.5133 24.152H44.0333V24.064C44.1346 23.9573 44.2466 23.8347 44.3693 23.696C44.4973 23.5573 44.62 23.416 44.7373 23.272C44.8546 23.1227 44.948 22.9893 45.0173 22.872H45.7373ZM51.9792 28.504C52.0859 28.504 52.1952 28.496 52.3072 28.48C52.4192 28.4587 52.5099 28.4373 52.5792 28.416V28.952C52.5045 28.9893 52.3979 29.0187 52.2592 29.04C52.1205 29.0667 51.9872 29.08 51.8592 29.08C51.6352 29.08 51.4272 29.0427 51.2352 28.968C51.0485 28.888 50.8965 28.752 50.7792 28.56C50.6619 28.368 50.6032 28.0987 50.6032 27.752V25.256H49.9952V24.92L50.6112 24.64L50.8912 23.728H51.3072V24.712H52.5472V25.256H51.3072V27.736C51.3072 27.9973 51.3685 28.192 51.4912 28.32C51.6192 28.4427 51.7819 28.504 51.9792 28.504ZM54.1418 24.704C54.1418 24.8053 54.1365 24.9093 54.1258 25.016C54.1205 25.1227 54.1125 25.2187 54.1018 25.304H54.1498C54.2405 25.1547 54.3551 25.032 54.4938 24.936C54.6325 24.84 54.7871 24.768 54.9578 24.72C55.1285 24.6667 55.3045 24.64 55.4858 24.64C55.8325 24.64 56.1205 24.696 56.3498 24.808C56.5845 24.9147 56.7605 25.0827 56.8778 25.312C56.9951 25.5413 57.0538 25.84 57.0538 26.208V29H56.3578V26.256C56.3578 25.9093 56.2805 25.6507 56.1258 25.48C55.9711 25.3093 55.7285 25.224 55.3978 25.224C55.0778 25.224 54.8271 25.2853 54.6458 25.408C54.4645 25.5253 54.3338 25.7013 54.2538 25.936C54.1791 26.1653 54.1418 26.448 54.1418 26.784V29H53.4378V22.92H54.1418V24.704ZM63.3671 24.136C63.3351 24.3227 63.2871 24.504 63.2231 24.68C63.1645 24.856 63.0818 25.016 62.9751 25.16C62.8738 25.2987 62.7405 25.416 62.5751 25.512C62.4098 25.6027 62.2071 25.6613 61.9671 25.688V29H61.3911L61.2871 28.432H61.2551C61.1645 28.5813 61.0471 28.704 60.9031 28.8C60.7645 28.896 60.6098 28.9653 60.4391 29.008C60.2685 29.056 60.0925 29.08 59.9111 29.08C59.5645 29.08 59.2738 29.0267 59.0391 28.92C58.8045 28.808 58.6285 28.6373 58.5111 28.408C58.3938 28.1787 58.3351 27.8827 58.3351 27.52V24.72H59.0471V27.472C59.0471 27.8133 59.1245 28.0693 59.2791 28.24C59.4338 28.4107 59.6738 28.496 59.9991 28.496C60.4738 28.496 60.8018 28.3627 60.9831 28.096C61.1698 27.8293 61.2631 27.4453 61.2631 26.944V24.72H61.9671V25.192C62.1378 25.16 62.2658 25.0933 62.3511 24.992C62.4365 24.8907 62.4925 24.76 62.5191 24.6C62.5511 24.4347 62.5671 24.2507 62.5671 24.048H63.3111L63.3671 24.136ZM67.5017 26.848C67.5017 27.3227 67.4191 27.728 67.2538 28.064C67.0938 28.3947 66.8644 28.648 66.5658 28.824C66.2671 28.9947 65.9124 29.08 65.5018 29.08C65.1231 29.08 64.7844 28.9947 64.4858 28.824C64.1924 28.648 63.9604 28.3947 63.7898 28.064C63.6191 27.728 63.5338 27.3227 63.5338 26.848C63.5338 26.1387 63.7124 25.592 64.0698 25.208C64.4271 24.824 64.9124 24.632 65.5258 24.632C65.8084 24.632 66.0671 24.68 66.3018 24.776C66.5418 24.872 66.7471 25.008 66.9178 25.184C67.0778 25.136 67.1951 25.0587 67.2698 24.952C67.3498 24.84 67.4004 24.7067 67.4218 24.552C67.4431 24.3973 67.4538 24.232 67.4538 24.056H68.2058L68.2618 24.144C68.2138 24.3893 68.1471 24.608 68.0618 24.8C67.9818 24.992 67.8751 25.1573 67.7418 25.296C67.6084 25.4293 67.4378 25.5333 67.2298 25.608C67.3151 25.7733 67.3818 25.96 67.4298 26.168C67.4778 26.376 67.5017 26.6027 67.5017 26.848ZM64.2618 26.848C64.2618 27.2053 64.3044 27.5067 64.3898 27.752C64.4804 27.9973 64.6164 28.184 64.7978 28.312C64.9844 28.4347 65.2244 28.496 65.5178 28.496C65.8111 28.496 66.0484 28.4347 66.2298 28.312C66.4164 28.184 66.5524 27.9973 66.6378 27.752C66.7284 27.5067 66.7738 27.2053 66.7738 26.848C66.7738 26.4907 66.7284 26.192 66.6378 25.952C66.5524 25.712 66.4164 25.5307 66.2298 25.408C66.0431 25.2853 65.8031 25.224 65.5098 25.224C65.0724 25.224 64.7551 25.36 64.5578 25.632C64.3604 25.904 64.2618 26.3093 64.2618 26.848ZM70.7674 24.632C71.2794 24.632 71.6661 24.7573 71.9274 25.008C72.1888 25.2533 72.3194 25.6533 72.3194 26.208V29H71.6234V26.256C71.6234 25.9093 71.5461 25.6507 71.3914 25.48C71.2368 25.3093 70.9941 25.224 70.6634 25.224C70.1888 25.224 69.8608 25.3573 69.6794 25.624C69.4981 25.8907 69.4074 26.2747 69.4074 26.776V29H68.7034V24.712H69.2714L69.3754 25.296H69.4154C69.5114 25.1467 69.6288 25.024 69.7674 24.928C69.9114 24.8267 70.0688 24.752 70.2394 24.704C70.4101 24.656 70.5861 24.632 70.7674 24.632ZM75.1688 24.632C75.4514 24.632 75.7048 24.6853 75.9288 24.792C76.1581 24.8987 76.3528 25.0613 76.5128 25.28H76.5528L76.6488 24.712H77.2088V29.072C77.2088 29.4773 77.1394 29.816 77.0008 30.088C76.8621 30.3653 76.6514 30.5733 76.3688 30.712C76.0861 30.8507 75.7261 30.92 75.2888 30.92C74.9794 30.92 74.6941 30.896 74.4328 30.848C74.1768 30.8053 73.9474 30.7387 73.7448 30.648V30C73.8834 30.0693 74.0354 30.128 74.2008 30.176C74.3661 30.2293 74.5448 30.2693 74.7368 30.296C74.9288 30.3227 75.1261 30.336 75.3288 30.336C75.6968 30.336 75.9848 30.2267 76.1928 30.008C76.4061 29.7947 76.5128 29.5013 76.5128 29.128V28.96C76.5128 28.896 76.5154 28.8053 76.5208 28.688C76.5261 28.5653 76.5314 28.48 76.5368 28.432H76.5048C76.3554 28.6507 76.1688 28.8133 75.9448 28.92C75.7261 29.0267 75.4701 29.08 75.1768 29.08C74.6221 29.08 74.1874 28.8853 73.8728 28.496C73.5634 28.1067 73.4088 27.5627 73.4088 26.864C73.4088 26.4053 73.4781 26.0107 73.6168 25.68C73.7608 25.344 73.9634 25.0853 74.2248 24.904C74.4861 24.7227 74.8008 24.632 75.1688 24.632ZM75.2648 25.224C75.0248 25.224 74.8194 25.288 74.6488 25.416C74.4834 25.544 74.3554 25.7307 74.2648 25.976C74.1794 26.2213 74.1368 26.52 74.1368 26.872C74.1368 27.4 74.2328 27.8053 74.4248 28.088C74.6221 28.3653 74.9074 28.504 75.2808 28.504C75.4994 28.504 75.6861 28.4773 75.8408 28.424C75.9954 28.3653 76.1234 28.2773 76.2248 28.16C76.3261 28.0373 76.4008 27.8827 76.4488 27.696C76.4968 27.5093 76.5208 27.288 76.5208 27.032V26.864C76.5208 26.4747 76.4754 26.16 76.3848 25.92C76.2994 25.68 76.1634 25.504 75.9768 25.392C75.7901 25.28 75.5528 25.224 75.2648 25.224ZM81.3528 24.704C81.3528 24.8053 81.3474 24.9093 81.3368 25.016C81.3314 25.1227 81.3234 25.2187 81.3128 25.304H81.3608C81.4514 25.1547 81.5661 25.032 81.7048 24.936C81.8434 24.84 81.9981 24.768 82.1688 24.72C82.3394 24.6667 82.5154 24.64 82.6968 24.64C83.0434 24.64 83.3314 24.696 83.5608 24.808C83.7954 24.9147 83.9714 25.0827 84.0888 25.312C84.2061 25.5413 84.2648 25.84 84.2648 26.208V29H83.5688V26.256C83.5688 25.9093 83.4914 25.6507 83.3368 25.48C83.1821 25.3093 82.9394 25.224 82.6088 25.224C82.2888 25.224 82.0381 25.2853 81.8568 25.408C81.6754 25.5253 81.5448 25.7013 81.4648 25.936C81.3901 26.1653 81.3528 26.448 81.3528 26.784V29H80.6488V22.92H81.3528V24.704ZM86.2981 24.712V29H85.5941V24.712H86.2981ZM85.9541 23.104C86.0607 23.104 86.1541 23.1413 86.2341 23.216C86.3194 23.2853 86.3621 23.3973 86.3621 23.552C86.3621 23.7013 86.3194 23.8133 86.2341 23.888C86.1541 23.9627 86.0607 24 85.9541 24C85.8367 24 85.7381 23.9627 85.6581 23.888C85.5781 23.8133 85.5381 23.7013 85.5381 23.552C85.5381 23.3973 85.5781 23.2853 85.6581 23.216C85.7381 23.1413 85.8367 23.104 85.9541 23.104ZM89.3126 24.632C89.6806 24.632 89.9952 24.712 90.2566 24.872C90.5232 25.032 90.7259 25.2587 90.8646 25.552C91.0086 25.84 91.0806 26.1787 91.0806 26.568V26.992H88.1446C88.1552 27.4773 88.2779 27.848 88.5126 28.104C88.7526 28.3547 89.0859 28.48 89.5126 28.48C89.7846 28.48 90.0246 28.456 90.2326 28.408C90.4459 28.3547 90.6646 28.28 90.8886 28.184V28.8C90.6699 28.896 90.4539 28.9653 90.2406 29.008C90.0272 29.056 89.7739 29.08 89.4806 29.08C89.0752 29.08 88.7152 28.9973 88.4006 28.832C88.0912 28.6667 87.8486 28.4213 87.6726 28.096C87.5019 27.7653 87.4166 27.3627 87.4166 26.888C87.4166 26.4187 87.4939 26.016 87.6486 25.68C87.8086 25.344 88.0299 25.0853 88.3126 24.904C88.6006 24.7227 88.9339 24.632 89.3126 24.632ZM89.3046 25.208C88.9686 25.208 88.7019 25.3173 88.5046 25.536C88.3126 25.7493 88.1979 26.048 88.1606 26.432H90.3446C90.3446 26.1867 90.3072 25.9733 90.2326 25.792C90.1579 25.6107 90.0432 25.4693 89.8886 25.368C89.7392 25.2613 89.5446 25.208 89.3046 25.208ZM89.6246 22.872C89.6886 22.9893 89.7792 23.1227 89.8966 23.272C90.0192 23.416 90.1446 23.56 90.2726 23.704C90.4059 23.8427 90.5232 23.9627 90.6246 24.064V24.152H90.1286C89.9899 24.0667 89.8459 23.9627 89.6966 23.84C89.5472 23.712 89.4006 23.576 89.2566 23.432C89.1126 23.576 88.9686 23.7093 88.8246 23.832C88.6806 23.9547 88.5392 24.0613 88.4006 24.152H87.9206V24.064C88.0219 23.9573 88.1339 23.8347 88.2566 23.696C88.3846 23.5573 88.5072 23.416 88.6246 23.272C88.7419 23.1227 88.8352 22.9893 88.9046 22.872H89.6246ZM89.3766 30.408C89.2646 30.408 89.1659 30.3707 89.0806 30.296C89.0006 30.2213 88.9606 30.1093 88.9606 29.96C88.9606 29.8053 89.0006 29.6907 89.0806 29.616C89.1659 29.5467 89.2646 29.512 89.3766 29.512C89.4886 29.512 89.5846 29.5467 89.6646 29.616C89.7499 29.6907 89.7926 29.8053 89.7926 29.96C89.7926 30.1093 89.7499 30.2213 89.6646 30.296C89.5846 30.3707 89.4886 30.408 89.3766 30.408ZM95.7562 24.712V29H95.1802L95.0762 28.432H95.0442C94.9535 28.5813 94.8362 28.704 94.6922 28.8C94.5482 28.896 94.3909 28.9653 94.2202 29.008C94.0495 29.056 93.8709 29.08 93.6842 29.08C93.3429 29.08 93.0549 29.0267 92.8202 28.92C92.5909 28.808 92.4175 28.6373 92.3002 28.408C92.1829 28.1787 92.1242 27.8827 92.1242 27.52V24.712H92.8362V27.472C92.8362 27.8133 92.9135 28.0693 93.0682 28.24C93.2229 28.4107 93.4629 28.496 93.7882 28.496C94.1082 28.496 94.3589 28.4373 94.5402 28.32C94.7269 28.1973 94.8575 28.0213 94.9322 27.792C95.0122 27.5573 95.0522 27.2747 95.0522 26.944V24.712H95.7562Z" fill="#333436"/>
</svg>
