<svg width="68" height="40" viewBox="0 0 68 40" fill="none" xmlns="http://www.w3.org/2000/svg">
<rect x="0.5" y="0.5" width="67" height="39" rx="1.5" stroke="#333436"/>
<path d="M12.584 13H11.864V7.92H10.08V7.288H14.36V7.92H12.584V13ZM15.8293 8.704C15.8293 8.80533 15.824 8.90933 15.8133 9.016C15.808 9.12267 15.8 9.21867 15.7893 9.304H15.8373C15.928 9.15467 16.0426 9.032 16.1813 8.936C16.32 8.84 16.4746 8.768 16.6453 8.72C16.816 8.66667 16.992 8.64 17.1733 8.64C17.52 8.64 17.808 8.696 18.0373 8.808C18.272 8.91467 18.448 9.08267 18.5653 9.312C18.6826 9.54133 18.7413 9.84 18.7413 10.208V13H18.0453V10.256C18.0453 9.90933 17.968 9.65067 17.8133 9.48C17.6586 9.30933 17.416 9.224 17.0853 9.224C16.7653 9.224 16.5146 9.28533 16.3333 9.408C16.152 9.52533 16.0213 9.70133 15.9413 9.936C15.8666 10.1653 15.8293 10.448 15.8293 10.784V13H15.1253V6.92H15.8293V8.704ZM21.6946 8.64C22.2173 8.64 22.604 8.75467 22.8546 8.984C23.1053 9.21333 23.2306 9.57867 23.2306 10.08V13H22.7186L22.5826 12.392H22.5506C22.428 12.5467 22.3 12.6773 22.1666 12.784C22.0386 12.8853 21.8893 12.96 21.7186 13.008C21.5533 13.056 21.3506 13.08 21.1106 13.08C20.8546 13.08 20.6226 13.0347 20.4146 12.944C20.212 12.8533 20.052 12.7147 19.9346 12.528C19.8173 12.336 19.7586 12.096 19.7586 11.808C19.7586 11.3813 19.9266 11.0533 20.2626 10.824C20.5986 10.5893 21.116 10.4613 21.8146 10.44L22.5426 10.416V10.16C22.5426 9.80267 22.4653 9.55467 22.3106 9.416C22.156 9.27733 21.9373 9.208 21.6546 9.208C21.4306 9.208 21.2173 9.24267 21.0146 9.312C20.812 9.376 20.6226 9.45067 20.4466 9.536L20.2306 9.008C20.4173 8.90667 20.6386 8.82133 20.8946 8.752C21.1506 8.67733 21.4173 8.64 21.6946 8.64ZM21.9026 10.928C21.3693 10.9493 20.9986 11.0347 20.7906 11.184C20.588 11.3333 20.4866 11.544 20.4866 11.816C20.4866 12.056 20.5586 12.232 20.7026 12.344C20.852 12.456 21.0413 12.512 21.2706 12.512C21.6333 12.512 21.9346 12.4133 22.1746 12.216C22.4146 12.0133 22.5346 11.704 22.5346 11.288V10.904L21.9026 10.928ZM21.4386 6.872C21.4973 6.98933 21.5693 7.12267 21.6546 7.272C21.7453 7.416 21.8386 7.55733 21.9346 7.696C22.036 7.83467 22.1266 7.95467 22.2066 8.056V8.152H21.7346C21.644 8.07733 21.5426 7.98933 21.4306 7.888C21.3186 7.78133 21.2066 7.672 21.0946 7.56C20.988 7.44267 20.8893 7.33067 20.7986 7.224C20.7133 7.11733 20.6466 7.02667 20.5986 6.952V6.872H21.4386ZM26.619 8.632C27.131 8.632 27.5177 8.75733 27.779 9.008C28.0403 9.25333 28.171 9.65333 28.171 10.208V13H27.475V10.256C27.475 9.90933 27.3977 9.65067 27.243 9.48C27.0883 9.30933 26.8457 9.224 26.515 9.224C26.0403 9.224 25.7123 9.35733 25.531 9.624C25.3497 9.89067 25.259 10.2747 25.259 10.776V13H24.555V8.712H25.123L25.227 9.296H25.267C25.363 9.14667 25.4803 9.024 25.619 8.928C25.763 8.82667 25.9203 8.752 26.091 8.704C26.2617 8.656 26.4377 8.632 26.619 8.632ZM30.2043 8.704C30.2043 8.80533 30.199 8.90933 30.1883 9.016C30.183 9.12267 30.175 9.21867 30.1643 9.304H30.2123C30.303 9.15467 30.4176 9.032 30.5563 8.936C30.695 8.84 30.8496 8.768 31.0203 8.72C31.191 8.66667 31.367 8.64 31.5483 8.64C31.895 8.64 32.183 8.696 32.4123 8.808C32.647 8.91467 32.823 9.08267 32.9403 9.312C33.0576 9.54133 33.1163 9.84 33.1163 10.208V13H32.4203V10.256C32.4203 9.90933 32.343 9.65067 32.1883 9.48C32.0336 9.30933 31.791 9.224 31.4603 9.224C31.1403 9.224 30.8896 9.28533 30.7083 9.408C30.527 9.52533 30.3963 9.70133 30.3163 9.936C30.2416 10.1653 30.2043 10.448 30.2043 10.784V13H29.5003V6.92H30.2043V8.704ZM37.2278 13H36.5238V6.92H37.2278V13ZM40.2103 8.64C40.7329 8.64 41.1196 8.75467 41.3703 8.984C41.6209 9.21333 41.7463 9.57867 41.7463 10.08V13H41.2343L41.0983 12.392H41.0663C40.9436 12.5467 40.8156 12.6773 40.6823 12.784C40.5543 12.8853 40.4049 12.96 40.2343 13.008C40.0689 13.056 39.8663 13.08 39.6263 13.08C39.3703 13.08 39.1383 13.0347 38.9303 12.944C38.7276 12.8533 38.5676 12.7147 38.4503 12.528C38.3329 12.336 38.2743 12.096 38.2743 11.808C38.2743 11.3813 38.4423 11.0533 38.7783 10.824C39.1143 10.5893 39.6316 10.4613 40.3303 10.44L41.0583 10.416V10.16C41.0583 9.80267 40.9809 9.55467 40.8263 9.416C40.6716 9.27733 40.4529 9.208 40.1703 9.208C39.9463 9.208 39.7329 9.24267 39.5303 9.312C39.3276 9.376 39.1383 9.45067 38.9622 9.536L38.7463 9.008C38.9329 8.90667 39.1543 8.82133 39.4103 8.752C39.6663 8.67733 39.9329 8.64 40.2103 8.64ZM40.4183 10.928C39.8849 10.9493 39.5143 11.0347 39.3063 11.184C39.1036 11.3333 39.0023 11.544 39.0023 11.816C39.0023 12.056 39.0743 12.232 39.2183 12.344C39.3676 12.456 39.5569 12.512 39.7863 12.512C40.1489 12.512 40.4503 12.4133 40.6903 12.216C40.9303 12.0133 41.0503 11.704 41.0503 11.288V10.904L40.4183 10.928ZM40.5223 6.872C40.5863 6.98933 40.6769 7.12267 40.7943 7.272C40.9169 7.416 41.0423 7.56 41.1703 7.704C41.3036 7.84267 41.4209 7.96267 41.5223 8.064V8.152H41.0263C40.8876 8.06667 40.7436 7.96267 40.5943 7.84C40.4449 7.712 40.2983 7.576 40.1543 7.432C40.0103 7.576 39.8663 7.70933 39.7223 7.832C39.5783 7.95467 39.4369 8.06133 39.2983 8.152H38.8183V8.064C38.9196 7.95733 39.0316 7.83467 39.1543 7.696C39.2823 7.55733 39.4049 7.416 39.5223 7.272C39.6396 7.12267 39.7329 6.98933 39.8023 6.872H40.5223ZM40.0983 14.408C39.9863 14.408 39.8876 14.3707 39.8023 14.296C39.7223 14.2213 39.6823 14.1093 39.6823 13.96C39.6823 13.8053 39.7223 13.6907 39.8023 13.616C39.8876 13.5467 39.9863 13.512 40.0983 13.512C40.2103 13.512 40.3063 13.5467 40.3863 13.616C40.4716 13.6907 40.5143 13.8053 40.5143 13.96C40.5143 14.1093 40.4716 14.2213 40.3863 14.296C40.3063 14.3707 40.2103 14.408 40.0983 14.408ZM45.1106 8.632C45.6386 8.632 46.0626 8.816 46.3826 9.184C46.708 9.552 46.8706 10.1067 46.8706 10.848C46.8706 11.3333 46.796 11.744 46.6466 12.08C46.5026 12.4107 46.2973 12.6613 46.0306 12.832C45.7693 12.9973 45.46 13.08 45.1026 13.08C44.884 13.08 44.6893 13.0507 44.5186 12.992C44.348 12.9333 44.2013 12.8587 44.0786 12.768C43.9613 12.672 43.86 12.568 43.7746 12.456H43.7266C43.7373 12.5467 43.748 12.6613 43.7586 12.8C43.7693 12.9387 43.7746 13.0587 43.7746 13.16V14.92H43.0706V8.712H43.6466L43.7426 9.296H43.7746C43.86 9.17333 43.9613 9.06133 44.0786 8.96C44.2013 8.85867 44.3453 8.77867 44.5106 8.72C44.6813 8.66133 44.8813 8.632 45.1106 8.632ZM44.9826 9.224C44.6946 9.224 44.4626 9.28 44.2866 9.392C44.1106 9.49867 43.9826 9.66133 43.9026 9.88C43.8226 10.0987 43.78 10.376 43.7746 10.712V10.848C43.7746 11.2 43.812 11.4987 43.8866 11.744C43.9613 11.9893 44.0866 12.176 44.2626 12.304C44.444 12.432 44.6893 12.496 44.9986 12.496C45.26 12.496 45.4733 12.424 45.6386 12.28C45.8093 12.136 45.9346 11.9413 46.0146 11.696C46.1 11.4453 46.1426 11.16 46.1426 10.84C46.1426 10.3493 46.0466 9.95733 45.8546 9.664C45.668 9.37067 45.3773 9.224 44.9826 9.224ZM51.5026 12.504C51.6093 12.504 51.7186 12.496 51.8306 12.48C51.9426 12.4587 52.0333 12.4373 52.1026 12.416V12.952C52.028 12.9893 51.9213 13.0187 51.7826 13.04C51.644 13.0667 51.5106 13.08 51.3826 13.08C51.1586 13.08 50.9506 13.0427 50.7586 12.968C50.572 12.888 50.42 12.752 50.3026 12.56C50.1853 12.368 50.1266 12.0987 50.1266 11.752V9.256H49.5186V8.92L50.1346 8.64L50.4146 7.728H50.8306V8.712H52.0706V9.256H50.8306V11.736C50.8306 11.9973 50.892 12.192 51.0146 12.32C51.1426 12.4427 51.3053 12.504 51.5026 12.504ZM57.9453 8.136C57.9133 8.32267 57.8653 8.504 57.8013 8.68C57.7426 8.856 57.6599 9.016 57.5533 9.16C57.4519 9.29867 57.3186 9.416 57.1533 9.512C56.9879 9.60267 56.7853 9.66133 56.5453 9.688V13H55.9693L55.8653 12.432H55.8333C55.7426 12.5813 55.6253 12.704 55.4813 12.8C55.3426 12.896 55.1879 12.9653 55.0173 13.008C54.8466 13.056 54.6706 13.08 54.4893 13.08C54.1426 13.08 53.8519 13.0267 53.6173 12.92C53.3826 12.808 53.2066 12.6373 53.0893 12.408C52.9719 12.1787 52.9133 11.8827 52.9133 11.52V8.72H53.6253V11.472C53.6253 11.8133 53.7026 12.0693 53.8573 12.24C54.0119 12.4107 54.2519 12.496 54.5773 12.496C55.0519 12.496 55.3799 12.3627 55.5613 12.096C55.7479 11.8293 55.8413 11.4453 55.8413 10.944V8.72H56.5453V9.192C56.7159 9.16 56.8439 9.09333 56.9293 8.992C57.0146 8.89067 57.0706 8.76 57.0973 8.6C57.1293 8.43467 57.1453 8.25067 57.1453 8.048H57.8893L57.9453 8.136ZM54.5453 6.872C54.6039 6.98933 54.6759 7.12267 54.7613 7.272C54.8519 7.416 54.9453 7.55733 55.0413 7.696C55.1426 7.83467 55.2333 7.95467 55.3133 8.056V8.152H54.8413C54.7506 8.07733 54.6493 7.98933 54.5373 7.888C54.4253 7.78133 54.3133 7.672 54.2013 7.56C54.0946 7.44267 53.9959 7.33067 53.9053 7.224C53.8199 7.11733 53.7533 7.02667 53.7053 6.952V6.872H54.5453Z" fill="#333436"/>
<path d="M11.552 29.472C12.576 28.6187 13.392 27.9093 14 27.344C14.608 26.768 15.1147 26.1707 15.52 25.552C15.9253 24.9333 16.128 24.3253 16.128 23.728C16.128 23.184 16 22.7573 15.744 22.448C15.488 22.1387 15.0933 21.984 14.56 21.984C14.0267 21.984 13.616 22.1653 13.328 22.528C13.04 22.88 12.8907 23.3653 12.88 23.984H10.704C10.7467 22.704 11.1253 21.7333 11.84 21.072C12.5653 20.4107 13.4827 20.08 14.592 20.08C15.808 20.08 16.7413 20.4053 17.392 21.056C18.0427 21.696 18.368 22.544 18.368 23.6C18.368 24.432 18.144 25.2267 17.696 25.984C17.248 26.7413 16.736 27.4027 16.16 27.968C15.584 28.5227 14.832 29.1947 13.904 29.984H18.624V31.84H10.72V30.176L11.552 29.472ZM20.0355 26.016C20.0355 24.1707 20.3662 22.7253 21.0275 21.68C21.6995 20.6347 22.8088 20.112 24.3555 20.112C25.9022 20.112 27.0062 20.6347 27.6675 21.68C28.3395 22.7253 28.6755 24.1707 28.6755 26.016C28.6755 27.872 28.3395 29.328 27.6675 30.384C27.0062 31.44 25.9022 31.968 24.3555 31.968C22.8088 31.968 21.6995 31.44 21.0275 30.384C20.3662 29.328 20.0355 27.872 20.0355 26.016ZM26.4675 26.016C26.4675 25.2267 26.4142 24.5653 26.3075 24.032C26.2115 23.488 26.0088 23.0453 25.6995 22.704C25.4008 22.3627 24.9528 22.192 24.3555 22.192C23.7582 22.192 23.3048 22.3627 22.9955 22.704C22.6968 23.0453 22.4942 23.488 22.3875 24.032C22.2915 24.5653 22.2435 25.2267 22.2435 26.016C22.2435 26.8267 22.2915 27.5093 22.3875 28.064C22.4835 28.608 22.6862 29.0507 22.9955 29.392C23.3048 29.7227 23.7582 29.888 24.3555 29.888C24.9528 29.888 25.4062 29.7227 25.7155 29.392C26.0248 29.0507 26.2275 28.608 26.3235 28.064C26.4195 27.5093 26.4675 26.8267 26.4675 26.016ZM30.1073 22.4V20.336H33.9633V32H31.6593V22.4H30.1073ZM35.9041 22.4V20.336H39.7601V32H37.4561V22.4H35.9041Z" fill="#333436"/>
</svg>
