<svg xmlns="http://www.w3.org/2000/svg" width="49" height="16" viewBox="0 0 49 16" fill="none">
  <path fill-rule="evenodd" clip-rule="evenodd" d="M47.4426 12.8257C47.4543 12.8965 47.4661 12.979 47.4661 13.0497V13.3444C47.4779 13.5919 47.3954 13.8277 47.254 14.0163C47.1714 14.0988 47.0771 14.1695 46.9711 14.2049C46.865 14.252 46.7471 14.2638 46.6292 14.2638C46.5113 14.2756 46.3935 14.252 46.2874 14.2049C46.1813 14.1577 46.087 14.0988 46.0045 14.0163C45.8512 13.8277 45.7687 13.5801 45.7923 13.3444V13.0497C45.7805 12.8022 45.8512 12.5664 46.0045 12.3778C46.087 12.2953 46.1813 12.2246 46.2874 12.1774C46.3935 12.1303 46.5113 12.1185 46.6292 12.1185C46.7471 12.1067 46.865 12.1303 46.9711 12.1774C47.0771 12.2246 47.1832 12.2835 47.254 12.366C47.2893 12.4132 47.3247 12.4721 47.36 12.531L47.36 12.531C47.3954 12.4957 47.4072 12.4485 47.419 12.4014V12.201C47.419 12.1774 47.4426 12.1538 47.4779 12.1538H47.6312C47.6429 12.1538 47.6547 12.1538 47.6665 12.1656L47.6901 12.1892C47.7019 12.5193 47.6194 12.7314 47.4426 12.8257ZM47.1243 13.3562V13.0615C47.1243 12.9436 47.1125 12.8257 47.0654 12.7197C47.03 12.6254 46.9711 12.5546 46.9003 12.5075C46.8178 12.4485 46.7117 12.425 46.6056 12.4367C46.5349 12.4367 46.4642 12.4485 46.3935 12.4721C46.3227 12.4957 46.2638 12.5428 46.2166 12.6018C46.1223 12.7432 46.0752 12.9083 46.087 13.0733V13.368C46.087 13.7923 46.252 14.0045 46.5939 14.0045C46.6646 14.0163 46.7471 14.0045 46.806 13.9691C46.8768 13.9456 46.9357 13.8984 46.9828 13.8395C47.0889 13.6862 47.1361 13.5212 47.1243 13.3562ZM47.195 11.3169C47.195 11.3287 47.1832 11.3405 47.1832 11.3405L46.7471 11.812L46.6999 11.8592C46.6882 11.8709 46.6764 11.8709 46.6528 11.8709H46.4406C46.417 11.8709 46.4052 11.8592 46.4052 11.8474V11.8238C46.4052 11.8179 46.4082 11.815 46.4111 11.812C46.4141 11.8091 46.417 11.8061 46.417 11.8002L46.7942 11.3287L46.8414 11.2816C46.8473 11.2816 46.8561 11.2786 46.865 11.2757L46.865 11.2757C46.8738 11.2727 46.8826 11.2698 46.8885 11.2698H47.1361C47.1451 11.2743 47.1528 11.2779 47.1593 11.281L47.1594 11.281C47.1873 11.2942 47.195 11.2979 47.195 11.3169ZM32.0358 13.0495C32.0358 12.9788 32.0241 12.8963 32.0123 12.8256C32.2009 12.7313 32.2716 12.5191 32.248 12.189L32.2244 12.1655C32.2127 12.1537 32.2009 12.1537 32.1891 12.1537H32.0358C32.0005 12.1537 31.9769 12.1773 31.9769 12.2008V12.4012C31.9769 12.4484 31.9651 12.4955 31.9298 12.5309C31.8944 12.4719 31.859 12.413 31.8237 12.3659C31.7529 12.2833 31.6469 12.2244 31.5408 12.1773C31.4347 12.1301 31.3168 12.1065 31.1989 12.1183C31.081 12.1183 30.9632 12.1301 30.8571 12.1773C30.751 12.2244 30.6567 12.2951 30.5742 12.3776C30.4209 12.5662 30.3502 12.802 30.362 13.0495V13.3442C30.3384 13.58 30.4209 13.8275 30.5742 14.0161C30.7392 14.1694 30.9632 14.2637 31.1989 14.2637C31.4347 14.2637 31.6586 14.1811 31.8237 14.0161C31.9769 13.8275 32.0476 13.5918 32.0358 13.3442V13.0495ZM31.7058 13.0613V13.356C31.7058 13.521 31.6586 13.6861 31.5761 13.8275C31.529 13.8865 31.47 13.9336 31.3993 13.9572C31.3286 13.9808 31.2579 13.9925 31.1871 13.9925C30.8453 13.9925 30.6803 13.7804 30.6803 13.356V13.0613C30.6685 12.8963 30.7156 12.7313 30.8099 12.5898C30.8571 12.5309 30.916 12.4837 30.9867 12.4602C31.0457 12.4248 31.1282 12.413 31.1989 12.4248C31.2932 12.4248 31.3993 12.4484 31.4818 12.5073C31.5526 12.5545 31.6115 12.637 31.6469 12.7195C31.694 12.8256 31.7058 12.9434 31.7058 13.0613ZM31.7647 11.3285V11.3168C31.7647 11.305 31.7529 11.2932 31.7294 11.2932H31.4818C31.4759 11.2932 31.4671 11.2961 31.4583 11.2991C31.4494 11.302 31.4406 11.305 31.4347 11.305L31.3875 11.3521L31.0103 11.8236C30.9985 11.8354 30.9985 11.8472 30.9985 11.859C30.9985 11.8708 31.0103 11.8826 31.0339 11.8826H31.2461C31.2579 11.8826 31.2697 11.8826 31.2814 11.8708L31.3286 11.8236L31.7529 11.3403L31.7647 11.3285ZM26.1069 11.8004C26.1658 11.7179 26.2012 11.6118 26.1894 11.5058H26.1658V11.435C26.1658 11.4115 26.154 11.3997 26.1422 11.3879C26.1363 11.3879 26.1334 11.3849 26.1304 11.382C26.1275 11.379 26.1245 11.3761 26.1186 11.3761H26.0951H25.9772C25.9536 11.3761 25.9418 11.3879 25.93 11.3997C25.93 11.4056 25.9271 11.4085 25.9241 11.4115C25.9212 11.4144 25.9183 11.4173 25.9183 11.4232V11.4468V11.5293C25.93 11.5765 25.9183 11.6236 25.8947 11.659C25.8888 11.6649 25.8829 11.6678 25.877 11.6708C25.8711 11.6737 25.8652 11.6767 25.8593 11.6826C25.8475 11.6944 25.824 11.6944 25.8122 11.6944C25.7886 11.6944 25.7768 11.6944 25.7532 11.6826C25.7375 11.6826 25.7218 11.6721 25.7061 11.6616C25.6982 11.6564 25.6904 11.6511 25.6825 11.6472L25.4114 11.435C25.3524 11.3761 25.2699 11.3407 25.1874 11.3407C25.1403 11.3407 25.0931 11.3407 25.046 11.3643C24.9988 11.3879 24.9635 11.4115 24.9281 11.4468C24.8574 11.5293 24.822 11.6472 24.8338 11.7533V11.8358V11.8594C24.8338 11.8712 24.8338 11.883 24.8456 11.883C24.8515 11.883 24.8544 11.8859 24.8574 11.8888C24.8603 11.8918 24.8633 11.8947 24.8692 11.8947H24.8927H25.0106C25.0224 11.8947 25.046 11.883 25.0578 11.8712C25.0578 11.8653 25.0607 11.8623 25.0637 11.8594C25.0666 11.8564 25.0695 11.8535 25.0695 11.8476V11.824V11.7415C25.0695 11.6944 25.0695 11.6472 25.0931 11.6118C25.0931 11.604 25.1036 11.5961 25.1141 11.5883L25.1141 11.5883C25.1193 11.5843 25.1246 11.5804 25.1285 11.5765C25.1403 11.5647 25.1521 11.5647 25.1756 11.5647C25.1992 11.5647 25.2228 11.5647 25.2464 11.5765C25.2817 11.6001 25.3171 11.6236 25.3407 11.6472L25.5764 11.824C25.6471 11.883 25.7414 11.9065 25.824 11.9065C25.8829 11.9065 25.93 11.8947 25.9772 11.883C26.0243 11.8594 26.0715 11.8358 26.1069 11.8004ZM25.6118 14.1933V14.1698H25.6354V12.2484C25.6354 12.2248 25.6236 12.2012 25.6118 12.1894C25.6055 12.1863 25.6 12.1831 25.5949 12.1802L25.5949 12.1802C25.581 12.1722 25.5701 12.1659 25.5528 12.1659H25.376H25.3524C25.3474 12.1659 25.3446 12.1659 25.342 12.1668C25.3385 12.168 25.3357 12.1709 25.3289 12.1776C25.3244 12.1821 25.3199 12.1849 25.316 12.1873C25.3098 12.1912 25.3053 12.1939 25.3053 12.2012C25.2935 12.2012 25.2935 12.213 25.2935 12.2248V14.158C25.2935 14.1697 25.3053 14.1933 25.3171 14.2051L25.3171 14.2051C25.3289 14.2169 25.3407 14.2287 25.3642 14.2287H25.5411H25.5764C25.5882 14.2287 25.5882 14.2287 25.6 14.2169C25.6 14.211 25.6029 14.2081 25.6059 14.2051C25.6088 14.2022 25.6118 14.1992 25.6118 14.1933ZM20.3428 14.1456V14.1456L20.3193 11.4934V11.4934C20.3193 11.4816 20.3193 11.458 20.3075 11.4462C20.3016 11.4462 20.2986 11.4433 20.2957 11.4403C20.2927 11.4374 20.2898 11.4344 20.2839 11.4344H20.2603H20.0481H20.0246C20.0128 11.4344 20.0128 11.4344 20.001 11.4462L20.001 11.4462C20.001 11.4521 19.998 11.4551 19.9951 11.458C19.9921 11.461 19.9892 11.4639 19.9892 11.4698V11.4934V13.7094L18.8104 11.4934C18.8104 11.4698 18.7869 11.4462 18.7633 11.4344C18.7279 11.4226 18.6926 11.4226 18.6572 11.4226H18.6572H18.445C18.4312 11.4226 18.4214 11.4267 18.4134 11.43C18.4076 11.4324 18.4028 11.4344 18.3979 11.4344C18.3861 11.4344 18.3743 11.4462 18.3625 11.458L18.3625 11.458L18.3625 11.458C18.3507 11.4698 18.3389 11.4816 18.3389 11.4934C18.3271 11.5169 18.3271 11.5287 18.3271 11.5405V14.2045C18.3271 14.2399 18.3507 14.2517 18.3979 14.2517H18.5983H18.6218C18.6336 14.2517 18.6454 14.2517 18.6454 14.2399C18.6454 14.234 18.6484 14.231 18.6513 14.2281C18.6543 14.2252 18.6572 14.2222 18.6572 14.2163V14.1927V11.9767C18.6572 11.9649 18.669 11.9649 18.669 11.9649C18.6808 11.9649 18.6808 11.9767 18.6808 11.9767L19.8595 14.2045C19.8713 14.2281 19.8949 14.2399 19.9185 14.2517C19.942 14.2635 19.9656 14.2635 19.9892 14.2635H19.9892H20.225C20.2388 14.2635 20.2485 14.2594 20.2566 14.2561C20.2623 14.2537 20.2672 14.2517 20.2721 14.2517C20.2839 14.2517 20.2957 14.2399 20.3075 14.2281C20.3193 14.2163 20.331 14.2045 20.331 14.1927C20.3428 14.1692 20.3428 14.1574 20.3428 14.1456ZM21.9694 14.6879C21.8751 14.7114 21.7808 14.7232 21.6865 14.7232C21.5804 14.7232 21.4861 14.7114 21.4272 14.6997C21.3553 14.6791 21.2745 14.6497 21.1692 14.6113L21.1692 14.6113L21.1207 14.5936C21.1089 14.5818 21.0971 14.5818 21.0853 14.5818H21.0853H21.0853C21.0735 14.5818 21.0618 14.5818 21.05 14.5936C21.0455 14.5981 21.041 14.6009 21.0371 14.6032L21.0371 14.6032C21.0309 14.6071 21.0264 14.6099 21.0264 14.6171C21.0146 14.6171 21.0146 14.6289 21.0146 14.6407V14.6407V14.7704C21.0146 14.7763 21.0176 14.7851 21.0205 14.794C21.0234 14.8028 21.0264 14.8116 21.0264 14.8175C21.0264 14.8254 21.0369 14.8332 21.0473 14.8411C21.0526 14.845 21.0578 14.849 21.0618 14.8529L21.0618 14.8529C21.1443 14.8883 21.2268 14.9236 21.3211 14.9472C21.439 14.9826 21.5568 14.9943 21.6865 14.9943C21.9105 15.0179 22.1226 14.959 22.2995 14.8293C22.4291 14.7114 22.4998 14.5228 22.4998 14.2517V12.3068V12.2714C22.4998 12.2714 22.4998 12.2596 22.4881 12.2478C22.4763 12.236 22.4527 12.2243 22.4291 12.2243C22.2052 12.1653 21.9694 12.13 21.7454 12.13C21.5804 12.13 21.4272 12.1653 21.2739 12.236C21.1443 12.3068 21.05 12.4129 20.991 12.5425C20.9203 12.7076 20.8967 12.8844 20.8967 13.0612V13.3441C20.8967 13.9688 21.1796 14.2753 21.7454 14.2753C21.8279 14.2753 21.8987 14.2753 21.9694 14.2635C22.0519 14.2517 22.1226 14.2399 22.1698 14.2282V14.2517C22.1698 14.346 22.158 14.4521 22.1226 14.5464C22.0873 14.6171 22.0401 14.6643 21.9694 14.6879ZM22.158 12.4482V13.9453C22.0873 13.9688 22.0166 13.9806 21.9458 13.9806C21.8751 13.9924 21.8044 13.9924 21.7337 13.9924C21.6393 14.0042 21.545 13.9806 21.4507 13.9335C21.38 13.8863 21.3211 13.8156 21.2857 13.7331C21.2386 13.6152 21.2268 13.4737 21.2268 13.3441V13.0612C21.2268 12.9669 21.2268 12.8608 21.2504 12.7665C21.2621 12.6958 21.2857 12.625 21.3329 12.5661C21.38 12.5072 21.439 12.4718 21.4979 12.4482C21.5686 12.4246 21.6511 12.4129 21.7337 12.4129C21.8751 12.4129 22.0165 12.4246 22.158 12.4482ZM24.6686 14.1692C24.6686 14.1809 24.6686 14.1927 24.6568 14.1927C24.6568 14.2 24.6523 14.2028 24.6461 14.2066C24.6422 14.209 24.6377 14.2118 24.6332 14.2163L24.6332 14.2163C24.6214 14.2281 24.6214 14.2281 24.6097 14.2281C24.5979 14.2281 24.5861 14.2399 24.5861 14.2399H24.4093H24.3857C24.3784 14.2399 24.3756 14.2354 24.3718 14.2292C24.3694 14.2253 24.3666 14.2208 24.3621 14.2163C24.3503 14.2045 24.3503 14.2045 24.3503 14.1927C24.3503 14.1809 24.3385 14.1692 24.3385 14.1692V12.9197C24.3503 12.7782 24.315 12.6368 24.2324 12.5307C24.1971 12.4953 24.1382 12.46 24.091 12.4482C24.0438 12.4246 23.9849 12.4246 23.926 12.4246C23.8435 12.4246 23.7492 12.4364 23.6666 12.4482C23.5723 12.46 23.4898 12.4835 23.4073 12.5307V14.1692C23.4073 14.1809 23.4073 14.1927 23.3955 14.1927C23.3955 14.1986 23.3926 14.2016 23.3896 14.2045C23.3867 14.2075 23.3837 14.2104 23.3837 14.2163L23.3602 14.2399C23.3543 14.2399 23.3484 14.2428 23.3425 14.2458C23.3366 14.2487 23.3307 14.2517 23.3248 14.2517H23.148H23.1244L23.1008 14.2281L23.0773 14.2045C23.0773 14.1927 23.0655 14.1809 23.0655 14.1809V11.4816C23.0655 11.4698 23.0655 11.458 23.0773 11.458C23.0773 11.4521 23.0802 11.4492 23.0832 11.4462C23.0861 11.4433 23.0891 11.4403 23.0891 11.4344C23.0958 11.4277 23.0987 11.4248 23.1022 11.4236C23.1047 11.4226 23.1076 11.4226 23.1126 11.4226H23.1362H23.3248H23.3602C23.372 11.4226 23.3837 11.4344 23.3837 11.4344C23.3955 11.4462 23.4073 11.4698 23.4073 11.4934V12.2714L23.4073 12.2714C23.5016 12.236 23.5959 12.2006 23.702 12.1771C23.7666 12.1609 23.8311 12.1558 23.8995 12.1504C23.931 12.148 23.9632 12.1454 23.9967 12.1417C24.1264 12.1417 24.2442 12.1653 24.3503 12.2242C24.4564 12.2831 24.5389 12.3774 24.5861 12.4835C24.645 12.625 24.6804 12.7782 24.6686 12.9315V14.1692ZM27.3093 14.1692V12.3421C27.3093 12.3186 27.3093 12.295 27.3211 12.2832C27.327 12.2773 27.3359 12.2714 27.3447 12.2655C27.3535 12.2596 27.3624 12.2537 27.3683 12.2478C27.5097 12.2125 27.6512 12.1771 27.8044 12.1535C27.9105 12.13 28.0284 12.13 28.1345 12.13C28.217 12.13 28.3113 12.1417 28.382 12.1653C28.4527 12.1889 28.5235 12.2243 28.5706 12.2832C28.771 12.1889 28.9832 12.13 29.2072 12.13C29.3132 12.13 29.4311 12.1535 29.5254 12.2007C29.6197 12.2478 29.6904 12.3303 29.7376 12.4246C29.7965 12.5543 29.8201 12.6958 29.8201 12.8372V14.181V14.2046C29.8201 14.2105 29.8172 14.2134 29.8142 14.2164C29.8113 14.2193 29.8083 14.2223 29.8083 14.2282C29.7965 14.2399 29.7965 14.2399 29.7847 14.2399H29.7612H29.5844C29.5726 14.2399 29.5608 14.2399 29.549 14.2282C29.5372 14.2282 29.5254 14.2164 29.5254 14.2164C29.5136 14.2046 29.5136 14.2046 29.5136 14.1928V14.1928V14.1692V12.8136C29.5254 12.7547 29.5136 12.6958 29.5018 12.6486C29.4901 12.5897 29.4665 12.5425 29.4311 12.4954C29.3958 12.46 29.3604 12.4364 29.3132 12.4246C29.2661 12.4129 29.2189 12.4011 29.1836 12.4011C29.0303 12.4129 28.8771 12.4364 28.7356 12.5072C28.7592 12.6015 28.771 12.7076 28.771 12.8019V14.1574V14.181C28.771 14.1869 28.7681 14.1898 28.7651 14.1928C28.7622 14.1957 28.7592 14.1987 28.7592 14.2046C28.7592 14.2119 28.7547 14.2146 28.7485 14.2185C28.7446 14.2209 28.7401 14.2237 28.7356 14.2282C28.7239 14.2399 28.7121 14.2399 28.7121 14.2399H28.5117C28.4999 14.2399 28.4881 14.2399 28.4881 14.2282C28.4822 14.2282 28.4793 14.2252 28.4763 14.2223C28.4734 14.2193 28.4704 14.2164 28.4645 14.2164C28.4527 14.2046 28.4527 14.181 28.4527 14.1692V14.1692V12.8254C28.4527 12.7429 28.441 12.6604 28.4174 12.5779C28.4056 12.5307 28.3702 12.4836 28.3231 12.46C28.2759 12.4364 28.217 12.4246 28.1581 12.4246C28.0048 12.4246 27.8516 12.4482 27.6983 12.4836V14.1692C27.6983 14.1865 27.692 14.1974 27.684 14.2113C27.6811 14.2164 27.6779 14.2218 27.6748 14.2282C27.6748 14.2399 27.663 14.2399 27.6512 14.2399H27.6276H27.4272C27.4154 14.2399 27.4154 14.2399 27.4036 14.2282C27.3978 14.2282 27.3948 14.2252 27.3919 14.2223C27.3889 14.2193 27.386 14.2164 27.3801 14.2164C27.3267 14.2057 27.3217 14.195 27.3124 14.1756L27.3093 14.1692ZM32.9319 11.7531V11.7767C32.9319 11.7826 32.929 11.7855 32.926 11.7885C32.9231 11.7914 32.9201 11.7944 32.9201 11.8003C32.9083 11.8121 32.8848 11.8238 32.8612 11.8238H32.6608H32.6372C32.6313 11.8238 32.6284 11.8209 32.6254 11.818C32.6225 11.815 32.6195 11.8121 32.6137 11.8121C32.6019 11.8003 32.6019 11.8003 32.6019 11.7885V11.7649V11.4466C32.6019 11.4294 32.6082 11.4184 32.6162 11.4046L32.6162 11.4046L32.6162 11.4046C32.6191 11.3995 32.6223 11.394 32.6254 11.3877C32.6372 11.3759 32.6608 11.3641 32.6844 11.3641H32.873H32.9083C32.9201 11.3641 32.9319 11.3759 32.9319 11.3759C32.9437 11.3877 32.9437 11.3877 32.9437 11.3995V11.3995V11.4349L32.9319 11.7531ZM32.9319 14.1696C32.9319 14.1814 32.9319 14.1932 32.9201 14.1932C32.9201 14.1991 32.9172 14.202 32.9142 14.2049C32.9113 14.2079 32.9083 14.2108 32.9083 14.2167C32.8966 14.2285 32.8966 14.2285 32.8848 14.2285H32.8612H32.6726C32.6608 14.2285 32.649 14.2285 32.649 14.2167C32.6431 14.2167 32.6402 14.2138 32.6372 14.2108C32.6343 14.2079 32.6313 14.2049 32.6254 14.2049L32.6019 14.1814C32.6019 14.1769 32.6001 14.1724 32.5987 14.1685C32.5963 14.1623 32.5946 14.1578 32.6019 14.1578V12.2246V12.2011C32.6019 12.1952 32.6048 12.1922 32.6078 12.1893C32.6107 12.1863 32.6137 12.1834 32.6137 12.1775C32.6254 12.1657 32.6254 12.1657 32.6372 12.1657H32.6608H32.8494C32.8667 12.1657 32.8776 12.172 32.8915 12.18C32.8966 12.1829 32.902 12.1861 32.9083 12.1893C32.9201 12.2011 32.9319 12.2246 32.9319 12.2482V14.1696ZM33.9574 13.8392C33.9692 13.8274 33.9692 13.8156 33.9692 13.8038C33.9692 13.7684 33.9456 13.7566 33.8867 13.7684H33.6391C33.6038 13.7684 33.5802 13.792 33.5684 13.8392L33.3562 14.5582V14.5818C33.3562 14.6171 33.3798 14.6289 33.4034 14.6289H33.592H33.6156C33.6274 14.6289 33.6391 14.6289 33.6391 14.6171C33.6564 14.5999 33.661 14.5889 33.6669 14.5751C33.669 14.57 33.6713 14.5645 33.6745 14.5582L33.9574 13.8392ZM35.9025 14.1694C35.9025 14.193 35.9025 14.2048 35.8907 14.2284L35.8907 14.2284L35.8907 14.2284L35.8907 14.2284C35.8839 14.2351 35.881 14.238 35.8776 14.2392C35.875 14.2401 35.8721 14.2401 35.8671 14.2401H35.8436H35.655H35.6314C35.6314 14.2401 35.6196 14.2284 35.6078 14.2284C35.596 14.2166 35.5842 14.193 35.5842 14.1694V11.4583C35.5842 11.4347 35.596 11.4229 35.6078 11.4111C35.6196 11.3993 35.6196 11.3993 35.6314 11.3993C35.6432 11.3993 35.655 11.3875 35.655 11.3875H35.8436H35.8671C35.873 11.3875 35.876 11.3905 35.8789 11.3934C35.8819 11.3964 35.8848 11.3993 35.8907 11.3993C35.9025 11.4111 35.9025 11.4347 35.9025 11.4465V14.1694ZM37.965 14.1457C37.9768 14.1339 37.9768 14.1221 37.9768 14.0985H37.965V12.8137C37.965 12.3304 37.7175 12.0947 37.2224 12.0947C37.1046 12.0947 36.9867 12.1182 36.8688 12.1418L36.8235 12.1545C36.7529 12.1742 36.6772 12.1953 36.6095 12.2243C36.5977 12.2243 36.5859 12.2361 36.5741 12.2479C36.5623 12.2597 36.5623 12.2833 36.5623 12.295V12.4483C36.555 12.4556 36.5568 12.4583 36.5591 12.4622C36.5606 12.4646 36.5623 12.4674 36.5623 12.4719C36.5668 12.4764 36.5696 12.4809 36.572 12.4847C36.5758 12.4909 36.5786 12.4954 36.5859 12.4954C36.5977 12.5072 36.6095 12.5072 36.6213 12.5072C36.6272 12.5072 36.633 12.5043 36.6389 12.5013C36.6448 12.4984 36.6507 12.4954 36.6566 12.4954L36.9395 12.4247C37.0338 12.4129 37.1281 12.4011 37.2342 12.4011C37.3521 12.3893 37.4582 12.4247 37.5525 12.4954C37.6232 12.5897 37.6586 12.7076 37.6468 12.8255V12.9787H37.3639C37.1871 12.9787 37.0103 13.0023 36.8334 13.0495C36.7156 13.0848 36.6095 13.1555 36.5387 13.2498C36.468 13.3559 36.4444 13.4856 36.4444 13.6035V13.6388C36.4327 13.7213 36.4444 13.8156 36.4798 13.8982C36.5152 13.9807 36.5623 14.0514 36.6331 14.1103C36.7627 14.2164 36.9749 14.2636 37.2696 14.2636C37.3776 14.2636 37.4757 14.2537 37.582 14.243L37.6114 14.24C37.7175 14.2282 37.8236 14.2046 37.9179 14.1811C37.9415 14.1693 37.9533 14.1575 37.965 14.1457ZM37.4582 11.8825C37.4818 11.8825 37.4935 11.8707 37.4935 11.8589C37.4935 11.8589 37.4935 11.8471 37.5053 11.8353L37.4935 11.8235L37.1281 11.352C37.1222 11.3461 37.1134 11.3402 37.1046 11.3344C37.0957 11.3285 37.0869 11.3226 37.081 11.3167C37.0692 11.3167 37.0603 11.3137 37.0515 11.3108C37.0427 11.3078 37.0338 11.3049 37.022 11.3049H36.7745C36.7391 11.3049 36.7274 11.3049 36.7274 11.3285C36.7274 11.3335 36.7274 11.3363 36.7283 11.3389C36.7295 11.3424 36.7324 11.3453 36.7391 11.352L37.1635 11.8353L37.1989 11.8707C37.1989 11.8707 37.2106 11.8825 37.2224 11.8825H37.2578H37.4582ZM37.6468 13.2381V13.9807L37.5643 14.016C37.5479 14.016 37.5289 14.0186 37.5086 14.0213C37.4851 14.0244 37.4599 14.0278 37.4346 14.0278H37.2814C37.1753 14.0278 37.0692 14.016 36.9749 13.9925C36.9693 13.9897 36.9631 13.9869 36.9565 13.984C36.9353 13.9744 36.9104 13.9633 36.8924 13.9453C36.8688 13.9335 36.8452 13.8982 36.8334 13.8746C36.7981 13.8156 36.7863 13.7331 36.7863 13.6624V13.627C36.7863 13.5681 36.7863 13.5092 36.8099 13.4502C36.8334 13.4031 36.8688 13.3559 36.9042 13.3324C36.9631 13.297 37.022 13.2734 37.081 13.2616C37.1753 13.2381 37.2696 13.2381 37.3639 13.2381H37.6468ZM38.5546 14.1692V12.3421C38.5546 12.3186 38.5546 12.295 38.5664 12.2832C38.5723 12.2773 38.5812 12.2714 38.59 12.2655C38.5988 12.2596 38.6077 12.2537 38.6136 12.2478L38.6136 12.2478C38.7551 12.2125 38.8965 12.1771 39.0379 12.1535C39.144 12.13 39.2619 12.13 39.368 12.13C39.4505 12.13 39.533 12.1417 39.6155 12.1653C39.6863 12.1889 39.757 12.2243 39.8041 12.2832C40.0045 12.1889 40.2167 12.13 40.4289 12.13C40.535 12.13 40.6528 12.1535 40.7471 12.2007C40.8414 12.2478 40.924 12.3303 40.9593 12.4246C41.0183 12.5543 41.0418 12.6958 41.0418 12.8372V14.181C41.0418 14.1928 41.0418 14.2046 41.03 14.2046C41.03 14.2105 41.0271 14.2134 41.0241 14.2164C41.0212 14.2193 41.0183 14.2223 41.0183 14.2282C41.0115 14.2349 41.0086 14.2378 41.0051 14.239C41.0026 14.2399 40.9997 14.2399 40.9947 14.2399H40.9711H40.7943C40.7825 14.2399 40.7707 14.2399 40.7707 14.2282C40.7648 14.2282 40.7619 14.2252 40.7589 14.2223C40.756 14.2193 40.753 14.2164 40.7471 14.2164C40.7354 14.2046 40.7354 14.2046 40.7354 14.1928V14.1692V12.8136C40.7471 12.6958 40.7118 12.5897 40.6411 12.4954C40.6057 12.46 40.5703 12.4364 40.5232 12.4246C40.476 12.4129 40.4289 12.4011 40.3817 12.4011C40.2285 12.4129 40.0752 12.4364 39.9338 12.5072C39.9574 12.6015 39.9692 12.7076 39.9692 12.8019V14.1574C39.9692 14.181 39.9692 14.1928 39.9574 14.2046L39.9338 14.2282C39.922 14.2282 39.9102 14.2399 39.9102 14.2399H39.7098H39.6863C39.6804 14.2399 39.6774 14.237 39.6745 14.234C39.6715 14.2311 39.6686 14.2282 39.6627 14.2282C39.6509 14.2164 39.6391 14.1928 39.6391 14.181V12.8254C39.6391 12.7429 39.6273 12.6604 39.6037 12.5779C39.592 12.5307 39.5566 12.4836 39.5094 12.46C39.4623 12.4364 39.4034 12.4246 39.3444 12.4246C39.1912 12.4246 39.0262 12.4482 38.8847 12.4836V14.1692C38.8847 14.1928 38.8847 14.2046 38.8611 14.2282C38.8493 14.2399 38.8493 14.2399 38.8375 14.2399H38.814H38.6136H38.59C38.5841 14.2399 38.5812 14.237 38.5782 14.234C38.5753 14.2311 38.5723 14.2282 38.5664 14.2282C38.5546 14.2046 38.5546 14.1928 38.5546 14.1692ZM42.7393 12.3421V14.1692C42.7393 14.1928 42.7393 14.2046 42.7864 14.1928C42.7982 14.1928 42.7982 14.1928 42.81 14.2046C42.8218 14.2164 42.8218 14.2164 42.8336 14.2164H43.034H43.0575C43.0693 14.2164 43.0811 14.2164 43.0811 14.2046C43.0811 14.1987 43.0841 14.1957 43.087 14.1928C43.0899 14.1898 43.0929 14.1869 43.0929 14.181V14.1574V12.4718C43.2343 12.4364 43.3994 12.4129 43.5526 12.4129C43.6115 12.4129 43.6705 12.4246 43.7176 12.4482C43.7648 12.4718 43.8002 12.519 43.8119 12.5661C43.8355 12.6486 43.8473 12.7311 43.8473 12.8136V14.1692C43.8473 14.181 43.8591 14.2046 43.8709 14.2164C43.8768 14.2164 43.8797 14.2193 43.8827 14.2223C43.8856 14.2252 43.8886 14.2282 43.8945 14.2282C43.8945 14.2399 43.9062 14.2399 43.918 14.2399H44.1184C44.1184 14.2472 44.1229 14.2455 44.1291 14.2431C44.133 14.2417 44.1375 14.2399 44.142 14.2399C44.1465 14.2354 44.151 14.2327 44.1548 14.2303C44.1611 14.2264 44.1656 14.2237 44.1656 14.2164C44.1656 14.2105 44.1685 14.2075 44.1715 14.2046C44.1744 14.2016 44.1774 14.1987 44.1774 14.1928V14.1692V12.8136C44.1774 12.7193 44.1656 12.6133 44.142 12.519C44.2834 12.4482 44.4367 12.4246 44.5899 12.4129C44.6253 12.4129 44.6724 12.4246 44.7196 12.4364C44.7667 12.4482 44.8021 12.4718 44.8375 12.5072C44.9082 12.6015 44.9436 12.7076 44.9318 12.8254V14.181V14.2046C44.9318 14.2164 44.9318 14.2164 44.9436 14.2282C44.9494 14.2282 44.9524 14.2311 44.9553 14.234C44.9583 14.237 44.9612 14.2399 44.9671 14.2399H44.9907H45.1675H45.1911C45.1961 14.2399 45.199 14.2399 45.2015 14.239C45.205 14.2378 45.2079 14.2349 45.2146 14.2282L45.2146 14.2282L45.2147 14.2282C45.2147 14.2223 45.2176 14.2193 45.2206 14.2164C45.2235 14.2134 45.2265 14.2105 45.2265 14.2046C45.2382 14.2046 45.2382 14.1928 45.2382 14.181V12.8372C45.2382 12.6958 45.2147 12.5543 45.1557 12.4246C45.1204 12.3303 45.0379 12.2478 44.9436 12.2007C44.8493 12.1535 44.7314 12.13 44.6253 12.13C44.4131 12.13 44.2009 12.1889 44.0005 12.2832C43.9534 12.2243 43.8827 12.1889 43.8119 12.1653C43.7294 12.1417 43.6469 12.13 43.5644 12.13C43.4465 12.13 43.3286 12.13 43.2226 12.1535C43.0811 12.1771 42.9397 12.2125 42.7982 12.2478L42.7982 12.2478C42.7923 12.2537 42.7835 12.2596 42.7746 12.2655C42.7658 12.2714 42.7569 12.2773 42.7511 12.2832C42.7393 12.295 42.7393 12.3186 42.7393 12.3421ZM48.3501 11.7767V11.7531H48.3383V11.4349V11.3995C48.3383 11.3877 48.3383 11.3877 48.3265 11.3759C48.3265 11.3759 48.3147 11.3641 48.303 11.3641H48.2676H48.079C48.0554 11.3641 48.0318 11.3759 48.0201 11.3877C48.0201 11.3877 48.0083 11.3995 48.0083 11.4113V11.4466V11.7531C48.0083 11.759 48.0112 11.7649 48.0142 11.7708C48.0171 11.7767 48.0201 11.7826 48.0201 11.7885L48.0436 11.8121C48.0495 11.8121 48.0525 11.815 48.0554 11.818C48.0584 11.8209 48.0613 11.8238 48.0672 11.8238H48.0908H48.2794C48.303 11.8238 48.3265 11.8121 48.3383 11.8003C48.3383 11.7944 48.3413 11.7914 48.3442 11.7885C48.3472 11.7855 48.3501 11.7826 48.3501 11.7767ZM48.3383 14.1932V14.1696H48.3619V12.2364C48.3619 12.2128 48.3501 12.1893 48.3383 12.1775C48.332 12.1743 48.3265 12.1712 48.3214 12.1682C48.3076 12.1602 48.2966 12.1539 48.2794 12.1539H48.1026C48.0908 12.1539 48.0672 12.1657 48.0554 12.1775C48.0554 12.1834 48.0525 12.1863 48.0495 12.1893C48.0466 12.1922 48.0436 12.1952 48.0436 12.2011C48.0318 12.2011 48.0318 12.2128 48.0318 12.2246V14.1578C48.0246 14.1578 48.0263 14.1623 48.0286 14.1685C48.0301 14.1724 48.0318 14.1769 48.0318 14.1814C48.0318 14.1864 48.0318 14.1893 48.0327 14.1918C48.034 14.1953 48.0368 14.1982 48.0436 14.2049C48.0495 14.2049 48.0525 14.2079 48.0554 14.2108C48.0584 14.2138 48.0613 14.2167 48.0672 14.2167C48.0672 14.2285 48.079 14.2285 48.0908 14.2285H48.2676H48.303C48.3147 14.2285 48.3147 14.2285 48.3265 14.2167L48.3265 14.2167C48.3265 14.2108 48.3295 14.2079 48.3324 14.2049C48.3354 14.202 48.3383 14.1991 48.3383 14.1932Z" fill="black"/>
  <path fill-rule="evenodd" clip-rule="evenodd" d="M33.8053 5.37574H36.5594C37.842 5.37574 38.3692 5.80852 38.3771 6.85508V8.4918C38.3771 9.53836 37.8499 9.97115 36.5673 9.97115H34.6394C33.3174 9.97115 32.7823 9.5541 32.7823 8.52328V2.6059C32.7823 2.28328 32.9712 2.10229 33.2938 2.10229C33.6086 2.10229 33.8053 2.29115 33.8053 2.6059V5.37574ZM34.4899 9.01115H36.8427C37.3542 9.01115 37.3542 8.91672 37.3463 8.47606V6.87869C37.3463 6.49311 37.3463 6.32787 36.6932 6.32787H33.7896V8.52328C33.7896 8.86164 33.7896 9.01115 34.4899 9.01115ZM39.4944 4.06949C39.1954 4.06949 39.0302 4.23473 39.0302 4.54162C39.0302 4.71473 39.0931 5.01375 39.4944 5.01375C39.9115 5.01375 39.9744 4.7226 39.9744 4.54162C39.9744 4.36851 39.9115 4.06949 39.4944 4.06949ZM30.3981 5.37573H28.3522C27.0696 5.37573 26.5739 5.79278 26.5739 6.85508V8.50754C26.5739 9.55409 27.0696 9.96327 28.3286 9.96327H30.3981C31.6335 9.96327 32.1135 9.55409 32.1135 8.50754V6.85508C32.1135 5.80852 31.6178 5.37573 30.3981 5.37573ZM27.6125 6.85508C27.6125 6.47737 27.6125 6.32786 28.242 6.32786H30.5161C31.0591 6.32786 31.0591 6.43803 31.0591 6.79213V8.5154C31.0591 8.91672 31.0591 9.01114 30.5161 9.01114H28.242C27.6125 9.01114 27.6125 8.88524 27.6125 8.5154V6.85508ZM39.4788 5.2341C39.1876 5.2341 39.0145 5.43082 39.0145 5.76131V9.4282C39.0145 9.76656 39.1876 9.97115 39.4945 9.97115C39.7935 9.97115 39.9824 9.76656 39.9824 9.4282V5.76918C39.9824 5.43082 39.8014 5.2341 39.4788 5.2341ZM40.6433 2.61377C40.6433 2.29115 40.8243 2.10229 41.1312 2.10229C41.4459 2.10229 41.6269 2.29115 41.6269 2.61377V9.45967C41.6269 9.78229 41.4538 9.97115 41.139 9.97115C40.8243 9.97115 40.6433 9.78229 40.6433 9.45967V2.61377ZM46.3325 5.37573H44.0978C42.7994 5.37573 42.2722 5.80065 42.2722 6.83934V8.4918C42.2722 9.4754 43.004 9.97114 44.4362 9.97114H45.0342C45.3253 9.97114 45.4984 9.78229 45.4984 9.48327C45.4984 9.18426 45.3253 9.01114 45.0342 9.01114H44.2473C43.3109 9.01114 43.3109 8.69639 43.3109 8.58622V8.20852H47.3712C47.5522 8.20852 47.8591 8.14557 47.8591 7.70491V6.68196C47.8591 5.89508 47.5994 5.37573 46.3325 5.37573ZM43.3109 6.79213C43.3109 6.45376 43.3109 6.32786 43.9404 6.32786H46.4821C46.7102 6.32786 46.7811 6.35934 46.7968 6.38295C46.8362 6.42229 46.8362 6.54032 46.8362 6.68196V7.23278H43.3109V6.79213ZM23.3791 5.3364H24.1424C25.4092 5.3364 25.905 5.75344 25.9129 6.81574V9.45967C25.9129 9.76656 25.7319 9.88459 25.6217 9.92394C25.543 9.94754 25.4643 9.96328 25.3856 9.96328H25.3699C25.2991 9.96328 25.2283 9.94754 25.1574 9.92394C25.0473 9.88459 24.8742 9.77443 24.8742 9.46754V6.81574C24.8742 6.4459 24.8742 6.28853 24.2447 6.28853H23.2847C22.6551 6.28853 22.6551 6.45377 22.6551 6.7764V6.81574V9.47541C22.6551 9.59344 22.6237 9.70361 22.5529 9.79803C22.5056 9.85312 22.4427 9.90033 22.3719 9.9318C22.3011 9.95541 22.2224 9.97115 22.1437 9.97115H22.1201C22.0414 9.97115 21.9627 9.95541 21.8919 9.9318C21.8211 9.90033 21.7581 9.85312 21.7109 9.79017C21.6479 9.69574 21.6086 9.58558 21.6165 9.46754V6.81574V6.7764L21.6163 6.7702C21.6086 6.45166 21.6046 6.28853 20.987 6.28853H20.0112C19.3817 6.28853 19.3817 6.4459 19.3817 6.81574V9.46754C19.3817 9.76656 19.2007 9.88459 19.0984 9.92394C18.9489 9.97902 18.7837 9.97902 18.6342 9.92394C18.5004 9.87672 18.343 9.75869 18.343 9.46754V6.81574C18.343 5.75344 18.8388 5.3364 20.1135 5.3364H20.8768C21.4433 5.3364 21.8447 5.41508 22.1279 5.59607C22.4112 5.42295 22.8125 5.3364 23.3791 5.3364Z" fill="black"/>
  <path d="M15.6441 6.21769C15.8802 6.45375 16.069 6.72916 16.1949 7.03605C16.3208 7.34293 16.3838 7.67343 16.3838 8.00392C16.3838 8.33441 16.3208 8.6649 16.1949 8.97179C16.069 9.27867 15.8802 9.55408 15.6441 9.79015L10.3011 15.1331C9.829 15.6052 9.18376 15.8728 8.5149 15.8728C7.84605 15.8728 7.20081 15.6052 6.72868 15.1331L1.37786 9.79015C1.14179 9.55408 0.960807 9.27867 0.827036 8.97179C0.701134 8.6649 0.638184 8.33441 0.638184 8.00392C0.638184 7.67343 0.701134 7.34293 0.827036 7.03605C0.952938 6.72916 1.14179 6.45375 1.37786 6.21769L6.72868 0.866869C7.20081 0.394738 7.84605 0.127197 8.5149 0.127197C9.18376 0.127197 9.829 0.394738 10.3011 0.866869L15.6441 6.21769Z" fill="#FFC425"/>
  <path d="M10.3011 5.06872L9.40408 5.96577C9.32539 6.04446 9.25457 6.14675 9.21523 6.25692C9.16802 6.36708 9.14441 6.47725 9.14441 6.59528C9.14441 6.83134 9.23884 7.05954 9.40408 7.22479C9.56933 7.39003 9.79752 7.48446 10.0336 7.48446C10.2697 7.48446 10.4979 7.39003 10.6631 7.22479L11.2218 6.6661C11.2218 6.6661 11.4264 6.86282 11.9064 7.34282L12.4651 7.90151L8.63293 11.7336C8.45982 11.9068 8.24736 11.9225 8.08211 11.7572L4.82441 8.50741C4.79293 8.47593 4.76146 8.43659 4.74572 8.38938C4.72998 8.34216 4.72212 8.30282 4.72212 8.25561C4.72212 8.20839 4.72998 8.16118 4.75359 8.12184C4.76933 8.08249 4.8008 8.04315 4.83228 8.01167L9.32539 3.51856C9.41195 3.43987 9.48277 3.33757 9.52998 3.22741C9.5772 3.11725 9.6008 2.99921 9.6008 2.88118C9.6008 2.76315 9.5772 2.64511 9.53785 2.53495C9.49064 2.42479 9.42769 2.32249 9.34113 2.2438C9.25457 2.15725 9.16015 2.09429 9.04998 2.04708C8.93982 1.99987 8.82179 1.98413 8.70375 1.98413C8.58572 1.98413 8.46769 2.00774 8.35752 2.05495C8.24736 2.10216 8.15293 2.17298 8.06638 2.25954L2.95162 7.36643C2.71556 7.61036 2.58179 7.94085 2.58179 8.27921C2.58179 8.61757 2.72343 8.94807 2.96736 9.18413L7.41326 13.6222C7.64933 13.8661 7.97982 13.9999 8.31818 14.0077C8.65654 14.0077 8.98703 13.8818 9.23097 13.6379L14.0624 8.80643C14.2985 8.56249 14.4323 8.23987 14.4323 7.89364C14.4323 7.55528 14.2906 7.22479 14.0467 6.98872L13.3621 6.30413L13.1497 6.09167L12.111 5.05298C11.867 4.81692 11.5365 4.68315 11.1982 4.68315C10.8598 4.69102 10.5372 4.82479 10.3011 5.06872Z" fill="black"/>
</svg>