<svg width="48" height="30" viewBox="0 0 48 30" fill="none" xmlns="http://www.w3.org/2000/svg">
<path fill-rule="evenodd" clip-rule="evenodd" d="M38.2113 12.4211C39.2713 12.4173 40.1963 11.636 40.2001 10.3999C40.2029 9.34273 39.3861 8.4635 38.1799 8.44457C37.1441 8.42835 36.1807 9.24432 36.1675 10.4253C36.1554 11.5462 37.0391 12.4098 38.2113 12.4211ZM19.9314 13.1062C19.9314 13.2148 19.9311 13.3234 19.9308 13.432V13.432V13.4321V13.4321V13.4322V13.4322C19.9299 13.717 19.929 14.0017 19.9342 14.2866C19.9364 14.4007 19.8941 14.424 19.7908 14.424C19.4627 14.4226 19.1346 14.4223 18.8065 14.422C18.359 14.4216 17.9116 14.4211 17.4642 14.418C17.3477 14.4175 17.289 14.4467 17.2522 14.5629L17.2138 14.6852C16.9873 15.4068 16.7608 16.1284 16.6386 16.8767C16.5876 17.1898 16.5705 17.504 16.6518 17.816C16.7858 18.3313 17.1368 18.6076 17.6559 18.6958C18.0738 18.7666 18.483 18.7076 18.8884 18.6055C18.9737 18.5839 19.0579 18.5583 19.1422 18.5326L19.207 18.513C19.2795 18.4914 19.324 18.4957 19.3344 18.5892C19.3997 19.1735 19.4689 19.7572 19.5381 20.3409L19.5382 20.3417L19.5499 20.4411C19.5687 20.6013 19.5876 20.7618 19.614 20.9209C19.6337 21.0404 19.5991 21.0998 19.4783 21.1442C18.6484 21.4481 17.7959 21.5995 16.9078 21.5405C16.2558 21.4973 15.6192 21.3908 15.0233 21.115C14.2593 20.7613 13.7106 20.2028 13.4156 19.4203C13.1558 18.7314 13.0976 18.0166 13.1965 17.2915C13.2841 16.6502 13.4678 16.0308 13.6514 15.4116L13.6514 15.4116L13.6514 15.4116C13.6784 15.3207 13.7053 15.2298 13.732 15.1388C13.7935 14.9296 13.8556 14.7203 13.9231 14.5127C13.9538 14.4185 13.8992 14.4185 13.8366 14.4186L13.8325 14.4186L13.4412 14.4198L13.4408 14.4198C13.1796 14.4206 12.9182 14.4215 12.6571 14.4218C12.4819 14.4224 12.4819 14.4213 12.4824 14.252L12.4824 14.2504C12.4826 14.0463 12.4829 13.8423 12.4832 13.6383C12.4842 13.0671 12.4851 12.496 12.4819 11.9247C12.4813 11.816 12.5126 11.7847 12.6208 11.7852C13.0872 11.7886 13.5537 11.7888 14.0202 11.789H14.0203H14.0204H14.0204H14.0204H14.0205H14.0205C14.2148 11.7891 14.4092 11.7892 14.6037 11.7895H14.6054C14.7904 11.7895 14.7911 11.7895 14.8459 11.617C14.8987 11.4504 14.9518 11.2838 15.0049 11.1172L15.005 11.1171L15.005 11.1171L15.005 11.1171L15.005 11.1171L15.005 11.1171C15.1538 10.6503 15.3025 10.1835 15.4462 9.71529C15.4852 9.58822 15.5396 9.54117 15.6813 9.54225C16.4158 9.547 17.1503 9.54625 17.8849 9.54551C18.1555 9.54523 18.4261 9.54496 18.6967 9.54496C18.8651 9.54496 18.8648 9.54602 18.8148 9.69995L18.8131 9.70501C18.6044 10.3501 18.3968 10.9952 18.1903 11.6408C18.1442 11.7847 18.1463 11.7868 18.3012 11.7874L18.5507 11.7877H18.5507H18.5507H18.5508H18.5508H18.5508C18.9663 11.7883 19.3818 11.7889 19.7969 11.7857C19.8963 11.7847 19.9342 11.8063 19.9325 11.9144C19.9274 12.2023 19.9282 12.4901 19.9291 12.7777V12.7778V12.7779V12.778V12.7781V12.7782C19.9294 12.8876 19.9298 12.9969 19.9298 13.1062H19.9314ZM11.1796 16.5728L11.1796 17.5007V17.501C11.1794 18.7383 11.1792 19.9757 11.1818 21.2129C11.1818 21.3221 11.161 21.3545 11.0401 21.354C10.2074 21.3487 9.37428 21.3495 8.5411 21.3503H8.54107H8.54105H8.54102H8.541H8.54097L7.95277 21.3507H7.95114C7.80172 21.3507 7.80063 21.3507 7.80063 21.2026C7.80063 18.1329 7.80063 15.0626 7.80173 11.9929C7.80173 11.9643 7.8011 11.9396 7.80057 11.9184C7.79905 11.8587 7.79823 11.8261 7.81404 11.8084C7.83297 11.7873 7.87572 11.7874 7.96962 11.7878H7.96962L8.01319 11.7879C8.35099 11.7877 8.68873 11.7879 9.02646 11.7881H9.02649H9.02652H9.02655H9.02658H9.02661C9.70197 11.7885 10.3772 11.7888 11.0528 11.7863C11.1626 11.7858 11.1824 11.8236 11.1824 11.9209C11.1803 13.1271 11.1804 14.3329 11.1806 15.5389V15.539V15.539V15.5391V15.5391V15.5391L11.1807 16.5728H11.1796ZM35.549 18.7682C35.4265 18.7823 35.3029 18.7747 35.1815 18.7601C34.6724 18.699 34.2637 18.4768 34.0127 18.022C33.8243 17.6808 33.8491 17.3115 33.9106 16.9486C33.9603 16.6535 34.022 16.3603 34.0837 16.0671C34.1126 15.9295 34.1416 15.7919 34.1693 15.6541C34.2292 15.3549 34.289 15.0556 34.3487 14.7562C34.4421 14.288 34.5356 13.8196 34.6301 13.3512C34.6773 13.1167 34.7256 12.8825 34.7738 12.6483C34.8219 12.4146 34.87 12.1809 34.9171 11.9469C34.9172 11.9469 34.9173 11.9469 34.9173 11.9469L34.9284 11.8928C34.9359 11.8568 34.9433 11.8207 34.9503 11.7847C35.008 11.4954 35.0641 11.2058 35.1202 10.9162L35.1204 10.9152C35.1715 10.6514 35.2226 10.3876 35.2749 10.1241C35.3381 9.80398 35.404 9.48387 35.4732 9.16484C35.5034 9.02479 35.516 8.95936 35.4803 8.93233C35.449 8.90853 35.3804 8.91448 35.2513 8.92854C34.6663 8.99127 34.0841 9.07346 33.5096 9.20431C33.0125 9.31733 32.5242 9.46062 32.042 9.62554C32.025 9.63149 32.009 9.63744 31.9947 9.64447C31.964 9.66015 31.9404 9.68286 31.9321 9.73045C31.9145 9.83406 31.8922 9.9366 31.8698 10.0392L31.8698 10.0392C31.8565 10.0999 31.8433 10.1605 31.8311 10.2214C31.7729 10.5121 31.7151 10.8028 31.6574 11.0935L31.6567 11.0966L31.6563 11.0988C31.5681 11.5424 31.4799 11.986 31.3906 12.4292C31.3423 12.6673 31.2941 12.9048 31.2453 13.1423C31.2452 13.1424 31.2451 13.1424 31.245 13.1424L31.1895 13.4131L31.1893 13.4136C31.0853 13.9201 30.9813 14.4263 30.882 14.9333C30.8407 15.1444 30.7961 15.3548 30.7515 15.5653C30.6332 16.1242 30.5149 16.6831 30.4574 17.2531C30.3953 17.8733 30.3827 18.4897 30.5832 19.0921C30.7095 19.4722 30.8913 19.8232 31.1577 20.1281C31.1599 20.1352 31.1654 20.139 31.1725 20.14C31.176 20.1456 31.1793 20.1512 31.1826 20.1569C31.1838 20.159 31.1849 20.161 31.1861 20.1631L31.1862 20.1632C31.1951 20.1789 31.204 20.1945 31.2154 20.2082C31.6658 20.7403 32.2386 21.0934 32.8977 21.3188C33.5832 21.553 34.2907 21.586 35.0069 21.534C35.0926 21.5276 35.12 21.4832 35.1349 21.4102C35.2123 21.0285 35.2914 20.6472 35.371 20.2666L35.3712 20.2657L35.3712 20.2656L35.3713 20.2656L35.3713 20.2655C35.4668 19.8084 35.5623 19.3513 35.661 18.8947C35.6825 18.7952 35.6539 18.7558 35.549 18.7682ZM25.0434 15.3481V15.3394H25.1632L25.1851 15.3395H26.4671H26.4687C26.6368 15.3395 26.639 15.3395 26.6275 15.1707C26.6137 14.9723 26.5451 14.7895 26.4336 14.6273C26.277 14.3997 26.0864 14.2369 25.8667 14.1266C25.8669 14.1264 25.867 14.1262 25.8672 14.126C25.6414 14.013 25.3861 13.9541 25.1049 13.9379C24.2486 13.8881 23.5621 14.4543 23.4703 15.208C23.4583 15.3097 23.4742 15.3497 23.584 15.3492C23.9375 15.3472 24.2913 15.3475 24.6452 15.3479H24.6452H24.6452L25.0434 15.3481ZM27.4103 12.3043C27.501 12.2185 27.5943 12.1332 27.6903 12.0486C27.0136 11.6652 26.2765 11.4651 25.4905 11.417C25.1351 11.3953 24.7803 11.3872 24.4266 11.4413C24.4036 11.4433 24.3804 11.4451 24.3571 11.4469L24.3571 11.4469L24.3569 11.4469L24.292 11.4521C24.1262 11.4581 23.9647 11.4862 23.8065 11.537C23.7952 11.5389 23.7838 11.5407 23.7724 11.5424C23.761 11.5442 23.7496 11.5459 23.7384 11.5478C23.6289 11.5532 23.5267 11.5873 23.4246 11.6215C23.3925 11.6322 23.3604 11.6429 23.3281 11.6527C22.9535 11.7663 22.5965 11.9188 22.2713 12.1372C22.2669 12.1397 22.2624 12.142 22.2579 12.1443C22.2533 12.1466 22.2488 12.1489 22.2444 12.1513C22.1747 12.1843 22.1076 12.2205 22.0549 12.2784C22.0467 12.2827 22.0379 12.287 22.0291 12.2913C22.006 12.2897 21.9901 12.2978 21.9901 12.3232L21.9577 12.3422C21.9044 12.3578 21.8671 12.3941 21.8336 12.4352C21.827 12.4395 21.8198 12.4444 21.8127 12.4487C21.799 12.4444 21.7918 12.4482 21.7957 12.4633C21.7894 12.4671 21.7835 12.4712 21.7774 12.4754L21.7699 12.4806L21.7616 12.479C21.7616 12.479 21.7633 12.4865 21.7633 12.4871C21.7556 12.4892 21.7512 12.4941 21.7501 12.5022C21.677 12.5368 21.6205 12.5898 21.571 12.652C21.5644 12.652 21.56 12.6553 21.5589 12.6617C21.3431 12.8299 21.1618 13.0289 21.0091 13.2533L21.0049 13.2586C20.9985 13.2667 20.9918 13.2752 20.9855 13.2836C20.9635 13.289 20.957 13.3041 20.9592 13.3247L20.9501 13.3355L20.941 13.3463L20.9328 13.3447L20.9355 13.3523L20.9224 13.3723L20.9147 13.3712L20.9196 13.3771L20.9092 13.3911L20.9009 13.4026L20.8954 13.4101C20.8536 13.4307 20.8386 13.4695 20.8235 13.5086L20.8213 13.5145C20.8136 13.5247 20.8059 13.535 20.7977 13.5453C20.7548 13.5804 20.7334 13.6269 20.718 13.6783C20.7114 13.688 20.7049 13.6978 20.6988 13.7075C20.6796 13.7135 20.6691 13.7248 20.6741 13.7459C20.6701 13.7522 20.6662 13.7587 20.6624 13.7653L20.6549 13.7778C20.6263 13.787 20.6164 13.807 20.6225 13.8357C20.6175 13.8465 20.6126 13.8573 20.6082 13.8681C20.4418 14.1196 20.3358 14.3969 20.2479 14.6825L20.2447 14.6925C20.2402 14.7066 20.2357 14.7209 20.2308 14.7349C20.104 15.0896 20.0326 15.4552 20.0095 15.8304L20.0048 15.8975L20.0002 15.9645C19.9981 15.9762 19.9957 15.9878 19.9933 15.9994C19.988 16.0254 19.9826 16.0513 19.9815 16.0775C19.9656 16.4506 19.9645 16.8232 20.0089 17.1947C20.0661 17.6743 20.1737 18.1415 20.3747 18.5849C20.3726 18.5925 20.3753 18.5984 20.3824 18.6028C20.3945 18.6714 20.4236 18.7325 20.4681 18.7871C20.4725 18.7974 20.4769 18.8077 20.4819 18.8185C20.539 18.9623 20.6076 19.0997 20.7032 19.2235C20.7103 19.2349 20.7175 19.2462 20.7252 19.2576C20.7278 19.3015 20.7563 19.33 20.7849 19.3585L20.79 19.3636L20.7962 19.3723C20.8031 19.382 20.8101 19.392 20.8169 19.402L21.1602 19.8535C21.1558 19.8654 21.1596 19.8691 21.1717 19.8648L21.1776 19.8727C21.1823 19.8789 21.187 19.8852 21.192 19.8913C21.4848 20.2541 21.8462 20.5418 22.2417 20.7857C22.9941 21.2502 23.8197 21.4908 24.7051 21.5422C25.8299 21.6076 26.9048 21.4373 27.8979 20.8873C28.222 20.7078 28.5224 20.4948 28.7745 20.2217C28.7822 20.2131 28.7904 20.2039 28.7981 20.1947C28.8816 20.1334 28.9453 20.0543 29.0089 19.9755L29.0089 19.9754L29.0089 19.9754C29.0328 19.9458 29.0566 19.9162 29.0815 19.8875C29.1365 19.8248 29.1002 19.7886 29.0381 19.7523C28.6348 19.5159 28.2319 19.2787 27.8291 19.0416L27.8285 19.0413L27.8279 19.0409C27.461 18.8249 27.094 18.6089 26.7269 18.3935C26.5682 18.3003 26.566 18.3026 26.4442 18.4332L26.4429 18.4346L26.4363 18.4418C26.4039 18.4767 26.3713 18.5119 26.3358 18.5433C25.8755 18.9504 25.3323 19.0451 24.7424 18.9402C24.1196 18.8299 23.5928 18.2935 23.4973 17.6808C23.4926 17.6512 23.4882 17.625 23.4842 17.6019C23.4694 17.5149 23.4621 17.4716 23.4803 17.4504C23.4984 17.4295 23.5414 17.4301 23.6271 17.4313C23.6523 17.4317 23.6812 17.4321 23.7142 17.4321C23.9423 17.4321 24.1699 17.4321 24.398 17.4315M24.4008 17.4315L24.4033 17.4315C25.4034 17.431 26.4035 17.4305 27.4036 17.4305C27.9484 16.0602 28.7553 15.0296 29.6434 14.2542C29.2853 13.3944 28.7168 12.698 27.9133 12.1832C27.8397 12.1362 27.765 12.0918 27.6897 12.0491C27.5939 12.1336 27.5008 12.2187 27.4103 12.3043M27.404 17.431C28.2114 17.431 29.0194 17.4315 29.8268 17.4321C29.9229 17.4321 29.9635 17.4126 29.9789 17.3099C30.1239 16.3339 30.0657 15.3773 29.7191 14.444C29.6955 14.3797 29.6702 14.3169 29.6444 14.2542C28.7557 15.0296 27.9489 16.0608 27.404 17.431Z" fill="#EE1C25"/>
<path fill-rule="evenodd" clip-rule="evenodd" d="M35.2512 8.92857C35.3803 8.91451 35.4489 8.90857 35.4802 8.93236C35.5159 8.95939 35.5033 9.02482 35.4731 9.16487C35.4039 9.4839 35.338 9.80402 35.2748 10.1241C35.2224 10.388 35.1713 10.6521 35.1201 10.9163C35.064 11.2058 35.0079 11.4954 34.9502 11.7847C34.9432 11.8208 34.9358 11.8568 34.9284 11.8929C34.9246 11.9109 34.9209 11.9289 34.9172 11.9469C34.4575 12.0005 32.8905 12.2422 31.2449 13.1436C31.2938 12.9057 31.3421 12.6677 31.3905 12.4293C31.48 11.9853 31.5683 11.541 31.6567 11.0967C31.7146 10.8049 31.7726 10.5131 31.831 10.2215C31.8432 10.1606 31.8565 10.0999 31.8697 10.0393C31.8921 9.93669 31.9144 9.83412 31.932 9.73048C31.9403 9.68289 31.9639 9.66018 31.9947 9.6445C32.0089 9.63747 32.0249 9.63152 32.0419 9.62558C32.5241 9.46065 33.0124 9.31736 33.5095 9.20435C34.084 9.07349 34.6662 8.9913 35.2512 8.92857ZM27.6896 12.0491C27.7649 12.0919 27.8396 12.1362 27.9132 12.1832C28.7167 12.698 29.2852 13.3945 29.6433 14.2542C28.7552 15.0296 27.9483 16.0603 27.4035 17.4305C26.4034 17.4305 25.4033 17.431 24.4032 17.4316L24.3979 17.4316C24.4595 17.145 24.6605 16.3447 25.1603 15.3395H25.185H26.467H26.4686C26.6367 15.3395 26.6389 15.3395 26.6274 15.1708C26.6136 14.9723 26.545 14.7896 26.4335 14.6273C26.277 14.3997 26.0864 14.2369 25.8667 14.1266C26.3264 13.4426 26.9223 12.7261 27.6896 12.0491Z" fill="url(#paint0_linear_927_10529)"/>
<defs>
<linearGradient id="paint0_linear_927_10529" x1="35.6435" y1="8.94437" x2="24.6244" y2="18.5798" gradientUnits="userSpaceOnUse">
<stop stop-color="#FFDCA1"/>
<stop offset="1" stop-color="#FDE0A6" stop-opacity="0"/>
</linearGradient>
</defs>
</svg>
