<svg width="24" height="24" viewBox="0 0 24 24" fill="none" xmlns="http://www.w3.org/2000/svg">
<path d="M19.954 7.09262C19.3174 6.2167 18.2027 5.4261 16.815 4.86652C15.4349 4.30999 13.8324 4.00221 12.3028 4.00004C10.773 3.99621 9.16856 4.30082 7.78643 4.85301C6.3964 5.40841 5.27899 6.19558 4.64009 7.06942C4.02647 7.90869 3.84962 8.81331 4.12863 9.6855C4.30966 10.2513 4.83764 10.632 5.44278 10.6329L7.5149 10.6348C7.51562 10.6348 7.5163 10.6348 7.51698 10.6348C7.93016 10.6348 8.31837 10.4539 8.58218 10.1384C8.84321 9.82616 8.95131 9.41816 8.87885 9.0189C8.87672 9.00717 8.87416 8.99554 8.87121 8.98397L8.76218 8.56009C9.36595 8.27201 10.734 7.71541 12.2964 7.72426C13.8577 7.73226 15.2248 8.28854 15.8293 8.57675L15.7185 8.99823C15.7153 9.01019 15.7126 9.02218 15.7104 9.03426C15.6369 9.43329 15.7438 9.84158 16.0039 10.1545C16.2673 10.4714 16.6558 10.6534 17.07 10.6541L19.1421 10.656C19.1429 10.656 19.1435 10.656 19.1442 10.656C19.7482 10.656 20.2764 10.277 20.4587 9.71243C20.7404 8.84047 20.5659 7.93458 19.954 7.09262Z" fill="url(#paint0_linear_1387_4608)"/>
<path d="M16.9802 12.7714L15.4349 11.1489C15.3415 11.0507 15.2119 10.9952 15.0765 10.9952H14.0778V10.3205C14.0778 10.0472 13.8562 9.8255 13.5828 9.8255C13.3094 9.8255 13.0878 10.0471 13.0878 10.3205V10.9952H11.5026V10.3205C11.5026 10.0472 11.281 9.8255 11.0076 9.8255C10.7342 9.8255 10.5125 10.0471 10.5125 10.3205V10.9952H9.51396C9.37849 10.9952 9.24891 11.0508 9.1555 11.1489L7.61026 12.7714C6.39869 14.0435 5.73145 15.7116 5.73145 17.4684V19.5049C5.73145 19.7783 5.95307 20 6.22648 20H18.3639C18.6373 20 18.8589 19.7783 18.8589 19.5049V17.4684C18.859 15.7116 18.1917 14.0436 16.9802 12.7714ZM12.2952 18.1905C10.8666 18.1905 9.70439 17.0282 9.70439 15.5996C9.70439 14.1711 10.8666 13.0088 12.2952 13.0088C13.7238 13.0088 14.886 14.1711 14.886 15.5996C14.886 17.0282 13.7238 18.1905 12.2952 18.1905Z" fill="url(#paint1_linear_1387_4608)"/>
<path d="M12.2949 14.3987C11.2357 14.3987 10.374 15.2604 10.374 16.3196C10.374 17.3788 11.2357 18.2405 12.2949 18.2405C13.3541 18.2405 14.2158 17.3788 14.2158 16.3196C14.2158 15.2604 13.3541 14.3987 12.2949 14.3987Z" fill="url(#paint2_linear_1387_4608)"/>
<defs>
<linearGradient id="paint0_linear_1387_4608" x1="6.94191" y1="4.38744" x2="11.3883" y2="13.3878" gradientUnits="userSpaceOnUse">
<stop stop-color="#F97045"/>
<stop offset="1" stop-color="#EF2827"/>
</linearGradient>
<linearGradient id="paint1_linear_1387_4608" x1="8.05939" y1="10.4177" x2="16.608" y2="19.3752" gradientUnits="userSpaceOnUse">
<stop stop-color="#F97045"/>
<stop offset="1" stop-color="#EF2827"/>
</linearGradient>
<linearGradient id="paint2_linear_1387_4608" x1="11.0553" y1="14.6223" x2="14.218" y2="17.1908" gradientUnits="userSpaceOnUse">
<stop stop-color="#F97045"/>
<stop offset="1" stop-color="#EF2827"/>
</linearGradient>
</defs>
</svg>
