<svg xmlns="http://www.w3.org/2000/svg" width="64" height="10" viewBox="0 0 64 10" fill="none">
  <path d="M54.6736 4.7907C54.5958 4.45655 54.4552 4.17534 54.2435 3.93051L54.2418 3.92886C53.9523 3.60463 53.5851 3.38959 53.117 3.27048C52.6836 3.15634 52.045 3.1001 51.1683 3.1001C50.2105 3.1001 49.5951 3.21258 49.1584 3.37801C48.9632 3.44914 48.7515 3.60132 48.596 3.74855V3.42763H47.3586V9.91215H48.6026V5.79316C48.6026 4.71792 49.701 4.29279 50.7961 4.29279H51.3453C52.4404 4.29279 53.5487 4.71792 53.5487 5.79316V9.91215H54.7761V6.37709C54.7728 5.57315 54.7431 5.08515 54.6736 4.7907Z" fill="#E30613"/>
  <path d="M33.7427 3.0818H34.98C34.9949 2.41846 35.0164 1.7849 35.0892 1.49706C35.1471 1.20923 35.2761 0.964406 35.4631 0.77748C35.6781 0.519423 35.9808 0.330843 36.3696 0.201814C36.7434 0.100907 37.3803 0.0148879 38.214 0L39.3769 0L38.2587 1.09178C38.219 1.09178 37.8236 1.09344 37.7856 1.09344C36.1396 1.09344 36.2538 2.14717 36.2538 3.0818H39.1486L37.9775 4.27449H36.224L36.2306 9.90378H34.98V4.27449H33.7427V3.0818Z" fill="#E30613"/>
  <path d="M32.5054 0.950439V2.22088H33.7444V0.950439H32.5054Z" fill="#E30613"/>
  <path d="M22.944 6.51174C22.944 7.2826 22.8547 7.91617 22.6761 8.39093C22.4958 8.88554 21.8804 9.99882 18.8879 9.99882C15.8971 9.99882 15.2801 8.88388 15.0998 8.39093C14.9211 7.91617 14.8318 7.2826 14.8318 6.51174C14.8318 5.74088 14.9228 5.10731 15.0998 4.63255C15.2801 4.13794 15.8954 3.02466 18.8879 3.02466C21.8787 3.02466 22.4958 4.13794 22.6761 4.63255C22.8531 5.10731 22.944 5.74088 22.944 6.51174ZM21.3775 5.02129C21.2617 4.74173 21.0632 4.55977 20.7539 4.45224C20.433 4.34968 19.8705 4.29013 18.8863 4.27524C17.902 4.29013 17.3396 4.34968 17.0187 4.45224C16.711 4.55977 16.5108 4.74008 16.395 5.02129C16.304 5.23634 16.1998 5.75907 16.1998 6.51174C16.1998 7.26441 16.304 7.78714 16.395 8.00219C16.5108 8.28175 16.7093 8.46371 17.0187 8.57124C17.3396 8.6738 17.902 8.73335 18.8863 8.74824C19.8705 8.73335 20.433 8.6738 20.7539 8.57124C21.0632 8.46371 21.2617 8.2834 21.3775 8.00219C21.4685 7.78714 21.5727 7.26441 21.5727 6.51174C21.5727 5.75907 21.4701 5.23634 21.3775 5.02129Z" fill="#0064B0"/>
  <path d="M46.4472 6.51174C46.4472 7.2826 46.3562 7.91617 46.1792 8.39093C45.9989 8.88554 45.3836 9.99882 42.3911 9.99882C39.4003 9.99882 38.7833 8.88388 38.6029 8.39093C38.4243 7.91617 38.335 7.2826 38.335 6.51174C38.335 5.74088 38.4243 5.10731 38.6029 4.63255C38.7833 4.13794 39.3986 3.02466 42.3911 3.02466C45.3819 3.02466 45.9989 4.13794 46.1792 4.63255C46.3579 5.10731 46.4472 5.74088 46.4472 6.51174ZM44.8823 5.02129C44.7665 4.74173 44.568 4.55977 44.2587 4.45224C43.9378 4.34968 43.3753 4.29013 42.3911 4.27524C41.4068 4.29013 40.8444 4.34968 40.5235 4.45224C40.2141 4.55977 40.014 4.74008 39.8998 5.02129C39.8089 5.23634 39.7046 5.75907 39.7046 6.51174C39.7046 7.26441 39.8089 7.78714 39.8998 8.00219C40.014 8.28175 40.2141 8.46371 40.5235 8.57124C40.8444 8.6738 41.4068 8.73335 42.3911 8.74824C43.3753 8.73335 43.9378 8.6738 44.2587 8.57124C44.5664 8.46371 44.7665 8.2834 44.8823 8.00219C44.9733 7.78714 45.0775 7.26441 45.0775 6.51174C45.0775 5.75907 44.9733 5.23634 44.8823 5.02129Z" fill="#E30613"/>
  <path d="M8.25628 3.33301C8.25628 3.33467 8.25628 3.33467 8.25628 3.33301V3.33301ZM13.8393 4.78045C13.7615 4.4463 13.6192 4.16508 13.4058 3.92026L13.4042 3.9186C13.1131 3.59438 12.7425 3.38099 12.2694 3.26188C11.8327 3.14774 11.2024 3.0915 10.3174 3.0915C9.35302 3.0915 8.69796 3.16925 8.25463 3.33467H8.25297C7.88739 3.467 7.58467 3.71183 7.36135 4.04598C7.10164 3.69529 6.77576 3.45377 6.37379 3.31813C5.91557 3.16428 5.0653 3.08984 3.99172 3.08984C3.18612 3.08984 2.63196 3.14774 2.29946 3.26519L2.29615 3.26684C2.04471 3.36113 1.80485 3.52159 1.5683 3.74987C1.5683 3.54641 1.5683 3.41738 1.5683 3.41738H0.327637V9.9019H1.56499V5.7829C1.56499 4.70766 2.65677 4.28253 3.76013 4.28253H4.31429C5.41765 4.28253 6.52101 4.70766 6.52101 5.7829V9.9019H7.75671V5.7829C7.75671 4.70766 8.83691 4.28253 9.94027 4.28253H10.4944C11.5978 4.28253 12.7045 4.70766 12.7045 5.7829V9.9019H13.9402V6.36519C13.9402 5.56124 13.9087 5.07325 13.8393 4.78045Z" fill="#0064B0"/>
  <path d="M63.0253 6.98552H63.6589C63.6672 6.83333 63.6721 6.67618 63.6721 6.51076C63.6721 5.7399 63.5828 5.10634 63.4041 4.63158C63.2238 4.13697 62.6085 3.02368 59.6177 3.02368C56.6268 3.02368 56.0098 4.13697 55.8295 4.63158C55.6509 5.10634 55.5615 5.7399 55.5615 6.51076C55.5615 7.28163 55.6525 7.91519 55.8295 8.38995C56.0098 8.88456 56.6268 9.99784 59.6177 9.99784C62.6085 9.99784 63.2238 8.88291 63.4041 8.38995C63.4207 8.34694 63.4356 8.30228 63.4505 8.25596H61.9567C61.8409 8.39657 61.6871 8.49913 61.4836 8.57026C61.1627 8.67282 60.6003 8.73237 59.6177 8.74726C58.6334 8.73237 58.071 8.67282 57.75 8.57026C57.4407 8.46274 57.2422 8.28243 57.1264 8.00121C57.0553 7.83579 56.9792 7.48675 56.9461 6.99214H63.0253V6.98552ZM57.75 4.45292C58.071 4.35036 58.6334 4.29081 59.6177 4.27592C60.6019 4.29081 61.1643 4.35036 61.4836 4.45292C61.7913 4.56045 61.9915 4.74076 62.1072 5.02197C62.1668 5.16258 62.2313 5.43552 62.271 5.8193H56.9643C57.0023 5.43552 57.0669 5.16258 57.1281 5.02197C57.2406 4.74241 57.4407 4.56045 57.75 4.45292Z" fill="#E30613"/>
  <path d="M32.5054 3.08203V9.90235H33.7444V3.08203H32.5054Z" fill="#0064B0"/>
  <path d="M31.3658 4.63351C31.1855 4.1389 30.5701 3.02561 27.5776 3.02561C26.4329 3.02561 25.6372 3.18938 25.0798 3.41931V0.00170898H23.8424V9.92037H25.0798V9.60773C25.6372 9.83601 26.4329 9.99978 27.5776 9.99978C30.5684 9.99978 31.1855 8.88649 31.3658 8.39188C31.5444 7.91712 31.6338 7.28356 31.6338 6.51269C31.6338 5.74183 31.5444 5.10827 31.3658 4.63351ZM30.0689 8.00314C29.9531 8.2827 29.7546 8.46467 29.4452 8.57219C29.1243 8.67475 28.5619 8.7343 27.5776 8.74919C26.5934 8.7343 26.2063 8.67475 25.8854 8.57219C25.576 8.46467 25.3759 8.28436 25.2617 8.00314C25.1889 7.83276 25.1095 7.47048 25.0798 6.95437V6.07102C25.1095 5.5549 25.1906 5.19263 25.2617 5.0239C25.3759 4.74434 25.576 4.56238 25.8854 4.45485C26.2063 4.35229 26.5934 4.29274 27.5776 4.27785C28.5619 4.29274 29.1243 4.35229 29.4452 4.45485C29.7529 4.56238 29.9531 4.74268 30.0689 5.0239C30.1598 5.23895 30.2641 5.76168 30.2641 6.51435C30.2641 7.26536 30.1598 7.78809 30.0689 8.00314Z" fill="#0064B0"/>
</svg>