<svg xmlns="http://www.w3.org/2000/svg" width="37" height="16" viewBox="0 0 37 16" fill="none">
  <path fill-rule="evenodd" clip-rule="evenodd" d="M8.49692 0.32547C7.54849 0.872432 7.22141 2.09489 7.76782 3.04332L11.9045 10.208C12.452 11.1559 13.6739 11.4824 14.6213 10.9354C15.5697 10.3885 15.8973 9.16602 15.3493 8.21813L11.2137 1.05348C10.6667 0.105044 9.44317 -0.221493 8.49692 0.32547Z" fill="#939598"/>
  <path fill-rule="evenodd" clip-rule="evenodd" d="M18.7579 0.32547C19.7058 0.872432 20.0334 2.09435 19.4865 3.04332L15.3498 10.208C14.8017 11.1559 13.5798 11.4824 12.6319 10.9354C11.6846 10.3885 11.357 9.16602 11.9045 8.21813L16.0411 1.05348C16.5881 0.105044 17.8111 -0.221493 18.7579 0.32547Z" fill="#F68B22"/>
  <path fill-rule="evenodd" clip-rule="evenodd" d="M23.3847 10.9355C22.4369 10.3885 22.1092 9.16497 22.6556 8.21818L26.7934 1.05352C27.3398 0.105637 28.5623 -0.221446 29.5102 0.324969C30.4581 0.872478 30.7851 2.09494 30.2382 3.04173L26.1015 10.2069C25.5545 11.1559 24.3326 11.4819 23.3847 10.9355Z" fill="#F68B22"/>
  <path fill-rule="evenodd" clip-rule="evenodd" d="M17.9988 10.9355C17.0503 10.3885 16.7227 9.16497 17.2697 8.21818L21.4069 1.05352C21.9538 0.105637 23.1763 -0.221446 24.1236 0.324969C25.0715 0.872478 25.3992 2.09494 24.8522 3.04173L20.7155 10.2069C20.168 11.1559 18.9461 11.4819 17.9988 10.9355Z" fill="#F68B22"/>
  <path d="M2.29201 15.8572H1.96576L0.503174 12.0603H1.08461L2.1276 14.8904L3.17487 12.0603H3.75117L2.29201 15.8572Z" fill="#939598"/>
  <path d="M4.80797 12.6529H4.2959V12.0603H4.80797V12.6529ZM4.2959 15.8572V12.9885H4.80797V15.8572H4.2959Z" fill="#939598"/>
  <path d="M6.15497 14.6109C6.19864 14.8507 6.30654 15.0451 6.47951 15.1932C6.65249 15.3422 6.858 15.4167 7.0952 15.4167C7.26475 15.4167 7.4206 15.3756 7.56018 15.2934C7.70061 15.2112 7.81193 15.0956 7.895 14.9466H8.47729C8.34542 15.2652 8.16131 15.5101 7.92411 15.6788C7.68606 15.8483 7.41032 15.9331 7.09606 15.9331C6.88455 15.9331 6.68931 15.8954 6.51462 15.82C6.33993 15.7447 6.1798 15.6325 6.0368 15.4844C5.90407 15.3431 5.79874 15.1787 5.72253 14.992C5.64717 14.8045 5.6095 14.6135 5.6095 14.4191C5.6095 14.217 5.64375 14.0286 5.71225 13.8531C5.78076 13.6776 5.8818 13.5174 6.01625 13.3727C6.15925 13.216 6.31938 13.0987 6.49835 13.0191C6.67732 12.9394 6.87342 12.9009 7.08578 12.9009C7.33754 12.9009 7.57217 12.9591 7.78796 13.0764C8.0046 13.1937 8.18357 13.3581 8.32487 13.5671C8.40793 13.6981 8.46958 13.8403 8.50897 13.997C8.54836 14.1528 8.56892 14.3301 8.56892 14.5296V14.6118H6.15497V14.6109ZM8.00375 14.1468C7.93953 13.9113 7.8282 13.7281 7.66979 13.5988C7.51137 13.4695 7.32212 13.4052 7.10119 13.4052C6.87513 13.4052 6.67903 13.472 6.51376 13.6048C6.34764 13.7375 6.23289 13.9182 6.17038 14.1477H8.00375V14.1468Z" fill="#939598"/>
  <path d="M9.54249 15.8572V13.4587H9.13574V12.9885H9.54249V12.0603H10.0571V12.9885H10.463V13.4587H10.0571V15.8572H9.54249Z" fill="#939598"/>
  <path d="M11.7011 15.8573H11.1838V12.9886H11.6814V13.3132C11.7893 13.1847 11.9074 13.0905 12.0367 13.0306C12.166 12.9706 12.3142 12.9407 12.4812 12.9407C12.8562 12.9407 13.1448 13.0503 13.346 13.2712C13.5464 13.493 13.6466 13.8081 13.6466 14.22V15.8564H13.1285V14.3313C13.1285 14.0273 13.072 13.8013 12.959 13.6548C12.8451 13.5076 12.6713 13.4348 12.4349 13.4348C12.178 13.4348 11.9905 13.5213 11.8757 13.6942C11.7601 13.8672 11.7019 14.1532 11.7019 14.5514V15.8573H11.7011Z" fill="#939598"/>
  <path d="M16.9187 15.8568V15.5032C16.7868 15.6411 16.6395 15.7447 16.476 15.8157C16.3141 15.886 16.1403 15.9211 15.9553 15.9211C15.5246 15.9211 15.1658 15.7781 14.8807 15.4895C14.5947 15.2018 14.4525 14.8413 14.4525 14.408C14.4525 14.2067 14.4876 14.0149 14.5596 13.8342C14.6306 13.6544 14.7325 13.4934 14.8644 13.3573C15.0083 13.2057 15.1675 13.0935 15.3388 13.0216C15.5092 12.948 15.7053 12.9128 15.9237 12.9128C16.1206 12.9128 16.3013 12.948 16.4666 13.0173C16.631 13.0875 16.7817 13.192 16.9178 13.3341V12.9891H17.4393V15.8577H16.9187V15.8568ZM14.9894 14.402C14.9894 14.6923 15.0853 14.9363 15.2771 15.1324C15.4698 15.3276 15.7044 15.4261 15.9827 15.4261C16.2371 15.4261 16.4606 15.3276 16.6541 15.1307C16.8485 14.9337 16.9452 14.7034 16.9452 14.4388C16.9452 14.1562 16.8493 13.9156 16.6575 13.7152C16.4649 13.514 16.2371 13.4146 15.9725 13.4146C15.701 13.4146 15.4698 13.5097 15.2771 13.7015C15.0845 13.8933 14.9894 14.1262 14.9894 14.402Z" fill="#939598"/>
  <path d="M20.1523 14.4103C20.1523 14.061 20.1035 13.8084 20.0042 13.6499C19.9065 13.4915 19.749 13.4127 19.534 13.4127C19.3123 13.4127 19.1487 13.4924 19.0434 13.6517C18.938 13.8101 18.885 14.0567 18.885 14.3907V15.8584H18.3943V12.9897H18.8541V13.3254C18.95 13.197 19.0579 13.101 19.1787 13.0368C19.2986 12.9743 19.4356 12.9426 19.5897 12.9426C19.7986 12.9426 19.9716 12.9829 20.1095 13.0625C20.2482 13.143 20.3612 13.268 20.4503 13.4393C20.5385 13.2715 20.6558 13.1481 20.8031 13.0651C20.9504 12.9829 21.1285 12.9426 21.3391 12.9426C21.6637 12.9426 21.9232 13.048 22.1184 13.2595C22.3136 13.471 22.4113 13.7536 22.4113 14.1064V15.8584H21.8932V14.186C21.8932 13.9419 21.8392 13.751 21.7322 13.6157C21.6252 13.4795 21.4753 13.4119 21.2818 13.4119C21.0583 13.4119 20.8981 13.4838 20.8005 13.6285C20.7021 13.7733 20.6532 14.0156 20.6532 14.3581V15.8575H20.1514V14.4103H20.1523Z" fill="#939598"/>
  <path d="M23.2083 14.4257C23.2083 14.2228 23.2425 14.0318 23.3102 13.8554C23.3795 13.679 23.4806 13.5206 23.615 13.3802C23.7589 13.2252 23.9216 13.1062 24.1031 13.0222C24.2829 12.9383 24.4722 12.8972 24.6657 12.8972C24.8746 12.8972 25.0682 12.934 25.2463 13.0094C25.4244 13.0839 25.5862 13.1944 25.7301 13.3408C25.8714 13.4855 25.9793 13.6482 26.0546 13.8289C26.13 14.0096 26.1685 14.1971 26.1685 14.3889C26.1685 14.5859 26.1343 14.7768 26.0632 14.9635C25.993 15.1493 25.8937 15.312 25.7669 15.4516C25.6205 15.6117 25.4569 15.7333 25.2745 15.8155C25.093 15.8977 24.8995 15.9397 24.694 15.9397C24.4842 15.9397 24.2906 15.9012 24.1134 15.8258C23.9353 15.7505 23.7768 15.6383 23.6356 15.4901C23.502 15.3488 23.3966 15.1861 23.3213 14.9986C23.2451 14.8111 23.2083 14.6201 23.2083 14.4257ZM23.7426 14.4206C23.7426 14.7066 23.8342 14.9464 24.0158 15.1373C24.1973 15.3283 24.4234 15.4233 24.694 15.4233C24.9603 15.4233 25.1838 15.3274 25.3627 15.1365C25.5434 14.9447 25.6333 14.704 25.6333 14.4163C25.6333 14.1252 25.5434 13.8863 25.3627 13.697C25.1838 13.5078 24.9586 13.4127 24.6888 13.4127C24.4216 13.4127 24.1964 13.5086 24.0149 13.7004C23.8342 13.8923 23.7426 14.132 23.7426 14.4206Z" fill="#939598"/>
  <path d="M27.4691 15.5035V15.8572H26.9451V12.0603H27.4631V13.3345C27.6027 13.1932 27.7551 13.0887 27.9213 13.0177C28.0874 12.9483 28.2681 12.9132 28.4625 12.9132C28.6817 12.9132 28.8761 12.9483 29.0473 13.0219C29.2186 13.0939 29.377 13.2052 29.5209 13.3576C29.6544 13.4963 29.7572 13.6565 29.8291 13.8363C29.9002 14.0178 29.9362 14.2088 29.9362 14.4083C29.9362 14.8408 29.7932 15.2013 29.508 15.4898C29.2229 15.7776 28.8641 15.9214 28.4308 15.9214C28.2467 15.9214 28.0728 15.8863 27.911 15.8161C27.7483 15.745 27.601 15.6414 27.4691 15.5035ZM27.4477 14.44C27.4477 14.7037 27.5445 14.9341 27.738 15.1319C27.9315 15.3289 28.1559 15.4273 28.4094 15.4273C28.686 15.4273 28.9197 15.3297 29.1107 15.1336C29.3025 14.9384 29.3975 14.6952 29.3975 14.4023C29.3975 14.1283 29.3008 13.8954 29.1073 13.7027C28.9146 13.5109 28.6842 13.4158 28.4145 13.4158C28.1499 13.4158 27.923 13.5152 27.7329 13.7147C27.5428 13.9142 27.4477 14.1566 27.4477 14.44Z" fill="#939598"/>
  <path d="M31.2604 12.6529H30.7483V12.0603H31.2604V12.6529ZM30.7483 15.8572V12.9885H31.2604V15.8572H30.7483Z" fill="#939598"/>
  <path d="M32.2227 15.8572V12.0603H32.7347V15.8572H32.2227Z" fill="#939598"/>
  <path d="M34.0811 14.6109C34.1248 14.8507 34.2335 15.0451 34.4065 15.1932C34.5795 15.3422 34.7841 15.4167 35.0222 15.4167C35.1926 15.4167 35.3476 15.3756 35.488 15.2934C35.6276 15.2112 35.7389 15.0956 35.8229 14.9466H36.4051C36.2724 15.2652 36.0883 15.5101 35.8511 15.6788C35.6131 15.8483 35.3373 15.9331 35.0222 15.9331C34.8107 15.9331 34.6163 15.8954 34.4416 15.82C34.2661 15.7456 34.1068 15.6325 33.9647 15.4844C33.8311 15.3431 33.7257 15.1787 33.6504 14.992C33.575 14.8045 33.5365 14.6135 33.5365 14.4191C33.5365 14.217 33.5716 14.0286 33.6384 13.8531C33.7078 13.6776 33.8097 13.5174 33.9432 13.3727C34.0863 13.216 34.2472 13.0987 34.4254 13.0191C34.6043 12.9394 34.8013 12.9009 35.0128 12.9009C35.2645 12.9009 35.4992 12.9591 35.7158 13.0764C35.9316 13.1937 36.1106 13.3581 36.251 13.5671C36.3349 13.6981 36.3966 13.8403 36.4368 13.997C36.4771 14.1528 36.4968 14.3301 36.4968 14.5296V14.6118H34.0811V14.6109ZM35.929 14.1468C35.8648 13.9113 35.7544 13.7281 35.5959 13.5988C35.4384 13.4695 35.2491 13.4052 35.0273 13.4052C34.8021 13.4052 34.6052 13.472 34.4399 13.6048C34.2738 13.7375 34.1599 13.9182 34.0965 14.1477H35.929V14.1468Z" fill="#939598"/>
</svg>