<svg xmlns="http://www.w3.org/2000/svg" width="55" height="10" viewBox="0 0 55 10" fill="none">
  <path fill-rule="evenodd" clip-rule="evenodd" d="M12.2007 0.000732422C11.865 0.000732422 11.5939 0.273197 11.5939 0.607584V0.981878V1.10985V2.07311C11.7838 1.62726 12.2296 1.44699 12.6837 1.40158C12.7567 1.3947 12.9369 1.39333 13.1378 1.39333C13.5231 1.3947 13.8369 1.08233 13.8369 0.69703V0.607584C13.8369 0.27182 13.5644 0.000732422 13.23 0.000732422H12.2007ZM35.6666 8.16027C36.1427 8.48365 36.9987 8.48365 37.2794 8.48365V8.48227H37.8656V9.45929C37.8656 9.70974 37.6633 9.91202 37.4129 9.91202H36.4813C35.2387 9.91202 34.5093 9.75102 33.8763 9.33682C33.1924 8.88684 32.8883 8.27036 32.8883 7.3415V3.53251H31.1379H30.699H28.4587V6.67685C28.4546 7.17775 28.4504 7.80111 28.9926 8.15889C29.4687 8.48227 30.3247 8.48227 30.6054 8.48227H31.193V9.45929C31.193 9.70974 30.9907 9.91202 30.7402 9.91202H29.8086C28.566 9.91202 27.8367 9.75102 27.2037 9.33682C26.5198 8.88684 26.2157 8.27036 26.2157 7.3415V3.53251H25.6254C25.2222 3.53251 24.8947 3.205 24.8947 2.80181V2.10276H26.2171V0.997766C26.2171 0.616592 26.5253 0.30835 26.9065 0.30835H27.7693C28.1505 0.30835 28.4587 0.616592 28.4587 0.997766V2.10276H30.6811H31.1379H32.8883V1.03492C32.8883 0.633105 33.2131 0.30835 33.6149 0.30835H34.4061C34.8079 0.30835 35.1327 0.633105 35.1327 1.03492V2.10414H37.8119V2.84447C37.8119 3.22564 37.5037 3.53388 37.1225 3.53388H35.1327V6.67823C35.1286 7.17912 35.1244 7.80249 35.6666 8.16027ZM6.31957 7.83585C6.237 8.01061 6.15168 8.10419 6.12279 8.10419C6.09251 8.10419 6.00719 8.01061 5.92601 7.83585L3.71877 3.17231C3.40915 2.51729 2.75001 2.10034 2.02482 2.10034H0.87854L4.58295 9.28349C4.94761 9.98529 5.67005 9.99905 6.07462 9.99905H6.09939H6.12279C6.58652 9.99905 7.28695 9.99905 7.64473 9.28349L11.3491 2.10172H10.2056C9.47905 2.10172 8.81853 2.52142 8.51029 3.17781L6.31957 7.83585ZM12.2354 9.91098H13.1918C13.5468 9.91098 13.8358 9.62338 13.8358 9.26697V2.74435C13.8358 2.38932 13.5482 2.10034 13.1918 2.10034H12.2354C11.8804 2.10034 11.5914 2.38794 11.5914 2.74435V9.26835C11.5914 9.62338 11.8804 9.91098 12.2354 9.91098ZM17.4359 7.61466C17.3726 7.41237 17.319 6.97753 17.3121 6.63764H22.826C23.3049 6.63764 23.6352 6.54406 23.8966 6.33352C24.3163 5.99776 24.3727 5.53402 24.3727 5.12532C24.3727 4.26527 24.2145 3.19743 22.9802 2.57545C22.0706 2.11446 20.9023 2.07593 19.7835 2.07593C18.8904 2.07593 17.2295 2.07593 16.163 2.81213C15.0787 3.56072 14.9948 4.63957 14.9948 6.08308C14.9948 7.11239 15.0484 8.18023 15.6979 8.92331C16.5098 9.83978 17.6616 9.91546 18.6771 9.91546H23.5843C23.8485 9.91546 24.0618 9.7008 24.0618 9.43796V8.48571H19.3101C18.4872 8.48434 17.6877 8.37838 17.4359 7.61466ZM17.3148 5.22303L17.3151 5.21539C17.3315 4.74287 17.3445 4.36794 17.7373 4.01207C18.2935 3.50765 19.132 3.50567 19.6962 3.50434L19.712 3.5043H19.7574C20.3628 3.5043 21.055 3.53182 21.5834 3.85382C21.7252 3.94052 22.1848 4.27078 22.1848 4.86249C22.1848 5.06065 22.1352 5.26293 21.7651 5.26293H18.8037C18.4198 5.27532 17.5818 5.36614 17.3148 5.91519V5.22303ZM40.6837 6.63764C40.6905 6.97753 40.7442 7.41237 40.8075 7.61466C41.0593 8.37838 41.8588 8.48434 42.6817 8.48571H47.4333V9.43796C47.4333 9.7008 47.22 9.91546 46.9558 9.91546H42.0487C41.0332 9.91546 39.8814 9.83978 39.0695 8.92331C38.42 8.18023 38.3663 7.11239 38.3663 6.08308C38.3663 4.63957 38.4503 3.56072 39.5346 2.81213C40.6011 2.07593 42.262 2.07593 43.1551 2.07593C44.2739 2.07593 45.4421 2.11446 46.3517 2.57545C47.5861 3.19743 47.7443 4.26527 47.7443 5.12532C47.7443 5.53402 47.6879 5.99776 47.2682 6.33352C47.0067 6.54406 46.6765 6.63764 46.1976 6.63764H40.6837ZM40.6853 5.21539L40.685 5.22303V5.91519C40.952 5.36614 41.79 5.27532 42.174 5.26293H45.1353C45.5054 5.26293 45.555 5.06065 45.555 4.86249C45.555 4.27078 45.0954 3.94052 44.9536 3.85382C44.4252 3.53182 43.7331 3.5043 43.1276 3.5043H43.0822L43.0664 3.50434C42.5022 3.50567 41.6637 3.50765 41.1075 4.01207C40.7147 4.36794 40.7017 4.74286 40.6853 5.21539ZM51.2221 0.931671V7.41577C51.2221 8.00611 51.701 8.48361 52.2914 8.48361H54.1215V9.13587C54.1215 9.56521 53.7734 9.91335 53.3441 9.91335H51.573C50.1405 9.91335 48.9791 8.75194 48.9791 7.31944V0.931671C48.9791 0.557377 49.2819 0.254639 49.6562 0.254639H50.5451C50.9194 0.254639 51.2221 0.557377 51.2221 0.931671Z" fill="#DB3038"/>
</svg>