<svg xmlns="http://www.w3.org/2000/svg" width="64" height="12" viewBox="0 0 64 12" fill="none">
  <path fill-rule="evenodd" clip-rule="evenodd" d="M38.8302 10.1552H40.7221V5.01042C40.7221 4.27179 40.4645 3.69951 39.9474 3.30053C39.4926 2.95332 38.929 2.77827 38.2527 2.77827C37.7804 2.77827 37.3494 2.87016 36.9569 3.05685C36.5666 3.23947 36.2997 3.48723 36.1566 3.79256V0H34.2653V10.1558H36.1566V5.84151C36.1566 5.37914 36.2851 4.99529 36.5358 4.68996C36.7882 4.38404 37.147 4.23224 37.6077 4.23224C38.0788 4.23224 38.4074 4.34914 38.5952 4.58585C38.7517 4.78708 38.8302 5.13139 38.8302 5.61876V10.1552ZM8.43596 0.0046875H10.2796V1.87043H8.43596V0.0046875ZM4.77484 10.1367L7.54263 2.76328H5.68328L3.84778 7.77602L2.01111 2.76328H0.162231L2.92072 10.1367H4.77484ZM10.2796 2.7498H8.43596V10.1366H10.2796V2.7498ZM22.5008 10.1485H24.2485V5.65568C24.2485 3.75736 23.2376 2.80006 21.2189 2.78203C20.6216 2.78203 20.0901 2.86985 19.6178 3.04666C19.1101 3.24033 18.7437 3.51367 18.5151 3.86612C18.2889 4.21624 18.1516 4.68035 18.1103 5.25205H19.9045C19.9389 4.91647 20.0808 4.65592 20.3326 4.47272C20.5559 4.30406 20.8229 4.21973 21.1364 4.21973C21.4405 4.21973 21.7052 4.30231 21.9331 4.46458C22.1611 4.62742 22.2763 4.84668 22.2763 5.12061C22.2763 5.43118 21.8959 5.63241 21.1381 5.7307C20.0651 5.86214 19.3549 6.01219 19.0066 6.18027C18.2464 6.54028 17.869 7.20388 17.869 8.16583C17.869 8.83699 18.1167 9.34995 18.6152 9.70181C19.042 10.0031 19.5864 10.1525 20.2436 10.1525C21.1957 10.1525 21.8901 9.917 22.3257 9.44242C22.3629 9.6088 22.3976 9.74279 22.4312 9.87206C22.4548 9.96331 22.4779 10.0522 22.5008 10.1485ZM21.2672 6.92471C21.7371 6.83573 22.0634 6.7165 22.2501 6.56587C22.2501 6.63682 22.2542 6.74733 22.2623 6.89796C22.271 7.04859 22.2763 7.16316 22.2763 7.24401C22.2763 7.69416 22.1838 8.03497 21.9971 8.26354C21.8552 8.43278 21.6482 8.57643 21.3736 8.6945C21.098 8.81605 20.8328 8.87421 20.5769 8.87421C20.0197 8.87421 19.7388 8.60958 19.7388 8.07743C19.7388 7.6645 19.9045 7.37137 20.2302 7.20388C20.3902 7.11606 20.7351 7.023 21.2672 6.92471ZM33.3489 6.53746C33.3489 7.52617 33.1075 8.34679 32.6195 8.99585C32.056 9.74261 31.2534 10.1189 30.21 10.1288H30.1966C29.2603 10.1288 28.5205 9.76704 27.8383 9.03947V11.9998H25.9766V2.79434H27.8144C27.8144 2.79434 27.8051 3.86795 27.8144 3.8761C27.8144 3.8761 28.7746 2.80248 30.0512 2.80248C30.6886 2.80248 31.2824 2.97637 31.828 3.32184C32.3758 3.67021 32.7661 4.1099 33.0005 4.64264C33.2331 5.17537 33.3489 5.80756 33.3489 6.53746ZM31.2871 6.53746C31.2871 5.12187 30.7084 4.41116 29.5557 4.41116C28.4297 4.41116 27.8662 5.1556 27.8662 6.63982C27.8662 7.26213 28.0441 7.7588 28.396 8.12986C28.7205 8.46777 29.1114 8.63526 29.5702 8.63526C30.0367 8.63526 30.4281 8.46253 30.741 8.11707C31.1056 7.72914 31.2871 7.20222 31.2871 6.53746ZM56.4155 10.1553H54.5225V5.61891C54.5225 5.13153 54.444 4.78723 54.2875 4.586C54.0996 4.34929 53.771 4.23239 53.3005 4.23239C52.8399 4.23239 52.4811 4.38419 52.2287 4.6901C51.978 4.99544 51.8495 5.37929 51.8495 5.84166V10.1559H49.9581V2.76445H51.85V3.79271C51.9937 3.48737 52.2601 3.23961 52.6509 3.05699C53.0429 2.8703 53.4739 2.77841 53.9473 2.77841C54.6231 2.77841 55.1872 2.95347 55.6414 3.30068C56.1579 3.69965 56.4161 4.27194 56.4161 5.01056V10.1553H56.4155ZM15.7653 10.1553H17.6578V5.01056C17.6578 4.27194 17.4002 3.69965 16.8832 3.30068C16.4295 2.95347 15.8654 2.77841 15.1896 2.77841C14.7167 2.77841 14.2852 2.8703 13.8932 3.05699C13.5018 3.23961 13.236 3.48737 13.0923 3.79271V2.76445H11.201V10.1559H13.0923V5.84166C13.0923 5.37929 13.2203 4.99544 13.4715 4.6901C13.7239 4.38419 14.0816 4.23239 14.5428 4.23239C15.0139 4.23239 15.3425 4.34929 15.5304 4.586C15.6874 4.78723 15.7653 5.13153 15.7653 5.61891V10.1553ZM63.8379 6.93501H59.1078C59.1509 7.50962 59.3329 7.95279 59.651 8.26801C59.925 8.52915 60.26 8.65826 60.6543 8.65826C60.9457 8.65826 61.2085 8.59022 61.44 8.44889C61.6721 8.30989 61.8233 8.12262 61.8925 7.88533H63.746C63.5407 8.5972 63.1714 9.14622 62.6369 9.53705C62.1059 9.92671 61.4726 10.1215 60.7421 10.1215C58.4489 10.1215 57.3032 8.84961 57.3032 6.30223C57.3032 5.22803 57.5939 4.36844 58.1726 3.72404C58.7531 3.08138 59.5661 2.75859 60.6147 2.75859C62.7626 2.75918 63.8379 4.15383 63.8379 6.93501ZM61.9821 5.76775C61.9367 5.29608 61.7808 4.92328 61.5098 4.65168C61.2411 4.38124 60.9271 4.24456 60.5752 4.24456C60.232 4.24456 59.9354 4.37309 59.6877 4.6255C59.4114 4.89653 59.241 5.27921 59.1724 5.76775H61.9821ZM48.0303 9.14948C48.688 8.47367 49.0155 7.57453 49.0155 6.45206C49.0155 5.34703 48.7002 4.45604 48.0704 3.77499C47.4126 3.07766 46.51 2.72813 45.3573 2.72813C44.2051 2.72813 43.299 3.06952 42.6441 3.75463C41.9852 4.44033 41.6595 5.34005 41.6595 6.45206C41.6595 7.55592 41.9881 8.45157 42.6517 9.13552C43.3112 9.82238 44.215 10.1632 45.3573 10.1632C46.4832 10.1632 47.3725 9.82704 48.0303 9.14948ZM45.3532 4.28912C46.5071 4.28912 47.0846 5.00506 47.0846 6.44624C47.0846 7.8851 46.5071 8.60453 45.3532 8.60453C44.1923 8.60453 43.6102 7.8851 43.6102 6.44624C43.6102 5.00506 44.1923 4.28912 45.3532 4.28912Z" fill="#00A0E3"/>
</svg>