<svg xmlns="http://www.w3.org/2000/svg" width="49" height="16" viewBox="0 0 49 16" fill="none">
  <path d="M16.684 14.6288V14.7837C16.6883 14.9258 16.663 15.0672 16.6097 15.199C16.5564 15.3307 16.4761 15.4499 16.3742 15.549C16.2664 15.6489 16.1398 15.7264 16.0017 15.7769C15.8637 15.8274 15.717 15.85 15.5702 15.8433C15.4098 15.8483 15.2502 15.8208 15.1008 15.7623C14.9514 15.7039 14.8154 15.6157 14.7011 15.5033C14.4831 15.2801 14.3611 14.9806 14.3611 14.6687C14.3611 14.3567 14.4831 14.0572 14.7011 13.834C14.812 13.7214 14.9448 13.6328 15.0914 13.5736C15.238 13.5145 15.3951 13.4861 15.5531 13.4901C15.7504 13.4862 15.9454 13.5338 16.1187 13.6282C16.292 13.7226 16.4377 13.8606 16.5415 14.0285L16.2239 14.2144C16.1548 14.1003 16.0565 14.0067 15.9391 13.9434C15.8217 13.8801 15.6895 13.8493 15.5562 13.8542C15.4476 13.8504 15.3394 13.8691 15.2384 13.9091C15.1374 13.9491 15.0457 14.0095 14.9691 14.0866C14.8931 14.1633 14.8334 14.2546 14.7935 14.3549C14.7536 14.4553 14.7343 14.5626 14.7367 14.6706C14.734 14.778 14.7533 14.8848 14.7932 14.9846C14.8332 15.0843 14.893 15.1749 14.9691 15.2508C15.05 15.3282 15.1457 15.3887 15.2504 15.4286C15.3551 15.4685 15.4667 15.487 15.5787 15.4831C15.9807 15.4831 16.2433 15.2786 16.3114 14.9642H15.55V14.6303L16.684 14.6288Z" fill="#353535"/>
  <path d="M17.8505 13.9285C17.8199 13.8978 17.799 13.8588 17.7905 13.8163C17.782 13.7737 17.7863 13.7296 17.8029 13.6896C17.8195 13.6495 17.8476 13.6153 17.8837 13.5912C17.9197 13.5671 17.9621 13.5542 18.0055 13.5542C18.0488 13.5542 18.0912 13.5671 18.1273 13.5912C18.1633 13.6153 18.1914 13.6495 18.208 13.6896C18.2246 13.7296 18.2289 13.7737 18.2204 13.8163C18.212 13.8588 18.1911 13.8978 18.1604 13.9285C18.1401 13.9489 18.1159 13.9651 18.0894 13.9762C18.0628 13.9872 18.0343 13.9929 18.0055 13.9929C17.9767 13.9929 17.9482 13.9872 17.9216 13.9762C17.895 13.9651 17.8708 13.9489 17.8505 13.9285ZM17.8312 15.8022V14.1818H18.1813V15.8022H17.8312Z" fill="#353535"/>
  <path d="M20.5081 14.1819H20.8908L20.2587 15.8023H19.8536L19.2216 14.1819H19.6042L20.0573 15.4135L20.5081 14.1819Z" fill="#353535"/>
  <path d="M22.213 15.1407C22.2649 15.3871 22.4624 15.5234 22.7312 15.5234C22.8122 15.528 22.893 15.512 22.9661 15.4769C23.0393 15.4418 23.1023 15.3888 23.1494 15.3228L23.4384 15.4908C23.2796 15.7279 23.0425 15.8441 22.7281 15.8441C22.6111 15.8489 22.4943 15.8302 22.3847 15.7891C22.275 15.748 22.1748 15.6853 22.0898 15.6047C21.9347 15.4397 21.8483 15.2217 21.8483 14.9951C21.8483 14.7686 21.9347 14.5506 22.0898 14.3855C22.1696 14.3038 22.2656 14.2397 22.3717 14.1973C22.4777 14.1549 22.5915 14.1351 22.7056 14.1392C22.8151 14.1363 22.924 14.1572 23.0246 14.2004C23.1253 14.2436 23.2155 14.3081 23.2889 14.3894C23.442 14.5535 23.5254 14.7707 23.5212 14.9951C23.5208 15.0439 23.5164 15.0926 23.5081 15.1407H22.213ZM23.1626 14.8557C23.1494 14.743 23.0943 14.6393 23.0082 14.5654C22.9221 14.4915 22.8113 14.4527 22.6979 14.4568C22.5813 14.4507 22.4666 14.4881 22.3762 14.5618C22.2857 14.6356 22.2259 14.7403 22.2083 14.8557H23.1626Z" fill="#353535"/>
  <path d="M28.0533 13.5334L27.2625 14.9014V15.8022H26.8899V14.9014L26.0983 13.5334H26.5258L27.0797 14.5404L27.6312 13.5334H28.0533Z" fill="#353535"/>
  <path d="M29.2585 15.5946C29.1141 15.454 29.023 15.2676 29.0009 15.0673C28.9787 14.8669 29.0269 14.6651 29.1372 14.4964C29.2474 14.3277 29.4129 14.2026 29.6053 14.1424C29.7977 14.0822 30.005 14.0908 30.1917 14.1667C30.3784 14.2425 30.533 14.3809 30.629 14.5581C30.7249 14.7354 30.7563 14.9405 30.7177 15.1383C30.6791 15.3361 30.5729 15.5144 30.4174 15.6426C30.2618 15.7707 30.0665 15.8409 29.865 15.8409C29.7524 15.8435 29.6405 15.823 29.5362 15.7806C29.4319 15.7383 29.3374 15.675 29.2585 15.5946ZM29.865 15.5009C29.9317 15.5024 29.9979 15.4903 30.0598 15.4653C30.1216 15.4402 30.1776 15.4028 30.2244 15.3553C30.3179 15.2562 30.37 15.1251 30.37 14.9889C30.37 14.8527 30.3179 14.7216 30.2244 14.6225C30.1279 14.5292 29.9989 14.477 29.8646 14.477C29.7303 14.477 29.6013 14.5292 29.5048 14.6225C29.4113 14.7216 29.3592 14.8527 29.3592 14.9889C29.3592 15.1251 29.4113 15.2562 29.5048 15.3553C29.5515 15.4034 29.6075 15.4414 29.6695 15.467C29.7314 15.4925 29.798 15.5051 29.865 15.504V15.5009Z" fill="#353535"/>
  <path d="M32.9548 14.1819H33.305V15.8023H32.9548V15.5947C32.901 15.6773 32.8261 15.744 32.7379 15.7878C32.6496 15.8317 32.5512 15.8511 32.4529 15.8441C32.0796 15.8441 31.8333 15.5916 31.8333 15.1764V14.1819H32.1803V15.1408C32.1803 15.384 32.3197 15.5173 32.5435 15.5173C32.7899 15.5173 32.9548 15.3623 32.9548 15.0525V14.1819Z" fill="#353535"/>
  <path d="M37.0369 13.5335C37.1358 13.5307 37.2343 13.5483 37.3262 13.5851C37.4181 13.6218 37.5016 13.677 37.5713 13.7473C37.6425 13.8159 37.6986 13.8985 37.7361 13.99C37.7736 14.0815 37.7916 14.1798 37.789 14.2786C37.7903 14.3775 37.7716 14.4755 37.7342 14.567C37.6968 14.6585 37.6413 14.7415 37.5711 14.8111C37.501 14.8807 37.4175 14.9355 37.3257 14.9721C37.2339 15.0088 37.1357 15.0266 37.0369 15.0245H36.5721V15.7991H36.2003V13.5335H37.0369ZM37.0369 14.6744C37.1387 14.6699 37.2349 14.6263 37.3054 14.5526C37.3758 14.479 37.4152 14.381 37.4152 14.279C37.4152 14.1771 37.3758 14.0791 37.3054 14.0054C37.2349 13.9317 37.1387 13.8881 37.0369 13.8836H36.5721V14.6744H37.0369Z" fill="#353535"/>
  <path d="M39.074 15.5946C38.9296 15.454 38.8385 15.2676 38.8164 15.0672C38.7943 14.8668 38.8425 14.665 38.9528 14.4963C39.0632 14.3275 39.2287 14.2024 39.4211 14.1423C39.6135 14.0822 39.8209 14.0909 40.0076 14.1668C40.1944 14.2427 40.3489 14.3812 40.4448 14.5586C40.5406 14.7359 40.5719 14.941 40.5331 15.1389C40.4944 15.3367 40.3881 15.5149 40.2324 15.643C40.0767 15.7711 39.8814 15.8411 39.6798 15.8409C39.5673 15.8436 39.4555 15.8231 39.3513 15.7807C39.2471 15.7383 39.1528 15.675 39.074 15.5946ZM39.6798 15.5009C39.7465 15.5024 39.8129 15.4902 39.8748 15.4652C39.9368 15.4401 39.9929 15.4027 40.04 15.3553C40.1335 15.2562 40.1856 15.1251 40.1856 14.9889C40.1856 14.8527 40.1335 14.7216 40.04 14.6225C39.9435 14.5292 39.8144 14.477 39.6802 14.477C39.5459 14.477 39.4169 14.5292 39.3204 14.6225C39.2263 14.7213 39.1739 14.8525 39.1739 14.9889C39.1739 15.1253 39.2263 15.2565 39.3204 15.3553C39.3671 15.4035 39.4232 15.4417 39.4853 15.4672C39.5475 15.4928 39.6142 15.5053 39.6813 15.504L39.6798 15.5009Z" fill="#353535"/>
  <path d="M43.4829 14.1819H43.8524L43.3435 15.8023H43.0004L42.6634 14.7101L42.3226 15.8023H41.9795L41.4706 14.1819H41.8401L42.1545 15.2996L42.4946 14.1819H42.8284L43.1654 15.2996L43.4829 14.1819Z" fill="#353535"/>
  <path d="M45.2133 15.1406C45.2652 15.387 45.4628 15.5233 45.7323 15.5233C45.8133 15.5277 45.894 15.5116 45.9671 15.4765C46.0402 15.4415 46.1033 15.3885 46.1506 15.3227L46.4387 15.4907C46.2799 15.7278 46.0429 15.844 45.7292 15.844C45.6121 15.8488 45.4952 15.8301 45.3855 15.789C45.2757 15.7479 45.1753 15.6852 45.0902 15.6046C44.935 15.4396 44.8486 15.2215 44.8486 14.995C44.8486 14.7685 44.935 14.5505 45.0902 14.3854C45.1704 14.3032 45.2671 14.2388 45.3738 14.1964C45.4806 14.154 45.5951 14.1344 45.7098 14.1391C45.8194 14.1361 45.9283 14.1569 46.029 14.2001C46.1297 14.2433 46.2198 14.3079 46.2931 14.3893C46.4463 14.5534 46.5296 14.7706 46.5255 14.995C46.525 15.0438 46.5208 15.0925 46.5131 15.1406H45.2133ZM46.163 14.8556C46.15 14.7428 46.0949 14.639 46.0087 14.5651C45.9226 14.4911 45.8117 14.4524 45.6982 14.4567C45.5817 14.4507 45.4671 14.4882 45.3767 14.5619C45.2863 14.6356 45.2264 14.7403 45.2087 14.8556H46.163Z" fill="#353535"/>
  <path d="M48.0003 14.4537C48.0879 14.253 48.2567 14.1523 48.4999 14.1523V14.5319C48.3753 14.5196 48.2505 14.5541 48.1498 14.6287C48.0491 14.7 48.0003 14.82 48.0003 14.985V15.8022H47.651V14.1818H48.0003V14.4537Z" fill="#353535"/>
  <path d="M23.4631 10.2617C23.3495 9.83571 23.4347 9.35263 23.7187 8.81249L27.7163 1.21076C27.9745 0.727417 28.3102 0.417585 28.7233 0.281259C28.9282 0.211582 29.1456 0.186118 29.3611 0.206545C29.5766 0.226972 29.7853 0.292827 29.9735 0.399769C30.166 0.495334 30.3358 0.631071 30.4714 0.797827C30.607 0.964583 30.7053 1.15848 30.7597 1.36645C30.8689 1.78317 30.7783 2.26109 30.4994 2.78703L26.5398 10.3175C26.2648 10.8388 25.9201 11.1843 25.5119 11.3361C25.3093 11.4164 25.0912 11.45 24.8738 11.4344C24.6565 11.4189 24.4454 11.3545 24.2563 11.2462C24.0621 11.148 23.8908 11.0099 23.7538 10.8409C23.6167 10.6719 23.5168 10.4759 23.4608 10.2656" fill="#DC000B"/>
  <path d="M19.1154 10.2617C19.0013 9.83566 19.0865 9.35258 19.371 8.81244L23.3686 1.21071C23.6268 0.72737 23.9625 0.417537 24.3756 0.281211C24.5807 0.211567 24.7981 0.186121 25.0137 0.206547C25.2294 0.226973 25.4382 0.292808 25.6265 0.399722C25.8185 0.496147 25.9877 0.632156 26.1233 0.798781C26.2588 0.965406 26.3574 1.15886 26.4127 1.3664C26.5212 1.78312 26.4313 2.26104 26.1517 2.78698L22.192 10.3175C21.9178 10.8387 21.5724 11.1842 21.165 11.336C20.9624 11.4164 20.7443 11.45 20.5269 11.4345C20.3095 11.4189 20.0984 11.3545 19.9094 11.2462C19.7152 11.148 19.5439 11.0099 19.4068 10.8409C19.2697 10.6719 19.1699 10.4758 19.1139 10.2656" fill="#DC000B"/>
  <path d="M1.33953 0.381867C1.52884 0.276064 1.73909 0.213172 1.9554 0.197645C2.17171 0.182118 2.38878 0.214335 2.59126 0.292015C2.99869 0.446931 3.34492 0.793944 3.61913 1.30981L7.57878 8.84106C7.85841 9.37165 7.94361 9.84802 7.83982 10.2616C7.7861 10.4699 7.68804 10.6641 7.55235 10.8309C7.41666 10.9977 7.24654 11.1333 7.05362 11.2283C6.86489 11.3342 6.65608 11.3994 6.44062 11.4197C6.22516 11.44 6.00784 11.4149 5.80267 11.3461C5.38595 11.2043 5.04978 10.8914 4.79571 10.4166L0.8043 2.81405C0.520287 2.27701 0.435083 1.79315 0.548688 1.36249C0.601637 1.15152 0.699779 0.954563 0.836327 0.78525C0.972874 0.615937 1.14457 0.478303 1.33953 0.381867Z" fill="#DC000B"/>
  <path d="M6.1327 0.381859C6.32254 0.275575 6.53346 0.212422 6.75047 0.196893C6.96749 0.181363 7.18525 0.213838 7.38829 0.292008C7.79572 0.446924 8.14119 0.793936 8.41616 1.30981L12.375 8.84106C12.6547 9.37164 12.7399 9.84801 12.6361 10.2616C12.5824 10.4699 12.4843 10.664 12.3486 10.8309C12.2129 10.9977 12.0428 11.1333 11.8499 11.2283C11.6612 11.3342 11.4523 11.3994 11.2369 11.4197C11.0214 11.44 10.8041 11.4149 10.5989 11.346C10.1822 11.2043 9.84604 10.8914 9.59198 10.4166L5.59746 2.81404C5.31293 2.27855 5.22773 1.79547 5.34185 1.3648C5.3945 1.15341 5.4925 0.956 5.62906 0.786267C5.76563 0.616534 5.93748 0.478541 6.1327 0.381859Z" fill="#DC000B"/>
  <path d="M23.7807 10.9473C23.4872 10.625 23.3353 10.1564 23.3353 9.55921L23.3307 1.96832C23.3307 1.42612 23.4856 0.993125 23.7854 0.680194C23.9333 0.524692 24.1122 0.401794 24.3104 0.319366C24.5086 0.236937 24.7218 0.196794 24.9364 0.201504C25.1499 0.19553 25.3621 0.236085 25.5583 0.320352C25.7545 0.404619 25.93 0.530579 26.0727 0.689489C26.3616 1.01171 26.5041 1.46407 26.5041 2.05817L26.5088 9.56541C26.5088 10.1479 26.3539 10.6126 26.0727 10.9341C25.9328 11.0986 25.7575 11.2292 25.5599 11.3163C25.3623 11.4033 25.1475 11.4445 24.9317 11.4368C24.467 11.4267 24.0797 11.271 23.7807 10.9442" fill="#FF0000"/>
  <path d="M9.62289 10.2848C9.5067 9.85883 9.58907 9.37497 9.86998 8.83328L13.8203 1.20676C14.0721 0.722649 14.4067 0.407394 14.8227 0.267195C15.0269 0.194947 15.2443 0.167446 15.4602 0.186557C15.676 0.205667 15.8852 0.270942 16.0736 0.37796C16.267 0.472579 16.4379 0.607647 16.5746 0.774023C16.7113 0.940399 16.8107 1.1342 16.866 1.34231C16.9775 1.75826 16.8908 2.23773 16.6143 2.76522L12.7019 10.3205C12.4307 10.8433 12.0868 11.1911 11.681 11.3452C11.4784 11.4259 11.2602 11.4598 11.0427 11.4445C10.8252 11.4293 10.6139 11.3651 10.4246 11.2569C10.23 11.1598 10.058 11.0227 9.91989 10.8547C9.78177 10.6867 9.68057 10.4915 9.62289 10.2817" fill="#FF0000"/>
  <path d="M4.79258 10.2617C4.67898 9.83569 4.76418 9.35261 5.0482 8.81247L9.04581 1.21074C9.304 0.727397 9.63965 0.417565 10.0528 0.281239C10.2576 0.209641 10.4754 0.182826 10.6915 0.202602C10.9075 0.222379 11.1168 0.288287 11.3053 0.395876C11.4977 0.491566 11.6674 0.627342 11.803 0.794079C11.9386 0.960816 12.037 1.15465 12.0915 1.36255C12.1999 1.77928 12.11 2.25719 11.8304 2.78313L7.87077 10.3136C7.59657 10.8349 7.2511 11.1804 6.8429 11.3322C6.64044 11.4125 6.42248 11.4462 6.20523 11.4306C5.98797 11.415 5.77702 11.3507 5.58808 11.2423C5.39273 11.1457 5.22053 11.0081 5.08324 10.8389C4.94596 10.6697 4.84681 10.4728 4.79258 10.2617Z" fill="#FF0000"/>
  <path d="M20.1572 0.1875C20.472 0.187347 20.7798 0.280572 21.0417 0.455384C21.3036 0.630196 21.5077 0.878742 21.6283 1.16959C21.7489 1.46043 21.7805 1.7805 21.7192 2.08933C21.6579 2.39815 21.5063 2.68185 21.2837 2.90454C21.0612 3.12723 20.7775 3.2789 20.4687 3.34038C20.16 3.40187 19.8399 3.37039 19.549 3.24994C19.2581 3.12948 19.0094 2.92546 18.8345 2.66368C18.6595 2.4019 18.5662 2.09412 18.5662 1.77926C18.5662 1.35724 18.7338 0.952482 19.0321 0.653991C19.3305 0.355499 19.7351 0.187706 20.1572 0.1875Z" fill="#FF0000"/>
  <path d="M14.3982 10.2615C14.2846 9.83551 14.3698 9.35243 14.6538 8.81229L16.7707 4.73877C17.0263 4.25621 17.3625 3.94328 17.7777 3.80928C17.9826 3.74503 18.1982 3.72218 18.4121 3.74206C18.6259 3.76194 18.8337 3.82414 19.0232 3.92505C19.2128 4.02597 19.3804 4.16357 19.5163 4.32986C19.6522 4.49616 19.7537 4.68782 19.8148 4.89369C19.9233 5.31041 19.8334 5.7891 19.5538 6.31427L17.4748 10.3119C17.1998 10.8332 16.8551 11.1786 16.4469 11.3305C16.2445 11.4108 16.0265 11.4444 15.8093 11.4289C15.592 11.4133 15.3811 11.349 15.1921 11.2406C14.9975 11.1442 14.8258 11.0072 14.6885 10.8389C14.5513 10.6705 14.4518 10.4747 14.3966 10.2646" fill="#FF0000"/>
  <path d="M48.5 9.57774C48.5 10.1563 48.3505 10.618 48.0701 10.9379C47.9528 11.0757 47.8106 11.1903 47.651 11.2756H47.6471L47.6309 11.2841C47.418 11.3893 47.1827 11.4411 46.9454 11.4352C46.4876 11.4259 46.1049 11.2702 45.8114 10.9456C45.5178 10.6211 45.3722 10.1594 45.3722 9.56689V8.24391V1.95199C45.3722 1.40978 45.5271 0.982989 45.8207 0.672382C45.9653 0.518719 46.1405 0.397023 46.335 0.315116C46.5295 0.233209 46.739 0.192903 46.95 0.19679C46.9802 0.19679 47.0104 0.19679 47.0399 0.19679C47.2355 0.202408 47.4278 0.248138 47.605 0.331146C47.7823 0.414154 47.9405 0.532672 48.0701 0.679354C48.3551 0.999255 48.4953 1.45393 48.4953 2.03952V3.6429L48.5 9.57774Z" fill="#353535"/>
  <path d="M44.5217 6.81797C44.5217 7.88534 43.9678 8.26334 42.7789 8.26334H39.1786C39.3575 8.83808 39.9764 9.18664 40.9051 9.18664C41.3014 9.17922 41.6932 9.1005 42.0616 8.95426C42.2298 8.88525 42.4125 8.85909 42.5934 8.8781C42.7742 8.89712 42.9475 8.96074 43.0976 9.06324C43.2478 9.16574 43.3702 9.30392 43.4538 9.46538C43.5374 9.62684 43.5796 9.80653 43.5767 9.98833C43.5767 10.4484 43.2668 10.8404 42.8602 11.0232C42.1151 11.3011 41.3254 11.4402 40.5302 11.4337C38.0516 11.4337 36.1484 9.91862 36.1484 7.34081C36.1484 5.02482 37.9408 3.18596 40.4326 3.18596C42.6805 3.13949 44.5736 4.89701 44.5217 6.81797ZM41.7332 6.39118C41.6185 5.91481 41.2607 5.43922 40.4295 5.43922C39.648 5.43922 39.2731 5.88228 39.143 6.39118H41.7332Z" fill="#353535"/>
  <path d="M36.2994 10.1896C36.301 10.4445 36.2163 10.6923 36.0591 10.8929C35.9018 11.0934 35.6813 11.2349 35.4335 11.2942C35.0696 11.3934 34.6937 11.4414 34.3165 11.4367C32.5791 11.4367 31.6396 10.5637 31.6396 8.90691V1.55691C31.6334 1.37504 31.6639 1.1938 31.7293 1.02397C31.7946 0.854144 31.8935 0.699204 32.02 0.568377C32.1465 0.43755 32.298 0.333511 32.4655 0.262457C32.633 0.191403 32.8131 0.154785 32.9951 0.154785C33.1771 0.154785 33.3572 0.191403 33.5247 0.262457C33.6922 0.333511 33.8437 0.43755 33.9702 0.568377C34.0967 0.699204 34.1955 0.854144 34.2609 1.02397C34.3262 1.1938 34.3568 1.37504 34.3506 1.55691V2.85201H35.0601C35.3767 2.85201 35.6803 2.97776 35.9041 3.20161C36.128 3.42546 36.2537 3.72907 36.2537 4.04564C36.2537 4.36221 36.128 4.66581 35.9041 4.88966C35.6803 5.11351 35.3767 5.23926 35.0601 5.23926H34.3491V8.14084C34.3491 8.62186 34.6147 8.99288 35.0586 9.0138H35.3243C35.9098 9.04943 36.2994 9.58389 36.2994 10.1896Z" fill="#353535"/>
</svg>