<svg width="166" height="49" viewBox="0 0 166 49" fill="none" xmlns="http://www.w3.org/2000/svg">
<path d="M159.619 49H6.28778C3.12319 49 0.5 46.3721 0.5 43.2019V5.79813C0.5 2.62788 3.07807 0 6.28778 0H159.622C162.787 0 165.5 2.58269 165.5 5.79813V43.2051C165.497 46.3721 162.828 49 159.619 49Z" fill="#A6A6A6"/>
<path d="M164.32 43.2018C164.32 45.7845 162.242 47.912 159.619 47.912H6.2877C3.70963 47.912 1.58594 45.8297 1.58594 43.2018V5.79807C1.58594 3.21538 3.70963 1.08789 6.2877 1.08789H159.622C162.2 1.08789 164.324 3.21538 164.324 5.79807V43.2018H164.32Z" fill="black"/>
<path d="M37.3407 24.2289C37.2956 20.2903 40.5504 18.3403 40.7309 18.25C38.8779 15.5317 36.0291 15.1701 35.0366 15.1701C32.6422 14.8989 30.2897 16.6196 29.0683 16.6196C27.8018 16.6196 25.9489 15.2153 23.9154 15.2605C21.2922 15.3057 18.8527 16.8004 17.496 19.1539C14.7375 23.9545 16.7741 31.0181 19.4392 34.9147C20.7508 36.8162 22.3331 38.9437 24.3666 38.8533C26.3549 38.7629 27.08 37.5846 29.4744 37.5846C31.8688 37.5846 32.5487 38.8533 34.6273 38.8081C36.751 38.7629 38.1077 36.9066 39.3742 34.9599C40.9114 32.7872 41.543 30.6113 41.543 30.5209C41.456 30.5242 37.3407 28.9842 37.3407 24.2289Z" fill="#F7F7F7"/>
<path d="M33.4091 12.6357C34.4951 11.2765 35.217 9.46544 34.9914 7.60913C33.4542 7.69952 31.511 8.69709 30.3799 10.0078C29.3841 11.141 28.5269 13.0425 28.7525 14.8084C30.5152 14.944 32.278 13.9496 33.4091 12.6357Z" fill="#F7F7F7"/>
<path d="M66.0476 38.5852H63.289L61.7519 33.7846H56.4636L55.0166 38.5852H52.3032L57.5464 22.282H60.8012L66.0476 38.5852ZM61.3007 31.7895L59.944 27.5313C59.8086 27.0793 59.5379 26.0818 59.1319 24.4514H59.0868C58.9063 25.1294 58.6807 26.1722 58.3198 27.5313L56.9631 31.7895H61.3007Z" fill="#F7F7F7"/>
<path d="M79.5179 32.5611C79.5179 34.553 78.9765 36.1381 77.8905 37.3165C76.9398 38.3592 75.7217 38.8564 74.2747 38.8564C72.7376 38.8564 71.6064 38.314 70.9297 37.1809H70.8846V43.3858H68.2614V30.7048C68.2614 29.4361 68.2163 28.1673 68.1711 26.8566H70.4753L70.6106 28.7129H70.6558C71.5162 27.3086 72.8246 26.6306 74.6324 26.6306C76.0343 26.6306 77.1654 27.173 78.1128 28.2609C79.0603 29.3489 79.5179 30.7952 79.5179 32.5611ZM76.8947 32.6515C76.8947 31.5183 76.624 30.5692 76.1277 29.8428C75.5863 29.0745 74.8161 28.6645 73.8687 28.6645C73.2371 28.6645 72.6473 28.8905 72.1059 29.2972C71.5645 29.704 71.2455 30.2948 71.065 30.9727C70.9748 31.2891 70.9297 31.5603 70.9297 31.7863V33.733C70.9297 34.595 71.2004 35.3181 71.6967 35.9057C72.2381 36.4932 72.918 36.7677 73.7301 36.7677C74.7259 36.7677 75.4929 36.4061 76.0343 35.6345C76.5789 34.9146 76.8947 33.9202 76.8947 32.6515Z" fill="#F7F7F7"/>
<path d="M93.0335 32.5611C93.0335 34.553 92.4921 36.1381 91.4061 37.3165C90.4554 38.3592 89.2373 38.8564 87.7904 38.8564C86.2532 38.8564 85.1221 38.314 84.4453 37.1809H84.4002V43.3858H81.777V30.7048C81.777 29.4361 81.7319 28.1673 81.6868 26.8566H83.9909L84.1263 28.7129H84.1714C85.0318 27.3086 86.3402 26.6306 88.1481 26.6306C89.5499 26.6306 90.681 27.173 91.6285 28.2609C92.5372 29.3457 93.0335 30.7952 93.0335 32.5611ZM90.3652 32.6515C90.3652 31.5183 90.0945 30.5692 89.5982 29.8428C89.0568 29.0745 88.2866 28.6645 87.3392 28.6645C86.7076 28.6645 86.1178 28.8905 85.5764 29.2972C85.035 29.704 84.716 30.2948 84.5355 30.9727C84.4453 31.2891 84.4002 31.5603 84.4002 31.7863V33.733C84.4002 34.595 84.6709 35.3181 85.1672 35.9057C85.7086 36.4932 86.3885 36.7677 87.2006 36.7677C88.1964 36.7677 88.9634 36.4061 89.5048 35.6345C90.0945 34.9146 90.3652 33.9202 90.3652 32.6515Z" fill="#F7F7F7"/>
<path d="M108.086 34.0105C108.086 35.4148 107.59 36.548 106.639 37.4067C105.598 38.3591 104.106 38.8111 102.208 38.8111C100.445 38.8111 99.0436 38.4947 98.0027 37.8135L98.5892 35.6408C99.7203 36.3188 100.984 36.6836 102.34 36.6836C103.336 36.6836 104.103 36.4576 104.644 36.0056C105.186 35.5537 105.457 34.9629 105.457 34.2397C105.457 33.5618 105.231 33.0162 104.78 32.5642C104.329 32.1122 103.604 31.7022 102.521 31.2955C99.672 30.2527 98.2702 28.6676 98.2702 26.6305C98.2702 25.2714 98.7664 24.1866 99.7622 23.3247C100.758 22.4627 102.066 22.0559 103.739 22.0559C105.231 22.0559 106.452 22.3271 107.445 22.8243L106.813 24.9517C105.908 24.4546 104.87 24.1834 103.694 24.1834C102.788 24.1834 102.066 24.4094 101.57 24.8614C101.119 25.2681 100.938 25.7685 100.938 26.3561C100.938 26.9888 101.164 27.5344 101.705 27.9412C102.157 28.348 102.927 28.7547 104.055 29.2099C105.457 29.7523 106.494 30.4335 107.129 31.2018C107.77 31.925 108.086 32.8774 108.086 34.0105Z" fill="#F7F7F7"/>
<path d="M116.72 28.8034H113.826V34.5079C113.826 35.9574 114.322 36.6806 115.363 36.6806C115.814 36.6806 116.223 36.6354 116.539 36.545L116.629 38.5369C116.133 38.7177 115.453 38.8081 114.596 38.8081C113.555 38.8081 112.743 38.4917 112.202 37.8557C111.615 37.223 111.341 36.1802 111.341 34.6855V28.7518H109.624V26.8051H111.341V24.6324L113.919 23.864V26.8083H116.813V28.8002H116.72V28.8034Z" fill="#F7F7F7"/>
<path d="M129.694 32.6064C129.694 34.4175 129.198 35.9122 128.157 37.0454C127.071 38.2237 125.624 38.8565 123.861 38.8565C122.143 38.8565 120.787 38.2689 119.749 37.1358C118.708 36.0026 118.212 34.5531 118.212 32.7872C118.212 30.9761 118.753 29.4813 119.794 28.303C120.835 27.1246 122.282 26.5823 124.045 26.5823C125.762 26.5823 127.164 27.1698 128.205 28.303C129.198 29.4361 129.694 30.8405 129.694 32.6064ZM126.984 32.6968C126.984 31.6088 126.758 30.7049 126.307 29.8881C125.765 28.9357 124.995 28.4838 123.958 28.4838C122.917 28.4838 122.105 28.9357 121.563 29.8881C121.112 30.6565 120.886 31.6088 120.886 32.742C120.886 33.8299 121.112 34.7339 121.563 35.5506C122.105 36.503 122.92 36.955 123.912 36.955C124.908 36.955 125.675 36.4578 126.262 35.5054C126.71 34.7339 126.984 33.7847 126.984 32.6968Z" fill="#F7F7F7"/>
<path d="M138.147 29.1197C137.876 29.0745 137.605 29.0293 137.335 29.0293C136.429 29.0293 135.707 29.3909 135.211 30.0721C134.76 30.7049 134.579 31.4764 134.579 32.3804V38.5401H131.956L132.001 30.4789C132.001 29.1197 131.956 27.8962 131.911 26.7663H134.17L134.26 29.0293H134.35C134.621 28.261 135.072 27.625 135.662 27.173C136.249 26.7663 136.883 26.5403 137.56 26.5403C137.786 26.5403 138.011 26.5403 138.192 26.5855V29.123H138.147V29.1197Z" fill="#F7F7F7"/>
<path d="M149.809 32.1544C149.809 32.6064 149.764 33.0164 149.719 33.3328H141.898C141.943 34.5111 142.304 35.3699 143.029 36.0058C143.706 36.5482 144.521 36.8194 145.607 36.8194C146.783 36.8194 147.821 36.6386 148.771 36.277L149.178 38.0881C148.046 38.5853 146.738 38.8113 145.246 38.8113C143.438 38.8113 141.991 38.2689 140.95 37.2262C139.909 36.1382 139.413 34.7339 139.413 32.9228C139.413 31.1569 139.909 29.6621 140.86 28.4838C141.856 27.215 143.254 26.5823 144.972 26.5823C146.645 26.5823 147.956 27.215 148.813 28.4838C149.448 29.4361 149.809 30.7049 149.809 32.1544ZM147.325 31.4732C147.325 30.7049 147.189 30.0237 146.828 29.4813C146.377 28.7582 145.697 28.3934 144.75 28.3934C143.889 28.3934 143.213 28.755 142.671 29.4361C142.22 29.9785 141.994 30.6597 141.904 31.4732H147.325Z" fill="#F7F7F7"/>
<path d="M60.4403 12.274C60.4403 13.7235 59.9891 14.8115 59.1287 15.5347C58.3166 16.2126 57.1854 16.5322 55.7385 16.5322C55.0166 16.5322 54.3818 16.487 53.8855 16.4418V8.5614C54.5622 8.47101 55.2873 8.38062 56.0994 8.38062C57.5012 8.38062 58.5389 8.69699 59.264 9.28778C60.0342 10.0077 60.4403 11.0053 60.4403 12.274ZM59.0868 12.3192C59.0868 11.3668 58.8612 10.6889 58.3649 10.1917C57.8686 9.69455 57.1435 9.42337 56.1961 9.42337C55.79 9.42337 55.4291 9.46857 55.1552 9.51377V15.4927C55.2905 15.5379 55.6064 15.5379 56.0156 15.5379C57.0114 15.5379 57.7333 15.2667 58.2747 14.7243C58.8128 14.1303 59.0868 13.3587 59.0868 12.3192Z" fill="#F7F7F7"/>
<path d="M67.6298 13.5398C67.6298 14.447 67.3591 15.1701 66.8628 15.7125C66.3214 16.3 65.6415 16.5744 64.7392 16.5744C63.8787 16.5744 63.202 16.3033 62.7057 15.7125C62.2094 15.1701 61.9387 14.4437 61.9387 13.585C61.9387 12.6778 62.2094 11.9547 62.7057 11.3671C63.202 10.7795 63.9271 10.5051 64.7843 10.5051C65.6447 10.5051 66.3214 10.7763 66.8177 11.3671C67.3591 11.9547 67.6298 12.681 67.6298 13.5398ZM66.2731 13.585C66.2731 13.0426 66.1378 12.5874 65.9122 12.2258C65.6415 11.7739 65.2806 11.5479 64.7811 11.5479C64.2848 11.5479 63.8755 11.7739 63.6048 12.2258C63.3792 12.5874 63.2439 13.0878 63.2439 13.6302C63.2439 14.1725 63.3792 14.6277 63.6048 14.9893C63.8755 15.4413 64.2815 15.6673 64.7811 15.6673C65.2773 15.6673 65.6415 15.4413 65.9122 14.9441C66.1829 14.5825 66.2731 14.0854 66.2731 13.585Z" fill="#F7F7F7"/>
<path d="M77.2107 10.689L75.4028 16.4387H74.2266L73.4596 13.9464C73.2791 13.3136 73.0986 12.6776 73.0084 12.0901H72.9633C72.8731 12.7228 72.6926 13.3588 72.5121 13.9464L71.7 16.4387H70.5238L68.8062 10.689H70.1177L70.7494 13.4524C70.8847 14.0852 71.0201 14.7212 71.1554 15.3087H71.2005C71.2908 14.8116 71.4712 14.2208 71.6968 13.4524L72.5089 10.689H73.5498L74.3168 13.4072C74.4972 14.0852 74.6777 14.676 74.7679 15.3087H74.8131C74.9033 14.7212 75.0386 14.0852 75.2191 13.4072L75.8959 10.689H77.2107Z" fill="#F7F7F7"/>
<path d="M83.8587 16.4389H82.5922V13.1331C82.5922 12.1355 82.1862 11.5932 81.416 11.5932C81.055 11.5932 80.7392 11.7287 80.5104 11.9999C80.2816 12.2711 80.1495 12.5875 80.1495 12.9975V16.4389H78.883V12.3195C78.883 11.8224 78.883 11.2768 78.8379 10.6892H79.969L80.0141 11.5964H80.0593C80.1946 11.3252 80.4202 11.0992 80.736 10.9184C81.0969 10.6924 81.4579 10.6021 81.9122 10.6021C82.4536 10.6021 82.908 10.7828 83.269 11.1444C83.7201 11.5512 83.9457 12.2324 83.9457 13.0459V16.4421H83.8587V16.4389Z" fill="#F7F7F7"/>
<path d="M87.3844 8.06128H86.1179V16.4841H87.3844V8.06128Z" fill="#F7F7F7"/>
<path d="M94.9316 13.5398C94.9316 14.447 94.6609 15.1701 94.1646 15.7125C93.6232 16.3 92.9432 16.5744 92.0409 16.5744C91.1805 16.5744 90.5037 16.3033 90.0075 15.7125C89.5112 15.1701 89.2405 14.4437 89.2405 13.585C89.2405 12.6778 89.5112 11.9547 90.0075 11.3671C90.5037 10.7795 91.2288 10.5051 92.086 10.5051C92.9432 10.5051 93.6232 10.7763 94.1195 11.3671C94.6609 11.9547 94.9316 12.681 94.9316 13.5398ZM93.5749 13.585C93.5749 13.0426 93.4395 12.5874 93.2139 12.2258C92.9432 11.7739 92.5823 11.5479 92.0828 11.5479C91.5865 11.5479 91.1773 11.7739 90.9066 12.2258C90.681 12.5874 90.5456 13.0878 90.5456 13.6302C90.5456 14.1725 90.681 14.6277 90.9066 14.9893C91.1773 15.4413 91.5833 15.6673 92.0828 15.6673C92.5791 15.6673 92.9432 15.4413 93.2139 14.9441C93.4846 14.5825 93.5749 14.0854 93.5749 13.585Z" fill="#F7F7F7"/>
<path d="M101.126 16.4388H99.9945L99.9042 15.7609H99.8591C99.4531 16.3033 98.9084 16.5744 98.1866 16.5744C97.6452 16.5744 97.1908 16.3937 96.875 16.0321C96.5592 15.7157 96.4238 15.3089 96.4238 14.8537C96.4238 14.1306 96.6945 13.6302 97.3294 13.2234C97.9159 12.8618 98.7312 12.681 99.8172 12.681V12.5906C99.8172 11.8223 99.4112 11.4575 98.641 11.4575C98.0545 11.4575 97.555 11.5931 97.1489 11.8643L96.8782 11.0023C97.4196 10.6859 98.0545 10.5051 98.8665 10.5051C100.359 10.5051 101.126 11.3187 101.126 12.9038V15.0313C101.035 15.6705 101.08 16.1225 101.126 16.4388ZM99.814 14.4922V13.585C98.4122 13.5398 97.6903 13.9466 97.6903 14.7633C97.6903 15.0797 97.7805 15.3057 97.9159 15.4413C98.0964 15.5769 98.2768 15.6673 98.5475 15.6673C98.8182 15.6673 99.0889 15.5769 99.3145 15.3961C99.5401 15.2153 99.7205 14.9893 99.7657 14.7181L99.814 14.4922Z" fill="#F7F7F7"/>
<path d="M108.402 16.4386H107.271L107.226 15.5314H107.181C106.82 16.2546 106.185 16.5742 105.328 16.5742C104.651 16.5742 104.061 16.303 103.61 15.7606C103.159 15.2183 102.933 14.4919 102.933 13.6332C102.933 12.6808 103.159 11.9576 103.7 11.3701C104.197 10.8277 104.786 10.5565 105.463 10.5565C106.23 10.5565 106.775 10.8277 107.091 11.3249H107.136V8.01904H108.402V14.9019C108.357 15.4895 108.357 15.9866 108.402 16.4386ZM107.094 14.0399V13.0876C107.094 12.9068 107.094 12.7712 107.049 12.6808C106.958 12.3644 106.823 12.0932 106.597 11.9124C106.372 11.6865 106.056 11.5961 105.737 11.5961C105.241 11.5961 104.877 11.7769 104.606 12.1836C104.335 12.5452 104.2 13.0456 104.2 13.6332C104.2 14.2207 104.335 14.6759 104.606 15.0375C104.877 15.3991 105.238 15.6251 105.737 15.6251C106.143 15.6251 106.504 15.4895 106.733 15.1731C106.958 14.8083 107.094 14.4467 107.094 14.0399Z" fill="#F7F7F7"/>
<path d="M119.343 13.5398C119.343 14.447 119.072 15.1701 118.576 15.7125C118.034 16.3 117.354 16.5744 116.452 16.5744C115.592 16.5744 114.915 16.3033 114.419 15.7125C113.922 15.1701 113.652 14.4437 113.652 13.585C113.652 12.6778 113.922 11.9547 114.419 11.3671C114.915 10.7795 115.64 10.5051 116.497 10.5051C117.358 10.5051 118.034 10.7763 118.531 11.3671C119.117 11.9547 119.343 12.681 119.343 13.5398ZM118.031 13.585C118.031 13.0426 117.896 12.5874 117.67 12.2258C117.399 11.7739 117.039 11.5479 116.539 11.5479C116.043 11.5479 115.634 11.7739 115.363 12.2258C115.137 12.5874 115.002 13.0878 115.002 13.6302C115.002 14.1725 115.137 14.6277 115.363 14.9893C115.634 15.4413 116.04 15.6673 116.539 15.6673C117.035 15.6673 117.399 15.4413 117.67 14.9441C117.896 14.5825 118.031 14.0854 118.031 13.585Z" fill="#F7F7F7"/>
<path d="M126.259 16.4389H124.992V13.1331C124.992 12.1355 124.586 11.5932 123.816 11.5932C123.455 11.5932 123.139 11.7287 122.91 11.9999C122.685 12.2711 122.549 12.5875 122.549 12.9975V16.4389H121.283V12.3195C121.283 11.8224 121.283 11.2768 121.238 10.6892H122.369L122.414 11.5964H122.459C122.595 11.3252 122.82 11.0992 123.136 10.9184C123.497 10.6924 123.858 10.6021 124.312 10.6021C124.854 10.6021 125.308 10.7828 125.669 11.1444C126.12 11.5512 126.346 12.2324 126.346 13.0459V16.4421H126.259V16.4389Z" fill="#F7F7F7"/>
<path d="M134.847 11.6381H133.445V14.4468C133.445 15.1699 133.716 15.5347 134.212 15.5347C134.437 15.5347 134.618 15.5347 134.798 15.4895L134.843 16.4419C134.573 16.5323 134.257 16.5775 133.848 16.5775C133.351 16.5775 132.942 16.4419 132.671 16.1255C132.401 15.8091 132.265 15.312 132.265 14.5856V11.6865H131.36V10.7342H132.22V9.69141L133.487 9.32983V10.7794H134.889L134.847 11.6381Z" fill="#F7F7F7"/>
<path d="M141.63 16.4389H140.364V13.1782C140.364 12.1355 139.958 11.6383 139.187 11.6383C138.601 11.6383 138.192 11.9547 137.966 12.5455C137.921 12.6811 137.921 12.8166 137.921 12.9974V16.4841H136.655V8.06128H137.921V11.5479H137.966C138.372 10.9151 138.962 10.5955 139.684 10.5955C140.225 10.5955 140.634 10.7763 140.995 11.1379C141.447 11.5899 141.627 12.2259 141.627 13.0846L141.63 16.4389Z" fill="#F7F7F7"/>
<path d="M148.636 13.3137C148.636 13.5396 148.636 13.7204 148.591 13.9012H144.75C144.75 14.4888 144.93 14.8988 145.291 15.2152C145.607 15.4863 146.013 15.6219 146.558 15.6219C147.144 15.6219 147.644 15.5315 148.095 15.3507L148.275 16.2579C147.734 16.4839 147.099 16.6195 146.332 16.6195C145.427 16.6195 144.75 16.3483 144.208 15.8511C143.712 15.3088 143.441 14.6276 143.441 13.7236C143.441 12.8617 143.667 12.1385 144.163 11.551C144.66 10.9182 145.34 10.6438 146.197 10.6438C147.009 10.6438 147.644 10.9602 148.095 11.551C148.456 11.9545 148.636 12.5905 148.636 13.3137ZM147.415 12.9521C147.415 12.5905 147.325 12.2289 147.189 11.9545C146.964 11.5929 146.648 11.4121 146.148 11.4121C145.742 11.4121 145.381 11.5929 145.107 11.9545C144.882 12.2257 144.792 12.5421 144.747 12.9521H147.415Z" fill="#F7F7F7"/>
</svg>
