<svg width="165" height="49" viewBox="0 0 165 49" fill="none" xmlns="http://www.w3.org/2000/svg">
<path d="M158.426 49H6.57407C3.17259 49 0.5 46.305 0.5 42.875V6.125C0.5 2.695 3.17259 0 6.57407 0H158.426C161.827 0 164.5 2.695 164.5 6.125V42.875C164.5 46.305 161.827 49 158.426 49Z" fill="black"/>
<path d="M158.426 0.98C161.22 0.98 163.528 3.3075 163.528 6.125V42.875C163.528 45.6925 161.22 48.02 158.426 48.02H6.57407C3.78 48.02 1.47185 45.6925 1.47185 42.875V6.125C1.47185 3.3075 3.78 0.98 6.57407 0.98H158.426ZM158.426 0H6.57407C3.17259 0 0.5 2.8175 0.5 6.125V42.875C0.5 46.305 3.17259 49 6.57407 49H158.426C161.827 49 164.5 46.305 164.5 42.875V6.125C164.5 2.8175 161.827 0 158.426 0Z" fill="#A6A6A6"/>
<path d="M58.2953 12.7027C58.2953 13.6224 58.0531 14.4271 57.4477 15.0018C56.7211 15.6916 55.8735 16.0365 54.7836 16.0365C53.6938 16.0365 52.8462 15.6916 52.1196 15.0018C51.3931 14.3121 51.0298 13.5074 51.0298 12.4728C51.0298 11.4382 51.3931 10.6335 52.1196 9.94378C52.8462 9.25405 53.6938 8.90918 54.7836 8.90918C55.268 8.90918 55.7524 9.02414 56.2368 9.25405C56.7211 9.48396 57.0844 9.71387 57.3266 10.0587L56.7211 10.6335C56.2367 10.0587 55.6313 9.82883 54.7836 9.82883C54.0571 9.82883 53.3305 10.0587 52.8462 10.6335C52.2407 11.0933 51.9985 11.7831 51.9985 12.5878C51.9985 13.3925 52.2407 14.0822 52.8462 14.542C53.4516 15.0018 54.0571 15.3467 54.7836 15.3467C55.6313 15.3467 56.2368 15.1168 56.8422 14.542C57.2055 14.1972 57.4477 13.7373 57.4477 13.1626H54.7836V12.2429H58.2953V12.7027ZM63.8656 9.82883H60.5961V12.013H63.6234V12.8177H60.5961V15.0018H63.8656V15.9215H59.6273V9.02414H63.8656V9.82883ZM67.8616 15.9215H66.8929V9.82883H64.8343V9.02414H69.9202V9.82883H67.8616V15.9215ZM73.4318 15.9215V9.02414H74.4006V15.9215H73.4318ZM78.5177 15.9215H77.549V9.82883H75.4904V9.02414H80.4552V9.82883H78.3966V15.9215H78.5177ZM90.0215 15.0018C89.2949 15.6916 88.4473 16.0365 87.3575 16.0365C86.2676 16.0365 85.42 15.6916 84.6934 15.0018C83.9669 14.3121 83.6036 13.5074 83.6036 12.4728C83.6036 11.4382 83.9669 10.6335 84.6934 9.94378C85.42 9.25405 86.2676 8.90918 87.3575 8.90918C88.4473 8.90918 89.2949 9.25405 90.0215 9.94378C90.748 10.6335 91.1113 11.4382 91.1113 12.4728C91.1113 13.5074 90.748 14.3121 90.0215 15.0018ZM85.42 14.4271C85.9044 14.8869 86.6309 15.2318 87.3575 15.2318C88.084 15.2318 88.8106 15.0018 89.2949 14.4271C89.7793 13.9672 90.1426 13.2775 90.1426 12.4728C90.1426 11.6681 89.9004 10.9784 89.2949 10.5186C88.8106 10.0587 88.084 9.71387 87.3575 9.71387C86.6309 9.71387 85.9044 9.94378 85.42 10.5186C84.9356 10.9784 84.5723 11.6681 84.5723 12.4728C84.5723 13.2775 84.8145 13.9672 85.42 14.4271ZM92.4433 15.9215V9.02414H93.5332L97.0448 14.4271V9.02414H98.0136V15.9215H97.0448L93.291 10.2887V15.9215H92.4433Z" fill="#F7F7F7" stroke="#F7F7F7" stroke-width="1.18519" stroke-miterlimit="10"/>
<path d="M82.9622 27.0805C80.0449 27.0805 77.7355 29.263 77.7355 32.2942C77.7355 35.2041 80.0449 37.5078 82.9622 37.5078C85.8794 37.5078 88.1889 35.3254 88.1889 32.2942C88.1889 29.1417 85.8794 27.0805 82.9622 27.0805ZM82.9622 35.3254C81.382 35.3254 80.0449 33.9916 80.0449 32.1729C80.0449 30.3542 81.382 29.0205 82.9622 29.0205C84.5423 29.0205 85.8794 30.2329 85.8794 32.1729C85.8794 33.9916 84.5423 35.3254 82.9622 35.3254ZM71.6579 27.0805C68.7407 27.0805 66.4312 29.263 66.4312 32.2942C66.4312 35.2041 68.7407 37.5078 71.6579 37.5078C74.5751 37.5078 76.8846 35.3254 76.8846 32.2942C76.8846 29.1417 74.5751 27.0805 71.6579 27.0805ZM71.6579 35.3254C70.0777 35.3254 68.7407 33.9916 68.7407 32.1729C68.7407 30.3542 70.0777 29.0205 71.6579 29.0205C73.2381 29.0205 74.5751 30.2329 74.5751 32.1729C74.5751 33.9916 73.2381 35.3254 71.6579 35.3254ZM58.1657 28.6567V30.8392H63.3924C63.2709 32.0517 62.7847 33.0216 62.1769 33.6279C61.4476 34.3554 60.2321 35.2041 58.1657 35.2041C54.8838 35.2041 52.4528 32.6579 52.4528 29.3842C52.4528 26.1105 55.0054 23.5643 58.1657 23.5643C59.8674 23.5643 61.2045 24.2918 62.1769 25.1405L63.7571 23.5643C62.42 22.3518 60.7183 21.3818 58.2873 21.3818C53.9114 21.3818 50.1433 25.0193 50.1433 29.3842C50.1433 33.7491 53.9114 37.3866 58.2873 37.3866C60.7183 37.3866 62.42 36.6591 63.8786 35.0829C65.3372 33.6279 65.8234 31.5667 65.8234 29.9904C65.8234 29.5055 65.8234 29.0205 65.7019 28.6567H58.1657ZM113.35 30.3542C112.864 29.1417 111.648 27.0805 108.974 27.0805C106.3 27.0805 104.112 29.1417 104.112 32.2942C104.112 35.2041 106.3 37.5078 109.217 37.5078C111.527 37.5078 112.985 36.0528 113.472 35.2041L111.77 33.9916C111.162 34.8404 110.433 35.4466 109.217 35.4466C108.002 35.4466 107.272 34.9616 106.665 33.8704L113.593 30.9604L113.35 30.3542ZM106.3 32.0517C106.3 30.1117 107.88 29.0205 108.974 29.0205C109.825 29.0205 110.676 29.5054 110.919 30.1117L106.3 32.0517ZM100.587 37.0228H102.897V21.8668H100.587V37.0228ZM96.9406 28.1717C96.3328 27.5655 95.3604 26.9592 94.1449 26.9592C91.5923 26.9592 89.1613 29.263 89.1613 32.1729C89.1613 35.0829 91.4708 37.2653 94.1449 37.2653C95.3604 37.2653 96.3328 36.6591 96.819 36.0528H96.9406V36.7803C96.9406 38.7203 95.8466 39.8115 94.1449 39.8115C92.8078 39.8115 91.8354 38.8415 91.5923 37.9928L89.6475 38.8415C90.2553 40.1753 91.7139 41.8727 94.2665 41.8727C96.9406 41.8727 99.1285 40.2965 99.1285 36.5378V27.323H96.9406V28.1717ZM94.2665 35.3254C92.6863 35.3254 91.3492 33.9916 91.3492 32.1729C91.3492 30.3542 92.6863 29.0205 94.2665 29.0205C95.8466 29.0205 97.0621 30.3542 97.0621 32.1729C97.0621 33.9916 95.8466 35.3254 94.2665 35.3254ZM123.925 21.8668H118.455V37.0228H120.765V31.3242H123.925C126.478 31.3242 128.909 29.5055 128.909 26.5955C128.909 23.6855 126.478 21.8668 123.925 21.8668ZM124.047 29.1417H120.765V23.928H124.047C125.748 23.928 126.721 25.383 126.721 26.4742C126.599 27.808 125.627 29.1417 124.047 29.1417ZM138.025 26.9592C136.323 26.9592 134.621 27.6867 134.014 29.263L136.08 30.1117C136.566 29.263 137.296 29.0205 138.146 29.0205C139.362 29.0205 140.456 29.7479 140.578 30.9604V31.0817C140.213 30.8392 139.24 30.4754 138.268 30.4754C136.08 30.4754 133.892 31.6879 133.892 33.8704C133.892 35.9316 135.715 37.2653 137.66 37.2653C139.24 37.2653 139.97 36.5378 140.578 35.8103H140.699V37.0228H142.887V31.2029C142.644 28.5355 140.578 26.9592 138.025 26.9592ZM137.782 35.3254C137.053 35.3254 135.959 34.9616 135.959 33.9916C135.959 32.7791 137.296 32.4154 138.39 32.4154C139.362 32.4154 139.848 32.6579 140.456 32.9004C140.213 34.3554 138.997 35.3254 137.782 35.3254ZM150.545 27.323L147.992 33.8704H147.871L145.196 27.323H142.765L146.777 36.5378L144.467 41.6302H146.777L152.976 27.323H150.545ZM130.124 37.0228H132.434V21.8668H130.124V37.0228Z" fill="#F7F7F7"/>
<path d="M13.1341 9.45361C12.7697 9.81988 12.6482 10.4303 12.6482 11.1628V38.1442C12.6482 38.8767 12.8912 39.4872 13.2556 39.8534L13.3771 39.9755L28.4408 24.8366V24.5925L13.1341 9.45361Z" fill="url(#paint0_linear_1571_915)"/>
<path d="M33.3001 29.9644L28.3193 24.9588V24.5925L33.3001 19.5869L33.4216 19.709L39.3742 23.1275C41.0749 24.1042 41.0749 25.6913 39.3742 26.668L33.3001 29.9644Z" fill="url(#paint1_linear_1571_915)"/>
<path d="M33.4214 29.8423L28.3192 24.7146L13.134 39.9755C13.7414 40.586 14.5918 40.586 15.6851 40.0976L33.4214 29.8423Z" fill="url(#paint2_linear_1571_915)"/>
<path d="M33.4214 19.5871L15.6851 9.45382C14.5918 8.84339 13.7414 8.96547 13.134 9.57591L28.3192 24.7148L33.4214 19.5871Z" fill="url(#paint3_linear_1571_915)"/>
<path opacity="0.2" d="M33.3 29.7202L15.6851 39.7314C14.7133 40.3418 13.8629 40.2197 13.2555 39.7314L13.134 39.8535L13.2555 39.9756C13.8629 40.4639 14.7133 40.586 15.6851 39.9756L33.3 29.7202Z" fill="black"/>
<path opacity="0.12" d="M13.1341 39.7314C12.7697 39.3651 12.6482 38.7547 12.6482 38.0221V38.1442C12.6482 38.8768 12.8912 39.4872 13.2556 39.8535V39.7314H13.1341ZM39.3741 26.3017L33.3 29.7202L33.4215 29.8423L39.3741 26.4238C40.2245 25.9355 40.5889 25.325 40.5889 24.7146C40.5889 25.325 40.103 25.8134 39.3741 26.3017Z" fill="black"/>
<path opacity="0.25" d="M15.6852 9.57577L39.3741 23.1275C40.103 23.6158 40.5889 24.1042 40.5889 24.7146C40.5889 24.1042 40.2245 23.4938 39.3741 23.0054L15.6852 9.45369C13.9845 8.47699 12.6482 9.20951 12.6482 11.1629V11.285C12.6482 9.45369 13.9845 8.59907 15.6852 9.57577Z" fill="#F7F7F7"/>
<defs>
<linearGradient id="paint0_linear_1571_915" x1="26.983" y1="10.9309" x2="6.49331" y2="31.3176" gradientUnits="userSpaceOnUse">
<stop stop-color="#00A0FF"/>
<stop offset="0.007" stop-color="#00A1FF"/>
<stop offset="0.26" stop-color="#00BEFF"/>
<stop offset="0.512" stop-color="#00D2FF"/>
<stop offset="0.76" stop-color="#00DFFF"/>
<stop offset="1" stop-color="#00E3FF"/>
</linearGradient>
<linearGradient id="paint1_linear_1571_915" x1="41.6021" y1="24.7158" x2="12.2072" y2="24.7158" gradientUnits="userSpaceOnUse">
<stop stop-color="#FFE000"/>
<stop offset="0.409" stop-color="#FFBD00"/>
<stop offset="0.775" stop-color="#FFA500"/>
<stop offset="1" stop-color="#FF9C00"/>
</linearGradient>
<linearGradient id="paint2_linear_1571_915" x1="30.6602" y1="27.5177" x2="2.87583" y2="55.1641" gradientUnits="userSpaceOnUse">
<stop stop-color="#FF3A44"/>
<stop offset="1" stop-color="#C31162"/>
</linearGradient>
<linearGradient id="paint3_linear_1571_915" x1="9.36446" y1="0.512133" x2="21.7721" y2="12.8581" gradientUnits="userSpaceOnUse">
<stop stop-color="#32A071"/>
<stop offset="0.069" stop-color="#2DA771"/>
<stop offset="0.476" stop-color="#15CF74"/>
<stop offset="0.801" stop-color="#06E775"/>
<stop offset="1" stop-color="#00F076"/>
</linearGradient>
</defs>
</svg>
