<svg width="145" height="19" viewBox="0 0 145 19" fill="none" xmlns="http://www.w3.org/2000/svg">
<path d="M7.26703 13.296L11.011 1.224H13.555L17.299 13.296L21.523 1.224H24.571L18.715 18H15.907L12.379 6.504H12.187L8.65903 18H5.85103L-0.00496875 1.224H3.04303L7.26703 13.296ZM38.9675 1.224V3.888H30.0155V8.328H38.0555V10.848H30.0155V15.336H39.2555V18H27.1835V1.224H38.9675ZM50.2306 18H42.8866V1.224H49.4146C50.5506 1.224 51.5266 1.36 52.3426 1.632C53.1746 1.904 53.7906 2.272 54.1906 2.736C54.9586 3.6 55.3426 4.576 55.3426 5.664C55.3426 6.976 54.9266 7.952 54.0946 8.592C53.7906 8.816 53.5826 8.96 53.4706 9.024C53.3586 9.072 53.1586 9.16 52.8706 9.288C53.9106 9.512 54.7346 9.984 55.3426 10.704C55.9666 11.408 56.2786 12.288 56.2786 13.344C56.2786 14.512 55.8786 15.544 55.0786 16.44C54.1346 17.48 52.5186 18 50.2306 18ZM45.7186 8.184H49.3186C51.3666 8.184 52.3906 7.488 52.3906 6.096C52.3906 5.296 52.1426 4.72 51.6466 4.368C51.1506 4.016 50.3826 3.84 49.3426 3.84H45.7186V8.184ZM45.7186 15.384H50.1586C51.1986 15.384 51.9906 15.224 52.5346 14.904C53.0946 14.568 53.3746 13.944 53.3746 13.032C53.3746 11.544 52.1826 10.8 49.7986 10.8H45.7186V15.384ZM64.8959 3.432C64.0799 3.432 63.4079 3.6 62.8799 3.936C62.3519 4.272 62.0879 4.784 62.0879 5.472C62.0879 6.144 62.3519 6.664 62.8799 7.032C63.4079 7.384 64.5279 7.768 66.2399 8.184C67.9679 8.6 69.2639 9.184 70.1279 9.936C71.0079 10.688 71.4479 11.8 71.4479 13.272C71.4479 14.728 70.8959 15.912 69.7919 16.824C68.6879 17.736 67.2399 18.192 65.4479 18.192C62.8239 18.192 60.4959 17.288 58.4639 15.48L60.2399 13.344C61.9359 14.816 63.6959 15.552 65.5199 15.552C66.4319 15.552 67.1519 15.36 67.6799 14.976C68.2239 14.576 68.4959 14.056 68.4959 13.416C68.4959 12.76 68.2399 12.256 67.7279 11.904C67.2319 11.536 66.3679 11.208 65.1359 10.92C63.9039 10.616 62.9679 10.344 62.3279 10.104C61.6879 9.848 61.1199 9.52 60.6239 9.12C59.6319 8.368 59.1359 7.216 59.1359 5.664C59.1359 4.112 59.6959 2.92 60.8159 2.088C61.9519 1.24 63.3519 0.816 65.0159 0.816C66.0879 0.816 67.1519 0.992 68.2079 1.344C69.2639 1.696 70.1759 2.192 70.9439 2.832L69.4319 4.968C68.9359 4.52 68.2639 4.152 67.4159 3.864C66.5679 3.576 65.7279 3.432 64.8959 3.432ZM74.9491 1.224H77.7811V18H74.9491V1.224ZM85.2577 18H82.4257V1.224H86.8417L91.9057 11.76L96.9697 1.224H101.362V18H98.5297V4.896L92.6737 16.536H91.0897L85.2577 4.896V18ZM105.787 17.664C105.451 17.312 105.283 16.888 105.283 16.392C105.283 15.896 105.451 15.48 105.787 15.144C106.139 14.792 106.563 14.616 107.059 14.616C107.555 14.616 107.979 14.792 108.331 15.144C108.683 15.48 108.859 15.896 108.859 16.392C108.859 16.888 108.683 17.312 108.331 17.664C107.979 18.016 107.555 18.192 107.059 18.192C106.563 18.192 106.139 18.016 105.787 17.664ZM120.41 18H117.242L110.498 1.224H113.666L118.826 13.752L123.986 1.224H127.154L120.41 18ZM142.134 1.224H144.966V18H141.894L132.39 5.76V18H129.558V1.224H132.39L142.134 13.752V1.224Z" fill="#1875D1"/>
</svg>
