<svg xmlns="http://www.w3.org/2000/svg" version="1.1" xmlns:xlink="http://www.w3.org/1999/xlink" width="512" height="512" x="0" y="0" viewBox="0 0 497 497" style="enable-background:new 0 0 512 512" xml:space="preserve"><g><path fill="#4c4a49" d="M15.377 481.623c20.502 20.502 53.744 20.502 74.246 0l53.767-53.767-37.123-37.123z" opacity="1" data-original="#4c4a49"></path><path fill="#625f5e" d="m69.144 353.61-53.767 53.767c-20.503 20.502-20.503 53.744 0 74.246 8.787 8.787 32.531-.711 53.033-21.213l53.767-53.767-53.033-53.033z" opacity="1" data-original="#625f5e"></path><path fill="#a096e1" d="M497 188.5C497 84.394 412.606 0 308.5 0L88.632 440.188c18.499 6.582 39.951 2.476 54.759-12.332l28.889-28.889A74.999 74.999 0 0 1 225.312 377H308.5C412.606 377 497 292.606 497 188.5z" opacity="1" data-original="#a096e1"></path><path fill="#b5addf" d="M225.313 347h83.188L467 188.5C467 84.394 396.037 0 308.5 0 204.394 0 120 84.394 120 188.5v83.188a75.001 75.001 0 0 1-21.967 53.033L69.144 353.61c-20.502 20.503-20.502 53.744 0 74.246a52.282 52.282 0 0 0 19.487 12.332l33.546-33.545-10.607-10.607 39.496-18.282c19.832-19.832 46.2-30.754 74.247-30.754z" opacity="1" data-original="#b5addf"></path><path fill="#7666e3" d="M164.604 332.396c-8.787-8.787-23.033-8.787-31.82 0l-21.213 21.213 31.82 31.82 21.213-21.213c8.786-8.787 8.787-23.033 0-31.82z" opacity="1" data-original="#7666e3"></path><path fill="#f2f2f2" d="M143.391 353.61c-8.787-8.787-23.033-8.787-31.82 0l-21.213 21.213c-8.787 8.787-8.787 23.033 0 31.82s23.033 8.787 31.82 0l21.213-21.213c8.786-8.787 8.786-23.034 0-31.82zM308.5 30v317c87.537 0 158.5-70.963 158.5-158.5S396.037 30 308.5 30z" opacity="1" data-original="#f2f2f2"></path><path fill="#ffffff" d="M437 188.5C437 100.963 379.469 30 308.5 30 220.963 30 150 100.963 150 188.5S220.963 347 308.5 347c70.969 0 128.5-70.963 128.5-158.5z" opacity="1" data-original="#ffffff"></path><path fill="#ccc7e0" d="M355.907 267.737c-6.506-5.727-9.907-14.213-9.907-22.881v-79.855c0-8.284-6.716-15-15-15h-30l15 144h30c8.284 0 15-6.716 15-15 0-4.488-1.97-8.515-5.093-11.264z" opacity="1" data-original="#ccc7e0"></path><g fill="#dfdde9"><path d="M331 279c0-4.487-1.97-8.514-5.093-11.263-6.507-5.728-9.907-14.214-9.907-22.881v-79.855c0-8.284-6.716-15-15-15h-30c-8.284 0-15 6.716-15 15 0 4.487 1.97 8.514 5.093 11.263 6.506 5.727 9.907 14.213 9.907 22.881v45.711c0 8.668-3.4 17.154-9.907 22.881A14.963 14.963 0 0 0 256 279c0 8.284 6.716 15 15 15h45c8.284 0 15-6.716 15-15z" fill="#dfdde9" opacity="1" data-original="#dfdde9"></path><circle cx="308.5" cy="97.5" r="22.5" fill="#dfdde9" opacity="1" data-original="#dfdde9"></circle></g></g></svg>