<svg width="24" height="24" viewBox="0 0 24 24" fill="none" xmlns="http://www.w3.org/2000/svg">
<path d="M17 16.0001L13 12.0001V8.82006C14.35 8.33006 15.26 6.93006 14.93 5.36006C14.8018 4.77715 14.5033 4.24545 14.0725 3.83241C13.6416 3.41937 13.0978 3.14359 12.51 3.04006C12.0789 2.96588 11.6369 2.98681 11.2148 3.1014C10.7927 3.21599 10.4007 3.42147 10.0663 3.70344C9.73197 3.98541 9.46328 4.33707 9.27909 4.73378C9.09489 5.13049 8.99964 5.56267 9 6.00006C9 7.30006 9.84 8.40006 11 8.82006V12.0001L7 16.0001H4C3.45 16.0001 3 16.4501 3 17.0001V20.0001C3 20.5501 3.45 21.0001 4 21.0001H7C7.55 21.0001 8 20.5501 8 20.0001V17.9501L12 13.7501L16 17.9501V20.0001C16 20.5501 16.45 21.0001 17 21.0001H20C20.55 21.0001 21 20.5501 21 20.0001V17.0001C21 16.4501 20.55 16.0001 20 16.0001H17Z" fill="white"/>
</svg>
