<svg xmlns="http://www.w3.org/2000/svg" version="1.1" xmlns:xlink="http://www.w3.org/1999/xlink" width="512" height="512" x="0" y="0" viewBox="0 0 512 512" style="enable-background:new 0 0 512 512" xml:space="preserve" class=""><g><path fill="#a6a5a5" d="M403.8 69.2c2.8 0 5 2.2 5 5s-2.2 5-5 5h-43.9v111.2h41.4c2.7 0 5 2.2 5 5 0 2.7-2.2 5-5 5h-41.4v111.2h43.9c2.8 0 5 2.2 5 5 0 2.7-2.2 5-5 5h-48.9c-2.7 0-5-2.2-5-5V200.4h-43.8c-2.7 0-5-2.2-5-5 0-2.7 2.2-5 5-5h43.8V74.2c0-2.7 2.2-5 5-5z" opacity="1" data-original="#a6a5a5" class=""></path><g fill-rule="evenodd" clip-rule="evenodd"><path fill="#a6a5a5" d="M179.9 325.5c71.7 0 130.1-58.5 130.1-130.1 0-71.7-58.5-130.1-130.1-130.1-71.7 0-130.1 58.5-130.1 130.1 0 71.7 58.5 130.1 130.1 130.1z" opacity="1" data-original="#a6a5a5" class=""></path><path fill="#efaf4a" d="m128.093 142.377 123.648-33.152 26.03 97.084-123.648 33.151z" opacity="1" data-original="#e2bc81" class=""></path><path fill="#8719ed" d="m177.3 129.2 25.2-6.8 19.8 73.7-25.3 6.8z" opacity="1" data-original="#ed1968" class=""></path><path fill="#ff9c00" d="m102.1 45.3 123.6-33.2 26 97.2-123.6 33.1z" opacity="1" data-original="#fbd18f" class=""></path><path fill="#8719ed" d="m151.3 32.1 25.2-6.8L196.2 99l-25.2 6.7z" opacity="1" data-original="#ed1968" class=""></path><path fill="#4d4d4e" d="M139.6 222.6c16.6-4.5 33.6 5.4 38.1 22s-5.4 33.6-22 38.1-33.6-5.4-38.1-22 5.4-33.7 22-38.1z" opacity="1" data-original="#4d4d4e"></path><path fill="#e6e6e6" d="M145.2 243.3c5.1-1.4 10.4 1.7 11.8 6.8s-1.7 10.4-6.8 11.8-10.4-1.7-11.7-6.8c-1.5-5.2 1.6-10.4 6.7-11.8z" opacity="1" data-original="#e6e6e6"></path><path fill="#ff9c00" d="M425.7 99.4c13.9 0 25.2-11.3 25.2-25.2S439.6 49 425.7 49s-25.2 11.3-25.2 25.2 11.3 25.2 25.2 25.2zM425.7 220.6c13.9 0 25.2-11.3 25.2-25.2s-11.3-25.2-25.2-25.2-25.2 11.3-25.2 25.2 11.3 25.2 25.2 25.2zM425.7 341.9c13.9 0 25.2-11.3 25.2-25.2s-11.3-25.2-25.2-25.2-25.2 11.3-25.2 25.2c0 13.8 11.3 25.2 25.2 25.2z" opacity="1" data-original="#fbd18f" class=""></path><path fill="#fad1a2" d="m371.1 396.1 51.5-6.9 51.8-36c22.5-17.9 47.7 11 18.4 32.8l-82.2 61.2L309 481.1l-94.8-8.4-28.3 1.7v-89.5l7.5-4.1c68-37.4 38.5-15.2 104.5-12.9 33 1.1 77.5.6 73.2 28.2z" opacity="1" data-original="#fad1a2"></path></g><path fill="#b89877" d="M366.3 390.7c-.1-2.7 2-5.1 4.8-5.2 2.7-.1 5.1 2 5.2 4.8 1.1 23.7-21.7 25.2-63 27.8-7.7.5-16.2 1-25.8 1.8-2.8.2-5.2-1.8-5.4-4.6-.2-2.7 1.8-5.1 4.6-5.4 9-.7 17.9-1.3 25.9-1.8 35-2.2 54.3-3.4 53.7-17.4z" opacity="1" data-original="#b89877" class=""></path><path fill="#6c20ed" fill-rule="evenodd" d="M123.7 378.9 6 369.3v124.5l117.7-9.6z" clip-rule="evenodd" opacity="1" data-original="#ed2024" class=""></path><path fill="#6020ce" fill-rule="evenodd" d="M132.3 362h45.1c4.7 0 8.6 3.9 8.6 8.6v120.7c0 4.7-3.9 8.6-8.6 8.6h-45.1c-4.7 0-8.6-3.9-8.6-8.6V370.6c0-4.7 3.8-8.6 8.6-8.6z" clip-rule="evenodd" opacity="1" data-original="#ce2027" class=""></path><path fill="#b89877" fill-rule="evenodd" d="m429.3 433.2-18.8 14L309 481.1l-94.7-8.4-28.4 1.7v-41.2z" clip-rule="evenodd" opacity="1" data-original="#b89877" class=""></path><path fill="#5920b9" fill-rule="evenodd" d="M6 433.2v60.6l117.7-9.6v-51z" clip-rule="evenodd" opacity="1" data-original="#b92025" class=""></path><path fill="#5b1a96" fill-rule="evenodd" d="M185.9 433.2v58.1c0 4.7-3.9 8.6-8.6 8.6h-45.1c-4.7 0-8.6-3.9-8.6-8.6v-58.1z" clip-rule="evenodd" opacity="1" data-original="#961a1d" class=""></path></g></svg>