<svg width="24" height="24" viewBox="0 0 24 24" fill="none" xmlns="http://www.w3.org/2000/svg">
<path fill-rule="evenodd" clip-rule="evenodd" d="M17 2.75015C16.2763 2.74991 15.5645 2.9345 14.932 3.28643C14.2996 3.63835 13.7676 4.14594 13.3863 4.76109C13.005 5.37625 12.7871 6.07858 12.7533 6.80153C12.7195 7.52447 12.8708 8.24408 13.193 8.89215C13.353 9.21215 13.418 9.60215 13.313 9.99415L13.06 10.9401L14.006 10.6871C14.3757 10.5915 14.7676 10.6342 15.108 10.8071C15.6817 11.0919 16.3124 11.2432 16.9528 11.2499C17.5933 11.2566 18.227 11.1185 18.8065 10.8458C19.3861 10.5731 19.8965 10.173 20.2997 9.67531C20.7028 9.17763 20.9883 8.59526 21.1347 7.97173C21.2811 7.3482 21.2847 6.69964 21.1452 6.07453C21.0057 5.44942 20.7268 4.86392 20.3291 4.36179C19.9315 3.85966 19.4256 3.45389 18.8491 3.17481C18.2726 2.89573 17.6405 2.75056 17 2.75015ZM11.25 7.00015C11.2503 5.74973 11.6582 4.53349 12.4118 3.53573C13.1655 2.53797 14.2239 1.81309 15.4266 1.47093C16.6293 1.12877 17.9107 1.18798 19.0767 1.6396C20.2428 2.09121 21.2298 2.91061 21.8882 3.97362C22.5467 5.03663 22.8406 6.28531 22.7256 7.53042C22.6106 8.77553 22.0928 9.94922 21.2508 10.8736C20.4087 11.798 19.2883 12.4227 18.0593 12.6531C16.8303 12.8834 15.5597 12.7069 14.44 12.1501C14.4275 12.1436 14.414 12.1392 14.4 12.1371H14.393L13.281 12.4341C13.0437 12.4978 12.7938 12.4978 12.5564 12.4343C12.319 12.3707 12.1026 12.2458 11.9288 12.0721C11.755 11.8984 11.63 11.6821 11.5663 11.4447C11.5026 11.2074 11.5025 10.9575 11.566 10.7201L11.864 9.60715V9.60015C11.8616 9.58612 11.8569 9.57259 11.85 9.56015C11.4543 8.76486 11.2489 7.88845 11.25 7.00015ZM3.718 4.09215C4.944 2.80215 6.972 3.04315 7.986 4.47715L9.246 6.26015C10.057 7.40715 9.989 9.00015 9.021 10.0201L8.776 10.2771C8.776 10.2791 8.776 10.2811 8.774 10.2831C8.761 10.3201 8.729 10.4351 8.761 10.6551C8.828 11.1111 9.179 12.0361 10.607 13.5391C12.039 15.0471 12.907 15.4031 13.31 15.4681C13.4071 15.4899 13.5081 15.4875 13.604 15.4611L14.012 15.0311C14.886 14.1111 16.248 13.9301 17.347 14.5621L19.257 15.6621C20.89 16.6021 21.27 18.9011 19.965 20.2751L18.545 21.7701C18.102 22.2371 17.497 22.6361 16.75 22.7101C14.926 22.8901 10.701 22.6551 6.272 17.9921C2.138 13.6401 1.353 9.85514 1.254 8.00615C1.205 7.09215 1.612 6.30915 2.148 5.74515L3.718 4.09215ZM6.761 5.34215C6.249 4.61815 5.328 4.57515 4.805 5.12515L3.235 6.77815C2.905 7.12715 2.73 7.52615 2.752 7.92615C2.832 9.43615 3.483 12.8781 7.359 16.9591C11.423 21.2381 15.168 21.3591 16.603 21.2171C16.886 21.1891 17.178 21.0311 17.457 20.7371L18.877 19.2421C19.491 18.5971 19.33 17.4341 18.509 16.9621L16.599 15.8621C16.086 15.5671 15.485 15.6581 15.1 16.0641L14.645 16.5441L14.101 16.0271C14.644 16.5441 14.644 16.5441 14.643 16.5451L14.642 16.5471L14.639 16.5501L14.632 16.5561L14.618 16.5701C14.576 16.6114 14.5305 16.6489 14.482 16.6821C14.402 16.7391 14.296 16.8021 14.161 16.8541C13.885 16.9641 13.521 17.0221 13.07 16.9491C12.192 16.8061 11.042 16.1761 9.52 14.5721C7.992 12.9641 7.407 11.7651 7.277 10.8721C7.21463 10.5068 7.24348 10.1317 7.361 9.78014C7.41541 9.6269 7.49298 9.4829 7.591 9.35314L7.621 9.31614L7.635 9.30114L7.641 9.29515L7.644 9.29214L7.646 9.29014C7.646 9.29014 7.647 9.28915 8.191 9.80515L7.647 9.28914L7.934 8.98715C8.379 8.51715 8.444 7.72315 8.022 7.12715L6.761 5.34215Z" fill="white"/>
</svg>
