<svg width="24" height="24" viewBox="0 0 24 24" fill="none" xmlns="http://www.w3.org/2000/svg">
<g clip-path="url(#clip0_21_432)">
<path d="M23.1429 11.8969C23.1446 11.659 23.0967 11.4233 23.0022 11.2049C22.9078 10.9864 22.7688 10.7901 22.5943 10.6284L12 0.856934L1.40571 10.6284C1.23124 10.7902 1.09236 10.9865 0.997918 11.2049C0.903473 11.4233 0.855531 11.659 0.857141 11.8969V21.4284C0.857141 21.883 1.03775 22.3191 1.35924 22.6405C1.68073 22.962 2.11677 23.1426 2.57143 23.1426H21.4286C21.8832 23.1426 22.3193 22.962 22.6408 22.6405C22.9622 22.3191 23.1429 21.883 23.1429 21.4284V11.8969Z" stroke="white" stroke-width="1.5" stroke-linecap="round" stroke-linejoin="round"/>
<path d="M16.152 17.3474H14.8187M16.152 19.276H14.8187M15.4854 15.4189H14.8187M6.15205 13.4903V19.9189C6.15205 20.2599 6.29252 20.5869 6.54257 20.828C6.79262 21.0691 7.13176 21.2046 7.48538 21.2046H16.8187C17.1723 21.2046 17.5115 21.0691 17.7615 20.828C18.0116 20.5869 18.152 20.2599 18.152 19.9189V15.9512C18.152 15.6102 18.0114 15.2832 17.7614 15.0422L15.2094 12.5813C14.9594 12.3402 14.6203 12.2047 14.2667 12.2046L7.48538 12.2046C7.13176 12.2046 6.79262 12.34 6.54257 12.5812C6.29252 12.8223 6.15205 13.1493 6.15205 13.4903Z" stroke="white" stroke-width="1.5" stroke-linecap="round" stroke-linejoin="round"/>
</g>
<defs>
<clipPath id="clip0_21_432">
<rect width="24" height="24" fill="white"/>
</clipPath>
</defs>
</svg>
