<svg width="231" height="198" viewBox="0 0 231 198" fill="none" xmlns="http://www.w3.org/2000/svg">
<path opacity="0.8" d="M79.7465 176.59C81.542 170.36 84.8882 160.813 84.8882 160.813L139.266 163.705C139.266 163.705 141.79 171.244 143.082 176.59C144.862 183.95 146.634 197.829 146.634 197.829H113.486L111.71 193.581L109.935 197.829H75.6029C75.6029 197.829 77.5861 184.086 79.7465 176.59Z" fill="#006278"/>
<path d="M150.217 125.442L152.596 130.775L166.972 115.942L173.467 121.046C173.467 121.046 159.552 147.403 150.001 147.658C142.133 147.87 138.038 137.39 136.935 132.053L150.221 125.442H150.217Z" fill="#FEE0AD"/>
<path d="M126.971 89.2308C120.937 93.7301 118.558 107.686 137.206 134.898L154.845 125.532C152.073 118.714 147.15 107.418 142.197 98.1129C136.509 86.1823 126.971 89.2308 126.971 89.2308Z" fill="white"/>
<path opacity="0.4" d="M126.971 89.2308C120.937 93.7301 118.558 107.686 137.206 134.898L154.845 125.532C152.073 118.714 147.15 107.418 142.197 98.1129C136.509 86.1823 126.971 89.2308 126.971 89.2308Z" fill="white"/>
<path d="M85.7107 90.591C105.28 86.5795 123.971 88.4406 128.763 88.7472C130.141 88.7472 132.642 90.2844 133.023 90.7119C136.513 110.147 138.664 144.316 140.908 165.927H82.9555L85.7065 90.591H85.7107Z" fill="white"/>
<path opacity="0.4" d="M85.7107 90.591C105.28 86.5795 123.971 88.4406 128.763 88.7472C130.141 88.7472 132.642 90.2844 133.023 90.7119C136.513 110.147 138.664 144.316 140.908 165.927H82.9555L85.7065 90.591H85.7107Z" fill="white"/>
<path opacity="0.2" d="M142.108 132.294L138.06 134.458L135.524 106.792L142.108 132.294Z" fill="black"/>
<path d="M102.018 89.443C102.018 89.443 102.872 83.1948 99.2924 72.3652C99.2924 72.3523 99.846 72.0716 99.846 72.0587C99.3515 70.543 98.836 69.1483 98.35 67.9349C98.3373 67.9004 98.3373 67.8875 98.3373 67.8875L113.415 76.5062C113.221 80.0297 114.742 86.7529 115.595 89.5812C115.595 89.5812 117.67 94.6807 110.93 95.2075C106.007 95.5919 102.014 89.4344 102.014 89.4344L102.018 89.443Z" fill="#FEE0AD"/>
<path opacity="0.2" d="M113.879 81.4331L105.348 79.8613C106.231 82.5126 108.69 85.5913 114.581 85.5913C114.581 85.5913 113.867 82.6119 113.879 81.4331Z" fill="black"/>
<path d="M97.9141 60.6064C99.3086 70.0758 99.9086 75.4431 105.043 79.8604C112.763 86.5016 123.645 81.2336 125.052 71.5051C126.316 62.7438 123.822 48.7362 114.365 45.8604C105.047 43.0278 96.5195 51.1413 97.9183 60.6107L97.9141 60.6064Z" fill="#FEE0AD"/>
<path d="M95.028 66.6001C92.0024 63.8409 92.2517 61.3537 92.2517 61.3537C90.5487 61.5178 88.9006 60.6585 88.1654 59.2206C86.5891 56.66 89.45 53.6719 89.45 53.6719C87.6667 52.6874 86.8385 50.7184 87.4554 48.9264C88.3597 45.5109 92.4123 44.7682 92.4123 44.7682C91.6601 43.0712 92.2686 41.1497 93.8871 40.1263C96.6888 38.0796 101.172 39.7161 101.172 39.7161C101.172 39.7161 100.843 35.7306 104.984 35.8687C107.41 35.9508 109.62 37.2505 110.727 39.2498C110.727 39.2498 113.043 35.2599 117.154 36.4128C121.262 37.5657 120.67 42.471 120.67 42.471C120.67 42.471 127.072 40.9036 126.519 47.3244C125.969 53.7453 118.363 52.1218 118.363 52.1218C115.848 54.8637 112.358 52.2815 112.358 52.2815C109.958 54.8032 105.778 53.1969 105.778 53.1969C107.232 54.8378 107.126 57.1954 105.529 58.6549C106.919 63.8495 102.119 64.2165 102.119 64.2165C101.629 69.1347 98.0621 69.3593 95.0365 66.6001H95.028Z" fill="#2C2C2E"/>
<path d="M94.9226 68.8765C95.8776 71.26 97.8257 72.957 99.7569 73.73C102.66 74.8915 103.429 71.6918 102.905 68.7167C102.436 66.0396 101.38 62.8183 98.3286 62.9306C95.3241 63.0429 93.8281 66.1518 94.9226 68.8765Z" fill="#FEE0AD"/>
<path d="M111.272 63.0378C111.357 64.0137 111.931 64.7521 112.553 64.6873C113.178 64.6268 113.613 63.7848 113.529 62.809C113.444 61.8331 112.87 61.0947 112.248 61.1595C111.623 61.2199 111.188 62.0619 111.272 63.0378Z" fill="#2C2C2E"/>
<path d="M120.514 62.4033C120.599 63.3792 121.173 64.1175 121.794 64.0528C122.42 63.988 122.855 63.1503 122.771 62.1744C122.686 61.1986 122.111 60.4602 121.49 60.525C120.865 60.5897 120.43 61.4274 120.514 62.4033Z" fill="#2C2C2E"/>
<path d="M117.763 61.2331C117.763 61.2331 121.198 65.8015 122.335 67.6842C121.114 69.0271 118.781 68.6687 118.781 68.6687L117.763 61.2288V61.2331Z" fill="#FDCB77"/>
<path d="M108.758 57.7701C108.905 57.8176 109.074 57.783 109.201 57.6664C110.668 56.2674 112.278 56.643 112.294 56.6474C112.535 56.7078 112.78 56.5567 112.84 56.3106C112.899 56.0644 112.751 55.8183 112.514 55.7579C112.43 55.7363 110.414 55.2656 108.593 57.0014C108.411 57.1742 108.403 57.4635 108.567 57.6448C108.622 57.7053 108.69 57.7441 108.762 57.7657L108.758 57.7701Z" fill="#2C2C2E"/>
<path opacity="0.2" d="M101.32 68.7332C101.32 68.7332 101.35 68.7332 101.362 68.7289C101.476 68.7073 101.552 68.5907 101.527 68.4741C101.358 67.6235 100.974 66.8333 100.411 66.1812C100.031 65.7408 99.41 65.1924 98.5902 65.0629C97.7873 64.9377 96.9844 65.3004 96.6336 65.9481C96.5787 66.0517 96.6125 66.1856 96.7182 66.2417C96.8196 66.2978 96.9464 66.2633 97.0055 66.1553C97.2675 65.6717 97.9056 65.3911 98.5268 65.4904C99.2198 65.5983 99.7607 66.0819 100.095 66.4706C100.606 67.0664 100.961 67.7875 101.113 68.5648C101.134 68.6684 101.223 68.7375 101.32 68.7375V68.7332Z" fill="black"/>
<path d="M124.625 57.0142C124.706 56.9883 124.782 56.9365 124.841 56.8674C124.997 56.6688 124.972 56.3795 124.782 56.2197C122.876 54.6134 120.911 55.2482 120.822 55.2654C120.585 55.3432 120.454 55.6022 120.531 55.844C120.602 56.0859 120.852 56.2154 121.084 56.142C121.164 56.1118 122.681 55.6411 124.211 56.9322C124.33 57.0315 124.486 57.0574 124.625 57.0142Z" fill="#2C2C2E"/>
<path d="M114.683 72.9737C114.974 72.9737 115.27 72.9348 115.553 72.8571C115.667 72.8269 115.731 72.706 115.701 72.5937C115.671 72.4771 115.553 72.4123 115.443 72.4426C114.75 72.6369 113.985 72.5548 113.343 72.2137C112.705 71.8769 112.198 71.2853 111.949 70.5945C111.91 70.4822 111.788 70.4261 111.678 70.4649C111.568 70.5038 111.513 70.629 111.551 70.7413C111.834 71.5358 112.413 72.2094 113.149 72.598C113.622 72.8485 114.154 72.978 114.683 72.978V72.9737Z" fill="#2C2C2E"/>
<path d="M110.135 96.8563C111.196 96.1698 112.485 95.9754 113.727 95.7941C112.299 94.6887 111.623 92.6635 112.096 90.8975C113.44 92.2749 115.211 93.2162 117.091 93.5401C117.894 93.6783 118.726 93.7171 119.47 94.0539C120.214 94.3907 120.856 95.1507 120.755 95.9711C120.649 96.8045 119.834 97.3615 119.035 97.5602C118.236 97.7588 117.391 97.7113 116.597 97.9229C115.908 98.1086 115.19 98.631 115.211 99.3565C115.228 100.03 115.874 100.505 116.491 100.747C117.577 101.17 118.76 101.23 119.905 101.442C121.051 101.658 122.234 102.081 122.944 103.022C123.654 103.964 123.641 105.536 122.665 106.179L109.979 105.782C110.757 105.751 111.251 104.819 111.124 104.037C111.002 103.256 110.461 102.617 109.928 102.042C109.396 101.468 108.825 100.868 108.627 100.103C108.301 98.8642 109.083 97.5429 110.144 96.8563H110.135Z" fill="white"/>
<g opacity="0.8">
<path d="M110.136 96.8563C111.197 96.1698 112.485 95.9754 113.728 95.7941C112.299 94.6887 111.623 92.6635 112.097 90.8975C113.44 92.2749 115.211 93.2162 117.091 93.5401C117.894 93.6783 118.727 93.7171 119.471 94.0539C120.214 94.3907 120.857 95.1507 120.755 95.9711C120.65 96.8045 119.834 97.3615 119.035 97.5602C118.237 97.7588 117.392 97.7113 116.597 97.9229C115.908 98.1086 115.19 98.631 115.211 99.3565C115.228 100.03 115.874 100.505 116.491 100.747C117.577 101.17 118.761 101.23 119.906 101.442C121.051 101.658 122.234 102.081 122.944 103.022C123.654 103.964 123.641 105.536 122.665 106.179L109.979 105.782C110.757 105.751 111.251 104.819 111.125 104.037C111.002 103.256 110.461 102.617 109.929 102.042C109.396 101.468 108.826 100.868 108.627 100.103C108.302 98.8642 109.084 97.5429 110.144 96.8563H110.136Z" fill="#E5E5EA"/>
</g>
<path opacity="0.2" d="M84.3461 133.318L86.8055 133.642L90.689 114.176L88.893 136.025L83.7164 136.889L84.3461 133.318Z" fill="black"/>
<path d="M86.1369 126.953L83.7113 136.889L93.3419 127.648L102.102 132.662C102.102 132.662 85.8918 156.031 79.494 157.974C77.0768 158.708 68.3041 156.329 68.3041 149.657C68.3041 137.161 70.9917 128.27 72.8891 117.467L86.1327 126.953H86.1369Z" fill="#FEE0AD"/>
<path d="M86.3275 90.4919C86.3275 90.4919 77.128 91.3253 74.0474 103.58C71.7951 112.54 67.5144 131.09 67.5144 131.09L86.8008 133.642L90.6843 110.018L86.3233 90.4919H86.3275Z" fill="white"/>
<path d="M107.333 108.031C107.574 108.031 107.802 108.074 108.035 108.105V104.434H125.813V125.735C125.813 127.117 124.714 128.24 123.362 128.24H110.486C109.133 128.24 108.035 127.117 108.035 125.735V124.574C107.802 124.604 107.574 124.647 107.333 124.647C104.079 124.647 101.434 121.944 101.434 118.619V114.064C101.434 110.739 104.079 108.036 107.333 108.036V108.031ZM103.961 119.038C103.961 119.651 104.172 120.251 104.591 120.692C105.85 122.009 107.016 122.203 108.035 121.983V110.691C107.016 110.471 105.85 110.67 104.591 111.974C104.172 112.41 103.961 113.014 103.961 113.623V119.034V119.038Z" fill="#2C2C2E"/>
<path d="M101.447 114.953C101.447 114.953 102.736 113.671 104.836 112.302C106.869 110.976 108.521 115.191 108.187 117.069C108.187 117.069 110.06 118.822 109.02 120.955L108.187 122.208C108.187 122.208 110.858 122.475 109.569 125.882C108.28 129.289 104.714 131.91 102.064 133.249C99.4148 134.587 93.355 128.175 93.3423 127.653L95.6073 124.954C95.7172 119.794 101.147 112.773 101.452 112.699L101.443 114.958L101.447 114.953Z" fill="#FEE0AD"/>
<path opacity="0.2" d="M83.6732 136.937C83.6732 136.937 78.5938 138.362 76.95 143.928C76.95 143.928 76.3584 141.63 78.26 138.629C80.1616 135.624 84.2563 134.531 84.2563 134.531L83.669 136.937H83.6732Z" fill="black"/>
<path d="M161.589 118.796L172.656 117.255C173.032 117.203 173.357 116.983 173.535 116.654L184.594 96.2388C185.05 95.3968 184.374 94.3216 183.385 94.3216L173.209 94.3C172.762 94.3 172.36 94.5332 172.153 94.9132L160.198 116.892C159.704 117.803 160.532 118.947 161.584 118.8L161.589 118.796Z" fill="#2C2C2E"/>
<path opacity="0.2" d="M173.568 121.387C173.568 121.387 173.239 122.359 170.272 122.017C167.306 121.672 164.571 118.693 164.571 118.693L166.3 117.211L173.572 121.387H173.568Z" fill="black"/>
<path d="M177.384 109.603C177.384 109.603 169.208 107.703 167.741 108.904C166.271 110.104 168.734 111.201 168.734 111.201C168.734 111.201 165.954 110.164 165.362 111.313C164.652 112.691 167.238 113.826 167.238 113.826C167.238 113.826 164.931 113.075 164.475 114.133C164.001 115.23 166.828 116.724 166.828 116.724C166.828 116.724 165.109 116.508 165.197 117.427C165.286 118.347 171.227 121.637 173.573 121.383C175.918 121.128 180.516 113.55 180.266 111.27C180.051 109.305 181.192 106.788 179.713 105.242L177.203 109.603H177.384Z" fill="#FEE0AD"/>
<path opacity="0.2" d="M168.68 111.34C168.68 111.34 168.688 111.34 168.692 111.344L173.628 112.916C173.696 112.937 173.768 112.89 173.793 112.817C173.818 112.739 173.785 112.661 173.717 112.639L168.781 111.068C168.714 111.046 168.642 111.094 168.616 111.167C168.591 111.24 168.621 111.314 168.68 111.34Z" fill="black"/>
<path opacity="0.2" d="M167.318 114.025L171.941 115.916C172.005 115.942 172.081 115.903 172.11 115.83C172.14 115.757 172.115 115.692 172.047 115.649L167.424 113.757C167.361 113.731 167.285 113.77 167.255 113.844C167.225 113.917 167.255 113.999 167.314 114.025H167.318Z" fill="black"/>
<path opacity="0.2" d="M166.93 116.931L170.323 118.438C170.387 118.468 170.463 118.429 170.496 118.356C170.526 118.283 170.501 118.201 170.437 118.17L167.044 116.663C166.981 116.633 166.904 116.672 166.871 116.745C166.837 116.819 166.866 116.901 166.93 116.931Z" fill="black"/>
<path opacity="0.2" d="M150.652 136.591C150.652 136.591 150.035 133.417 152.596 130.77L151.59 128.801C151.59 128.801 147.859 132.554 150.648 136.587L150.652 136.591Z" fill="black"/>
<path d="M174.993 101.239C174.558 101.814 174.528 102.531 174.917 102.837C175.31 103.148 175.977 102.932 176.413 102.358C176.848 101.784 176.878 101.067 176.489 100.76C176.096 100.449 175.428 100.665 174.993 101.239Z" fill="white"/>
<path opacity="0.4" d="M86.3275 90.4919C86.3275 90.4919 77.128 91.3253 74.0474 103.58C71.7951 112.54 67.5144 131.09 67.5144 131.09L86.8008 133.642L90.6843 110.018L86.3233 90.4919H86.3275Z" fill="white"/>
<g filter="url(#filter0_d_421_3941)">
<g filter="url(#filter1_i_421_3941)">
<path d="M188.092 42.7451C181.648 29.5753 165.97 24.2352 153.081 30.8201C140.719 37.136 135.418 52.1269 140.689 64.9586L137.117 72.5423L145.156 72.2811C152.796 81.1634 165.594 84.0525 176.43 78.5202C189.318 71.9353 194.544 55.9149 188.1 42.7451H188.092Z" fill="url(#paint0_linear_421_3941)"/>
</g>
<path d="M152.227 49.8958C152.995 49.8958 153.647 50.0598 154.183 50.3878C154.727 50.7078 155.143 51.1758 155.431 51.7918C155.719 52.4078 155.863 53.1678 155.863 54.0718C155.863 55.0318 155.687 55.8438 155.335 56.5078C154.991 57.1718 154.511 57.6758 153.895 58.0198C153.279 58.3638 152.563 58.5358 151.747 58.5358C151.323 58.5358 150.919 58.4918 150.535 58.4038C150.151 58.3158 149.819 58.1798 149.539 57.9958L150.115 56.8198C150.347 56.9718 150.599 57.0798 150.871 57.1438C151.143 57.1998 151.423 57.2278 151.711 57.2278C152.503 57.2278 153.131 56.9838 153.595 56.4958C154.059 56.0078 154.291 55.2878 154.291 54.3358C154.291 54.1838 154.287 54.0078 154.279 53.8078C154.271 53.5998 154.243 53.3918 154.195 53.1838L154.675 53.7118C154.539 54.0398 154.343 54.3158 154.087 54.5398C153.831 54.7558 153.531 54.9198 153.187 55.0318C152.843 55.1438 152.463 55.1998 152.047 55.1998C151.503 55.1998 151.011 55.0958 150.571 54.8878C150.139 54.6718 149.795 54.3718 149.539 53.9878C149.283 53.5958 149.155 53.1398 149.155 52.6198C149.155 52.0598 149.291 51.5798 149.563 51.1798C149.835 50.7718 150.203 50.4558 150.667 50.2318C151.139 50.0078 151.659 49.8958 152.227 49.8958ZM152.311 51.1198C151.991 51.1198 151.707 51.1798 151.459 51.2998C151.211 51.4118 151.015 51.5758 150.871 51.7918C150.735 51.9998 150.667 52.2518 150.667 52.5478C150.667 52.9878 150.819 53.3358 151.123 53.5918C151.427 53.8478 151.835 53.9758 152.347 53.9758C152.683 53.9758 152.979 53.9158 153.235 53.7958C153.491 53.6678 153.691 53.4958 153.835 53.2798C153.979 53.0558 154.051 52.8078 154.051 52.5358C154.051 52.2718 153.983 52.0358 153.847 51.8278C153.711 51.6118 153.515 51.4398 153.259 51.3118C153.003 51.1838 152.687 51.1198 152.311 51.1198ZM159.751 49.8958C160.519 49.8958 161.171 50.0598 161.707 50.3878C162.251 50.7078 162.667 51.1758 162.955 51.7918C163.243 52.4078 163.387 53.1678 163.387 54.0718C163.387 55.0318 163.211 55.8438 162.859 56.5078C162.515 57.1718 162.035 57.6758 161.419 58.0198C160.803 58.3638 160.087 58.5358 159.271 58.5358C158.847 58.5358 158.443 58.4918 158.059 58.4038C157.675 58.3158 157.343 58.1798 157.063 57.9958L157.639 56.8198C157.871 56.9718 158.123 57.0798 158.395 57.1438C158.667 57.1998 158.947 57.2278 159.235 57.2278C160.027 57.2278 160.655 56.9838 161.119 56.4958C161.583 56.0078 161.815 55.2878 161.815 54.3358C161.815 54.1838 161.811 54.0078 161.803 53.8078C161.795 53.5998 161.767 53.3918 161.719 53.1838L162.199 53.7118C162.063 54.0398 161.867 54.3158 161.611 54.5398C161.355 54.7558 161.055 54.9198 160.711 55.0318C160.367 55.1438 159.987 55.1998 159.571 55.1998C159.027 55.1998 158.535 55.0958 158.095 54.8878C157.663 54.6718 157.319 54.3718 157.063 53.9878C156.807 53.5958 156.679 53.1398 156.679 52.6198C156.679 52.0598 156.815 51.5798 157.087 51.1798C157.359 50.7718 157.727 50.4558 158.191 50.2318C158.663 50.0078 159.183 49.8958 159.751 49.8958ZM159.835 51.1198C159.515 51.1198 159.231 51.1798 158.983 51.2998C158.735 51.4118 158.539 51.5758 158.395 51.7918C158.259 51.9998 158.191 52.2518 158.191 52.5478C158.191 52.9878 158.343 53.3358 158.647 53.5918C158.951 53.8478 159.359 53.9758 159.871 53.9758C160.207 53.9758 160.503 53.9158 160.759 53.7958C161.015 53.6678 161.215 53.4958 161.359 53.2798C161.503 53.0558 161.575 52.8078 161.575 52.5358C161.575 52.2718 161.507 52.0358 161.371 51.8278C161.235 51.6118 161.039 51.4398 160.783 51.3118C160.527 51.1838 160.211 51.1198 159.835 51.1198ZM167.274 49.8958C168.042 49.8958 168.694 50.0598 169.23 50.3878C169.774 50.7078 170.19 51.1758 170.478 51.7918C170.766 52.4078 170.91 53.1678 170.91 54.0718C170.91 55.0318 170.734 55.8438 170.382 56.5078C170.038 57.1718 169.558 57.6758 168.942 58.0198C168.326 58.3638 167.61 58.5358 166.794 58.5358C166.37 58.5358 165.966 58.4918 165.582 58.4038C165.198 58.3158 164.866 58.1798 164.586 57.9958L165.162 56.8198C165.394 56.9718 165.646 57.0798 165.918 57.1438C166.19 57.1998 166.47 57.2278 166.758 57.2278C167.55 57.2278 168.178 56.9838 168.642 56.4958C169.106 56.0078 169.338 55.2878 169.338 54.3358C169.338 54.1838 169.334 54.0078 169.326 53.8078C169.318 53.5998 169.29 53.3918 169.242 53.1838L169.722 53.7118C169.586 54.0398 169.39 54.3158 169.134 54.5398C168.878 54.7558 168.578 54.9198 168.234 55.0318C167.89 55.1438 167.51 55.1998 167.094 55.1998C166.55 55.1998 166.058 55.0958 165.618 54.8878C165.186 54.6718 164.842 54.3718 164.586 53.9878C164.33 53.5958 164.202 53.1398 164.202 52.6198C164.202 52.0598 164.338 51.5798 164.61 51.1798C164.882 50.7718 165.25 50.4558 165.714 50.2318C166.186 50.0078 166.706 49.8958 167.274 49.8958ZM167.358 51.1198C167.038 51.1198 166.754 51.1798 166.506 51.2998C166.258 51.4118 166.062 51.5758 165.918 51.7918C165.782 51.9998 165.714 52.2518 165.714 52.5478C165.714 52.9878 165.866 53.3358 166.17 53.5918C166.474 53.8478 166.882 53.9758 167.394 53.9758C167.73 53.9758 168.026 53.9158 168.282 53.7958C168.538 53.6678 168.738 53.4958 168.882 53.2798C169.026 53.0558 169.098 52.8078 169.098 52.5358C169.098 52.2718 169.03 52.0358 168.894 51.8278C168.758 51.6118 168.562 51.4398 168.306 51.3118C168.05 51.1838 167.734 51.1198 167.358 51.1198ZM174.797 49.8958C175.565 49.8958 176.217 50.0598 176.753 50.3878C177.297 50.7078 177.713 51.1758 178.001 51.7918C178.289 52.4078 178.433 53.1678 178.433 54.0718C178.433 55.0318 178.257 55.8438 177.905 56.5078C177.561 57.1718 177.081 57.6758 176.465 58.0198C175.849 58.3638 175.133 58.5358 174.317 58.5358C173.893 58.5358 173.489 58.4918 173.105 58.4038C172.721 58.3158 172.389 58.1798 172.109 57.9958L172.685 56.8198C172.917 56.9718 173.169 57.0798 173.441 57.1438C173.713 57.1998 173.993 57.2278 174.281 57.2278C175.073 57.2278 175.701 56.9838 176.165 56.4958C176.629 56.0078 176.861 55.2878 176.861 54.3358C176.861 54.1838 176.857 54.0078 176.849 53.8078C176.841 53.5998 176.813 53.3918 176.765 53.1838L177.245 53.7118C177.109 54.0398 176.913 54.3158 176.657 54.5398C176.401 54.7558 176.101 54.9198 175.757 55.0318C175.413 55.1438 175.033 55.1998 174.617 55.1998C174.073 55.1998 173.581 55.0958 173.141 54.8878C172.709 54.6718 172.365 54.3718 172.109 53.9878C171.853 53.5958 171.725 53.1398 171.725 52.6198C171.725 52.0598 171.861 51.5798 172.133 51.1798C172.405 50.7718 172.773 50.4558 173.237 50.2318C173.709 50.0078 174.229 49.8958 174.797 49.8958ZM174.881 51.1198C174.561 51.1198 174.277 51.1798 174.029 51.2998C173.781 51.4118 173.585 51.5758 173.441 51.7918C173.305 51.9998 173.237 52.2518 173.237 52.5478C173.237 52.9878 173.389 53.3358 173.693 53.5918C173.997 53.8478 174.405 53.9758 174.917 53.9758C175.253 53.9758 175.549 53.9158 175.805 53.7958C176.061 53.6678 176.261 53.4958 176.405 53.2798C176.549 53.0558 176.621 52.8078 176.621 52.5358C176.621 52.2718 176.553 52.0358 176.417 51.8278C176.281 51.6118 176.085 51.4398 175.829 51.3118C175.573 51.1838 175.257 51.1198 174.881 51.1198Z" fill="white"/>
<path d="M134.991 51.2511C134.833 51.2511 134.713 51.1128 134.713 50.9591C134.916 42.2305 139.773 33.6632 147.082 29.1452C147.218 29.0607 147.391 29.1068 147.473 29.2451C147.556 29.3834 147.511 29.5601 147.376 29.6446C140.224 34.0704 135.48 42.4456 135.284 50.9822C135.284 51.1358 135.156 51.2665 135.006 51.2665L134.991 51.2511ZM135.54 59.1345C135.69 59.0884 135.765 58.9194 135.72 58.7734C135.337 57.5594 135.194 56.2455 135.314 54.9777C135.329 54.8163 135.216 54.678 135.059 54.6626C134.908 54.6473 134.765 54.7625 134.75 54.9239C134.622 56.2762 134.765 57.667 135.179 58.9578C135.216 59.0807 135.329 59.1576 135.45 59.1576C135.48 59.1576 135.51 59.1576 135.54 59.1422V59.1345Z" fill="white"/>
<path opacity="0.6" d="M134.991 51.2511C134.833 51.2511 134.713 51.1128 134.713 50.9591C134.916 42.2305 139.773 33.6632 147.082 29.1452C147.218 29.0607 147.391 29.1068 147.473 29.2451C147.556 29.3834 147.511 29.5601 147.376 29.6446C140.224 34.0704 135.48 42.4456 135.284 50.9822C135.284 51.1358 135.156 51.2665 135.006 51.2665L134.991 51.2511ZM135.54 59.1345C135.69 59.0884 135.765 58.9194 135.72 58.7734C135.337 57.5594 135.194 56.2455 135.314 54.9777C135.329 54.8163 135.216 54.678 135.059 54.6626C134.908 54.6473 134.765 54.7625 134.75 54.9239C134.622 56.2762 134.765 57.667 135.179 58.9578C135.216 59.0807 135.329 59.1576 135.45 59.1576C135.48 59.1576 135.51 59.1576 135.54 59.1422V59.1345Z" fill="white"/>
</g>
<g filter="url(#filter2_d_421_3941)">
<g filter="url(#filter3_i_421_3941)">
<path d="M34.9876 51.662C25.1483 60.3581 23.7389 74.6957 31.8404 83.6792C39.611 92.2958 53.3066 92.8541 63.0924 85.215L70.1967 86.2338L68.3887 79.6488C74.3744 71.0583 74.2844 59.7299 67.4765 52.1763C59.375 43.1928 44.8256 42.9597 34.9862 51.6558L34.9876 51.662Z" fill="url(#paint1_linear_421_3941)"/>
</g>
<path d="M39.0044 72.0669C38.2477 72.0669 37.5986 71.9066 37.057 71.5859C36.5153 71.2572 36.1012 70.7842 35.8144 70.1668C35.5277 69.5495 35.3843 68.7878 35.3843 67.8819C35.3843 66.9198 35.5555 66.106 35.898 65.4406C36.2485 64.7752 36.7304 64.2701 37.3437 63.9253C37.965 63.5806 38.6779 63.4082 39.4823 63.4082C39.9045 63.4082 40.3067 63.4523 40.689 63.5405C41.0793 63.6287 41.4099 63.765 41.6807 63.9494L41.1072 65.1279C40.8762 64.9756 40.6253 64.8714 40.3545 64.8152C40.0917 64.7511 39.8129 64.719 39.5182 64.719C38.7296 64.719 38.1044 64.9636 37.6424 65.4526C37.1804 65.9417 36.9494 66.6632 36.9494 67.6173C36.9494 67.7696 36.9534 67.95 36.9614 68.1585C36.9693 68.3589 36.9972 68.5634 37.045 68.7718L36.5671 68.2427C36.7105 67.914 36.9056 67.6414 37.1525 67.4249C37.4074 67.2004 37.7061 67.032 38.0486 66.9198C38.3991 66.8076 38.7774 66.7514 39.1836 66.7514C39.7332 66.7514 40.2231 66.8597 40.6532 67.0761C41.0833 67.2846 41.4258 67.5852 41.6807 67.9781C41.9356 68.3629 42.063 68.8159 42.063 69.337C42.063 69.8902 41.9276 70.3713 41.6568 70.7802C41.386 71.189 41.0196 71.5057 40.5576 71.7302C40.0956 71.9547 39.5779 72.0669 39.0044 72.0669ZM38.9208 70.8403C39.2394 70.8403 39.5222 70.7842 39.7691 70.6719C40.016 70.5517 40.2072 70.3833 40.3426 70.1668C40.4859 69.9504 40.5576 69.6978 40.5576 69.4092C40.5576 68.9682 40.4063 68.6195 40.1036 68.3629C39.8009 68.1064 39.3947 67.9781 38.8849 67.9781C38.5504 67.9781 38.2557 68.0422 38.0008 68.1705C37.7539 68.2908 37.5548 68.4591 37.4034 68.6756C37.2601 68.8921 37.1884 69.1406 37.1884 69.4212C37.1884 69.6778 37.2561 69.9143 37.3915 70.1307C37.5269 70.3472 37.722 70.5196 37.9769 70.6479C38.2398 70.7761 38.5544 70.8403 38.9208 70.8403ZM46.2322 72.0669C45.5392 72.0669 44.9378 71.9627 44.4281 71.7543C43.9183 71.5458 43.524 71.2532 43.2453 70.8764C42.9665 70.4915 42.8271 70.0426 42.8271 69.5294C42.8271 69.0163 42.9625 68.5834 43.2333 68.2306C43.5041 67.8779 43.8944 67.6093 44.4042 67.4249C44.914 67.2405 45.5233 67.1483 46.2322 67.1483C46.9411 67.1483 47.5504 67.2405 48.0602 67.4249C48.5779 67.6093 48.9722 67.8819 49.243 68.2427C49.5218 68.5954 49.6611 69.0244 49.6611 69.5294C49.6611 70.0426 49.5178 70.4915 49.231 70.8764C48.9523 71.2532 48.554 71.5458 48.0363 71.7543C47.5265 71.9627 46.9251 72.0669 46.2322 72.0669ZM46.2322 70.8403C46.8057 70.8403 47.2597 70.72 47.5942 70.4795C47.9287 70.239 48.096 69.9063 48.096 69.4813C48.096 69.0644 47.9287 68.7357 47.5942 68.4952C47.2597 68.2547 46.8057 68.1344 46.2322 68.1344C45.6587 68.1344 45.2087 68.2547 44.8821 68.4952C44.5555 68.7357 44.3922 69.0644 44.3922 69.4813C44.3922 69.9063 44.5555 70.239 44.8821 70.4795C45.2087 70.72 45.6587 70.8403 46.2322 70.8403ZM46.2322 67.9661C45.587 67.9661 45.0334 67.8819 44.5715 67.7135C44.1095 67.5371 43.7511 67.2846 43.4962 66.9559C43.2493 66.6191 43.1258 66.2183 43.1258 65.7533C43.1258 65.2722 43.2532 64.8593 43.5081 64.5146C43.771 64.1618 44.1374 63.8892 44.6073 63.6968C45.0772 63.5044 45.6189 63.4082 46.2322 63.4082C46.8535 63.4082 47.3991 63.5044 47.869 63.6968C48.3389 63.8892 48.7053 64.1618 48.9682 64.5146C49.231 64.8593 49.3625 65.2722 49.3625 65.7533C49.3625 66.2183 49.235 66.6191 48.9801 66.9559C48.7332 67.2846 48.3748 67.5371 47.9048 67.7135C47.4349 67.8819 46.8773 67.9661 46.2322 67.9661ZM46.2322 67.004C46.726 67.004 47.1163 66.8998 47.403 66.6913C47.6898 66.4748 47.8332 66.1862 47.8332 65.8254C47.8332 65.4486 47.6858 65.156 47.3911 64.9475C47.0964 64.7391 46.7101 64.6349 46.2322 64.6349C45.7543 64.6349 45.3719 64.7391 45.0852 64.9475C44.7985 65.156 44.6551 65.4486 44.6551 65.8254C44.6551 66.1862 44.7945 66.4748 45.0733 66.6913C45.36 66.8998 45.7463 67.004 46.2322 67.004ZM54.289 72.0669C53.5323 72.0669 52.8831 71.9066 52.3415 71.5859C51.7999 71.2572 51.3857 70.7842 51.099 70.1668C50.8122 69.5495 50.6689 68.7878 50.6689 67.8819C50.6689 66.9198 50.8401 66.106 51.1826 65.4406C51.5331 64.7752 52.0149 64.2701 52.6283 63.9253C53.2495 63.5806 53.9624 63.4082 54.7669 63.4082C55.189 63.4082 55.5913 63.4523 55.9736 63.5405C56.3639 63.6287 56.6944 63.765 56.9652 63.9494L56.3918 65.1279C56.1608 64.9756 55.9099 64.8714 55.6391 64.8152C55.3762 64.7511 55.0974 64.719 54.8027 64.719C54.0142 64.719 53.3889 64.9636 52.927 65.4526C52.465 65.9417 52.234 66.6632 52.234 67.6173C52.234 67.7696 52.238 67.95 52.2459 68.1585C52.2539 68.3589 52.2818 68.5634 52.3296 68.7718L51.8517 68.2427C51.995 67.914 52.1902 67.6414 52.4371 67.4249C52.692 67.2004 52.9907 67.032 53.3332 66.9198C53.6836 66.8076 54.062 66.7514 54.4682 66.7514C55.0178 66.7514 55.5076 66.8597 55.9378 67.0761C56.3679 67.2846 56.7104 67.5852 56.9652 67.9781C57.2201 68.3629 57.3476 68.8159 57.3476 69.337C57.3476 69.8902 57.2122 70.3713 56.9414 70.7802C56.6705 71.189 56.3041 71.5057 55.8422 71.7302C55.3802 71.9547 54.8625 72.0669 54.289 72.0669ZM54.2053 70.8403C54.524 70.8403 54.8067 70.7842 55.0536 70.6719C55.3005 70.5517 55.4917 70.3833 55.6271 70.1668C55.7705 69.9504 55.8422 69.6978 55.8422 69.4092C55.8422 68.9682 55.6908 68.6195 55.3882 68.3629C55.0855 68.1064 54.6793 67.9781 54.1695 67.9781C53.835 67.9781 53.5403 68.0422 53.2854 68.1705C53.0385 68.2908 52.8393 68.4591 52.688 68.6756C52.5446 68.8921 52.4729 69.1406 52.4729 69.4212C52.4729 69.6778 52.5406 69.9143 52.6761 70.1307C52.8115 70.3472 53.0066 70.5196 53.2615 70.6479C53.5243 70.7761 53.839 70.8403 54.2053 70.8403ZM61.5167 72.0669C60.8238 72.0669 60.2224 71.9627 59.7126 71.7543C59.2029 71.5458 58.8086 71.2532 58.5298 70.8764C58.251 70.4915 58.1117 70.0426 58.1117 69.5294C58.1117 69.0163 58.2471 68.5834 58.5179 68.2306C58.7887 67.8779 59.179 67.6093 59.6887 67.4249C60.1985 67.2405 60.8078 67.1483 61.5167 67.1483C62.2256 67.1483 62.835 67.2405 63.3447 67.4249C63.8624 67.6093 64.2567 67.8819 64.5275 68.2427C64.8063 68.5954 64.9457 69.0244 64.9457 69.5294C64.9457 70.0426 64.8023 70.4915 64.5156 70.8764C64.2368 71.2532 63.8386 71.5458 63.3208 71.7543C62.8111 71.9627 62.2097 72.0669 61.5167 72.0669ZM61.5167 70.8403C62.0902 70.8403 62.5442 70.72 62.8788 70.4795C63.2133 70.239 63.3806 69.9063 63.3806 69.4813C63.3806 69.0644 63.2133 68.7357 62.8788 68.4952C62.5442 68.2547 62.0902 68.1344 61.5167 68.1344C60.9432 68.1344 60.4932 68.2547 60.1667 68.4952C59.8401 68.7357 59.6768 69.0644 59.6768 69.4813C59.6768 69.9063 59.8401 70.239 60.1667 70.4795C60.4932 70.72 60.9432 70.8403 61.5167 70.8403ZM61.5167 67.9661C60.8716 67.9661 60.318 67.8819 59.856 67.7135C59.394 67.5371 59.0356 67.2846 58.7807 66.9559C58.5338 66.6191 58.4104 66.2183 58.4104 65.7533C58.4104 65.2722 58.5378 64.8593 58.7927 64.5146C59.0555 64.1618 59.4219 63.8892 59.8919 63.6968C60.3618 63.5044 60.9034 63.4082 61.5167 63.4082C62.138 63.4082 62.6836 63.5044 63.1536 63.6968C63.6235 63.8892 63.9899 64.1618 64.2527 64.5146C64.5156 64.8593 64.647 65.2722 64.647 65.7533C64.647 66.2183 64.5196 66.6191 64.2647 66.9559C64.0178 67.2846 63.6593 67.5371 63.1894 67.7135C62.7195 67.8819 62.1619 67.9661 61.5167 67.9661ZM61.5167 67.004C62.0106 67.004 62.4009 66.8998 62.6876 66.6913C62.9743 66.4748 63.1177 66.1862 63.1177 65.8254C63.1177 65.4486 62.9704 65.156 62.6757 64.9475C62.3809 64.7391 61.9946 64.6349 61.5167 64.6349C61.0388 64.6349 60.6565 64.7391 60.3698 64.9475C60.083 65.156 59.9396 65.4486 59.9396 65.8254C59.9396 66.1862 60.079 66.4748 60.3578 66.6913C60.6446 66.8998 61.0309 67.004 61.5167 67.004Z" fill="white"/>
<path d="M53.4293 93.7122C53.46 93.839 53.3686 93.9699 53.2411 94.008C45.961 96.009 37.9105 94.2324 32.743 89.4835C32.6466 89.3958 32.6512 89.2455 32.7499 89.1448C32.8485 89.0441 33.0039 89.0365 33.1003 89.1242C38.1607 93.7692 46.0299 95.5028 53.1493 93.5434C53.2767 93.5053 53.4099 93.5755 53.4391 93.6963L53.4293 93.7122ZM59.8623 91.3169C59.7949 91.2076 59.64 91.1891 59.5277 91.2615C58.5951 91.8704 57.5329 92.3109 56.4578 92.5286C56.3211 92.5566 56.2282 92.6814 56.2462 92.812C56.2626 92.9366 56.386 93.0227 56.5228 92.9948C57.6694 92.7622 58.7953 92.3027 59.7858 91.6505C59.8805 91.5899 59.9223 91.4802 59.899 91.3836C59.8931 91.3595 59.8873 91.3353 59.8687 91.315L59.8623 91.3169Z" fill="white"/>
<path opacity="0.6" d="M53.4293 93.7122C53.46 93.839 53.3686 93.9699 53.2411 94.008C45.961 96.009 37.9105 94.2324 32.743 89.4835C32.6466 89.3958 32.6512 89.2455 32.7499 89.1448C32.8485 89.0441 33.0039 89.0365 33.1003 89.1242C38.1607 93.7692 46.0299 95.5028 53.1493 93.5434C53.2767 93.5053 53.4099 93.5755 53.4391 93.6963L53.4293 93.7122ZM59.8623 91.3169C59.7949 91.2076 59.64 91.1891 59.5277 91.2615C58.5951 91.8704 57.5329 92.3109 56.4578 92.5286C56.3211 92.5566 56.2282 92.6814 56.2462 92.812C56.2626 92.9366 56.386 93.0227 56.5228 92.9948C57.6694 92.7622 58.7953 92.3027 59.7858 91.6505C59.8805 91.5899 59.9223 91.4802 59.899 91.3836C59.8931 91.3595 59.8873 91.3353 59.8687 91.315L59.8623 91.3169Z" fill="white"/>
</g>
<defs>
<filter id="filter0_d_421_3941" x="94.705" y="0" width="136.155" height="133.339" filterUnits="userSpaceOnUse" color-interpolation-filters="sRGB">
<feFlood flood-opacity="0" result="BackgroundImageFix"/>
<feColorMatrix in="SourceAlpha" type="matrix" values="0 0 0 0 0 0 0 0 0 0 0 0 0 0 0 0 0 0 127 0" result="hardAlpha"/>
<feMorphology radius="4" operator="dilate" in="SourceAlpha" result="effect1_dropShadow_421_3941"/>
<feOffset dy="12"/>
<feGaussianBlur stdDeviation="18"/>
<feColorMatrix type="matrix" values="0 0 0 0 0 0 0 0 0 0 0 0 0 0 0 0 0 0 0.16 0"/>
<feBlend mode="normal" in2="BackgroundImageFix" result="effect1_dropShadow_421_3941"/>
<feBlend mode="normal" in="SourceGraphic" in2="effect1_dropShadow_421_3941" result="shape"/>
</filter>
<filter id="filter1_i_421_3941" x="137.117" y="28" width="53.7423" height="53.3389" filterUnits="userSpaceOnUse" color-interpolation-filters="sRGB">
<feFlood flood-opacity="0" result="BackgroundImageFix"/>
<feBlend mode="normal" in="SourceGraphic" in2="BackgroundImageFix" result="shape"/>
<feColorMatrix in="SourceAlpha" type="matrix" values="0 0 0 0 0 0 0 0 0 0 0 0 0 0 0 0 0 0 127 0" result="hardAlpha"/>
<feOffset/>
<feGaussianBlur stdDeviation="8"/>
<feComposite in2="hardAlpha" operator="arithmetic" k2="-1" k3="1"/>
<feColorMatrix type="matrix" values="0 0 0 0 0 0 0 0 0 0 0 0 0 0 0 0 0 0 0.12 0"/>
<feBlend mode="normal" in2="shape" result="effect1_innerShadow_421_3941"/>
</filter>
<filter id="filter2_d_421_3941" x="0.578003" y="27.2832" width="98.1595" height="101.535" filterUnits="userSpaceOnUse" color-interpolation-filters="sRGB">
<feFlood flood-opacity="0" result="BackgroundImageFix"/>
<feColorMatrix in="SourceAlpha" type="matrix" values="0 0 0 0 0 0 0 0 0 0 0 0 0 0 0 0 0 0 127 0" result="hardAlpha"/>
<feMorphology radius="2" operator="dilate" in="SourceAlpha" result="effect1_dropShadow_421_3941"/>
<feOffset dy="8"/>
<feGaussianBlur stdDeviation="12"/>
<feColorMatrix type="matrix" values="0 0 0 0 0.501961 0 0 0 0 0.415686 0 0 0 0 0.25098 0 0 0 0.12 0"/>
<feBlend mode="normal" in2="BackgroundImageFix" result="effect1_dropShadow_421_3941"/>
<feBlend mode="normal" in="SourceGraphic" in2="effect1_dropShadow_421_3941" result="shape"/>
</filter>
<filter id="filter3_i_421_3941" x="26.578" y="45.2832" width="46.1595" height="45.2852" filterUnits="userSpaceOnUse" color-interpolation-filters="sRGB">
<feFlood flood-opacity="0" result="BackgroundImageFix"/>
<feBlend mode="normal" in="SourceGraphic" in2="BackgroundImageFix" result="shape"/>
<feColorMatrix in="SourceAlpha" type="matrix" values="0 0 0 0 0 0 0 0 0 0 0 0 0 0 0 0 0 0 127 0" result="hardAlpha"/>
<feOffset/>
<feGaussianBlur stdDeviation="8"/>
<feComposite in2="hardAlpha" operator="arithmetic" k2="-1" k3="1"/>
<feColorMatrix type="matrix" values="0 0 0 0 0 0 0 0 0 0 0 0 0 0 0 0 0 0 0.12 0"/>
<feBlend mode="normal" in2="shape" result="effect1_innerShadow_421_3941"/>
</filter>
<linearGradient id="paint0_linear_421_3941" x1="185.175" y1="34.1545" x2="129.849" y2="57.6045" gradientUnits="userSpaceOnUse">
<stop stop-color="#FF9E9E"/>
<stop offset="1" stop-color="#FF4040"/>
</linearGradient>
<linearGradient id="paint1_linear_421_3941" x1="28.3153" y1="56.2697" x2="59.6531" y2="95.5655" gradientUnits="userSpaceOnUse">
<stop stop-color="#FF9E9E"/>
<stop offset="1" stop-color="#FF4040"/>
</linearGradient>
</defs>
</svg>
