<svg xmlns="http://www.w3.org/2000/svg" width="89" height="117" viewBox="0 0 89 117" fill="none">
  <path d="M14.7824 79.5491L14.4333 79.907L14.7824 80.2649L19.1043 84.6955L19.4534 85.0534L19.8025 84.6955L24.9136 79.4559L25.2627 79.098L24.9136 78.7401L20.5917 74.3095L20.2426 73.9516L19.8935 74.3095L14.7824 79.5491ZM22.3952 71.7449L22.046 72.1028L22.3952 72.4607L26.717 76.8912L27.0661 77.2492L27.4153 76.8912L35.1356 68.9767L35.4847 68.6188L35.1356 68.2609L30.8138 63.8303L30.4646 63.4724L30.1155 63.8303L22.3952 71.7449ZM23.4261 88.4102L23.0769 88.7681L23.4261 89.126L27.7479 93.5566L28.097 93.9145L28.4462 93.5566L38.6682 83.0774L39.0173 82.7195L38.6682 82.3615L34.3464 77.931L33.9973 77.5731L33.6481 77.931L23.4261 88.4102ZM35.8808 75.6421L35.5317 76L35.8808 76.358L40.2027 80.7885L40.5518 81.1464L40.9009 80.7885L43.7792 77.8378L44.1284 77.4799L43.7792 77.1219L39.4574 72.6914L39.1083 72.3335L38.7591 72.6914L35.8808 75.6421ZM32.0697 97.2713L31.7206 97.6292L32.0697 97.9871L36.3915 102.418L36.7407 102.776L37.0898 102.418L42.2008 97.1781L42.55 96.8201L42.2008 96.4622L37.879 92.0317L37.5299 91.6738L37.1807 92.0317L32.0697 97.2713ZM39.6824 89.467L39.3333 89.825L39.6824 90.1829L44.0043 94.6134L44.3534 94.9713L44.7025 94.6134L52.4229 86.6989L52.772 86.3409L52.4229 85.983L48.1011 81.5525L47.7519 81.1946L47.4028 81.5525L39.6824 89.467ZM81.2073 69.0503L81.2069 69.0506L40.3188 110.967C38.9892 112.33 37.4694 113.073 35.7469 113.222C34.028 113.371 32.6588 112.881 31.5847 111.777L31.5842 111.777L5.65327 85.1932C4.57878 84.0917 4.10135 82.6883 4.24504 80.9276C4.38899 79.1638 5.11268 77.605 6.44265 76.2388L36.9808 44.9324L64.8709 42.5402L81.9961 60.0963C83.0704 61.1977 83.5479 62.6025 83.404 64.3668C83.2597 66.134 82.5361 67.6909 81.2073 69.0503ZM81.5561 69.4086L40.6679 111.325C39.2624 112.766 37.6359 113.567 35.7885 113.727C33.9411 113.887 32.4233 113.356 31.2351 112.134L5.30414 85.5512C4.11564 84.3328 3.5986 82.7775 3.75301 80.8854C3.90744 78.9932 4.68754 77.3251 6.09334 75.881L81.5561 69.4086Z" fill="#FFCBD0" stroke="#F69795"/>
  <path d="M19.334 51.2612L18.9854 51.6197L19.3351 51.977L23.2882 56.0162L23.6379 56.3736L23.9865 56.0151L29.1089 50.748L29.4575 50.3896L29.1078 50.0322L25.1547 45.993L24.805 45.6357L24.4564 45.9941L19.334 51.2612ZM26.9637 43.416L26.6151 43.7745L26.9648 44.1318L30.9179 48.171L31.2676 48.5283L31.6162 48.1699L39.3537 40.2138L39.7023 39.8553L39.3526 39.498L35.3995 35.4588L35.0498 35.1014L34.7012 35.4599L26.9637 43.416ZM27.2401 59.3396L26.8915 59.6981L27.2412 60.0554L31.1943 64.0946L31.544 64.452L31.8926 64.0935L42.1375 53.5593L42.4861 53.2008L42.1363 52.8435L38.1833 48.8043L37.8335 48.447L37.4849 48.8054L27.2401 59.3396ZM39.7226 46.5045L39.374 46.8629L39.7238 47.2203L43.6768 51.2595L44.0266 51.6168L44.3752 51.2584L47.2599 48.2922L47.6085 47.9337L47.2588 47.5764L43.3057 43.5372L42.956 43.1798L42.6074 43.5383L39.7226 46.5045ZM35.1462 67.418L34.7976 67.7765L35.1474 68.1338L39.1004 72.173L39.4502 72.5303L39.7988 72.1719L44.9212 66.9048L45.2698 66.5463L44.9201 66.189L40.967 62.1498L40.6173 61.7925L40.2687 62.1509L35.1462 67.418ZM42.776 59.5728L42.4274 59.9312L42.7771 60.2886L46.7302 64.3278L47.0799 64.6851L47.4285 64.3267L55.166 56.3706L55.5146 56.0121L55.1649 55.6548L51.2118 51.6156L50.8621 51.2582L50.5135 51.6167L42.776 59.5728ZM83.4474 38.0123L83.4471 38.0126L42.4677 80.1496C41.1267 81.5285 39.6307 82.3152 37.9731 82.5409C36.3193 82.7661 35.0501 82.36 34.0911 81.377L34.0905 81.3764L10.3721 57.1412C9.41253 56.1607 9.0129 54.8612 9.22581 53.1668C9.43911 51.4692 10.2012 49.9326 11.5428 48.5505L42.1586 17.0699L68.9775 13.4413L84.6176 29.4221C85.577 30.4024 85.9766 31.7033 85.7633 33.4012C85.5496 35.1021 84.7877 36.6368 83.4474 38.0123ZM83.7968 38.37L42.8174 80.5069C41.4088 81.9554 39.8157 82.8006 38.0382 83.0426C36.2607 83.2846 34.8286 82.8487 33.7419 81.7348L10.0235 57.4997C8.93641 56.3889 8.50726 54.923 8.73606 53.1021C8.96487 51.2811 9.7838 49.6449 11.1929 48.1933L83.7968 38.37Z" fill="#FFCBD0" stroke="#F69795"/>
</svg>