<svg width="24" height="24" viewBox="0 0 24 24" fill="none" xmlns="http://www.w3.org/2000/svg">
<path d="M13.5849 4.00008C15.2214 4.17251 16.75 4.89834 17.9179 6.05753C19.0859 7.21671 19.8232 8.73982 20.008 10.375M13.5849 7.2116C14.3745 7.36731 15.0991 7.75678 15.6647 8.32946C16.2302 8.90215 16.6105 9.63159 16.7563 10.4231M19.9678 15.9791V18.3877C19.9687 18.6113 19.9229 18.8327 19.8333 19.0375C19.7438 19.2424 19.6124 19.4263 19.4476 19.5775C19.2828 19.7286 19.0883 19.8437 18.8765 19.9154C18.6647 19.987 18.4402 20.0136 18.2175 19.9935C15.7469 19.725 13.3737 18.8808 11.2887 17.5286C9.34875 16.2959 7.70406 14.6512 6.47136 12.7113C5.11448 10.6168 4.27006 8.23206 4.00652 5.75036C3.98645 5.52834 4.01284 5.30457 4.084 5.0933C4.15515 4.88203 4.26952 4.6879 4.41981 4.52325C4.57011 4.35861 4.75304 4.22706 4.95696 4.13699C5.16088 4.04691 5.38132 4.00029 5.60425 4.00008H8.0129C8.40254 3.99624 8.78028 4.13422 9.07572 4.3883C9.37116 4.64237 9.56413 4.99521 9.61866 5.38103C9.72032 6.15185 9.90886 6.9087 10.1807 7.63713C10.2887 7.9245 10.3121 8.23682 10.248 8.53707C10.184 8.83732 10.0352 9.11292 9.81938 9.33121L8.79972 10.3509C9.94267 12.3609 11.607 14.0252 13.617 15.1682L14.6367 14.1485C14.855 13.9326 15.1306 13.7839 15.4308 13.7198C15.7311 13.6558 16.0434 13.6792 16.3308 13.7872C17.0592 14.059 17.816 14.2476 18.5869 14.3492C18.9769 14.4042 19.333 14.6007 19.5877 14.9012C19.8423 15.2017 19.9776 15.5853 19.9678 15.9791Z" stroke="black" stroke-width="2" stroke-linecap="round" stroke-linejoin="round"/>
</svg>
