<svg xmlns="http://www.w3.org/2000/svg" width="30" height="30" viewBox="0 0 30 30" fill="none">
  <path d="M24.5993 21.5719V24.8236C24.6006 25.1254 24.5386 25.4242 24.4174 25.7008C24.2963 25.9774 24.1185 26.2257 23.8957 26.4297C23.6728 26.6338 23.4097 26.7892 23.1231 26.8859C22.8366 26.9826 22.533 27.0185 22.2318 26.9913C18.8898 26.6289 15.6797 25.4892 12.8592 23.6638C10.2352 21.9997 8.0104 19.7793 6.34296 17.1605C4.50753 14.3328 3.3653 11.1134 3.00882 7.76313C2.98168 7.4634 3.01737 7.16131 3.11362 6.8761C3.20987 6.59089 3.36457 6.32881 3.56787 6.10654C3.77117 5.88427 4.01862 5.70668 4.29446 5.58508C4.5703 5.46348 4.86849 5.40053 5.17004 5.40025H8.42817C8.95523 5.39507 9.4662 5.58135 9.86583 5.92435C10.2655 6.26735 10.5265 6.74368 10.6002 7.26454C10.7378 8.30515 10.9928 9.32689 11.3605 10.3103C11.5066 10.6982 11.5382 11.1198 11.4516 11.5252C11.365 11.9305 11.1638 12.3026 10.8718 12.5973L9.49249 13.9738C11.0385 16.6874 13.2898 18.9342 16.0087 20.4772L17.388 19.1006C17.6833 18.8092 18.0561 18.6084 18.4622 18.5219C18.8684 18.4355 19.2908 18.467 19.6796 18.6129C20.6649 18.9798 21.6887 19.2344 22.7313 19.3716C23.2589 19.4459 23.7407 19.7111 24.0851 20.1168C24.4295 20.5225 24.6125 21.0403 24.5993 21.5719Z" stroke="white" stroke-width="2" stroke-linecap="round" stroke-linejoin="round"/>
  <path d="M17.4 8.42661C18.432 8.62796 19.3805 9.13269 20.124 9.8762C20.8675 10.6197 21.3723 11.5682 21.5736 12.6002M17.4 4.2002C19.5442 4.43839 21.5436 5.39857 23.07 6.92307C24.5964 8.44757 25.5591 10.4458 25.8 12.5896" stroke="white" stroke-width="2" stroke-linecap="round" stroke-linejoin="round"/>
</svg>