<svg width="24" height="24" viewBox="0 0 24 24" fill="none" xmlns="http://www.w3.org/2000/svg">
<path d="M10.6 4H9.7L9.1 6.3L8.5 4H7.5C7.7 4.6 7.9 5.1 8.1 5.7C8.4 6.5 8.6 7.2 8.6 7.6V10H9.5V7.6L10.6 4ZM13 8.5V7C13 6.5 12.9 6.2 12.7 5.9C12.5 5.6 12.2 5.5 11.8 5.5C11.4 5.5 11.1 5.7 10.9 6C10.7 6.2 10.6 6.5 10.6 7V8.6C10.6 9.1 10.7 9.4 10.9 9.6C11.1 9.9 11.4 10 11.8 10C12.2 10 12.5 9.8 12.7 9.5C12.9 9.4 13 9 13 8.5ZM12.2 8.7C12.2 9.1 12.1 9.3 11.8 9.3C11.5 9.3 11.4 9.1 11.4 8.7V6.8C11.4 6.4 11.5 6.2 11.8 6.2C12.1 6.2 12.2 6.4 12.2 6.8V8.7ZM16 10V5.5H15.2V8.9C15 9.2 14.9 9.3 14.7 9.3C14.6 9.3 14.5 9.2 14.5 9.1V5.5H13.7V9C13.7 9.3 13.7 9.5 13.8 9.7C13.8 9.9 14 10 14.3 10C14.6 10 14.9 9.8 15.2 9.5V10H16ZM16.4 14.5C16.1 14.5 16 14.7 16 15.1V15.5H16.8V15.1C16.8 14.7 16.7 14.5 16.4 14.5ZM13.5 14.5C13.4 14.5 13.2 14.6 13.1 14.7V17.4C13.2 17.5 13.4 17.6 13.5 17.6C13.7 17.6 13.8 17.4 13.8 17V15.1C13.8 14.7 13.7 14.5 13.5 14.5Z" fill="black"/>
<path d="M18.3999 12.2998C18.1999 11.5998 17.5999 10.9998 16.9999 10.9998C15.3999 10.7998 13.6999 10.7998 11.9999 10.7998C10.2999 10.7998 8.6999 10.7998 6.9999 10.9998C6.3999 10.9998 5.7999 11.5998 5.5999 12.2998C5.3999 13.2998 5.3999 14.3998 5.3999 15.3998C5.3999 16.3998 5.3999 17.4998 5.5999 18.4998C5.7999 19.1998 6.2999 19.6998 6.9999 19.7998C8.6999 19.9998 10.2999 19.9998 11.9999 19.9998C13.6999 19.9998 15.2999 19.9998 16.9999 19.7998C17.6999 19.6998 18.2999 19.1998 18.3999 18.4998C18.5999 17.4998 18.5999 16.3998 18.5999 15.3998C18.5999 14.3998 18.5999 13.2998 18.3999 12.2998ZM9.1999 13.1998H8.1999V18.2998H7.2999V13.1998H6.3999V12.2998H9.1999V13.1998ZM11.5999 18.2998H10.7999V17.7998C10.4999 18.1998 10.1999 18.2998 9.8999 18.2998C9.5999 18.2998 9.4999 18.1998 9.3999 17.9998C9.3999 17.8998 9.2999 17.6998 9.2999 17.2998V13.7998H10.0999V17.2998C10.0999 17.3998 10.1999 17.4998 10.2999 17.4998C10.4999 17.4998 10.5999 17.3998 10.7999 17.0998V13.7998H11.5999V18.2998ZM14.5999 16.8998C14.5999 17.2998 14.5999 17.5998 14.4999 17.7998C14.3999 18.0998 14.1999 18.2998 13.8999 18.2998C13.5999 18.2998 13.2999 18.0998 13.0999 17.7998V18.1998H12.2999V12.2998H13.0999V14.1998C13.3999 13.8998 13.5999 13.6998 13.8999 13.6998C14.1999 13.6998 14.3999 13.8998 14.4999 14.1998C14.5999 14.3998 14.5999 14.6998 14.5999 15.0998V16.8998ZM17.5999 16.1998H15.9999V16.9998C15.9999 17.3998 16.0999 17.5998 16.3999 17.5998C16.5999 17.5998 16.6999 17.4998 16.7999 17.2998V16.7998H17.5999V17.3998C17.5999 17.5998 17.4999 17.6998 17.3999 17.8998C17.1999 18.1998 16.8999 18.3998 16.3999 18.3998C15.9999 18.3998 15.6999 18.1998 15.3999 17.8998C15.1999 17.6998 15.0999 17.2998 15.0999 16.8998V15.3998C15.0999 14.8998 15.1999 14.5998 15.2999 14.3998C15.4999 14.0998 15.7999 13.8998 16.2999 13.8998C16.6999 13.8998 16.9999 14.0998 17.1999 14.3998C17.3999 14.5998 17.3999 14.9998 17.3999 15.3998V16.1998H17.5999Z" fill="black"/>
</svg>
