<svg width="24" height="24" viewBox="0 0 24 24" fill="none" xmlns="http://www.w3.org/2000/svg">
<path d="M12.8642 10.1477V9.72022H14.1437V15.7254H13.4123C13.2675 15.7257 13.1285 15.6686 13.0258 15.5665C12.923 15.4645 12.8649 15.3259 12.8642 15.1812C12.3301 15.5721 11.6852 15.7834 11.0233 15.7824C10.1963 15.7824 9.40312 15.454 8.81816 14.8694C8.2332 14.2848 7.90433 13.4919 7.90382 12.6649C7.90433 11.8379 8.2332 11.0449 8.81816 10.4603C9.40312 9.87574 10.1963 9.54734 11.0233 9.54734C11.6848 9.54659 12.3303 9.7569 12.8642 10.1477ZM7.57231 7.79004V7.98477C7.57231 8.34763 7.52387 8.64399 7.28734 8.99165L7.25885 9.02395C7.18005 9.11232 7.1034 9.20259 7.02897 9.29467L2.92258 14.4488H7.57231V15.1783C7.57231 15.2502 7.55813 15.3215 7.53057 15.3879C7.50302 15.4544 7.46263 15.5147 7.41172 15.5655C7.36081 15.6163 7.30039 15.6566 7.2339 15.6841C7.1674 15.7115 7.09615 15.7256 7.02422 15.7254H1V15.3816C1 14.9608 1.10449 14.7727 1.23747 14.577L5.61458 9.15788H1.18238V7.79004H7.57231ZM15.6948 15.7254C15.5739 15.7254 15.4579 15.6774 15.3724 15.5919C15.2869 15.5064 15.2389 15.3904 15.2389 15.2695V7.79004H16.6077V15.7254H15.6948ZM20.6561 9.50935C21.0685 9.50922 21.4769 9.59032 21.858 9.74803C22.239 9.90573 22.5853 10.1369 22.877 10.4285C23.1687 10.72 23.4001 11.0661 23.558 11.4471C23.716 11.828 23.7973 12.2363 23.7974 12.6487C23.7976 13.0611 23.7165 13.4695 23.5588 13.8506C23.4011 14.2316 23.1698 14.5779 22.8783 14.8696C22.5868 15.1613 22.2407 15.3927 21.8597 15.5506C21.4788 15.7086 21.0704 15.7899 20.658 15.79C19.8252 15.7903 19.0263 15.4597 18.4372 14.8709C17.8481 14.2822 17.517 13.4835 17.5167 12.6506C17.5165 11.8178 17.8471 11.0189 18.4359 10.4298C19.0246 9.8407 19.8233 9.5096 20.6561 9.50935ZM11.0242 14.4991C11.2687 14.5047 11.5118 14.4614 11.7392 14.3716C11.9667 14.2819 12.174 14.1477 12.3488 13.9768C12.5237 13.8059 12.6626 13.6017 12.7574 13.3763C12.8523 13.151 12.9012 12.9089 12.9012 12.6644C12.9012 12.4199 12.8523 12.1779 12.7574 11.9525C12.6626 11.7271 12.5237 11.523 12.3488 11.3521C12.174 11.1811 11.9667 11.0469 11.7392 10.9572C11.5118 10.8675 11.2687 10.8241 11.0242 10.8297C10.5449 10.8406 10.0888 11.0387 9.75362 11.3816C9.41844 11.7245 9.23078 12.1849 9.23078 12.6644C9.23078 13.1439 9.41844 13.6044 9.75362 13.9472C10.0888 14.2901 10.5449 14.4882 11.0242 14.4991ZM20.6561 14.4963C21.1461 14.4963 21.6161 14.3016 21.9625 13.9552C22.309 13.6087 22.5037 13.1387 22.5037 12.6487C22.5037 12.1587 22.309 11.6888 21.9625 11.3423C21.6161 10.9959 21.1461 10.8012 20.6561 10.8012C20.1661 10.8012 19.6962 10.9959 19.3497 11.3423C19.0032 11.6888 18.8086 12.1587 18.8086 12.6487C18.8086 13.1387 19.0032 13.6087 19.3497 13.9552C19.6962 14.3016 20.1661 14.4963 20.6561 14.4963Z" fill="black"/>
</svg>
